%FSTAX23Y23*%
%MOIN*%
%SFA1B1*%

%IPPOS*%
%ADD9500C,0.011800*%
%ADD9501C,0.030000*%
%ADD9502C,0.035400*%
%ADD9503C,0.039400*%
%ADD9504C,0.052000*%
%ADD9505C,0.063000*%
%ADD9506C,0.126000*%
%ADD9507C,0.128000*%
%ADD9508C,0.023600*%
%ADD9509C,0.094100*%
%ADD9510C,0.139800*%
%LNesp_gsm_iot-roundholes-1*%
%LPD*%
G54D9500*
X00445Y00555D03*
X0048D03*
X00515D03*
X0055D03*
X0054Y0047D03*
X00526Y00691D03*
X00491Y00691D03*
X00457D03*
X00456Y00658D03*
X00418Y00656D03*
X00559Y0069D03*
X00593Y00691D03*
X00594Y00657D03*
X00614Y0063D03*
X00815Y005D03*
X00815Y0043D03*
X00935Y0043D03*
X01085D03*
X0117Y0041D03*
X01325Y00255D03*
X01515Y00252D03*
X01515Y0028D03*
Y0022D03*
X016D03*
X01638Y00219D03*
X01675Y0022D03*
X01772Y00231D03*
X01803D03*
X01835D03*
X01866D03*
X01871Y00291D03*
X01839D03*
X01808D03*
X01776D03*
X01745D03*
X01713Y00293D03*
X01899Y00304D03*
X01849Y00381D03*
X01751Y00578D03*
X0159Y0063D03*
X01485Y00435D03*
X00964Y00578D03*
X00785Y00015D03*
X02265Y00235D03*
X0218Y00325D03*
X0225Y00535D03*
X02165Y006D03*
X0212Y0057D03*
X0238Y0061D03*
X0251Y0026D03*
X0275Y0033D03*
X0297Y00325D03*
X03255Y00315D03*
X03595Y0034D03*
X03025Y00649D03*
Y0068D03*
X03916Y00578D03*
X04015Y00381D03*
X03818D03*
X0372Y00185D03*
X04015Y00775D03*
X03916Y00972D03*
X04015Y01169D03*
X03916Y01366D03*
X04015Y01563D03*
X03916Y01759D03*
X04015Y01956D03*
X03916Y02153D03*
X03523D03*
X03326D03*
X03424Y01956D03*
X03227D03*
X03326Y01759D03*
X03523D03*
X03424Y01563D03*
X03227D03*
X03326Y01366D03*
X03523D03*
X03424Y01169D03*
X03227D03*
X03075Y0119D03*
X0305Y01146D03*
X0298Y01075D03*
Y01035D03*
X02979Y00993D03*
X03025Y0088D03*
Y0078D03*
X03326Y00972D03*
X03523D03*
X02405Y00945D03*
X024Y0083D03*
X0216Y00905D03*
X0215Y01055D03*
X02155Y01155D03*
X0228Y0119D03*
X02275Y01285D03*
X0222Y01275D03*
X0234Y0129D03*
X0259Y0121D03*
X02637Y01563D03*
X02243D03*
X02145Y01759D03*
X02175Y0198D03*
X02735Y02153D03*
X02975Y018D03*
X01889Y019D03*
X01746Y01978D03*
X01815Y02075D03*
X01865Y0217D03*
X01535Y02127D03*
X01275Y02125D03*
X01205Y019D03*
X0102Y0186D03*
X00985Y01838D03*
X00925Y01818D03*
X0097Y0174D03*
X0111Y0163D03*
X01161D03*
X01213D03*
X01187Y01595D03*
X01136Y016D03*
X01085Y01595D03*
X01255Y017D03*
X0133Y01635D03*
X0149Y017D03*
X0157Y0164D03*
X0148Y01315D03*
X01259Y01169D03*
X01062D03*
X0116Y00972D03*
X01357D03*
X01259Y00775D03*
X01062D03*
X00964Y00972D03*
X00815Y00835D03*
X00675Y0138D03*
X0064D03*
X006D03*
X00565Y01385D03*
X0056Y013D03*
X00605Y01445D03*
X00635Y01415D03*
X00645Y0149D03*
X0063Y0173D03*
X00795Y01635D03*
X008Y0183D03*
X0089Y0199D03*
X0084Y02145D03*
X0075Y0209D03*
X007Y02055D03*
X0065Y02005D03*
X00605Y01965D03*
X01915Y0139D03*
X01925Y01303D03*
X01925Y01264D03*
X01924Y01224D03*
X0197Y01345D03*
X02021Y01441D03*
X01995Y00935D03*
X01975Y0086D03*
X0205Y00895D03*
X01645Y0086D03*
Y0093D03*
Y0101D03*
X0164Y01105D03*
X01645Y00765D03*
X00472Y00775D03*
Y01169D03*
X0048Y013D03*
X0052D03*
X00405D03*
X0039Y0141D03*
X00425D03*
X0046D03*
X00543Y01412D03*
X00375Y0149D03*
X0014Y01525D03*
X001Y01765D03*
X0032Y0172D03*
X005Y01695D03*
Y01805D03*
X00445Y01975D03*
X00385Y01955D03*
X00322Y02017D03*
X00373Y02153D03*
X00275Y0235D03*
X00385Y02545D03*
X00535Y02515D03*
X0033Y0274D03*
X00245Y02715D03*
X00271Y02807D03*
X00305Y03055D03*
X00415Y0299D03*
X00471Y02976D03*
X0053Y0294D03*
X00555Y0332D03*
X004Y03385D03*
Y03515D03*
X00466Y0351D03*
X00497D03*
X00225Y0345D03*
X00155Y0335D03*
X0023Y0316D03*
X00385Y03225D03*
X00373Y03728D03*
X00582Y03577D03*
X0058Y0354D03*
X0062Y03375D03*
X00659Y03369D03*
X0076Y0341D03*
X00944Y03415D03*
X0101Y03395D03*
X00845Y0318D03*
X0079Y03042D03*
X00685Y03114D03*
X00682Y03227D03*
X00695Y02875D03*
X00668Y02744D03*
X00732Y02556D03*
X0065Y0247D03*
X006D03*
X00925Y02345D03*
X01075Y02475D03*
X01135Y0264D03*
X01235D03*
X01285Y0267D03*
X01335Y0264D03*
X01385Y02665D03*
X01435Y0264D03*
X0149Y0259D03*
X0139Y02375D03*
X01525Y0231D03*
X01653Y0235D03*
X0182Y02384D03*
X01825Y02575D03*
X0184Y02615D03*
X01775Y02815D03*
X021Y03D03*
X0201Y0243D03*
X01015Y0268D03*
X0085Y0267D03*
X0091Y02895D03*
X00974Y02962D03*
X01259Y03137D03*
X01308Y03113D03*
X01456Y03137D03*
X01554Y03334D03*
X01653Y03531D03*
X01849D03*
X01948Y03728D03*
X01751D03*
X01554D03*
X01357D03*
X01259Y03531D03*
X00945Y03715D03*
X0097Y03825D03*
X0077Y03765D03*
X02342Y03728D03*
X02405Y03625D03*
X02637Y03531D03*
X02834D03*
X03031D03*
X03227D03*
X03215Y0367D03*
X03129Y03728D03*
X02932D03*
X02735D03*
Y03334D03*
X02538D03*
X0246Y03155D03*
X02585Y03065D03*
X02243Y03137D03*
X02145Y03334D03*
X03129D03*
X03326D03*
X03523D03*
X03621Y03531D03*
X03424D03*
X03523Y03728D03*
Y0294D03*
X03326D03*
X03129D03*
X02932D03*
X03031Y03137D03*
X03227D03*
Y02744D03*
X03424D03*
X03523Y02547D03*
X03326D03*
X03424Y0235D03*
X03031Y02744D03*
X02834D03*
X02735Y02547D03*
X02342D03*
X02465Y0239D03*
X02243Y0235D03*
X04015D03*
X03916Y02547D03*
X04015Y02744D03*
X03916Y0294D03*
X04015Y03137D03*
X03916Y03334D03*
X04015Y03531D03*
X03818D03*
X0372Y03728D03*
G54D9501*
X01175Y03225D03*
X01275D03*
X01325Y03325D03*
X01225D03*
G54D9502*
X0082Y0008D03*
X0092D03*
X0102D03*
X0112D03*
X0122D03*
X0132D03*
X0142D03*
X0152D03*
X0162D03*
X0172D03*
X0182D03*
X0192D03*
X0202D03*
X0212D03*
X0222D03*
X02335D03*
X02435D03*
X02535D03*
X02635D03*
X02735D03*
X02835D03*
X02935D03*
X03035D03*
X03135D03*
X03235D03*
X03335D03*
X03435D03*
X03535D03*
X03635D03*
X03735D03*
X00065Y02715D03*
Y02815D03*
Y02915D03*
Y03015D03*
Y0315D03*
Y0325D03*
Y0335D03*
Y0345D03*
X0185Y03196D03*
X0195D03*
X0205D03*
X02Y03096D03*
X019D03*
X018D03*
X021D03*
X0215Y03196D03*
G54D9503*
X0049Y0016D03*
X00589D03*
X02257Y02645D03*
X02375D03*
X02493Y02644D03*
Y02853D03*
X02375D03*
X02257Y02853D03*
G54D9504*
X0372Y00553D03*
Y03396D03*
G54D9505*
X01666Y03326D03*
X02284D03*
G54D9506*
X00175Y00175D03*
X04025D03*
X00175Y037D03*
X0175Y03446D03*
X022D03*
X04025Y03705D03*
G54D9507*
X0105Y03575D03*
X0145D03*
G54D9508*
X00489Y03707D03*
X00647D03*
G54D9509*
X04029Y03396D03*
G54D9510*
X04029Y00888D03*
X0341Y03061D03*
M02*