%FSTAX23Y23*%
%MOIN*%
%SFA1B1*%

%IPPOS*%
%ADD10C,0.005000*%
%ADD15C,0.007870*%
%ADD16C,0.005910*%
%ADD18C,0.003940*%
%ADD160C,0.000000*%
%ADD161R,0.024360X0.114960*%
%LNesp_gsm_iot-1*%
%LPD*%
G54D10*
X00389Y00595D02*
X00388Y00604D01*
X00384Y00613*
X00378Y00621*
X00371Y00628*
X00362Y00632*
X00352Y00634*
X00342Y00633*
X00333Y0063*
X00324Y00625*
X00318Y00618*
X00313Y00609*
X0031Y00599*
Y0059*
X00313Y0058*
X00318Y00571*
X00324Y00564*
X00333Y00559*
X00342Y00556*
X00352Y00555*
X00362Y00557*
X00371Y00561*
X00378Y00568*
X00384Y00576*
X00388Y00585*
X00389Y00595*
X02014Y00265D02*
X02013Y00274D01*
X02009Y00283*
X02003Y00291*
X01996Y00298*
X01987Y00302*
X01977Y00304*
X01967Y00303*
X01958Y003*
X01949Y00295*
X01943Y00288*
X01938Y00279*
X01935Y00269*
Y0026*
X01938Y0025*
X01943Y00241*
X01949Y00234*
X01958Y00229*
X01967Y00226*
X01977Y00225*
X01987Y00227*
X01996Y00231*
X02003Y00238*
X02009Y00246*
X02013Y00255*
X02014Y00265*
X00359Y01345D02*
X00358Y01354D01*
X00354Y01363*
X00348Y01371*
X00341Y01378*
X00332Y01382*
X00322Y01384*
X00312Y01383*
X00303Y0138*
X00294Y01375*
X00288Y01368*
X00283Y01359*
X0028Y01349*
Y0134*
X00283Y0133*
X00288Y01321*
X00294Y01314*
X00303Y01309*
X00312Y01306*
X00322Y01305*
X00332Y01307*
X00341Y01311*
X00348Y01318*
X00354Y01326*
X00358Y01335*
X00359Y01345*
X02803Y02155D02*
Y02555D01*
X03195*
Y02155D02*
Y02555D01*
X02803Y02155D02*
X03195D01*
X00298Y00543D02*
Y00646D01*
X00401Y00543D02*
Y00646D01*
X00298D02*
X00401D01*
X00298Y00543D02*
X00401D01*
X02026Y00213D02*
Y00316D01*
X01923Y00213D02*
Y00316D01*
Y00213D02*
X02026D01*
X01923Y00316D02*
X02026D01*
X00268Y01293D02*
X00371D01*
X00268Y01396D02*
X00371D01*
Y01293D02*
Y01396D01*
X00268Y01293D02*
Y01396D01*
G54D15*
X02568Y02488D02*
X0256D01*
X02568*
G54D16*
X00451Y00595D02*
X00445D01*
X00451*
X01879Y00265D02*
X01873D01*
X01879*
X00421Y01345D02*
X00415D01*
X00421*
G54D18*
X02094Y02757D02*
X02092Y02767D01*
X02084Y02774*
X02074Y02777*
X02065Y02774*
X02057Y02767*
X02055Y02757*
X02057Y02747*
X02065Y0274*
X02074Y02737*
X02084Y0274*
X02092Y02747*
X02094Y02757*
X02642Y03547D02*
X0264Y03557D01*
X02632Y03564*
X02623Y03567*
X02613Y03564*
X02606Y03557*
X02603Y03547*
X02606Y03537*
X02613Y0353*
X02623Y03527*
X02632Y0353*
X0264Y03537*
X02642Y03547*
X07315Y05685D02*
X07314Y05695D01*
X07313Y05704*
X07312Y05714*
X07309Y05724*
X07306Y05733*
X07302Y05743*
X07297Y05751*
X07292Y0576*
X07286Y05768*
X07279Y05775*
X07272Y05782*
X07264Y05789*
X07256Y05794*
X07247Y05799*
X07238Y05804*
X07229Y05807*
X07219Y0581*
X07209Y05813*
X072Y05814*
X0719Y05815*
X0528D02*
X05269Y05814D01*
X0526Y05813*
X0525Y05812*
X0524Y05809*
X05231Y05806*
X05221Y05802*
X05213Y05797*
X05204Y05792*
X05196Y05786*
X05189Y05779*
X05182Y05772*
X05175Y05764*
X0517Y05756*
X05165Y05747*
X0516Y05738*
X05157Y05729*
X05154Y05719*
X05151Y05709*
X0515Y057*
X0515Y0569*
X00363Y03283D02*
Y03396D01*
X00296Y03283D02*
Y03396D01*
X00363*
X00296Y03283D02*
X00363D01*
X00466Y02991D02*
Y03028D01*
X00533Y02991D02*
Y03028D01*
X00466D02*
X00533D01*
X00466Y02991D02*
X00533D01*
X00446Y03336D02*
Y03403D01*
X00483Y03336D02*
Y03403D01*
X00446Y03336D02*
X00483D01*
X00446Y03403D02*
X00483D01*
X00391D02*
X00428D01*
X00391Y03336D02*
X00428D01*
Y03403*
X00391Y03336D02*
Y03403D01*
X00771Y03071D02*
X00808D01*
X00771Y03138D02*
X00808D01*
X00771Y03071D02*
Y03138D01*
X00808Y03071D02*
Y03138D01*
X01512Y02838D02*
X01637D01*
X01512Y02901D02*
X01637D01*
X01512Y02838D02*
Y02901D01*
X01637Y02838D02*
Y02901D01*
X00927Y02843D02*
X01052D01*
X00927Y02906D02*
X01052D01*
X00927Y02843D02*
Y02906D01*
X01052Y02843D02*
Y02906D01*
X03048Y00992D02*
Y01117D01*
X03111Y00992D02*
Y01117D01*
X03048D02*
X03111D01*
X03048Y00992D02*
X03111D01*
X03046Y00397D02*
Y00523D01*
X03109Y00397D02*
Y00523D01*
X03046D02*
X03109D01*
X03046Y00397D02*
X03109D01*
X03313Y00458D02*
X04126D01*
X03313Y03491D02*
X04126D01*
Y00458D02*
Y03491D01*
X03313Y00458D02*
Y03491D01*
X01976Y02281D02*
X02043D01*
X01976Y02318D02*
X02043D01*
Y02281D02*
Y02318D01*
X01976Y02281D02*
Y02318D01*
X02283Y0031D02*
X02401D01*
X02283Y00255D02*
X02401D01*
Y0031*
X02283Y00255D02*
Y0031D01*
X02021Y01249D02*
X02058D01*
X02021Y0118D02*
X02058D01*
Y01249*
X02021Y0118D02*
Y01249D01*
X01326Y01708D02*
X01393D01*
X01326Y01671D02*
X01393D01*
X01326D02*
Y01708D01*
X01393Y01671D02*
Y01708D01*
X01241Y0174D02*
Y01807D01*
X01278Y0174D02*
Y01807D01*
X01241Y0174D02*
X01278D01*
X01241Y01807D02*
X01278D01*
X013Y01757D02*
Y01812D01*
Y01757D02*
X01419D01*
X013Y01812D02*
X01419D01*
Y01757D02*
Y01812D01*
X01032Y01576D02*
Y01613D01*
X00965Y01576D02*
Y01613D01*
Y01576D02*
X01032D01*
X00965Y01613D02*
X01032D01*
X0269Y00307D02*
X02809D01*
X0269Y00252D02*
X02809D01*
Y00307*
X0269Y00252D02*
Y00307D01*
X02381Y01185D02*
X02418D01*
X02381Y01254D02*
X02418D01*
X02381Y01185D02*
Y01254D01*
X02418Y01185D02*
Y01254D01*
X01961D02*
X01998D01*
X01961Y01185D02*
X01998D01*
Y01254*
X01961Y01185D02*
Y01254D01*
X03598Y03685D02*
Y03822D01*
X03381D02*
X03598D01*
X03381Y03685D02*
Y03822D01*
Y03685D02*
X03598D01*
X00795Y03528D02*
X00864D01*
X00795Y03491D02*
X00864D01*
X00795D02*
Y03528D01*
X00864Y03491D02*
Y03528D01*
X00795Y03332D02*
X00864D01*
X00795Y03294D02*
X00864D01*
X00795D02*
Y03332D01*
X00864Y03294D02*
Y03332D01*
X00795Y03806D02*
X00864D01*
X00795Y03843D02*
X00864D01*
Y03806D02*
Y03843D01*
X00795Y03806D02*
Y03843D01*
X00827Y03655D02*
X00882D01*
Y03774*
X00827Y03655D02*
Y03774D01*
X00882*
X00795Y03625D02*
X00864D01*
X00795Y03587D02*
X00864D01*
X00795D02*
Y03625D01*
X00864Y03587D02*
Y03625D01*
X00832Y03474D02*
X00887D01*
X00832Y03355D02*
Y03474D01*
X00887Y03355D02*
Y03474D01*
X00832Y03355D02*
X00887D01*
X01573Y00196D02*
Y00263D01*
X01536Y00196D02*
Y00263D01*
X01573*
X01536Y00196D02*
X01573D01*
X00766Y02876D02*
Y02963D01*
X00713Y02876D02*
Y02963D01*
X00766*
X00713Y02876D02*
X00766D01*
X02831Y01265D02*
Y01514D01*
Y01265D02*
X0287Y01226D01*
X03158*
Y01553*
X0287D02*
X03158D01*
X02831Y01514D02*
X0287Y01553D01*
X02171Y02058D02*
X02238D01*
X02171Y02021D02*
X02238D01*
X02171D02*
Y02058D01*
X02238Y02021D02*
Y02058D01*
X01252Y02164D02*
X01337D01*
X01252Y02219D02*
X01337D01*
Y02164D02*
Y02219D01*
X01252Y02164D02*
Y02219D01*
Y02249D02*
X01337D01*
X01252Y02304D02*
X01337D01*
Y02249D02*
Y02304D01*
X01252Y02249D02*
Y02304D01*
X01411Y02288D02*
Y02326D01*
X01478Y02288D02*
Y02326D01*
X01411D02*
X01478D01*
X01411Y02288D02*
X01478D01*
X01396Y02258D02*
X01433D01*
X01396Y02191D02*
X01433D01*
Y02258*
X01396Y02191D02*
Y02258D01*
X01451Y02255D02*
X01488D01*
X01451Y02188D02*
X01488D01*
Y02255*
X01451Y02188D02*
Y02255D01*
X00276Y03141D02*
X00313D01*
X00276Y03208D02*
X00313D01*
X00276Y03141D02*
Y03208D01*
X00313Y03141D02*
Y03208D01*
X00331Y03141D02*
X00368D01*
X00331Y03208D02*
X00368D01*
X00331Y03141D02*
Y03208D01*
X00368Y03141D02*
Y03208D01*
X02243Y02136D02*
X02296D01*
X02243Y02223D02*
X02296D01*
X02243Y02136D02*
Y02223D01*
X02296Y02136D02*
Y02223D01*
X00806Y02886D02*
Y02924D01*
X00873Y02886D02*
Y02924D01*
X00806D02*
X00873D01*
X00806Y02886D02*
X00873D01*
X00346Y0288D02*
X00383D01*
X00346Y02947D02*
X00383D01*
X00346Y0288D02*
Y02947D01*
X00383Y0288D02*
Y02947D01*
X00446Y0288D02*
X00483D01*
X00446Y02947D02*
X00483D01*
X00446Y0288D02*
Y02947D01*
X00483Y0288D02*
Y02947D01*
X00453Y02733D02*
Y02819D01*
X00506Y02733D02*
Y02819D01*
X00453Y02733D02*
X00506D01*
X00453Y02819D02*
X00506D01*
X00358Y02736D02*
Y02823D01*
X00411Y02736D02*
Y02823D01*
X00358Y02736D02*
X00411D01*
X00358Y02823D02*
X00411D01*
X00251Y01078D02*
Y01131D01*
X00338Y01078D02*
Y01131D01*
X00251D02*
X00338D01*
X00251Y01078D02*
X00338D01*
X00422Y00936D02*
Y00973D01*
X00489Y00936D02*
Y00973D01*
X00422D02*
X00489D01*
X00422Y00936D02*
X00489D01*
X00161Y01811D02*
X00228D01*
X00161Y01848D02*
X00228D01*
Y01811D02*
Y01848D01*
X00161Y01811D02*
Y01848D01*
Y01751D02*
X00228D01*
X00161Y01788D02*
X00228D01*
Y01751D02*
Y01788D01*
X00161Y01751D02*
Y01788D01*
X00341Y01811D02*
X00408D01*
X00341Y01848D02*
X00408D01*
Y01811D02*
Y01848D01*
X00341Y01811D02*
Y01848D01*
X01473Y01813D02*
X01511D01*
X01473Y01746D02*
X01511D01*
Y01813*
X01473Y01746D02*
Y01813D01*
X0166Y01757D02*
Y01812D01*
X01542D02*
X0166D01*
X01542Y01757D02*
X0166D01*
X01542D02*
Y01812D01*
X01635Y01671D02*
Y01708D01*
X01568Y01671D02*
Y01708D01*
Y01671D02*
X01635D01*
X01568Y01708D02*
X01635D01*
X01416Y02516D02*
Y02553D01*
X01483Y02516D02*
Y02553D01*
X01416D02*
X01483D01*
X01416Y02516D02*
X01483D01*
X01871Y02565D02*
X01908D01*
X01871Y02634D02*
X01908D01*
X01871Y02565D02*
Y02634D01*
X01908Y02565D02*
Y02634D01*
X01239Y02484D02*
X01323D01*
X01239Y02539D02*
X01323D01*
Y02484D02*
Y02539D01*
X01239Y02484D02*
Y02539D01*
X01237Y02394D02*
X01322D01*
X01237Y02449D02*
X01322D01*
Y02394D02*
Y02449D01*
X01237Y02394D02*
Y02449D01*
X01391Y02482D02*
X01429D01*
X01391Y02415D02*
X01429D01*
Y02482*
X01391Y02415D02*
Y02482D01*
X01451D02*
X01488D01*
X01451Y02415D02*
X01488D01*
Y02482*
X01451Y02415D02*
Y02482D01*
X02037Y02407D02*
X02122D01*
X02037Y02352D02*
X02122D01*
X02037D02*
Y02407D01*
X02122Y02352D02*
Y02407D01*
X01883Y02191D02*
Y02228D01*
X01816Y02191D02*
Y02228D01*
Y02191D02*
X01883D01*
X01816Y02228D02*
X01883D01*
X02037Y02147D02*
X02122D01*
X02037Y02092D02*
X02122D01*
X02037D02*
Y02147D01*
X02122Y02092D02*
Y02147D01*
X01766Y01983D02*
X01803D01*
X01766Y01916D02*
X01803D01*
Y01983*
X01766Y01916D02*
Y01983D01*
X01971Y01965D02*
Y02002D01*
X02038Y01965D02*
Y02002D01*
X01971D02*
X02038D01*
X01971Y01965D02*
X02038D01*
X02141Y00874D02*
X02178D01*
X02141Y00805D02*
X02178D01*
Y00874*
X02141Y00805D02*
Y00874D01*
X02666Y01148D02*
X02703D01*
X02666Y01217D02*
X02703D01*
X02666Y01148D02*
Y01217D01*
X02703Y01148D02*
Y01217D01*
X02791Y01081D02*
Y01168D01*
X02738Y01081D02*
Y01168D01*
X02791*
X02738Y01081D02*
X02791D01*
X02274Y00581D02*
Y00618D01*
X02205Y00581D02*
Y00618D01*
Y00581D02*
X02274D01*
X02205Y00618D02*
X02274D01*
X02324Y00682D02*
Y00737D01*
X02435Y00682D02*
Y00737D01*
X02324Y00682D02*
X02435D01*
X02324Y00737D02*
X02435D01*
X02205Y00636D02*
Y00673D01*
X02274Y00636D02*
Y00673D01*
X02205D02*
X02274D01*
X02205Y00636D02*
X02274D01*
X02205Y00741D02*
Y00778D01*
X02274Y00741D02*
Y00778D01*
X02205D02*
X02274D01*
X02205Y00741D02*
X02274D01*
X02205Y00691D02*
Y00728D01*
X02274Y00691D02*
Y00728D01*
X02205D02*
X02274D01*
X02205Y00691D02*
X02274D01*
X02527Y00622D02*
X02612D01*
X02527Y00567D02*
X02612D01*
X02527D02*
Y00622D01*
X02612Y00567D02*
Y00622D01*
X02527Y00712D02*
X02612D01*
X02527Y00657D02*
X02612D01*
X02527D02*
Y00712D01*
X02612Y00657D02*
Y00712D01*
X02527Y00802D02*
X02612D01*
X02527Y00747D02*
X02612D01*
X02527D02*
Y00802D01*
X02612Y00747D02*
Y00802D01*
X02528Y00892D02*
X02612D01*
X02528Y00837D02*
X02612D01*
X02528D02*
Y00892D01*
X02612Y00837D02*
Y00892D01*
X02751Y00885D02*
X02788D01*
X02751Y00954D02*
X02788D01*
X02751Y00885D02*
Y00954D01*
X02788Y00885D02*
Y00954D01*
X02821Y00765D02*
X02858D01*
X02821Y00834D02*
X02858D01*
X02821Y00765D02*
Y00834D01*
X02858Y00765D02*
Y00834D01*
X02471Y01216D02*
X02508D01*
X02471Y01147D02*
X02508D01*
Y01216*
X02471Y01147D02*
Y01216D01*
X02821Y00883D02*
X02858D01*
X02821Y00952D02*
X02858D01*
X02821Y00883D02*
Y00952D01*
X02858Y00883D02*
Y00952D01*
X02116Y0283D02*
X02153D01*
X02116Y02899D02*
X02153D01*
X02116Y0283D02*
Y02899D01*
X02153Y0283D02*
Y02899D01*
X01909Y02792D02*
X0211D01*
X01909Y02517D02*
X0211D01*
Y02792*
X01909Y02517D02*
Y02792D01*
X00249Y02756D02*
Y02793D01*
X0018Y02756D02*
Y02793D01*
Y02756D02*
X00249D01*
X0018Y02793D02*
X00249D01*
Y02821D02*
Y02858D01*
X0018Y02821D02*
Y02858D01*
Y02821D02*
X00249D01*
X0018Y02858D02*
X00249D01*
X02589Y03136D02*
Y03173D01*
X0252Y03136D02*
Y03173D01*
Y03136D02*
X02589D01*
X0252Y03173D02*
X02589D01*
X02594Y03706D02*
Y03743D01*
X02525Y03706D02*
Y03743D01*
Y03706D02*
X02594D01*
X02525Y03743D02*
X02594D01*
X03526Y00245D02*
X03563D01*
X03526Y00314D02*
X03563D01*
X03526Y00245D02*
Y00314D01*
X03563Y00245D02*
Y00314D01*
X03469Y00245D02*
X03507D01*
X03469Y00314D02*
X03507D01*
X03469Y00245D02*
Y00314D01*
X03507Y00245D02*
Y00314D01*
X03209Y00245D02*
X03247D01*
X03209Y00314D02*
X03247D01*
X03209Y00245D02*
Y00314D01*
X03247Y00245D02*
Y00314D01*
X03153Y00245D02*
X0319D01*
X03153Y00314D02*
X0319D01*
X03153Y00245D02*
Y00314D01*
X0319Y00245D02*
Y00314D01*
X02916Y00245D02*
X02953D01*
X02916Y00314D02*
X02953D01*
X02916Y00245D02*
Y00314D01*
X02953Y00245D02*
Y00314D01*
X02861Y00245D02*
X02898D01*
X02861Y00314D02*
X02898D01*
X02861Y00245D02*
Y00314D01*
X02898Y00245D02*
Y00314D01*
X02631Y00245D02*
X02668D01*
X02631Y00314D02*
X02668D01*
X02631Y00245D02*
Y00314D01*
X02668Y00245D02*
Y00314D01*
X02571Y00245D02*
X02608D01*
X02571Y00314D02*
X02608D01*
X02571Y00245D02*
Y00314D01*
X02608Y00245D02*
Y00314D01*
X01809Y02742D02*
Y0278D01*
X0174Y02742D02*
Y0278D01*
Y02742D02*
X01809D01*
X0174Y0278D02*
X01809D01*
X02291Y00384D02*
X02328D01*
X02291Y00451D02*
X02328D01*
X02291Y00384D02*
Y00451D01*
X02328Y00384D02*
Y00451D01*
X02198Y00384D02*
X02236D01*
X02198Y00451D02*
X02236D01*
X02198Y00384D02*
Y00451D01*
X02236Y00384D02*
Y00451D01*
X02133Y00384D02*
X02171D01*
X02133Y00451D02*
X02171D01*
X02133Y00384D02*
Y00451D01*
X02171Y00384D02*
Y00451D01*
X01113Y00278D02*
X01226D01*
X01113Y00211D02*
X01226D01*
X01113D02*
Y00278D01*
X01226Y00211D02*
Y00278D01*
X00553Y00626D02*
Y00663D01*
X00486Y00626D02*
Y00663D01*
Y00626D02*
X00553D01*
X00486Y00663D02*
X00553D01*
X00486Y00576D02*
Y00613D01*
X00553Y00576D02*
Y00613D01*
X00486D02*
X00553D01*
X00486Y00576D02*
X00553D01*
X00483Y01436D02*
X00506D01*
X00483Y01393D02*
X00506D01*
Y01436*
X00483Y01393D02*
Y01436D01*
X01696Y00196D02*
X01733D01*
X01696Y00263D02*
X01733D01*
X01696Y00196D02*
Y00263D01*
X01733Y00196D02*
Y00263D01*
X01601Y00241D02*
Y00278D01*
X01668Y00241D02*
Y00278D01*
X01601D02*
X01668D01*
X01601Y00241D02*
X01668D01*
X02086Y01091D02*
X02153D01*
X02086Y01128D02*
X02153D01*
Y01091D02*
Y01128D01*
X02086Y01091D02*
Y01128D01*
X02118Y01181D02*
Y01248D01*
X02081Y01181D02*
Y01248D01*
X02118*
X02081Y01181D02*
X02118D01*
X02261Y01185D02*
X02298D01*
X02261Y01252D02*
X02298D01*
X02261Y01185D02*
Y01252D01*
X02298Y01185D02*
Y01252D01*
X02321Y01185D02*
Y01252D01*
X02358Y01185D02*
Y01252D01*
X02321Y01185D02*
X02358D01*
X02321Y01252D02*
X02358D01*
X02444Y01922D02*
X02625D01*
X02444Y02037D02*
X02625D01*
Y01922D02*
Y02037D01*
X02444Y01922D02*
Y02037D01*
X02521Y02226D02*
Y02293D01*
X02558Y02226D02*
Y02293D01*
X02521Y02226D02*
X02558D01*
X02521Y02293D02*
X02558D01*
X02451Y02226D02*
Y02293D01*
X02488Y02226D02*
Y02293D01*
X02451Y02226D02*
X02488D01*
X02451Y02293D02*
X02488D01*
X02476Y02368D02*
X02543D01*
X02476Y02331D02*
X02543D01*
X02476D02*
Y02368D01*
X02543Y02331D02*
Y02368D01*
X02521Y02416D02*
Y02483D01*
X02558Y02416D02*
Y02483D01*
X02521Y02416D02*
X02558D01*
X02521Y02483D02*
X02558D01*
X02722Y0274D02*
Y02989D01*
Y0274D02*
X028Y02662D01*
X03127*
Y03067*
X028D02*
X03127D01*
X02722Y02989D02*
X028Y03067D01*
X02457Y03307D02*
Y03582D01*
X02658Y03307D02*
Y03582D01*
X02457Y03307D02*
X02658D01*
X02457Y03582D02*
X02658D01*
X01834Y02842D02*
Y02897D01*
X01715Y02842D02*
Y02897D01*
X01834*
X01715Y02842D02*
X01834D01*
X0327Y00257D02*
Y00312D01*
X03389Y00257D02*
Y00312D01*
X0327Y00257D02*
X03389D01*
X0327Y00312D02*
X03389D01*
X03587Y00257D02*
Y00312D01*
X03705Y00257D02*
Y00312D01*
X03587Y00257D02*
X03705D01*
X03587Y00312D02*
X03705D01*
X02975Y00252D02*
Y00307D01*
X03094Y00252D02*
Y00307D01*
X02975Y00252D02*
X03094D01*
X02975Y00307D02*
X03094D01*
X02666Y01826D02*
Y01863D01*
X02733Y01826D02*
Y01863D01*
X02666D02*
X02733D01*
X02666Y01826D02*
X02733D01*
X00279Y02927D02*
Y02982D01*
X0016Y02927D02*
Y02982D01*
X00279*
X0016Y02927D02*
X00279D01*
X00733Y01731D02*
X00846D01*
X00733Y01798D02*
X00846D01*
Y01731D02*
Y01798D01*
X00733Y01731D02*
Y01798D01*
X00341Y01756D02*
Y01793D01*
X00408Y01756D02*
Y01793D01*
X00341D02*
X00408D01*
X00341Y01756D02*
X00408D01*
X02128Y0031D02*
X02246D01*
X02128Y00255D02*
X02246D01*
Y0031*
X02128Y00255D02*
Y0031D01*
X00618Y00531D02*
Y00598D01*
X00581Y00531D02*
Y00598D01*
X00618*
X00581Y00531D02*
X00618D01*
X00502Y0101D02*
Y01129D01*
X00447Y0101D02*
Y01129D01*
Y0101D02*
X00502D01*
X00447Y01129D02*
X00502D01*
X00306Y01038D02*
X00373D01*
X00306Y01001D02*
X00373D01*
X00306D02*
Y01038D01*
X00373Y01001D02*
Y01038D01*
X00593Y00936D02*
Y00973D01*
X00527Y00936D02*
Y00973D01*
Y00936D02*
X00593D01*
X00527Y00973D02*
X00593D01*
X00463Y01281D02*
Y01348D01*
X00426Y01281D02*
Y01348D01*
X00463*
X00426Y01281D02*
X00463D01*
X00491Y01326D02*
Y01363D01*
X00558Y01326D02*
Y01363D01*
X00491D02*
X00558D01*
X00491Y01326D02*
X00558D01*
X00623Y01281D02*
Y01348D01*
X00586Y01281D02*
Y01348D01*
X00623*
X00586Y01281D02*
X00623D01*
X01953Y01051D02*
Y01118D01*
X01916Y01051D02*
Y01118D01*
X01953*
X01916Y01051D02*
X01953D01*
X02393Y00384D02*
Y00451D01*
X02355Y00384D02*
Y00451D01*
X02393*
X02355Y00384D02*
X02393D01*
X00966Y00233D02*
X01033D01*
X00966Y00196D02*
X01033D01*
X00966D02*
Y00233D01*
X01033Y00196D02*
Y00233D01*
X00965Y01673D02*
X01032D01*
X00965Y01636D02*
X01032D01*
X00965D02*
Y01673D01*
X01032Y01636D02*
Y01673D01*
X00966Y00288D02*
X01033D01*
X00966Y00251D02*
X01033D01*
X00966D02*
Y00288D01*
X01033Y00251D02*
Y00288D01*
X00748Y03071D02*
Y03138D01*
X00711Y03071D02*
Y03138D01*
X00748*
X00711Y03071D02*
X00748D01*
X00831Y02778D02*
X00898D01*
X00831Y02741D02*
X00898D01*
X00831D02*
Y02778D01*
X00898Y02741D02*
Y02778D01*
X00806Y02983D02*
X00873D01*
X00806Y02946D02*
X00873D01*
X00806D02*
Y02983D01*
X00873Y02946D02*
Y02983D01*
G54D160*
X00361Y00595D02*
X00357Y00604D01*
X00347Y00606*
X00339Y006*
Y00589*
X00347Y00583*
X00357Y00585*
X00361Y00595*
X01986Y00265D02*
X01982Y00274D01*
X01972Y00276*
X01964Y0027*
Y00259*
X01972Y00253*
X01982Y00255*
X01986Y00265*
X00331Y01345D02*
X00327Y01354D01*
X00317Y01356*
X00309Y0135*
Y01339*
X00317Y01333*
X00327Y01335*
X00331Y01345*
G54D161*
X02613Y0198D03*
M02*