%FSTAX23Y23*%
%MOIN*%
%SFA1B1*%

%IPPOS*%
%ADD11C,0.010000*%
%ADD12C,0.011810*%
%ADD13C,0.019680*%
%ADD19R,0.066930X0.049210*%
%ADD20R,0.035430X0.010000*%
%ADD21R,0.010000X0.035430*%
%ADD22R,0.037400X0.035430*%
%ADD23O,0.035000X0.070000*%
%ADD24O,0.070000X0.035000*%
%ADD25R,0.157500X0.157500*%
%ADD26R,0.029530X0.039370*%
%ADD27R,0.015750X0.082680*%
%ADD28R,0.059060X0.039370*%
%ADD29R,0.074800X0.074800*%
%ADD30R,0.039370X0.029530*%
%ADD31R,0.035430X0.015750*%
%ADD32R,0.017720X0.035430*%
%ADD33O,0.087840X0.023700*%
%ADD34R,0.086910X0.093540*%
%ADD35R,0.035430X0.017720*%
%ADD36R,0.021650X0.039370*%
%ADD37O,0.070870X0.027560*%
%ADD38O,0.027560X0.070870*%
%ADD39R,0.023620X0.045280*%
%ADD40R,0.035430X0.031500*%
%ADD41R,0.031500X0.035430*%
%ADD42R,0.066930X0.145670*%
%ADD43R,0.031500X0.035430*%
%ADD44R,0.035430X0.031500*%
%ADD45R,0.085040X0.042130*%
%ADD46R,0.047240X0.047240*%
%ADD47R,0.165350X0.086610*%
%ADD48R,0.055120X0.078740*%
%ADD49R,0.047240X0.055120*%
%ADD50R,0.047240X0.047240*%
%ADD51R,0.086910X0.102050*%
%ADD52R,0.098430X0.137790*%
%ADD53R,0.047240X0.023620*%
%ADD54R,0.078740X0.055120*%
%ADD55O,0.055120X0.082680*%
%ADD56R,0.035430X0.037400*%
%ADD57R,0.086610X0.041340*%
%ADD58R,0.041340X0.039370*%
%ADD59R,0.025980X0.024410*%
%ADD60R,0.027560X0.035430*%
%ADD61R,0.035430X0.027560*%
%ADD62R,0.196850X0.118110*%
%ADD63R,0.098430X0.066930*%
%ADD64R,0.183070X0.090550*%
%ADD65O,0.023700X0.087840*%
%ADD66R,0.027560X0.016540*%
%ADD67R,0.070870X0.051180*%
%ADD68R,0.047240X0.035430*%
%ADD69R,0.045280X0.023620*%
%ADD138R,0.122050X0.122050*%
%ADD139R,0.050000X0.025000*%
%ADD140C,0.039370*%
%ADD141C,0.027560*%
%ADD142C,0.270000*%
%ADD143C,0.023620*%
%ADD144O,0.043310X0.094490*%
%ADD145C,0.137800*%
%ADD146O,0.068900X0.098430*%
%ADD147C,0.058580*%
%ADD148R,0.059060X0.059060*%
%ADD149C,0.059060*%
%ADD150O,0.157480X0.078740*%
%ADD151O,0.078740X0.157480*%
%ADD152C,0.118110*%
%ADD153O,0.059060X0.078740*%
%ADD154C,0.060000*%
%ADD155R,0.059060X0.059060*%
%LNesp_gsm_v1.1-1*%
%LPD*%
G36*
X04003Y03875D02*
X04023Y03875D01*
X04061Y03867*
X04098Y03852*
X0413Y03829*
X04157Y03801*
X04179Y03768*
X04193Y03732*
X04201Y03693*
X042Y03674*
Y00192*
Y00173*
X04193Y00135*
X04178Y00099*
X04156Y00067*
X04129Y00039*
X04097Y00018*
X04061Y00003*
X04023Y-00004*
X04003*
X00725*
X00722Y00003*
X00727Y00007*
X00763Y00042*
X0077Y00039*
Y0003*
X00869*
Y00053*
X00877Y00055*
X00884Y00044*
X009Y00033*
X0092Y00029*
X00939Y00033*
X00955Y00044*
X00965Y00059*
X0097Y0006*
X00974Y00059*
X00984Y00044*
X01Y00033*
X0102Y00029*
X01039Y00033*
X01055Y00044*
X01065Y00059*
X0107Y0006*
X01074Y00059*
X01084Y00044*
X011Y00033*
X0112Y00029*
X01139Y00033*
X01155Y00044*
X01165Y00059*
X0117Y0006*
X01174Y00059*
X01184Y00044*
X012Y00033*
X0122Y00029*
X01239Y00033*
X01255Y00044*
X01265Y00059*
X0127Y0006*
X01274Y00059*
X01284Y00044*
X013Y00033*
X0132Y00029*
X01339Y00033*
X01355Y00044*
X01365Y00059*
X0137Y0006*
X01374Y00059*
X01384Y00044*
X014Y00033*
X0142Y00029*
X01439Y00033*
X01455Y00044*
X01465Y00059*
X0147Y0006*
X01474Y00059*
X01484Y00044*
X015Y00033*
X0152Y00029*
X01539Y00033*
X01555Y00044*
X01565Y00059*
X0157Y0006*
X01574Y00059*
X01584Y00044*
X016Y00033*
X0162Y00029*
X01639Y00033*
X01655Y00044*
X01665Y00059*
X0167Y0006*
X01674Y00059*
X01684Y00044*
X017Y00033*
X0172Y00029*
X01739Y00033*
X01755Y00044*
X01765Y00059*
X0177Y0006*
X01774Y00059*
X01784Y00044*
X018Y00033*
X0182Y00029*
X01839Y00033*
X01855Y00044*
X01865Y00059*
X0187Y0006*
X01874Y00059*
X01884Y00044*
X019Y00033*
X0192Y00029*
X01939Y00033*
X01955Y00044*
X01966Y0006*
X0197Y0008*
X01966Y00096*
X01971Y00104*
X02168*
X02173Y00096*
X02169Y0008*
X02173Y0006*
X02184Y00044*
X022Y00033*
X0222Y00029*
X02239Y00033*
X02255Y00044*
X02266Y0006*
X0227Y0008*
X02266Y00096*
X02271Y00104*
X02285*
Y0003*
X02384*
Y00053*
X02392Y00055*
X02399Y00044*
X02415Y00033*
X02435Y00029*
X02454Y00033*
X0247Y00044*
X0248Y00059*
X02485Y0006*
X02489Y00059*
X02499Y00044*
X02515Y00033*
X02535Y00029*
X02554Y00033*
X0257Y00044*
X0258Y00059*
X02585Y0006*
X02589Y00059*
X02599Y00044*
X02615Y00033*
X02635Y00029*
X02654Y00033*
X0267Y00044*
X0268Y00059*
X02685Y0006*
X02689Y00059*
X02699Y00044*
X02715Y00033*
X02735Y00029*
X02754Y00033*
X0277Y00044*
X0278Y00059*
X02785Y0006*
X02789Y00059*
X02799Y00044*
X02815Y00033*
X02835Y00029*
X02854Y00033*
X0287Y00044*
X0288Y00059*
X02885Y0006*
X02889Y00059*
X02899Y00044*
X02915Y00033*
X02935Y00029*
X02954Y00033*
X0297Y00044*
X0298Y00059*
X02985Y0006*
X02989Y00059*
X02999Y00044*
X03015Y00033*
X03035Y00029*
X03054Y00033*
X0307Y00044*
X03081Y0006*
X03085Y0008*
X03082Y00091*
X03089Y00099*
X03345*
X03354Y00101*
X03363Y00106*
X0342Y00164*
X03625*
X03635Y00166*
X03643Y00171*
X03667Y00195*
X03669Y00198*
X03677*
Y00214*
X0372*
X0373Y00216*
X03739Y00222*
X03748Y00231*
X03754Y0024*
X03756Y0025*
Y0036*
X03754Y00369*
X03748Y00378*
X03688Y00438*
X03679Y00444*
X0367Y00446*
X0361*
X03605Y00445*
X03455*
X03435Y00465*
Y0085*
X03433Y00859*
X03427Y00867*
X03347Y00947*
X03339Y00953*
X0333Y00955*
X03281*
X03274Y00959*
X03262Y00962*
X03198*
X03186Y00959*
X03175Y00952*
X03168Y00942*
X03166Y0093*
X03168Y00917*
X03171Y00913*
X03167Y00905*
X03155*
X03145Y00903*
X03137Y00897*
X03107Y00867*
X03101Y00859*
X03099Y0085*
Y00536*
X03099Y00536*
X03052*
X03044Y00537*
X03036Y00536*
X03007*
Y00474*
X0258*
Y00491*
Y00887*
X02579Y00889*
Y00891*
X02579Y00894*
X02578Y00896*
X02578Y00896*
Y00912*
X02566*
X02565Y00913*
X02534Y00944*
X02524Y00953*
X02523Y00954*
X02523Y00955*
X02501Y00977*
X02498Y00978*
Y01013*
Y01063*
Y01119*
X02527*
Y0119*
X02452*
Y01174*
X02451Y01173*
X02437Y01158*
X02431Y0115*
X02429Y0114*
Y01126*
X02412*
Y0112*
X0241*
X024Y01118*
X02392Y01112*
X02379Y011*
X02211*
X02208Y01105*
X02208Y01107*
X02213Y01115*
X02215Y01125*
Y01133*
X02222Y01136*
X02237Y01122*
X02245Y01116*
X02255Y01114*
X0231*
X02319Y01116*
X02327Y01122*
X02357Y01152*
X0236Y01155*
X02377*
Y01212*
X02437*
Y01282*
X02376*
X02371Y01289*
X02372Y0129*
X02369Y01302*
X02362Y01312*
X02352Y01319*
X0234Y01322*
X02327Y01319*
X02317Y01312*
X0231Y01302*
X02302Y01301*
X02297Y01307*
X02287Y01314*
X02275Y01317*
X02262Y01314*
X02252Y01307*
X02245Y01297*
X02243Y01288*
X0224Y01281*
Y01272*
X02221*
X02217Y01278*
X02182Y01312*
X02174Y01318*
X02165Y0132*
X02115*
X02032Y01403*
X02034Y01412*
X02043Y01418*
X0205Y01428*
X02053Y01441*
X02053Y01441*
X02058Y01447*
X02064*
Y01522*
X02002*
Y01547*
X02008*
X0201Y01547*
X02064*
Y01597*
Y01647*
Y01697*
Y01772*
X01985*
X01982Y0178*
X0207Y01868*
X02127*
Y01795*
X02237*
Y01868*
X02296*
X02337Y01826*
Y01758*
X0234Y01743*
X02349Y0173*
X02444Y01635*
X02457Y01626*
X02473Y01623*
X02683*
X02689Y01615*
Y01322*
X0269Y0132*
Y01318*
X0269Y01316*
X02693Y01309*
X02694Y01307*
X02696Y01305*
X02697Y01304*
X02762Y01239*
X02794Y01206*
Y01126*
X02722*
Y01174*
Y01196*
X02725Y0121*
X02722Y01223*
Y01245*
X02702*
X027Y01247*
X02685Y0125*
X0259*
X02574Y01247*
X02561Y01238*
X02561Y01238*
X02552Y01225*
X02549Y0121*
X02552Y01194*
X02561Y01181*
X02574Y01172*
X0259Y01169*
X0259Y01169*
X02647*
Y01126*
X02641*
Y01063*
Y01013*
Y00975*
X0264Y00974*
X0264Y00971*
Y00969*
X02639Y00967*
Y00934*
X02641Y00927*
Y00913*
X02653*
X02656Y00911*
X02664Y00909*
X02802*
Y00862*
Y00792*
X02877*
Y00854*
Y00909*
X02883Y00909*
X02883*
X02883Y00909*
X02884Y0091*
X02885Y0091*
X02885Y0091*
X02887Y0091*
X02889Y0091*
X02889Y0091*
X02889Y0091*
X0289Y00911*
X02892Y00911*
X02893Y00912*
X02894Y00912*
X02896Y00914*
X02897Y00914*
X02897Y00914*
X02897Y00914*
X02899Y00915*
X029Y00916*
X029Y00917*
X029Y00917*
X029Y00917*
X02901Y00918*
X02946Y00974*
X02953Y00974*
X02956Y0097*
X02967Y00963*
X02979Y0096*
X02991Y00963*
X03002Y0097*
X03004Y00973*
X03009Y00979*
X03105*
X03113Y00977*
X03121Y00979*
X0315*
Y0101*
Y01042*
Y01073*
Y0113*
X03143*
Y01151*
X03141Y01163*
X03134Y01172*
X03126Y01181*
X03123Y01184*
X03101Y01207*
X03097Y01212*
X03087Y01219*
X03075Y01222*
X03062Y01219*
X03052Y01212*
X03045Y01202*
X03042Y0119*
X03045Y01177*
X03037Y01176*
X03027Y01169*
X0302Y01159*
X03018Y01146*
X03019Y01138*
X03014Y0113*
X03009*
Y011*
X03002Y01098*
X03001Y01098*
X02992Y01104*
X0298Y01107*
X02969Y01104*
X02961Y01109*
X0296Y01251*
X0296Y01386*
X03117Y01544*
X03118Y01545*
X0312Y01547*
X03121Y01549*
X03124Y01556*
X03124Y01558*
Y0156*
X03125Y01562*
Y01852*
X03124Y01854*
Y01856*
X03124Y01858*
X03121Y01865*
X0312Y01867*
X03118Y01869*
X03117Y0187*
X03105Y01882*
X03104Y01883*
X03102Y01885*
X031Y01886*
X03093Y01889*
X03091Y01889*
X03089*
X03087Y0189*
X02712*
X0271Y01889*
X02708*
X02706Y01889*
X02702Y01887*
X02699Y01886*
X02697Y01884*
X02694*
Y01881*
X02693Y0188*
X0269Y01873*
X0269Y01871*
Y01869*
X02689Y01867*
Y01844*
X02689Y01843*
X02689Y01843*
Y01703*
X02489*
X02418Y01775*
Y01843*
X02415Y01858*
X02406Y01871*
X02341Y01936*
X02328Y01945*
X02313Y01948*
X02211*
X02207Y01956*
X02213Y01966*
X02216Y01981*
Y02*
X02267*
Y02015*
X02273Y02016*
X02281Y02022*
X02287Y02028*
X02293Y02036*
X02295Y02045*
Y02095*
X02313*
Y02181*
X02226*
Y02095*
X02244*
Y02079*
X0219*
X02186Y02082*
X02171Y02085*
X02087*
Y02167*
X02084*
Y02313*
X02085Y02315*
Y02332*
X02087*
Y02423*
X02094Y02428*
X02104Y02443*
X02108Y02462*
Y02489*
X02104Y02508*
X02094Y02523*
X02083Y0253*
Y02531*
X02081Y02543*
X02074Y02553*
X02033Y02593*
X02024Y026*
X02012Y02602*
X01927*
Y02662*
X0189*
X01887Y0267*
X01903Y02686*
X01912Y02699*
X01915Y02715*
Y0274*
X01917Y02741*
X01923Y02742*
X01928Y02733*
X01973Y02688*
X01983Y02682*
X01995Y02679*
X02331*
X02335Y02672*
X02329Y02664*
X02325Y02645*
X02329Y02625*
X0234Y02609*
X02356Y02598*
X02375Y02595*
X02394Y02598*
X0241Y02609*
X02421Y02625*
X02425Y02645*
X02422Y02662*
X02428Y02666*
X02428Y02667*
X02444Y0265*
X02443Y02644*
X02447Y02625*
X02458Y02609*
X02467Y02603*
X02465Y02595*
X0246*
X02444Y02592*
X02431Y02583*
X02361Y02513*
X02352Y025*
X02349Y02485*
Y02275*
X02352Y02259*
X02361Y02246*
X02405Y02203*
X02418Y02194*
X02433Y02191*
X0247*
X02485Y02194*
X02489Y02197*
X02542*
X02544Y02196*
X02575*
Y0218*
X027*
Y02247*
Y02314*
X02873*
Y02183*
X02875Y02176*
X02879Y02169*
X02886Y02165*
X02894Y02163*
X02949*
Y02063*
X02871*
Y02022*
X02682*
Y02033*
X02544*
Y01926*
X02682*
Y01942*
X02871*
Y01906*
X03108*
Y02063*
X0303*
Y02163*
X03118*
Y02142*
X03119Y02134*
X03123Y02128*
X0313Y02123*
X03138Y02122*
X03195*
X03203Y02123*
X0321Y02128*
X03214Y02134*
X03216Y02142*
Y02567*
X03214Y02575*
X0321Y02581*
X03203Y02586*
X03195Y02587*
X03138*
X0313Y02586*
X03123Y02581*
X03119Y02575*
X03118Y02567*
Y02546*
X02894*
X02886Y02544*
X02879Y0254*
X02875Y02533*
X02873Y02526*
Y02395*
X027*
Y02462*
X02575*
Y02455*
X025*
Y0242*
X02492Y02418*
X0248Y02427*
X02465Y0243*
X02449Y02427*
X02438Y02419*
X0243Y02421*
Y02468*
X02476Y02514*
X02575*
X0259Y02517*
X02603Y02526*
X02766Y02689*
X02775Y02702*
X02778Y02717*
Y028*
X02849*
Y02929*
X02778*
Y02956*
X02993Y03171*
X03002Y03184*
X03005Y032*
Y03274*
X03027Y03279*
X03046Y03292*
X0306Y03311*
X03064Y03335*
X0306Y03358*
X03046Y03377*
X03027Y0339*
X03004Y03395*
X02925*
X02902Y0339*
X02883Y03377*
X0287Y03358*
X02865Y03335*
X0287Y03311*
X02883Y03292*
X02902Y03279*
X02924Y03274*
Y03216*
X02709Y03001*
X027Y02988*
X02697Y02972*
Y02929*
X02626*
Y028*
X02697*
Y02734*
X02558Y02595*
X02521*
X02519Y02603*
X02528Y02609*
X02539Y02625*
X02543Y02644*
X02539Y02663*
X02528Y0268*
X02512Y0269*
X02493Y02694*
X02487Y02693*
X02449Y02731*
X02439Y02737*
X02428Y0274*
X02428*
X02007*
X0198Y02767*
Y02776*
X01994Y02786*
X02004Y02801*
X02005Y02809*
X02014*
X02015Y02801*
X02025Y02786*
X02041Y02775*
X0206Y02772*
X02078Y02775*
X02094Y02786*
X02104Y02801*
X02104Y02802*
X02172*
Y02866*
X02178Y02867*
X02191Y02876*
X02214Y02899*
X02223Y02912*
X02226Y02928*
Y03145*
X02223Y0316*
X02214Y03173*
X022Y03188*
Y03206*
X02196Y03225*
X02185Y03241*
X02169Y03252*
X0215Y03256*
X0213Y03252*
X02114Y03241*
X02111Y03236*
X0209*
Y03295*
Y03578*
X02256Y03744*
X02492*
Y03725*
X02495Y03709*
X02497Y03707*
Y03687*
X02491Y03682*
X02489Y03682*
X02474Y03671*
X02463Y03656*
X02463Y03655*
X02415*
X02405Y03657*
X02392Y03654*
X02382Y03647*
X02375Y03637*
X02372Y03625*
X02375Y03612*
X02382Y03602*
X02392Y03595*
X02405Y03592*
X02415Y03594*
X02463*
X02463Y03591*
X02474Y03576*
X02489Y03565*
X02508Y03562*
X02526Y03565*
X02542Y03576*
X02552Y03591*
X02554Y03599*
X02562*
X02563Y03591*
X02574Y03576*
X02589Y03565*
X02608Y03562*
X02626Y03565*
X02642Y03576*
X02652Y03591*
X02656Y0361*
Y03637*
X02652Y03656*
X02642Y03671*
X02638Y03674*
Y03702*
X02636Y03713*
X02629Y03723*
X02622Y0373*
Y03762*
X02572*
Y03766*
X02569Y03782*
X0256Y03795*
X02542Y03813*
X02529Y03822*
X02514Y03825*
X0224*
X02224Y03822*
X02211Y03813*
X02021Y03623*
X02012Y0361*
X02009Y03595*
Y03325*
X01785*
X01773Y03322*
X01763Y03316*
X01752Y03305*
X01743Y03306*
X01742Y03306*
X01745Y03326*
X01742Y03347*
X01741Y03351*
X01745Y03357*
X0175Y03357*
X01773Y0336*
X01794Y03369*
X01813Y03383*
X01827Y03401*
X01836Y03423*
X01839Y03446*
X01836Y03469*
X01827Y03491*
X01813Y03509*
X01794Y03523*
X01773Y03532*
X0175Y03535*
X01726Y03532*
X01705Y03523*
X01686Y03509*
X01672Y03491*
X01663Y03469*
X0166Y03446*
X01663Y03423*
X01668Y03412*
X01662Y03405*
X01645Y03403*
X01626Y03395*
X01609Y03382*
X01597Y03366*
X01589Y03347*
X01586Y03326*
X01589Y03305*
X01597Y03286*
X01609Y0327*
X01626Y03257*
X01645Y03249*
X01666Y03247*
X01685Y03249*
X01686Y03249*
X01687Y0324*
X0167Y03222*
X01599*
X01396Y03426*
X01386Y03432*
X01375Y03435*
X01101*
X01053Y03483*
X01056Y03491*
X01071Y03493*
X01092Y03501*
X01109Y03515*
X01123Y03532*
X01131Y03553*
X01134Y03575*
X01131Y03596*
X01123Y03617*
X01109Y03634*
X01092Y03648*
X01071Y03656*
X0105Y03659*
X01028Y03656*
X01007Y03648*
X0099Y03634*
X00976Y03617*
X00968Y03596*
X00966Y03581*
X00958Y03578*
X00952Y03584*
X00943Y0359*
X00933Y03592*
X00918*
X00915Y03599*
X00917Y03602*
X00923Y0361*
X00925Y0362*
Y03676*
X00931Y03679*
X00939Y03683*
X00945Y03682*
X00957Y03685*
X00967Y03692*
X00974Y03702*
X00977Y03715*
X00974Y03727*
X00967Y03737*
X00957Y03744*
X00945Y03747*
X00939Y03746*
X00931Y0375*
X00868*
X00865Y03757*
X00878Y03771*
X00885Y0378*
X00886Y03787*
X00892*
Y03794*
X00959*
X0097Y03792*
X00982Y03795*
X00992Y03802*
X00999Y03812*
X01002Y03825*
X00999Y03837*
X00992Y03847*
X00982Y03854*
X0097Y03857*
X00959Y03855*
X00892*
Y03862*
X00767*
Y0385*
X0075*
X00741Y03848*
X00733Y03842*
X00727Y03836*
X00721Y03828*
X00719Y03819*
Y03769*
X00718Y03765*
X00719Y0376*
Y037*
X00721Y0369*
X00727Y03682*
X00749Y03659*
X00757Y03654*
X00767Y03652*
X00778*
Y03643*
X00767*
Y03632*
X00706*
X00696Y0363*
X00687Y03624*
X00676Y03613*
X0067Y03604*
X00668Y03595*
Y03346*
X00646*
X00643Y03353*
X00649Y03362*
X00652Y03375*
X00649Y03386*
Y03638*
X00647Y03649*
X00647Y0365*
Y03675*
X00659Y03677*
X00669Y03684*
X00676Y03695*
X00679Y03707*
X00676Y03719*
X00669Y0373*
X00659Y03736*
X00647Y03739*
X00634Y03736*
X00625Y0373*
X00515*
X00508Y03732*
X00501Y03736*
X00489Y03739*
X00477Y03736*
X00466Y0373*
X00459Y03719*
X00457Y03707*
X00459Y03695*
X00466Y03684*
X00477Y03677*
X00489Y03675*
X00501Y03677*
X00507Y03681*
X00515Y03677*
Y03608*
X00525*
Y0358*
X0052Y03576*
X00375*
X00365Y03574*
X00356Y03568*
X00258Y0347*
X00249Y0347*
X00247Y03472*
X00237Y03479*
X00225Y03482*
X00212Y03479*
X00205Y03475*
X00107*
X001Y03485*
X00084Y03496*
X00065Y035*
X00045Y03496*
X00029Y03485*
X00018Y03469*
X00014Y0345*
X00018Y0343*
X00029Y03414*
X00044Y03404*
X00045Y034*
X00044Y03395*
X00029Y03385*
X00018Y03369*
X00014Y0335*
X00018Y0333*
X00029Y03314*
X00044Y03304*
X00045Y033*
X00044Y03295*
X00029Y03285*
X00018Y03269*
X00014Y0325*
X00018Y0323*
X00029Y03214*
X00045Y03203*
X00065Y03199*
X00084Y03203*
X001Y03214*
X00102Y03216*
X00109Y03214*
Y03062*
X001Y03052*
X00097*
X00084Y03061*
X00065Y03065*
X00045Y03061*
X00029Y0305*
X00018Y03034*
X00014Y03015*
X00018Y02995*
X00027Y02982*
X00021Y02978*
X00007Y02964*
X0Y02968*
Y03673*
X0Y03674*
X0Y03693*
X00007Y03731*
X00021Y03768*
X00042Y03801*
X00069Y03829*
X00101Y03851*
X00136Y03867*
X00174Y03875*
X00194Y03875*
X04003*
G37*
G36*
X00435Y03516D02*
X00434Y0351D01*
X00436Y03497*
X00443Y03487*
X00446Y03485*
Y03444*
X00448Y03434*
X00454Y03426*
X00485Y03394*
Y03375*
X0037*
X00368Y03382*
Y03439*
X00311*
X00308Y03446*
X00385Y03523*
X00429*
X00435Y03516*
G37*
G36*
X01566Y03171D02*
D01*
X01575Y03164*
X01587Y03162*
X01626*
Y03024*
X01619Y03021*
X01607Y03033*
X01599Y03038*
X01589Y0304*
X01492*
Y03047*
X01489Y03059*
X01482Y0307*
X01472Y03077*
X0146Y03079*
X01447Y03077*
X01437Y0307*
X0143Y03059*
X01427Y03047*
Y02983*
X01425Y0298*
X01398*
X01392Y02986*
Y03047*
X01389Y03059*
X01382Y0307*
X01372Y03077*
X0136Y03079*
X01347Y03077*
X01342Y03073*
X01334Y03077*
Y03096*
X01337Y03101*
X0134Y03113*
X01337Y03126*
X0133Y03136*
X0132Y03143*
X01308Y03145*
X01295Y03143*
X01285Y03136*
X01278Y03126*
X01276Y03113*
X01278Y03101*
X01283Y03093*
Y03078*
X01276Y03074*
X01272Y03077*
X0126Y03079*
X01247Y03077*
X01243Y03074*
X01236Y03078*
Y03149*
X01263Y03176*
X01275Y03174*
X01294Y03178*
X0131Y03189*
X01321Y03205*
X01325Y03225*
X01321Y03244*
X0131Y0326*
X01294Y03271*
X01275Y03275*
X01255Y03271*
X01239Y0326*
X01229Y03246*
X01226Y03245*
X01223*
X0122Y03246*
X0121Y0326*
X01194Y03271*
X01175Y03275*
X01155Y03271*
X01144Y03264*
X01136Y03268*
Y03298*
X01182*
X01189Y03289*
X01205Y03278*
X01225Y03274*
X01244Y03278*
X0126Y03289*
X01271Y03305*
X01275Y03325*
X01271Y03344*
X0126Y0336*
X01251Y03367*
X01253Y03374*
X01362*
X01566Y03171*
G37*
G36*
X01066Y03396D02*
X01067Y03393D01*
X01073Y03383*
X01083Y03377*
X01095Y03374*
X01196*
X01198Y03367*
X01189Y0336*
X01182Y03351*
X0112*
X0111Y03349*
X01101Y03343*
X01091Y03333*
X01086Y03325*
X01084Y03315*
Y03065*
X0108Y03059*
X01077Y03047*
Y02983*
X0108Y02971*
X01087Y0296*
X01097Y02953*
X0111Y02951*
X01122Y02953*
X01126Y02956*
X01134Y02952*
Y02925*
X01136Y02915*
X01142Y02907*
X01163Y02885*
X01171Y0288*
X01181Y02878*
X01499*
Y02843*
X01497Y02835*
X01499Y02828*
Y02799*
X0165*
Y02814*
X01655Y02815*
X01665Y02821*
X01677Y02834*
X01684Y02844*
X01686Y02855*
Y03163*
X01694Y03164*
X01703Y03171*
X01797Y03264*
X02009*
Y03234*
X02003Y03225*
X01999Y03206*
Y03186*
X02003Y03167*
X02006Y03162*
X02002Y03156*
X02Y03156*
X0198Y03152*
X01964Y03141*
X01953Y03125*
X01949Y03106*
Y03086*
X01953Y03067*
X01964Y03051*
X01969Y03047*
Y03022*
X01947Y03*
X018*
X01788Y02997*
X01778Y02991*
X01755Y02968*
X01749Y02958*
X01748Y02956*
X01743*
Y02871*
X01737Y02868*
X01706*
Y02826*
X01705Y02823*
Y02775*
X01707Y02763*
X01712Y02757*
Y02737*
X01701*
X01691Y02735*
X01683Y0273*
X01593Y02639*
X01467*
X01467Y0264*
X01464Y02652*
X0146Y02659*
Y02667*
X01464Y02671*
X01472Y02672*
X01482Y02679*
X01489Y0269*
X01492Y02702*
Y02766*
X01489Y02779*
X01485Y02785*
Y0281*
X01483Y02819*
X01477Y02827*
X01446Y02859*
X01438Y02864*
X01428Y02866*
X01065*
Y02945*
X01006*
X01004Y02953*
X01006Y02962*
X01004Y02972*
Y03358*
X0101Y03362*
X01022Y03365*
X01032Y03372*
X01039Y03382*
X01042Y03395*
X01039Y03407*
X01032Y03417*
X01022Y03424*
X0101Y03427*
Y0343*
X01007Y03441*
X01002Y03449*
X01008Y03454*
X01066Y03396*
G37*
G36*
X00595Y03202D02*
Y03182D01*
Y03163*
Y03143*
Y03123*
Y03103*
Y03103*
X00466*
Y03103*
Y03123*
Y03143*
Y03163*
Y03182*
Y03202*
Y03216*
X00482Y03232*
X00595*
Y03202*
G37*
G36*
X00255Y03169D02*
X00389D01*
X00391Y03162*
Y03123*
Y03084*
X00447*
Y03028*
X00494*
Y02976*
X00452*
X00446Y02984*
X00447Y0299*
X00444Y03002*
X00437Y03012*
X00427Y03019*
X00415Y03022*
X00402Y03019*
X00398Y03016*
X00375Y0304*
Y0308*
X00373Y03089*
X00367Y03097*
X00342Y03122*
X00334Y03128*
X00325Y0313*
X00245*
X00235Y03128*
X00227Y03122*
X00202Y03097*
X00196Y03089*
X00194Y0308*
Y03041*
X00188*
Y02986*
X00121*
X0012Y02993*
X00124Y02994*
X00133Y03001*
X00161Y03028*
X00167Y03038*
X0017Y0305*
Y03179*
X00255*
Y03169*
G37*
G36*
X00834Y02944D02*
X00777D01*
Y02921*
X00696*
X0069Y02925*
Y02969*
X00713Y02992*
X00834*
Y02944*
G37*
G36*
X0189Y02932D02*
X01846Y02888D01*
X01837Y02875*
X01834Y0286*
Y02798*
X01769*
Y02868*
X01775Y02871*
X01806*
Y02913*
X01807Y02916*
X01807*
Y02934*
X01812Y02939*
X01888*
X0189Y02932*
G37*
G36*
X00108Y02877D02*
Y02865D01*
X0011Y02855*
X00116Y02846*
X00141Y02821*
X0015Y02815*
X00152Y02815*
Y02802*
X00207*
Y02737*
X00277*
X00278Y02729*
Y02695*
X0028Y02685*
X00285Y02677*
X00294Y02668*
X00292Y02659*
X00286Y02658*
X00274Y0265*
X00265Y02638*
X00263Y02623*
Y02588*
X00265Y02573*
X00274Y02561*
X00274Y02561*
Y02534*
X00276Y02524*
X00282Y02515*
X00301Y02496*
X0031Y0249*
X0032Y02488*
X00517*
X00522Y02485*
X00535Y02482*
X00547Y02485*
X00557Y02492*
X00564Y02502*
X00567Y02515*
X00564Y02527*
X00557Y02537*
X00549Y02542*
X0055Y02546*
X00552Y0255*
X00565Y02553*
X00568Y02555*
X00575Y02551*
Y02489*
X0057Y02482*
X00567Y0247*
X0057Y02457*
X00577Y02447*
X00587Y0244*
X006Y02437*
X00612Y0244*
X00619Y02445*
X00625Y02446*
X0063Y02445*
X00637Y0244*
X0065Y02437*
X00662Y0244*
X00672Y02447*
X00679Y02457*
X00682Y0247*
X00679Y02482*
X00675Y02488*
Y02551*
X00683Y02555*
X00686Y02553*
X00701Y0255*
X00715Y02553*
X00726Y0256*
X00736Y02553*
X00751Y0255*
X00752Y0255*
X00806Y02497*
X00814Y02491*
X00824Y02489*
X00953*
X00958Y02483*
X00956Y02476*
X00959Y02461*
X00966Y02451*
X00959Y0244*
X00956Y02426*
X00959Y02411*
X00966Y02401*
X00959Y0239*
X00956Y02376*
X00959Y02361*
X00966Y02351*
X00959Y0234*
X00956Y02326*
X00959Y02311*
X00966Y02301*
X00959Y0229*
X00956Y02276*
X00959Y02261*
X00966Y02251*
X00959Y0224*
X00956Y02226*
X00959Y02211*
X00966Y02201*
X00959Y0219*
X00956Y02176*
X00959Y02161*
X00966Y02151*
X00959Y0214*
X00956Y02126*
X00959Y02111*
X00967Y02099*
X00979Y0209*
X00994Y02088*
X01029*
X0103Y02088*
X01056Y02062*
X01051Y02056*
X01044Y02061*
X01029Y02063*
X00994*
X00979Y02061*
X00967Y02052*
X00959Y0204*
X00956Y02026*
X00959Y02011*
X00967Y01999*
X00979Y0199*
X00985Y01989*
Y01976*
X00933*
X00928Y01982*
X0093Y0199*
Y02176*
X00927Y02192*
X00918Y02205*
X00895Y02228*
X00882Y02237*
X00866Y0224*
X0079*
X00774Y02237*
X00761Y02228*
X00693Y0216*
X00565*
X00549Y02157*
X00536Y02148*
X00463Y02075*
X0034*
X00324Y02072*
X00311Y02063*
X00294Y02045*
X00285Y02032*
X00282Y02017*
X00285Y02002*
X00287Y01998*
X00252Y01963*
X00247Y01955*
X00245Y01945*
Y01926*
X00227Y01908*
X0022Y01911*
Y02605*
X0*
Y02807*
X00007Y02811*
X00013Y02805*
X00017Y02803*
X00018Y02795*
X00029Y02779*
X00045Y02768*
X00065Y02764*
X00084Y02768*
X001Y02779*
X00111Y02795*
X00115Y02815*
X00111Y02834*
X001Y0285*
X00085Y0286*
X00084Y02865*
X00085Y02869*
X001Y02879*
X00101Y0288*
X00108Y02877*
G37*
G36*
X00687Y02792D02*
X00695Y02786D01*
X00705Y02784*
X00854*
X00859Y0278*
Y0272*
X00871*
Y02702*
X00864Y02698*
X00862Y02699*
X0085Y02702*
X00837Y02699*
X0083Y02695*
X00747*
X00737Y02693*
X00729Y02687*
X00702Y02661*
X00701Y02661*
X00686Y02658*
X00676Y02651*
X00665Y02658*
X00651Y02661*
X00636Y02658*
X00626Y02651*
X00615Y02658*
X00601Y02661*
X00586Y02658*
X00576Y02651*
X00565Y02658*
X00551Y02661*
X00536Y02658*
X00526Y02651*
X00515Y02658*
X00507Y0266*
X00503Y02668*
X00504Y0267*
X00506Y0268*
Y02691*
X00523*
Y02709*
X00529Y0271*
X00538Y02716*
X00645Y02823*
X00655Y02824*
X00687Y02792*
G37*
G36*
X01127Y02766D02*
Y02702D01*
X0113Y0269*
X01134Y02683*
Y02675*
X0113Y02671*
X01122Y02669*
X01115Y02665*
X01001*
X00985Y02681*
Y02767*
X01127*
X01127Y02766*
G37*
G36*
X01843Y02544D02*
X01852Y02542D01*
Y02537*
X01927*
Y02542*
X02*
X02023Y02519*
X02015Y02508*
X02011Y02489*
Y02462*
X02015Y02443*
X02021Y02435*
X02016Y02427*
X02001*
Y02424*
X01963*
X01957Y02433*
X01882Y02508*
X01869Y02517*
X01854Y0252*
X01826*
X01807Y02539*
X01812Y02545*
X01812Y02545*
X01825Y02542*
X01837Y02545*
X01839Y02547*
X01843Y02544*
G37*
G36*
X01726Y0268D02*
X01716Y0267D01*
X01707Y02657*
X01704Y02641*
Y02545*
X01707Y02531*
X01703Y02523*
X01646*
Y02405*
X01697*
X01701Y02404*
X01719*
Y02291*
X01646*
Y02173*
X01653*
Y01881*
X01656Y01865*
X01665Y01852*
X01723Y01795*
X01736Y01786*
X01751Y01783*
X01861*
X01864Y01775*
X01846Y01758*
X01837Y01745*
X01834Y0173*
Y01472*
X01575Y01213*
X01568Y01216*
Y01241*
X01783Y01456*
X01789Y01465*
X01791Y01475*
Y0158*
X01789Y01589*
X01783Y01598*
X01687Y01694*
X01678Y017*
X01675Y017*
X01674Y01708*
Y01783*
X01643*
X01637Y01786*
Y01861*
X01617*
X01615Y01864*
X01597Y01882*
X01589Y01888*
X0158Y0189*
X014*
X01395Y01895*
Y01975*
X01393Y01984*
X01387Y01992*
X0126Y0212*
Y02145*
X01258Y02154*
X01252Y02162*
X01233Y02182*
Y02456*
X01231Y02466*
X01225Y02474*
X0116Y0254*
X0121Y02589*
X01448*
X01453Y02583*
X01453Y02582*
Y02574*
X01444*
Y02512*
X0143*
X01371*
Y02467*
X01368Y02466*
X0136Y0247*
Y02559*
X01273*
Y02469*
X01272*
Y02374*
X01349*
X01352Y02359*
X01361Y02346*
X01374Y02337*
X0139Y02334*
X01405Y02337*
X01418Y02346*
X01427Y02359*
X0143Y02375*
Y0238*
X01504*
X0152Y02383*
X01533Y02392*
X01545Y02405*
X01583*
Y02523*
X01512*
Y02537*
X01513Y02539*
Y02568*
X01519Y02577*
X01522Y02589*
X01603*
X01613Y02591*
X01621Y02596*
X01711Y02687*
X01723*
X01726Y0268*
G37*
G36*
X03195Y02142D02*
X03138D01*
Y02183*
X02894*
Y02526*
X03138*
Y02567*
X03195*
Y02142*
G37*
G36*
X01754Y02101D02*
X01767Y02092D01*
X01778Y0209*
X01778Y0209*
X01784Y02083*
X01784Y02081*
X01782Y02075*
X01785Y02062*
X01792Y02052*
X01802Y02045*
X01815Y02042*
X01821Y02036*
Y02015*
X01852*
X01855Y02008*
X01831Y01983*
X01826Y01975*
X01821*
Y01955*
X01745*
Y01901*
X01737Y01897*
X01733Y019*
Y02112*
X01741Y02115*
X01754Y02101*
G37*
G36*
X00736Y01844D02*
X00751Y01841D01*
X00762Y01843*
X00768Y01839*
X00769Y01837*
X00767Y0183*
X0077Y01817*
X00777Y01807*
X00787Y018*
X008Y01797*
X00806Y01799*
X00814Y01793*
Y01726*
X00844*
Y01706*
X00801*
Y01675*
X00795*
X00779Y01672*
X00766Y01663*
X00757Y0165*
X00754Y01635*
X00757Y01619*
X00766Y01606*
X00779Y01597*
X00795Y01594*
X00801*
Y01573*
X00823*
X00828Y01565*
X00823Y01558*
X0082Y01545*
Y01502*
X00823Y01489*
X0083Y01478*
X00841Y0147*
X00855Y01468*
X00868Y0147*
X00879Y01478*
X00886Y01489*
X00889Y01502*
Y01545*
X00886Y01558*
X00881Y01565*
X00886Y01573*
X00902*
X00906Y01565*
X00902Y01558*
X00899Y01545*
Y01502*
X00902Y01489*
X00909Y01478*
X0092Y0147*
X00933Y01468*
X00946Y0147*
X00953Y01475*
X0096Y0147*
X00973Y01468*
X00986Y0147*
X00997Y01478*
X01004Y01489*
X01007Y01502*
Y01545*
X01005Y01556*
Y01615*
Y01694*
X00936*
Y01685*
X00927*
Y01706*
X00905*
Y01741*
X00902Y01752*
X00896Y01762*
X00889Y01769*
Y0179*
X00909*
X00912Y01788*
X00925Y01786*
X00937Y01788*
X00947Y01795*
X00954Y01806*
X00955Y01808*
X00972*
X00972Y01808*
X00985Y01806*
X00988Y01806*
X00992Y01799*
X00964Y0177*
X00957Y01769*
X00947Y01762*
X0094Y01752*
X00937Y0174*
X0094Y01727*
X00947Y01717*
X00957Y0171*
X0097Y01707*
X00982Y0171*
X00992Y01717*
X00999Y01727*
X01Y01734*
X01036Y0177*
X01044Y01767*
Y01655*
X01046Y01645*
X01051Y01637*
X01058Y0163*
Y01612*
X01055Y01607*
X01052Y01595*
X01054Y01587*
X01053Y01585*
X01049Y01579*
X01048Y01579*
X01038Y01577*
X01027Y01569*
X0102Y01558*
X01017Y01545*
Y01502*
X0102Y01489*
X01027Y01478*
X01038Y0147*
X01051Y01468*
X01064Y0147*
X01071Y01475*
X01078Y0147*
X01091Y01468*
X01104Y0147*
X0111Y01475*
X01117Y0147*
X0113Y01468*
X01143Y0147*
X0115Y01475*
X01156Y0147*
X0117Y01468*
X01183Y0147*
X01189Y01475*
X01196Y0147*
X01209Y01468*
X01222Y0147*
X01229Y01475*
X01235Y0147*
X01248Y01468*
X01261Y0147*
X01268Y01475*
X01275Y0147*
X01288Y01468*
X01301Y0147*
X01307Y01475*
X01314Y0147*
X01327Y01468*
X0134Y0147*
X01347Y01475*
X01353Y0147*
X01366Y01468*
X01379Y0147*
X01386Y01475*
X01393Y0147*
X01406Y01468*
X01419Y0147*
X01425Y01475*
X01432Y0147*
X01445Y01468*
X01458Y0147*
X01465Y01475*
X01471Y0147*
X01484Y01468*
X01498Y0147*
X01504Y01475*
X01511Y0147*
X01524Y01468*
X01537Y0147*
X01544Y01475*
X0155Y0147*
X01563Y01468*
X01576Y0147*
X01583Y01475*
X0159Y0147*
X01603Y01468*
X01616Y0147*
X01622Y01475*
X01629Y0147*
X01642Y01468*
X01655Y0147*
X01662Y01475*
X01668Y0147*
X01676Y01469*
X01678Y0146*
X01527Y01309*
X0152Y01312*
Y01315*
X01517Y0133*
X01508Y01343*
X01495Y01352*
X0148Y01355*
X00936*
X00718Y01573*
X00705Y01582*
X00689Y01585*
X00566*
X00496Y01655*
X005Y01662*
X00512Y01665*
X00522Y01672*
X00529Y01682*
X00531Y0169*
X00568Y01728*
X00574Y01736*
X00576Y01746*
Y01843*
X00583Y01846*
X00586Y01844*
X00601Y01841*
X00615Y01844*
X00626Y01851*
X00636Y01844*
X00651Y01841*
X00665Y01844*
X00676Y01851*
X00686Y01844*
X00701Y01841*
X00715Y01844*
X00726Y01851*
X00736Y01844*
G37*
G36*
X00398Y01951D02*
X00386Y01949D01*
X00374Y01941*
X00365Y01929*
X00363Y01914*
Y019*
X00362Y01895*
Y01831*
X00363Y01824*
Y01775*
X00364Y01767*
Y01705*
X00357*
X0035Y01713*
X00352Y0172*
X00349Y01732*
X00342Y01742*
X00332Y01749*
X0032Y01752*
X00307Y01749*
X00297Y01742*
X00291Y01734*
X00263Y01706*
X00256Y01705*
X00238Y01723*
X00241Y0173*
X00257*
Y0179*
Y01864*
X00265Y01865*
X00265Y01864*
X00274Y01852*
X00286Y01844*
X00301Y01841*
X00315Y01844*
X00327Y01852*
X00336Y01864*
X00338Y01879*
Y01914*
X00336Y01929*
X00327Y01941*
X0032Y01946*
X00319Y01954*
X00323Y01959*
X00397*
X00398Y01951*
G37*
G36*
X00189Y01809D02*
X0017D01*
X00166Y0181*
X00162Y01809*
X00132*
Y01789*
X00129Y01785*
X00126Y0177*
Y01738*
X00129Y01723*
X00138Y0171*
X00241Y01606*
X00254Y01597*
X0027Y01594*
X0032*
Y01564*
X00446*
Y01581*
X00453Y01584*
X005Y01537*
X00497Y0153*
X00238*
X00222Y01527*
X00209Y01518*
X00186Y01495*
X00177Y01482*
X00174Y01466*
Y01436*
X0017Y01434*
X00166Y01433*
X0006Y0154*
Y01764*
X00139Y01844*
X00189*
Y01809*
G37*
G36*
X00572Y01445D02*
X00575Y01432D01*
X00582Y01422*
X00592Y01415*
X00603Y01413*
X00605Y01402*
X00612Y01392*
X00615Y0139*
X00617Y01379*
X00616Y01377*
X00587*
Y01382*
X00527*
Y01427*
X00462*
Y01382*
X00462*
Y01377*
X0042*
Y01384*
X00379*
X00377Y0139*
X00373Y01396*
X00367Y014*
X00359Y01402*
X00268*
X00263Y01401*
X00255Y01405*
Y01449*
X00568*
X00572Y01445*
G37*
G36*
X00829Y01274D02*
Y00536D01*
X00821Y0053*
X00815Y00532*
X00802Y00529*
X00792Y00522*
X00785Y00512*
X00785Y00511*
X00501Y00227*
X0049Y00229*
X00469Y00225*
X00451Y00213*
X00442Y00199*
X00434Y00202*
Y003*
X00431Y00316*
X00422Y00329*
X00416Y00335*
Y00456*
X00335*
X00255Y00536*
Y01061*
X0027*
X00277Y01059*
Y0098*
X00402*
Y00994*
X00415*
X00424Y00996*
X00432Y01002*
X00447Y01017*
X00453Y01025*
X00455Y01035*
X00458Y01038*
X00473*
X00476Y01032*
Y01001*
X00474Y00994*
X0045*
Y00915*
X00519*
Y00917*
X00572*
X00576Y00911*
X00596Y00891*
X00605Y00885*
X00613Y00884*
X00615Y00883*
X00619Y00875*
X00618Y0087*
X0062Y00857*
X00625Y0085*
X0062Y00844*
X00618Y00831*
X0062Y00818*
X00625Y00811*
X0062Y00804*
X00618Y00791*
X0062Y00778*
X00625Y00772*
X0062Y00765*
X00618Y00752*
X0062Y00739*
X00625Y00732*
X0062Y00726*
X00618Y00712*
X0062Y00699*
X00628Y00688*
X00639Y00681*
X00652Y00678*
X00695*
X00708Y00681*
X00719Y00688*
X00727Y00699*
X00729Y00712*
X00727Y00726*
X00722Y00732*
X00727Y00739*
X00729Y00752*
X00727Y00765*
X00722Y00772*
X00727Y00778*
X00729Y00791*
X00727Y00804*
X00722Y00811*
X00727Y00818*
X00729Y00831*
X00727Y00844*
X00722Y0085*
X00727Y00857*
X00729Y0087*
X00727Y00883*
X00722Y0089*
X00727Y00896*
X00729Y00909*
X00727Y00922*
X00722Y00929*
X00727Y00936*
X00729Y00949*
X00727Y00962*
X00722Y00968*
X00727Y00975*
X00729Y00988*
X00727Y01001*
X00722Y01008*
X00727Y01014*
X00729Y01027*
X00727Y0104*
X00722Y01047*
X00727Y01054*
X00729Y01067*
X00727Y0108*
X00722Y01086*
X00727Y01093*
X00729Y01106*
X00727Y01119*
X00722Y01126*
X00727Y01132*
X00729Y01146*
X00727Y01159*
X00722Y01165*
X00727Y01172*
X00729Y01185*
X00727Y01198*
X00719Y01209*
X00708Y01216*
X00695Y01219*
X00652*
X00639Y01216*
X00628Y01209*
X0062Y01198*
X00618Y01185*
X0062Y01172*
X00625Y01165*
X0062Y01159*
X00618Y01146*
X0062Y01132*
X00625Y01126*
X0062Y01119*
X00618Y01106*
X0062Y01093*
X00625Y01086*
X0062Y0108*
X00618Y01067*
X0062Y01054*
X00625Y01047*
X0062Y0104*
X00618Y01027*
X0062Y01014*
X00625Y01008*
X0062Y01001*
X00618Y00992*
X00557*
Y01001*
X00561*
Y01064*
X0048*
X00476*
X00473Y0107*
Y01101*
X00388*
Y01067*
X00387Y01066*
X00379Y0107*
Y01148*
X00255*
Y01284*
X00263Y01288*
X00268Y01287*
X00359*
X00367Y01289*
X00373Y01293*
X00377Y01299*
X00379Y01305*
X0042*
Y01309*
X00462*
Y01307*
X00587*
Y01309*
X00644*
Y01309*
X00645Y0131*
X00652Y01308*
X00695*
X00708Y01311*
X00719Y01318*
X00727Y01329*
X00729Y01342*
X00727Y01355*
X00719Y01367*
X00708Y01374*
X00695Y01376*
X00652*
X00652*
X0065Y01378*
X00652Y01388*
X00654Y01389*
X00714*
X00829Y01274*
G37*
G36*
X01884Y01396D02*
X01882Y0139D01*
X01885Y01377*
X01892Y01367*
X01902Y0136*
X01915Y01357*
X01927Y0136*
X01937Y01367*
X01944Y01377*
X01945Y01382*
X01954Y01385*
X02062Y01276*
Y01222*
X02017*
Y01227*
X01956*
X01954Y01237*
X0195Y01243*
X01955Y01251*
X01957Y01264*
X01955Y01276*
X0195Y01283*
X01955Y01291*
X01957Y01303*
X01955Y01315*
X01948Y01326*
X01937Y01333*
X01925Y01335*
X01913Y01333*
X01906Y01328*
X01897Y01335*
X01884Y01337*
X01841*
X01828Y01335*
X01817Y01327*
X01809Y01316*
X01807Y01303*
X01809Y0129*
X01814Y01283*
X01809Y01277*
X01807Y01264*
X01809Y01251*
X01814Y01244*
X01809Y01237*
X01807Y01224*
X01809Y01211*
X01814Y01205*
X01809Y01198*
X01807Y01185*
X01809Y01172*
X01814Y01165*
X01809Y01159*
X01807Y01146*
X01808Y01139*
X01801Y01131*
X01656*
X01652Y01134*
X0164Y01137*
X01634Y01135*
X01628Y0114*
Y01151*
X01877Y014*
X01884Y01396*
G37*
G36*
X02002Y01092D02*
X0201Y01086D01*
X0202Y01084*
X02057*
Y01072*
X02115*
X02119Y01064*
X02117Y01055*
X0212Y01042*
X02127Y01032*
X02127Y01028*
X02102Y01002*
X02096Y00994*
X02094Y00985*
Y00661*
X02087Y00658*
X02054Y00691*
X02046Y00696*
X02036Y00698*
X01907*
X01897Y00705*
X01884Y00707*
X01841*
X01828Y00705*
X01817Y00697*
X01809Y00686*
X01807Y00673*
X01809Y0066*
X01814Y00653*
X01809Y00647*
X01807Y00634*
X01809Y00621*
X01817Y0061*
X01828Y00602*
X01841Y006*
X01884*
X01897Y00602*
X01907Y00609*
X0202*
X02034Y00594*
Y00328*
X02026Y00322*
X02026Y00322*
X01935*
X01927Y0032*
X01921Y00316*
X01917Y0031*
X01915Y00304*
X01874*
Y00291*
X01754*
Y00292*
X01716*
X01713Y00299*
X01713Y003*
X01715Y00313*
Y00356*
X01713Y00369*
X01705Y0038*
X01694Y00388*
X01681Y0039*
X01668Y00388*
X01657Y0038*
X0165Y00369*
X01647Y00356*
Y00313*
X01642Y00306*
X01637Y00313*
Y00313*
Y00356*
X01634Y00369*
X01627Y0038*
X01616Y00388*
X01603Y0039*
X0159Y00388*
X01578Y0038*
X01571Y00369*
X01568Y00356*
Y00313*
X01571Y003*
X01571Y00299*
X01568Y00292*
X01521*
X01516Y003*
X01516Y003*
X01519Y00313*
Y00356*
X01516Y00369*
X01509Y0038*
X01498Y00388*
X01484Y0039*
X01471Y00388*
X01465Y00383*
X01458Y00388*
X01445Y0039*
X01432Y00388*
X01425Y00383*
X01419Y00388*
X01406Y0039*
X01393Y00388*
X01386Y00383*
X01379Y00388*
X01366Y0039*
X01353Y00388*
X01347Y00383*
X0134Y00388*
X01335Y00389*
X01333Y00396*
X01385Y00448*
X01447*
X01454Y00441*
X01452Y00435*
X01455Y00422*
X01462Y00412*
X01472Y00405*
X01485Y00402*
X01497Y00405*
X01498Y00406*
X01535*
X01545Y00408*
X01553Y00413*
X0156Y0042*
X01566Y00429*
X01568Y00439*
Y00588*
X01576Y00594*
X01588Y00591*
X01603Y00594*
X01616Y00603*
X01625Y00616*
X01628Y00631*
Y01069*
X01634Y01074*
X0164Y01072*
X01652Y01075*
X01658Y01079*
X01821*
X01828Y01075*
X01841Y01072*
X01884*
X01897Y01075*
X01902Y01078*
X01924*
Y01078*
X01929Y01079*
X01974*
Y01109*
X01981Y01112*
X02002Y01092*
G37*
G36*
X03089Y01869D02*
X03091Y01868D01*
X03103Y01856*
X03104Y01854*
X03105Y01852*
Y01562*
X03104Y0156*
X03103Y01558*
X0294Y01395*
X0294Y01384*
X0294Y01251*
X02941Y01003*
X02941Y01002*
Y01001*
X0294Y01*
X0294Y00999*
X02885Y00931*
X02885Y00931*
X02884Y0093*
X02883Y0093*
X02883Y0093*
X02664*
X0266Y00934*
Y00967*
X0266Y0097*
X02785*
X02815Y01001*
Y01095*
Y01215*
X02776Y01253*
X02711Y01318*
X0271Y0132*
X0271Y01322*
Y01619*
Y01707*
Y01867*
X0271Y01869*
X02712Y0187*
X03087*
X03089Y01869*
G37*
G36*
X02468Y00822D02*
D01*
X02469Y00821*
Y00475*
X02462Y00472*
X02427Y00507*
X02419Y00513*
X0241Y00515*
X0224*
X0223Y00513*
X02222Y00507*
X02202Y00487*
X02197Y0048*
X02178*
Y00423*
X02113*
X0211Y0043*
Y00533*
X02116Y00538*
X0212Y00537*
X02132Y0054*
X02142Y00547*
X02149Y00557*
X0215Y00563*
X02152Y00569*
X02159Y00569*
X02165Y00567*
X0217Y00569*
X02177Y00564*
Y00562*
X02247*
Y00617*
X02302*
Y00672*
Y00705*
X02307Y00711*
X02338*
X02344Y00708*
Y00704*
Y00688*
X02342Y00685*
X02339Y0067*
Y0061*
X02342Y00594*
X02351Y00581*
X02364Y00572*
X0238Y00569*
X02395Y00572*
X02408Y00581*
X02417Y00594*
X0242Y0061*
Y0067*
X02417Y00685*
X02415Y00688*
Y00708*
X02393*
X02385Y00709*
X02379Y00711*
X02378Y00718*
Y00786*
X02384Y00791*
X02393*
X024Y00789*
X02415Y00792*
X02428Y00801*
X02437Y00814*
X0244Y0083*
X02437Y00842*
X02438Y00843*
X02444Y00846*
X02468Y00822*
G37*
G36*
X03348Y00416D02*
Y004D01*
X0335Y0039*
X03356Y00381*
X03359Y00378*
X03356Y00371*
X03335*
Y00306*
X03305*
X03295Y00304*
X03286Y00298*
X03273Y00285*
X03266Y00287*
X03209*
Y00342*
X03217Y00343*
X03255*
X03264Y00345*
X03273Y00351*
X03341Y00419*
X03348Y00416*
G37*
G36*
X03427Y00402D02*
X03435Y00396D01*
X03445Y00394*
X03605*
X0361Y00393*
X03659*
X03674Y00378*
X03671Y00371*
X03652*
Y00311*
X0363*
X0362Y00309*
X03611Y00303*
X0359Y00282*
X03582Y00285*
Y00287*
X03525*
Y00342*
X03451*
Y00332*
X03448Y00331*
X03441Y00335*
Y0036*
X03439Y00369*
X03433Y00378*
X03401Y0041*
X03401Y00417*
X03408Y0042*
X03427Y00402*
G37*
G36*
X0304Y00311D02*
X0302D01*
X0301Y00309*
X03001Y00303*
X0298Y00282*
X02972Y00285*
Y00287*
X02917*
Y00342*
X0285*
Y00364*
X0304*
Y00311*
G37*
G36*
X02815Y00411D02*
X02816Y00406D01*
X02807Y00397*
X02801Y00389*
X02799Y0038*
Y00366*
X02755*
Y00311*
X02735*
X02725Y00309*
X02716Y00303*
X02695Y00282*
X02687Y00285*
Y00287*
X02627*
Y00342*
X02555*
Y00381*
X02572Y00399*
X02573Y004*
X02575Y00402*
X02576Y00404*
X02579Y00411*
X02579Y00413*
Y00414*
X02813*
X02815Y00411*
G37*
G36*
X01512Y00286D02*
X01515Y00284D01*
Y00224*
X01572*
Y0022*
X01697*
Y00224*
X01754*
Y00231*
X01874*
Y00225*
X01915*
X01917Y00219*
X01921Y00213*
X01927Y00209*
X01935Y00207*
X02026*
X02033Y00209*
X0204Y00213*
X02044Y00219*
X02046Y0022*
X02053Y00221*
X02087Y00187*
X02084Y0018*
X0114*
X01136Y00187*
X01138Y00197*
Y00206*
X01145*
Y0028*
X01152Y00284*
X01156Y00281*
X0117Y00279*
X01183Y00281*
X01189Y00286*
X01196Y00281*
X01209Y00279*
X01222Y00281*
X01229Y00286*
X01235Y00281*
X01248Y00279*
X01261Y00281*
X01268Y00286*
X01275Y00281*
X01288Y00279*
X01295Y0028*
X01299Y00273*
X01295Y00267*
X01292Y00255*
X01295Y00242*
X01302Y00232*
X01312Y00225*
X01325Y00222*
X01337Y00225*
X01347Y00232*
X01354Y00242*
X01357Y00255*
X01354Y00267*
X01351Y00272*
Y00274*
X01359Y0028*
X01366Y00279*
X01379Y00281*
X01386Y00286*
X01393Y00281*
X01406Y00279*
X01419Y00281*
X01425Y00286*
X01432Y00281*
X01445Y00279*
X01458Y00281*
X01465Y00286*
X01471Y00281*
X01484Y00279*
X01498Y00281*
X01507Y00288*
X01512Y00286*
G37*
G36*
X02472Y00963D02*
X02472D01*
X02486*
X02508Y00941*
Y00939*
X0251*
X0252Y0093*
X0255Y00899*
X02559Y0089*
X0256Y00887*
Y00491*
Y00417*
X02559Y00415*
X02558Y00413*
X02535Y0039*
Y00346*
Y00299*
X02533Y00297*
X02532Y0029*
Y00265*
X02492*
Y00425*
X0249Y00431*
X0249Y00432*
Y0083*
X02482Y00837*
X02457Y00862*
X02415Y00905*
X0238*
Y0096*
X02383Y00963*
X02472*
Y00963*
G37*
G36*
X02335Y00423D02*
X0227D01*
Y00354*
X02348*
Y00284*
X02342Y0028*
X0231*
Y0022*
X02218*
Y0028*
X02225Y00284*
X02256*
Y00354*
X02256*
Y00411*
Y00464*
X02335*
Y00423*
G37*
G36*
X0092Y01274D02*
X01439D01*
Y00566*
X01428Y00555*
X0115*
X01134Y00552*
X01121Y00543*
X01056Y00478*
X01047Y00465*
X01044Y0045*
Y0043*
X01047Y00414*
X01056Y00401*
X01069Y00392*
X0107Y00392*
X01072Y00384*
X01067Y0038*
X01059Y00369*
X01057Y00356*
Y00313*
X01059Y003*
X01066Y00289*
X0107Y00283*
Y00207*
X01013*
X01006Y0021*
X01005Y00212*
Y0023*
Y00306*
X01007Y00313*
Y00356*
X01004Y00369*
X00997Y0038*
X00986Y00388*
X00973Y0039*
X00968Y00394*
Y00429*
X00965Y00442*
X00958Y00453*
X00947Y0046*
X00934Y00463*
X00921Y0046*
X00913Y00455*
X00905Y00458*
Y01271*
X00911Y01276*
X0092Y01274*
G37*
G36*
X00734Y00365D02*
Y00176D01*
X00668Y0011*
X0054*
X00537Y00117*
X00541Y00124*
X00545Y00145*
Y00174*
X00543Y00185*
X00727Y00368*
X00734Y00365*
G37*
G36*
X00111Y01887D02*
X00111Y01887D01*
X00017Y01792*
X00011Y01784*
X00009Y01775*
Y0153*
X00011Y0152*
X00017Y01512*
X00124Y01404*
Y00465*
X00126Y00455*
X00132Y00447*
X00329Y00249*
Y0006*
X00331Y0005*
X00337Y00042*
X00372Y00007*
X00377Y00003*
X00374Y-00004*
X00178*
X0014Y00003*
X00104Y00018*
X00072Y00039*
X00044Y00067*
X00023Y00099*
X00008Y00135*
X0Y00173*
Y00192*
Y01885*
X0001Y01895*
X00109*
X00111Y01887*
G37*
%LNesp_gsm_v1.1-2*%
%LPC*%
G36*
X03427Y03847D02*
X0332D01*
Y0378*
X033*
X0329Y03778*
X03282Y03772*
X0321Y03701*
X03202Y03699*
X03192Y03692*
X03185Y03682*
X03182Y0367*
X03185Y03657*
X03192Y03647*
X03202Y0364*
X03215Y03637*
X03227Y0364*
X03237Y03647*
X03244Y03657*
X03246Y03665*
X0331Y03729*
X0332*
Y03662*
X03427*
Y03847*
G37*
G36*
X0145Y03659D02*
X01428Y03656D01*
X01407Y03648*
X0139Y03634*
X01376Y03617*
X01368Y03596*
X01365Y03575*
X01368Y03553*
X01376Y03532*
X0139Y03515*
X01407Y03501*
X01428Y03493*
X0145Y0349*
X01471Y03493*
X01492Y03501*
X01509Y03515*
X01523Y03532*
X01531Y03553*
X01534Y03575*
X01531Y03596*
X01523Y03617*
X01509Y03634*
X01492Y03648*
X01471Y03656*
X0145Y03659*
G37*
G36*
X04029Y03463D02*
X04012Y03461D01*
X03996Y03454*
X03982Y03444*
X03971Y0343*
X03964Y03414*
X03962Y03396*
X03964Y03379*
X03971Y03363*
X03982Y03349*
X03996Y03338*
X04012Y03331*
X04029Y03329*
X04047Y03331*
X04063Y03338*
X04077Y03349*
X04088Y03363*
X04094Y03379*
X04097Y03396*
X04094Y03414*
X04088Y0343*
X04077Y03444*
X04063Y03454*
X04047Y03461*
X04029Y03463*
G37*
G36*
X0372Y03486D02*
X03696Y03482D01*
X03675Y03474*
X03656Y03459*
X03642Y03441*
X03633Y03419*
X0363Y03396*
X03633Y03373*
X03642Y03351*
X03656Y03333*
X03675Y03319*
X03696Y0331*
X0372Y03307*
X03743Y0331*
X03764Y03319*
X03783Y03333*
X03797Y03351*
X03806Y03373*
X03809Y03396*
X03806Y03419*
X03797Y03441*
X03783Y03459*
X03764Y03474*
X03743Y03482*
X0372Y03486*
G37*
G36*
X022Y03535D02*
X02176Y03532D01*
X02155Y03523*
X02136Y03509*
X02122Y03491*
X02113Y03469*
X0211Y03446*
X02113Y03423*
X02122Y03401*
X02136Y03383*
X02155Y03369*
X02176Y0336*
X022Y03357*
X02204Y03357*
X02209Y03351*
X02207Y03347*
X02204Y03326*
X02207Y03305*
X02215Y03286*
X02228Y0327*
X02244Y03257*
X02263Y03249*
X02284Y03247*
X02304Y03249*
X02323Y03257*
X0234Y0327*
X02353Y03286*
X0236Y03305*
X02363Y03326*
X0236Y03347*
X02353Y03366*
X0234Y03382*
X02323Y03395*
X02304Y03403*
X02287Y03405*
X02281Y03412*
X02286Y03423*
X02289Y03446*
X02286Y03469*
X02277Y03491*
X02263Y03509*
X02244Y03523*
X02223Y03532*
X022Y03535*
G37*
G36*
X02608Y03327D02*
X02589Y03324D01*
X02574Y03313*
X02563Y03298*
X0256Y03279*
Y03252*
X02563Y03233*
X02574Y03218*
X02578Y03215*
Y03195*
X02575Y03192*
X02492*
Y03181*
X02477*
X02472Y03184*
X0246Y03187*
X02447Y03184*
X02437Y03177*
X0243Y03167*
X02427Y03155*
X0243Y03142*
X02437Y03132*
X02447Y03125*
X0246Y03122*
X02472Y03125*
X02477Y03128*
X02492*
Y03117*
X02557*
Y0308*
X02555Y03077*
X02552Y03065*
X02555Y03052*
X02562Y03042*
X02572Y03035*
X02585Y03032*
X02597Y03035*
X02607Y03042*
X02614Y03052*
X02617Y03065*
X02614Y03077*
X02609Y03084*
Y03117*
X02617*
Y03149*
X02629Y03161*
X02636Y03171*
X02638Y03182*
Y03215*
X02642Y03218*
X02652Y03233*
X02656Y03252*
Y03279*
X02652Y03298*
X02642Y03313*
X02626Y03324*
X02608Y03327*
G37*
G36*
X0341Y03151D02*
X03386Y03148D01*
X03364Y03139*
X03346Y03125*
X03331Y03106*
X03322Y03085*
X03319Y03061*
X03322Y03038*
X03331Y03016*
X03346Y02997*
X03364Y02983*
X03386Y02974*
X0341Y02971*
X03433Y02974*
X03455Y02983*
X03474Y02997*
X03488Y03016*
X03497Y03038*
X035Y03061*
X03497Y03085*
X03488Y03106*
X03474Y03125*
X03455Y03139*
X03433Y03148*
X0341Y03151*
G37*
G36*
X02257Y02903D02*
X02238Y02899D01*
X02221Y02888*
X02211Y02872*
X02207Y02853*
X02211Y02834*
X02221Y02818*
X02238Y02807*
X02257Y02803*
X02276Y02807*
X02292Y02818*
X02303Y02834*
X02307Y02853*
X02303Y02872*
X02292Y02888*
X02276Y02899*
X02257Y02903*
G37*
G36*
X02493Y02903D02*
X02474Y02899D01*
X02458Y02888*
X02447Y02872*
X02443Y02853*
X02447Y02834*
X02458Y02818*
X02474Y02807*
X02493Y02803*
X02512Y02807*
X02528Y02818*
X02539Y02834*
X02543Y02853*
X02539Y02872*
X02528Y02888*
X02512Y02899*
X02493Y02903*
G37*
G36*
X02375Y02903D02*
X02356Y02899D01*
X0234Y02888*
X02329Y02872*
X02325Y02853*
X02329Y02834*
X0234Y02818*
X02356Y02807*
X02375Y02803*
X02394Y02807*
X0241Y02818*
X02421Y02834*
X02425Y02853*
X02421Y02872*
X0241Y02888*
X02394Y02899*
X02375Y02903*
G37*
G36*
X02584Y01885D02*
X02473D01*
Y01795*
X02584*
Y01885*
G37*
G36*
Y01424D02*
X02473D01*
Y01334*
X02584*
Y01424*
G37*
G36*
X02237D02*
X02127D01*
Y01334*
X02237*
Y01424*
G37*
G36*
X02981Y00912D02*
X02917D01*
X02905Y00909*
X02894Y00902*
X02887Y00892*
X02885Y0088*
X02887Y00867*
X02894Y00857*
X02905Y0085*
X02917Y00847*
X02981*
X02994Y0085*
X03Y00854*
X03005*
X03012Y0085*
X03025Y00847*
X03037Y0085*
X03047Y00857*
X03054Y00867*
X03057Y0088*
X03054Y00892*
X03047Y00902*
X03037Y00909*
X03025Y00912*
X03012Y00909*
X03005Y00905*
X03*
X02994Y00909*
X02981Y00912*
G37*
G36*
X04029Y00978D02*
X04006Y00975D01*
X03984Y00966*
X03965Y00952*
X03951Y00933*
X03942Y00911*
X03939Y00888*
X03942Y00865*
X03951Y00843*
X03965Y00824*
X03984Y0081*
X04006Y00801*
X04029Y00798*
X04053Y00801*
X04075Y0081*
X04093Y00824*
X04108Y00843*
X04117Y00865*
X0412Y00888*
X04117Y00911*
X04108Y00933*
X04093Y00952*
X04075Y00966*
X04053Y00975*
X04029Y00978*
G37*
G36*
X02981Y00812D02*
X02917D01*
X02905Y00809*
X02894Y00802*
X02887Y00792*
X02885Y0078*
X02887Y00767*
X02894Y00757*
X02905Y0075*
X02917Y00747*
X02981*
X02994Y0075*
X03Y00754*
X03005*
X03012Y0075*
X03025Y00747*
X03037Y0075*
X03047Y00757*
X03054Y00767*
X03057Y0078*
X03054Y00792*
X03047Y00802*
X03037Y00809*
X03025Y00812*
X03012Y00809*
X03005Y00805*
X03*
X02994Y00809*
X02981Y00812*
G37*
G36*
X03025Y00712D02*
X03012Y0071D01*
X03005Y00705*
X03*
X02994Y00709*
X02981Y00712*
X02917*
X02905Y00709*
X02894Y00702*
X02887Y00692*
X02885Y0068*
X02887Y00667*
X02894Y00657*
X02905Y0065*
X02917Y00647*
X02981*
X02992Y00649*
X02992Y00649*
X02995Y00637*
X02999Y0063*
Y00615*
X02997Y00613*
X02991Y0061*
X02981Y00612*
X02917*
X02905Y00609*
X02894Y00602*
X02887Y00592*
X02885Y0058*
X02887Y00567*
X02894Y00557*
X02905Y0055*
X02917Y00547*
X02981*
X02994Y0055*
X03Y00554*
X03008*
X03018Y00556*
X03026Y00562*
X03042Y00578*
X03048Y00586*
X0305Y00596*
Y0063*
X03054Y00637*
X03057Y00649*
X03054Y00661*
X03052Y00665*
X03054Y00668*
X03057Y0068*
X03054Y00693*
X03047Y00703*
X03037Y0071*
X03025Y00712*
G37*
G36*
X03535Y0013D02*
X03515Y00126D01*
X03499Y00115*
X03489Y001*
X03485Y00099*
X0348Y001*
X0347Y00115*
X03454Y00126*
X03435Y0013*
X03415Y00126*
X03399Y00115*
X03388Y00099*
X03384Y0008*
X03388Y0006*
X03399Y00044*
X03415Y00033*
X03435Y00029*
X03454Y00033*
X0347Y00044*
X0348Y00059*
X03485Y0006*
X03489Y00059*
X03499Y00044*
X03515Y00033*
X03535Y00029*
X03554Y00033*
X0357Y00044*
X03581Y0006*
X03585Y0008*
X03581Y00099*
X0357Y00115*
X03554Y00126*
X03535Y0013*
G37*
G36*
X0185Y03256D02*
X0183Y03252D01*
X01814Y03241*
X01803Y03225*
X01799Y03206*
Y03186*
X01803Y03167*
X01814Y03151*
X0183Y0314*
X0185Y03136*
X01869Y0314*
X01885Y03151*
X01896Y03167*
X019Y03186*
Y03206*
X01896Y03225*
X01885Y03241*
X01869Y03252*
X0185Y03256*
G37*
G36*
X01507Y02346D02*
X01439D01*
Y02287*
X01375*
X01373Y02295*
Y02324*
X01287*
Y0223*
Y02145*
X01373*
Y02152*
X01409*
X01413Y02153*
X01496*
Y02133*
X01494Y02127*
X01497Y02111*
X01506Y02098*
X01519Y0209*
X01535Y02086*
X0155Y0209*
X01563Y02098*
X01564Y02099*
X01573Y02113*
X01576Y02128*
Y02173*
X01583*
Y02291*
X01559*
X01554Y02299*
X01557Y0231*
X01554Y02322*
X01547Y02332*
X01537Y02339*
X01525Y02342*
X01515Y0234*
X01509Y02344*
X01507Y02345*
Y02346*
G37*
G36*
X00695Y01298D02*
X00652D01*
X00639Y01295*
X00628Y01288*
X0062Y01277*
X00618Y01264*
X0062Y01251*
X00628Y0124*
X00639Y01232*
X00652Y0123*
X00695*
X00708Y01232*
X00719Y0124*
X00727Y01251*
X00729Y01264*
X00727Y01277*
X00719Y01288*
X00708Y01295*
X00695Y01298*
G37*
G36*
X00525Y00684D02*
X00457D01*
Y00637*
X0045Y00634*
X00409*
X00407Y0064*
X00403Y00646*
X00397Y0065*
X00389Y00652*
X00298*
X00291Y0065*
X00284Y00646*
X0028Y0064*
X00278Y00632*
Y00557*
X0028Y00549*
X00284Y00543*
X00291Y00539*
X00298Y00537*
X00389*
X00397Y00539*
X00403Y00543*
X00407Y00549*
X00409Y00555*
X0045*
X00457*
X00582*
Y00559*
X00639*
X00643Y00562*
X00652Y0056*
X00695*
X00708Y00563*
X00719Y0057*
X00727Y00581*
X00729Y00594*
X00727Y00607*
X00719Y00618*
X00708Y00626*
X00695Y00628*
X00652*
X0064Y00626*
X00639Y00627*
X00582*
Y00634*
X00525*
Y00684*
G37*
G36*
X00695Y0055D02*
X00652D01*
X00639Y00547*
X00628Y0054*
X0062Y00529*
X00618Y00516*
X0062Y00503*
X00628Y00491*
X00639Y00484*
X00652Y00481*
X00695*
X00708Y00484*
X00719Y00491*
X00727Y00503*
X00729Y00516*
X00727Y00529*
X00719Y0054*
X00708Y00547*
X00695Y0055*
G37*
G36*
X01884Y01062D02*
X01841D01*
X01828Y01059*
X01817Y01052*
X01809Y0104*
X01807Y01027*
X01809Y01014*
X01814Y01008*
X01809Y01001*
X01807Y00988*
X01809Y00975*
X01814Y00968*
X01809Y00962*
X01807Y00949*
X01809Y00936*
X01817Y00925*
X01828Y00917*
X01841Y00915*
X01884*
X01897Y00917*
X01908Y00925*
X01916Y00936*
X01918Y00949*
X01916Y00962*
X01911Y00968*
X01916Y00975*
X01918Y00988*
X01916Y01001*
X01911Y01008*
X01916Y01014*
X01918Y01027*
X01916Y0104*
X01908Y01052*
X01897Y01059*
X01884Y01062*
G37*
G36*
Y00904D02*
X01841D01*
X01828Y00901*
X01817Y00894*
X01809Y00883*
X01807Y0087*
X01809Y00857*
X01814Y0085*
X01809Y00844*
X01807Y00831*
X01809Y00818*
X01814Y00811*
X01809Y00804*
X01807Y00791*
X01809Y00778*
X01814Y00772*
X01809Y00765*
X01807Y00752*
X01809Y00739*
X01817Y00728*
X01828Y0072*
X01841Y00718*
X01884*
X01897Y0072*
X01908Y00728*
X01916Y00739*
X01918Y00752*
X01916Y00765*
X01911Y00772*
X01916Y00778*
X01918Y00791*
X01916Y00804*
X01911Y00811*
X01916Y00818*
X01918Y00831*
X01916Y00844*
X01911Y0085*
X01916Y00857*
X01918Y0087*
X01916Y00883*
X01908Y00894*
X01897Y00901*
X01884Y00904*
G37*
%LNesp_gsm_v1.1-3*%
%LPD*%
G54D11*
X0027Y01916D02*
Y01945D01*
X0031Y01985D02*
X00432D01*
X0027Y01945D02*
X0031Y01985D01*
X00223Y01869D02*
X0027Y01916D01*
X0053Y0327D02*
Y03413D01*
X00492Y03452D02*
Y035D01*
X00497Y03506D02*
Y0351D01*
X00492Y03452D02*
X0053Y03413D01*
Y0327D02*
X00531Y0327D01*
X0051Y0327D02*
Y03405D01*
X00466Y03506D02*
Y0351D01*
X00492Y035D02*
X00497Y03506D01*
X00472Y03444D02*
X0051Y03405D01*
X00472Y03444D02*
Y035D01*
X00466Y03506D02*
X00472Y035D01*
X0051Y0327D02*
X00511D01*
X0033Y0335D02*
X00375Y03305D01*
X0033Y0335D02*
Y03402D01*
X00375Y03305D02*
X0046D01*
X00471Y03293*
Y0327D02*
Y03293D01*
X00441Y03227D02*
X00471Y03257D01*
X00428Y03227D02*
X00441D01*
X00471Y03257D02*
Y0327D01*
X00665Y0298D02*
X00702Y03017D01*
X00665Y0285D02*
Y0298D01*
Y0285D02*
X00705Y0281D01*
X00698Y03161D02*
X00778D01*
X0079Y03133D02*
Y0315D01*
X00778Y03161D02*
X0079Y0315D01*
X00672Y03187D02*
X00698Y03161D01*
X00758Y0318D02*
X00845D01*
X00736Y03201D02*
X00758Y0318D01*
X00853Y0013D02*
X0238D01*
X0081Y00173D02*
X00853Y0013D01*
X0238D02*
X02475Y00225D01*
X02369Y00154D02*
X0245Y00235D01*
X00828Y00197D02*
X00871Y00154D01*
X02369*
X00828Y00197D02*
Y00368D01*
X01435Y0264D02*
Y02677D01*
X0146Y02702D02*
Y02734D01*
X01435Y02677D02*
X0146Y02702D01*
X01335Y02677D02*
X0136Y02702D01*
X01335Y0264D02*
Y02677D01*
X0136Y02702D02*
Y02734D01*
X01235Y02677D02*
X0126Y02702D01*
Y02734*
X01235Y0264D02*
Y02677D01*
X0116Y02665D02*
Y02734D01*
X01135Y0264D02*
X0116Y02665D01*
X0096Y02671D02*
X00991Y0264D01*
X01135*
X0096Y02671D02*
Y02786D01*
X00942Y02803D02*
Y02841D01*
Y02803D02*
X0096Y02786D01*
X01005Y02841D02*
X01009Y02838D01*
X01015Y0281D02*
X01329D01*
X01009Y02817D02*
X01015Y0281D01*
X01009Y02817D02*
Y02838D01*
X01237Y02792D02*
X0126Y0277D01*
Y02734D02*
Y0277D01*
X00981Y02792D02*
X01237D01*
X00974Y02799D02*
X00981Y02792D01*
X01329Y0281D02*
X01357Y02782D01*
X00974Y02799D02*
Y02841D01*
X01357Y02737D02*
X0136Y02734D01*
X01357Y02737D02*
Y02782D01*
X01428Y02841D02*
X0146Y0281D01*
Y02734D02*
Y0281D01*
X01037Y02841D02*
X01428D01*
X01285Y02934D02*
X0155D01*
X0126Y0296D02*
Y03015D01*
Y0296D02*
X01285Y02934D01*
X0136Y02983D02*
X01388Y02955D01*
X0157*
X0159Y02934*
X01181Y02903D02*
X01527D01*
X0116Y02925D02*
X01181Y02903D01*
X0116Y02925D02*
Y03015D01*
X01555Y02907D02*
Y02929D01*
Y02907D02*
X01559Y02903D01*
X0155Y02934D02*
X01555Y02929D01*
X0159Y02903D02*
Y02934D01*
X0136Y02983D02*
Y03015D01*
X01622Y02903D02*
Y02982D01*
X01589Y03015D02*
X01622Y02982D01*
X0146Y03015D02*
X01589D01*
X01308Y03113D02*
X01309Y03112D01*
Y03021D02*
Y03112D01*
X01307Y03019D02*
X01309Y03021D01*
X03111Y00507D02*
Y00512D01*
X03125Y00525*
Y0085*
X03155Y0088*
X0323*
X03111Y00476D02*
X03115Y00479D01*
X03139*
X0315Y0049*
Y00765*
X03165Y0078*
X0323*
X03111Y00444D02*
X03111Y00445D01*
X0316*
X0317Y00455*
Y00665*
X03182Y00677*
X03227*
X0323Y0068*
X03111Y00413D02*
X03168D01*
X0323Y00475*
Y0058*
X03225Y0039D02*
X033Y00465D01*
X02835Y0039D02*
X03225D01*
X02825Y0038D02*
X02835Y0039D01*
X0305Y01105D02*
Y01146D01*
X03046Y01102D02*
X0305Y01105D01*
X02979Y00992D02*
X02983D01*
X02998Y01007D02*
X03046D01*
X02983Y00992D02*
X02998Y01007D01*
X02982Y01037D02*
X03044D01*
X0298Y01035D02*
X02982Y01037D01*
X03044D02*
X03046Y01039D01*
X0298Y01075D02*
X02982Y01072D01*
X03044D02*
X03046Y0107D01*
X02982Y01072D02*
X03044D01*
X0035Y0303D02*
Y0308D01*
Y0303D02*
X0039Y0299D01*
X00325Y03105D02*
X0035Y0308D01*
X00245Y03105D02*
X00325D01*
X0039Y0299D02*
X00415D01*
X0022Y0308D02*
X00245Y03105D01*
X0022Y02999D02*
Y0308D01*
X00432Y01985D02*
X00442Y01975D01*
X00445*
X00447Y01972*
Y019D02*
Y01972D01*
X0015Y00465D02*
Y01415D01*
Y00465D02*
X00355Y0026D01*
Y0006D02*
Y0026D01*
Y0006D02*
X0039Y00025D01*
X01325Y00255D02*
X01326Y00256D01*
Y00333D02*
X01327Y00335D01*
X01326Y00256D02*
Y00333D01*
X02379Y00326D02*
X02409D01*
X02475Y00225D02*
Y00425D01*
X0241Y0049D02*
X02475Y00425D01*
X0088Y00419D02*
Y0129D01*
X00725Y01445D02*
X0088Y0129D01*
X00828Y00368D02*
X0088Y00419D01*
X0081Y00375D02*
X00855Y0042D01*
Y01285*
X0081Y00173D02*
Y00375D01*
X00725Y01415D02*
X00855Y01285D01*
X0039Y00025D02*
X0071D01*
X00775Y0009*
X0075Y01897D02*
Y02089D01*
X0075Y0209D02*
X0075Y02089D01*
Y01897D02*
X00751Y01897D01*
X018Y02758D02*
X01802Y02761D01*
X018Y0274D02*
Y02758D01*
X01772Y02712D02*
X018Y0274D01*
X01701Y02712D02*
X01772D01*
X01603Y02614D02*
X01701Y02712D01*
X01199Y02614D02*
X01603D01*
X01825Y02575D02*
X01887D01*
X0189Y02572*
X00447Y019D02*
X00451Y01897D01*
X00855Y01834D02*
X00874Y01815D01*
X00922*
X00855Y01834D02*
Y01892D01*
X01352Y01832D02*
X01356Y01828D01*
X0341Y00455D02*
X03445Y0042D01*
X0361*
X0333Y0093D02*
X0341Y0085D01*
Y00455D02*
Y0085D01*
X033Y00465D02*
Y0062D01*
X0323Y0063D02*
X0329D01*
X033Y0062*
X02825Y00304D02*
Y0038D01*
X0224Y0049D02*
X0241D01*
X0245Y00235D02*
Y00415D01*
X02374Y00446D02*
X02418D01*
X0245Y00415*
X02374Y00389D02*
X02404D01*
X0231D02*
X02374D01*
X02342Y00208D02*
Y00238D01*
X02329Y00195D02*
X02342Y00208D01*
X02115Y00195D02*
X02329D01*
X00702Y03017D02*
X00847D01*
X00875Y03045*
Y03215*
X02041Y01185D02*
X021D01*
X0204Y01187D02*
X02041Y01185D01*
X02199Y01205D02*
X02208Y01196D01*
X0219Y01125D02*
Y01175D01*
X02157Y0119D02*
X02174D01*
X02199Y01205D02*
Y0126D01*
X02174Y0119D02*
X0219Y01175D01*
X02153Y01193D02*
X02157Y0119D01*
X02165Y01295D02*
X02199Y0126D01*
X02149Y01055D02*
X0215Y01055D01*
X02149Y0111D02*
X02149Y01109D01*
Y01055D02*
Y01109D01*
X01915Y0139D02*
Y017D01*
X021Y01244D02*
X02153D01*
X02153*
X021Y01244D02*
Y01244D01*
X02095Y0128D02*
X021Y01275D01*
Y01244D02*
Y01275D01*
X02094Y0128D02*
X02095D01*
X02175Y0111D02*
X0219Y01125D01*
X02149Y0111D02*
X02175D01*
X0202D02*
X0209D01*
X0198Y0115D02*
X0202Y0111D01*
X0198Y0115D02*
Y01192D01*
X021Y01185D02*
X021Y01184D01*
Y01155D02*
Y01184D01*
Y01155D02*
X02155D01*
X0194Y01434D02*
Y0166D01*
X01977Y01422D02*
Y01566D01*
X02105Y01295D02*
X02165D01*
X01977Y01422D02*
X02105Y01295D01*
X0194Y01434D02*
X02094Y0128D01*
X02208Y01196D02*
X02222D01*
X0206Y0025D02*
X02115Y00195D01*
X02036Y00673D02*
X02085Y00625D01*
X0206Y0025D02*
Y00605D01*
X0203Y00634D02*
X0206Y00605D01*
X02085Y0027D02*
Y00625D01*
X02116Y00238D02*
X02187D01*
X02085Y0027D02*
X02116Y00238D01*
X01915Y017D02*
X0195Y01735D01*
X01862Y00634D02*
X0203D01*
X01862Y00673D02*
X02036D01*
X02217Y00446D02*
X0222Y00448D01*
Y0047*
X0212Y0057D02*
Y00985D01*
X0222Y0047D02*
X0224Y0049D01*
X0065Y01897D02*
Y02004D01*
X007Y02055D02*
X007Y02054D01*
X0065Y02005D02*
X0065Y02004D01*
X007Y01897D02*
Y02054D01*
X0139Y01865D02*
X0158D01*
X01597Y01847*
X0137Y01885D02*
X0139Y01865D01*
X01597Y01828D02*
Y01847D01*
X00899Y03415D02*
X00899Y03415D01*
X00944*
X00736Y0325D02*
X00749D01*
X00605Y01445D02*
X00725D01*
X00635Y01415D02*
X00725D01*
X00603Y01899D02*
Y01963D01*
X00601Y01897D02*
X00603Y01899D01*
Y01963D02*
X00605Y01965D01*
X00035Y0153D02*
X0015Y01415D01*
X00223Y0183D02*
Y01869D01*
X00129D02*
X00223D01*
X00035Y01775D02*
X00129Y01869D01*
X00035Y0153D02*
Y01775D01*
X00721Y03547D02*
X00841D01*
X00847Y03527D02*
Y03541D01*
Y03527D02*
X00857Y03517D01*
X00841Y03547D02*
X00847Y03541D01*
X00715D02*
X00721Y03547D01*
X00715Y0341D02*
Y03541D01*
X009Y0362D02*
Y03709D01*
X00857Y03606D02*
X00886D01*
X009Y0362*
X0137Y01885D02*
Y01975D01*
X01352Y01832D02*
Y01962D01*
X01235Y0211D02*
X0137Y01975D01*
X01215Y021D02*
X01352Y01962D01*
X01215Y021D02*
Y0213D01*
X01235Y0211D02*
Y02145D01*
X0119Y02155D02*
X01215Y0213D01*
X01208Y02171D02*
X01235Y02145D01*
X0119Y02155D02*
Y02445D01*
X01208Y02171D02*
Y02456D01*
X01132Y02532D02*
X01208Y02456D01*
X0112Y02515D02*
X0119Y02445D01*
X00645Y03227D02*
Y03237D01*
X00922Y01815D02*
X00925Y01818D01*
X00995Y01884D02*
X0102Y0186D01*
X00962Y01884D02*
X00995D01*
X00901Y01884D02*
X0095Y01834D01*
X00972D02*
X00973Y01835D01*
X00982*
X00985Y01838*
X0095Y01834D02*
X00972D01*
X00901Y01884D02*
Y01897D01*
X00951Y01896D02*
Y01897D01*
Y01896D02*
X00962Y01884D01*
X00851Y01897D02*
X00855Y01892D01*
X0065Y01897D02*
X00651Y01897D01*
X00797Y03253D02*
X00836D01*
X00875Y03215*
X00661Y03253D02*
X00726D01*
X00551Y01746D02*
Y01897D01*
X005Y01695D02*
X00551Y01746D01*
X005Y01805D02*
Y01896D01*
X005Y01805D02*
X005Y01805D01*
Y01896D02*
X00501Y01897D01*
X0239Y01075D02*
X0241Y01095D01*
X02455*
X0212Y00985D02*
X0221Y01075D01*
X0239*
X00775Y0009D02*
X0081D01*
X0082Y0008*
X00415Y0102D02*
X0043Y01035D01*
Y01069*
X0043Y0107*
X02165Y006D02*
D01*
X02212*
X006Y0247D02*
Y02605D01*
X006Y0247D02*
X006Y0247D01*
X0065D02*
Y02605D01*
X0065Y0247D02*
X0065Y0247D01*
Y02605D02*
X00651Y02606D01*
X006Y02605D02*
X00601Y02606D01*
X0049Y02545D02*
X00501Y02556D01*
X00385Y02545D02*
X0049D01*
X00501Y02556D02*
Y02606D01*
X01135Y0255D02*
X01199Y02614D01*
X00747Y0267D02*
X0085D01*
X00701Y02623D02*
X00747Y0267D01*
X00701Y02606D02*
Y02623D01*
X00869Y0255D02*
X01135D01*
X00855Y02565D02*
X00869Y0255D01*
X00851Y02606D02*
X00855Y02602D01*
Y02565D02*
Y02602D01*
X00842Y02532D02*
X01132D01*
X00751Y02588D02*
X00824Y02515D01*
X0112*
X00805Y02569D02*
X00842Y02532D01*
X01597Y01828D02*
X01601Y01824D01*
X00805Y02569D02*
Y02601D01*
X00801Y02606D02*
X00805Y02601D01*
X033Y03755D02*
X03373D01*
X03215Y0367D02*
X033Y03755D01*
X00705Y0281D02*
X00865D01*
X00893Y0276D02*
X00895Y02761D01*
Y0278*
X00865Y0281D02*
X00895Y0278D01*
X008Y0183D02*
X00801Y01831D01*
Y01897*
X00751Y02588D02*
Y02606D01*
X00715Y03385D02*
Y0341D01*
X0076*
X00745Y03765D02*
Y03819D01*
Y037D02*
Y03765D01*
X00894Y03715D02*
X00945D01*
X00065Y0335D02*
X00155D01*
X00065Y0345D02*
X00225D01*
X00223Y0177D02*
Y0183D01*
X007Y01897D02*
X00701Y01897D01*
X00804Y02898D02*
X00811Y02905D01*
X0053Y03012D02*
Y03066D01*
X00528Y0301D02*
X0053Y03012D01*
X0041Y03341D02*
X00465D01*
X00469*
X00491Y03319*
Y0327D02*
Y03319D01*
X00727Y03201D02*
X00736D01*
X00795Y0323D02*
X00797Y03227D01*
X00769Y0323D02*
X00795D01*
X00749Y0325D02*
X00769Y0323D01*
X00729Y03224D02*
X00748D01*
X00767Y03204*
X00795D02*
X00797Y03201D01*
X00767Y03204D02*
X00795D01*
X00727Y03227D02*
X00729Y03224D01*
X00682Y03227D02*
X00727D01*
X00632Y03227D02*
X00645D01*
Y03237D02*
X00661Y03253D01*
X00632Y03187D02*
X00672D01*
X00654Y03148D02*
X00684Y03117D01*
X00632Y03148D02*
X00654D01*
X00684Y03114D02*
Y03117D01*
X0075Y03825D02*
X00802D01*
X00745Y03819D02*
X0075Y03825D01*
X00745Y037D02*
X00767Y03677D01*
X00815*
X00725Y03375D02*
X00818D01*
X00715Y03385D02*
X00725Y03375D01*
X00818D02*
X0082Y03377D01*
X00905Y03335D02*
Y03409D01*
X00899Y03415D02*
X00905Y03409D01*
X00883Y03313D02*
X00905Y03335D01*
X00857Y03313D02*
X00883D01*
X00894Y03715D02*
X009Y03709D01*
X0227Y02045D02*
Y02138D01*
X02233Y0204D02*
X02264D01*
X0227Y02045*
X02152Y00389D02*
X02217D01*
Y00345D02*
Y00389D01*
Y00345D02*
X02224Y00337D01*
Y00326D02*
Y00337D01*
X02404Y00389D02*
X02409Y00383D01*
Y00326D02*
Y00383D01*
X02255Y0114D02*
X0231D01*
X0234Y0117*
X02226Y01168D02*
X02255Y0114D01*
X02275Y01247D02*
Y01285D01*
Y01247D02*
X02275Y01247D01*
X01862Y01303D02*
X01925D01*
X01862Y01264D02*
X01925D01*
X02251Y01218D02*
X02265Y01232D01*
X02226Y01218D02*
X02251D01*
X02265Y01232D02*
Y01237D01*
X02275Y01247*
X02222Y01196D02*
X02226Y01193D01*
X01977Y01566D02*
X01983Y01572D01*
X02008*
X02021Y01585*
X0194Y0166D02*
X01965Y01685D01*
X02021*
X0195Y01735D02*
X02021D01*
X01972Y01185D02*
X0198Y01192D01*
X01862Y01185D02*
X01972D01*
X02399Y01248D02*
X024Y01247D01*
X0234Y01248D02*
X02399D01*
X0234Y01189D02*
D01*
Y0117D02*
Y01189D01*
X02226Y01168D02*
Y01193D01*
X0295Y0068D02*
X03024D01*
X02949Y0068D02*
X0295Y0068D01*
X03024D02*
X03025Y0068D01*
Y00596D02*
Y00649D01*
X03008Y0058D02*
X03025Y00596D01*
X02949Y0058D02*
X03008D01*
X02949Y0078D02*
X03025D01*
X02684Y01154D02*
X02685Y01155D01*
X02684Y01095D02*
Y01154D01*
Y01045D02*
Y01095D01*
X02751Y0107D02*
X02765Y01083D01*
X02949Y0088D02*
X03025D01*
X0323Y0093D02*
X0333D01*
X00335Y01103D02*
X00336Y01105D01*
X00335Y01075D02*
Y01103D01*
X00311Y01051D02*
X00335Y01075D01*
X00311Y0102D02*
Y01051D01*
X00368Y0102D02*
X00415D01*
G54D12*
X00593Y03636D02*
Y03669D01*
X00591Y03634D02*
X00593Y03636D01*
X00591Y03614D02*
Y03634D01*
X00579Y03579D02*
X00582Y03577D01*
X00566Y03624D02*
Y03667D01*
X00551Y03568D02*
Y0361D01*
X00577Y03589D02*
Y03599D01*
X00579Y03579D02*
Y03587D01*
X00551Y03568D02*
X0058Y0354D01*
X00577Y03589D02*
X00579Y03587D01*
X00551Y0361D02*
X00566Y03624D01*
X00577Y03599D02*
X00591Y03614D01*
X00566Y03667D02*
X00568Y03669D01*
X0056Y0337D02*
Y0351D01*
X0052Y0355D02*
X0056Y0351D01*
X00375Y0355D02*
X0052D01*
X0056Y0337D02*
X0061Y0332D01*
X00225Y034D02*
X00265D01*
X00275Y0341*
Y0345*
X0069Y0314D02*
X00723D01*
X0073Y03133*
X00661Y03168D02*
X0069Y0314D01*
X00951Y02606D02*
Y02621D01*
X00868Y02851D02*
X0093Y0279D01*
Y02642D02*
X00951Y02621D01*
X0093Y02642D02*
Y0279D01*
X0111Y03014D02*
Y03315D01*
X0112Y03325*
X01225*
X0121Y0316D02*
X01275Y03225D01*
X0121Y03012D02*
Y0316D01*
X00951Y02897D02*
X01034D01*
X01037Y029*
Y02908*
X00271Y0281D02*
X0028Y02819D01*
X00263Y02872D02*
X0028Y02855D01*
X00271Y02807D02*
Y0281D01*
X0028Y02819D02*
Y02855D01*
X00304Y02695D02*
Y02934D01*
X00305Y02935*
Y03055*
X00304Y02695D02*
X0035Y0265D01*
X00263Y02872D02*
Y02904D01*
X00257Y0291D02*
X00263Y02904D01*
X00242Y02775D02*
Y0284D01*
X00205Y02899D02*
X00232Y02872D01*
Y02849D02*
Y02872D01*
Y02849D02*
X00242Y0284D01*
X00188Y02899D02*
X00205D01*
X00182Y02905D02*
X00188Y02899D01*
X00182Y02905D02*
Y0291D01*
X00471Y02974D02*
Y02976D01*
Y0301*
X00351Y01897D02*
Y01948D01*
X00357Y01955D02*
X00385D01*
X00351Y01948D02*
X00357Y01955D01*
X01775Y02815D02*
X01806D01*
X01812Y0282D02*
Y02825D01*
X01806Y02815D02*
X01812Y0282D01*
X00894Y01465D02*
Y01523D01*
X01012Y01462D02*
Y01523D01*
X01869Y02177D02*
Y02201D01*
X01865Y02173D02*
X01869Y02177D01*
X01865Y0217D02*
Y02173D01*
X01869Y02201D02*
X01878Y0221D01*
Y02214D02*
X01891Y02228D01*
Y02265*
X01878Y0221D02*
Y02214D01*
X01889Y019D02*
Y01936D01*
X01746Y01978D02*
X01785D01*
X02498Y00205D02*
X02517D01*
X02555Y00215D02*
X028D01*
X02517Y00205D02*
X0255Y00238D01*
X02502Y00147D02*
Y00162D01*
X0255Y00238D02*
Y0029D01*
X02502Y00162D02*
X02555Y00215D01*
X02389Y00095D02*
X02498Y00205D01*
X02435Y0008D02*
X02502Y00147D01*
X0235Y00095D02*
X02389D01*
X0255Y0029D02*
X0257Y0031D01*
X0016Y0284D02*
X00187D01*
X00135Y02865D02*
X0016Y0284D01*
X00135Y02865D02*
Y02895D01*
X00115Y02915D02*
X00135Y02895D01*
X00065Y02915D02*
X00115D01*
X0022Y02972D02*
Y02999D01*
X00207Y0296D02*
X0022Y02972D01*
X0004Y0296D02*
X00207D01*
X00021Y02941D02*
X0004Y0296D01*
X00021Y02834D02*
Y02941D01*
X00031Y02824D02*
X00055D01*
X00021Y02834D02*
X00031Y02824D01*
X00055D02*
X00065Y02815D01*
X0033Y0274D02*
X00383D01*
X00385Y02738*
X0035Y02607D02*
X00351Y02606D01*
X0035Y02607D02*
Y0265D01*
X01843Y02615D02*
X01854Y02626D01*
X0184Y02615D02*
X01843D01*
X01889Y02626D02*
X0189Y02627D01*
X01854Y02626D02*
X01889D01*
X0243Y0231D02*
Y0246D01*
X0245Y0248*
X0243Y0231D02*
X02442Y02297D01*
X02461D02*
X0247Y02288D01*
X02442Y02297D02*
X02461D01*
X00528Y02941D02*
X0053Y0294D01*
X00465Y02942D02*
X00466Y02941D01*
X00465Y02832D02*
X0048Y02817D01*
X00465Y02832D02*
Y02885D01*
X00365Y02841D02*
Y02885D01*
Y02841D02*
X00385Y02821D01*
X01375Y00475D02*
X015D01*
X01288Y00388D02*
X01375Y00475D01*
X015D02*
X01513Y00488D01*
Y01258D02*
X0174Y01485D01*
X01513Y00488D02*
Y01258D01*
X01542Y00439D02*
Y01252D01*
X01765Y01475*
X01535Y00432D02*
X01542Y00439D01*
X01571Y01641D02*
Y01688D01*
X0157Y0164D02*
X01571Y01641D01*
X01212Y0163D02*
Y0167D01*
X01171Y01711D02*
X01212Y0167D01*
X01171Y01711D02*
Y02121D01*
X01151Y01703D02*
X01187Y01667D01*
Y01595D02*
Y01667D01*
X01151Y01703D02*
Y02113D01*
X01132Y01692D02*
X01161Y01663D01*
X0109Y01675D02*
X01108Y01656D01*
X01136Y016D02*
Y01658D01*
X01108Y01632D02*
Y01656D01*
X0111Y01685D02*
X01136Y01658D01*
X01161Y0163D02*
Y01663D01*
X0109Y01675D02*
Y02065D01*
X0111Y01685D02*
Y02099D01*
X01132Y01692D02*
Y02105D01*
X01352Y01825D02*
X01356Y01828D01*
X01266Y01825D02*
X01352D01*
X0126Y01818D02*
X01266Y01825D01*
X0126Y01802D02*
Y01818D01*
X01264Y01802D02*
X01273Y0181D01*
X0126Y01802D02*
X01264D01*
X02765Y01045D02*
Y01083D01*
X0272Y01D02*
X02765Y01045D01*
X0269Y01D02*
X0272D01*
X02684Y00995D02*
X0269Y01D01*
X0164Y01105D02*
X01862D01*
X0164Y01105D02*
X0164Y01105D01*
X01496Y00432D02*
X01535D01*
X01862Y01105D02*
X01864Y01108D01*
X0367Y0042D02*
X0373Y0036D01*
X0361Y0042D02*
X0367D01*
X0373Y0025D02*
Y0036D01*
X03646Y0024D02*
X0372D01*
X0373Y0025*
X03646Y0024D02*
X03649Y00237D01*
Y00214D02*
Y00237D01*
X0367Y00285D02*
X03683Y00298D01*
Y00329*
X03597Y00252D02*
X0363Y00285D01*
X0367*
X03545Y00252D02*
X03597D01*
X03488D02*
X03545D01*
X03485Y00305D02*
X03488Y00307D01*
X03465Y00305D02*
X03485D01*
X03445Y00285D02*
X03465Y00305D01*
X03445Y00235D02*
Y00285D01*
X0343Y0022D02*
X03445Y00235D01*
X03407Y0022D02*
X0343D01*
X03332Y00145D02*
X03407Y0022D01*
X0323Y0083D02*
X03315D01*
X03375Y0077*
Y004D02*
Y0077D01*
Y004D02*
X03415Y0036D01*
Y0026D02*
Y0036D01*
X03395Y0024D02*
X03415Y0026D01*
X0333Y0024D02*
X03395D01*
X0333Y00205D02*
Y0024D01*
X029Y0017D02*
X03295D01*
X0333Y00205*
X0287Y0014D02*
X029Y0017D01*
X03367Y00329D02*
X0337Y00326D01*
Y00286D02*
Y00326D01*
X03305Y0028D02*
X03363D01*
X0337Y00286*
X03277Y00252D02*
X03305Y0028D01*
X03228Y00252D02*
X03277D01*
X03172D02*
X03228D01*
X03172D02*
D01*
X0323Y0073D02*
X0331D01*
X0334Y007*
Y00455D02*
Y007D01*
X03255Y0037D02*
X0334Y00455D01*
X0288Y00215D02*
X03085D01*
Y00215*
X0311Y0024*
X03167Y00305D02*
X0317Y00302D01*
X03145Y00305D02*
X03167D01*
X0313Y0029D02*
X03145Y00305D01*
X0311Y00364D02*
X03116Y0037D01*
X0309Y0019D02*
X0313Y00229D01*
X0311Y0024D02*
Y00364D01*
X0313Y00229D02*
Y0029D01*
X02857Y00155D02*
X02892Y0019D01*
X0309*
X03072Y00324D02*
X03075Y00321D01*
Y003D02*
Y00321D01*
X0306Y00285D02*
X03075Y003D01*
X0302Y00285D02*
X0306D01*
X02987Y00252D02*
X0302Y00285D01*
X02935Y00252D02*
X02987D01*
X0288D02*
X02935D01*
X02675Y00175D02*
X0284D01*
X0288Y00215*
X02825Y0024D02*
Y00304D01*
X028Y00215D02*
X02825Y0024D01*
X02877Y00305D02*
X0288Y00307D01*
X0286Y00305D02*
X02877D01*
X02845Y0029D02*
X0286Y00305D01*
X02845Y00225D02*
Y0029D01*
X02815Y00195D02*
X02845Y00225D01*
X03116Y0037D02*
X03255D01*
X02787Y00324D02*
X0279Y00321D01*
Y00295D02*
Y00321D01*
X0278Y00285D02*
X0279Y00295D01*
X02735Y00285D02*
X0278D01*
X02702Y00252D02*
X02735Y00285D01*
X0265Y00252D02*
X02702D01*
X0259D02*
X0265D01*
X0257Y0031D02*
X02587D01*
X0259Y00307*
X02335Y0008D02*
X0235Y00095D01*
X00695Y02875D02*
Y02943D01*
X00701Y0295D02*
X00728D01*
X00695Y02943D02*
X00701Y0295D01*
X00728D02*
X0074Y02961D01*
X0063Y0303D02*
X00676Y03076D01*
X0063Y02845D02*
Y0303D01*
X0052Y02735D02*
X0063Y02845D01*
X00868Y02851D02*
Y02905D01*
X00789Y02878D02*
X00804Y02893D01*
X0074Y02878D02*
X00789D01*
X00804Y02893D02*
Y02898D01*
X0079Y03042D02*
Y03076D01*
X02041Y01242D02*
X02067Y01216D01*
X02151*
X02153Y01218*
X0204Y01242D02*
X02041D01*
X02153Y01193D02*
X02155Y01195D01*
X0245Y0248D02*
X02455D01*
X00555Y03316D02*
Y0332D01*
X0055Y0327D02*
Y03311D01*
X00555Y03316*
X02765Y00155D02*
X02857D01*
X02735Y00125D02*
X02765Y00155D01*
X02535Y0015D02*
X0258Y00195D01*
X02735Y0008D02*
Y00125D01*
X02635Y0008D02*
Y00135D01*
X0258Y00195D02*
X02815D01*
X02635Y00135D02*
X02675Y00175D01*
X03545Y00307D02*
X03547D01*
X0341Y0019D02*
X03625D01*
X03649Y00214*
X03345Y00125D02*
X0341Y0019D01*
X01642Y00335D02*
Y00387D01*
X01645Y0039*
X0216Y00867D02*
Y00905D01*
Y00867D02*
D01*
X0215Y00326D02*
X02151Y00325D01*
X0218*
X01571Y01688D02*
X01573Y0169D01*
X01705Y01605D02*
X0174Y0157D01*
X01402Y01676D02*
X01473Y01605D01*
X01705*
X01331Y01636D02*
Y0169D01*
X0133Y01635D02*
X01331Y01636D01*
X01487Y00432D02*
X01495D01*
X01496Y00432*
X01485Y00435D02*
X01487Y00432D01*
X0174Y01485D02*
Y0157D01*
X01668Y01676D02*
X01765Y0158D01*
Y01475D02*
Y0158D01*
X01639Y01676D02*
X01668D01*
X0163Y01685D02*
X01639Y01676D01*
X0163Y01685D02*
Y0169D01*
X0084Y0198D02*
Y02145D01*
X01492Y01808D02*
Y01828D01*
X01499Y01835D02*
X01591D01*
X01492Y01828D02*
X01499Y01835D01*
X01492Y01808D02*
X01492Y01808D01*
X0246Y03155D02*
X02527D01*
X00857Y03825D02*
D01*
X00933Y03566D02*
X01095Y03405D01*
X0082Y03566D02*
X00933D01*
X0091Y02895D02*
Y0321D01*
X00845Y03275D02*
X0091Y0321D01*
X0117Y00335D02*
Y0041D01*
X0117Y0041*
X01397Y01676D02*
X01402D01*
X01388Y01685D02*
X01397Y01676D01*
X0108Y02184D02*
X01151Y02113D01*
X0106Y02176D02*
X01132Y02105D01*
X011Y02192D02*
X01171Y02121D01*
X01033Y02176D02*
X0111Y02099D01*
X0107Y01655D02*
Y01904D01*
X01012Y01963D02*
X0107Y01904D01*
X01029Y02126D02*
X0109Y02065D01*
X0107Y01655D02*
X01085Y0164D01*
X0097Y0174D02*
X0105Y0182D01*
Y01894*
X00995Y0195D02*
X0105Y01894D01*
X00702Y03322D02*
X0071Y03315D01*
X00695Y0333D02*
X00702Y03322D01*
X0061Y0332D02*
X007D01*
X00702Y03322*
X00275Y0345D02*
X00375Y0355D01*
X008Y03586D02*
X0082Y03566D01*
X008Y03586D02*
Y03603D01*
X00802Y03606*
X011Y02192D02*
Y02229D01*
X011Y0223D02*
X011Y02229D01*
X0108Y02221D02*
Y02325D01*
X011Y0223D02*
Y0239D01*
X0108Y02184D02*
Y02221D01*
X01029Y02376D02*
X0108Y02325D01*
Y02221D02*
X0108Y02221D01*
X01012Y02426D02*
X01064D01*
X011Y0239*
X01012Y02226D02*
X01016Y02221D01*
X01048*
X0106Y02209*
Y02176D02*
Y02209D01*
X01012Y02176D02*
X01033D01*
X01012Y02376D02*
X01029D01*
X01108Y01632D02*
X0111Y0163D01*
X01085Y01595D02*
Y0164D01*
X01388Y01685D02*
Y0169D01*
X01392Y01741D02*
X01397Y01745D01*
X01388Y0169D02*
X01392Y01694D01*
Y01741*
X01012Y02126D02*
X01029D01*
X0087Y0195D02*
X00995D01*
X01012Y01963D02*
Y02026D01*
X0084Y0198D02*
X0087Y0195D01*
X00738Y03268D02*
X00745Y03275D01*
X00845*
X00738Y03255D02*
Y03268D01*
X00727Y03253D02*
X00736D01*
X00738Y03255*
X02582Y03156D02*
X02583Y03155D01*
Y03066D02*
Y03155D01*
Y03066D02*
X02585Y03065D01*
X01012Y02476D02*
X01012Y02475D01*
X01074*
X01075Y02475*
X0041Y00595D02*
X00491D01*
X00301Y02534D02*
X0032Y02515D01*
X00535*
X00301Y02534D02*
Y02606D01*
X00893Y0276D02*
X00897Y02756D01*
Y02609D02*
Y02756D01*
Y02609D02*
X00901Y02606D01*
X0055Y03187D02*
Y0327D01*
X0053Y03168D02*
X0055Y03187D01*
X01288Y00335D02*
Y00388D01*
X0234Y01248D02*
D01*
Y0129D01*
X01591Y01835D02*
X01595Y01831D01*
X00745Y03765D02*
X0077D01*
X00402Y01831D02*
X00403Y0183D01*
X00401Y01897D02*
X00402Y01895D01*
X00868Y02905D02*
Y02965D01*
D01*
Y02905D02*
D01*
X00676Y03076D02*
X0073D01*
X0048Y02735D02*
X0052D01*
X00455Y02655D02*
X0048Y0268D01*
Y02735*
X00455Y0261D02*
Y02655D01*
X00451Y02606D02*
X00455Y0261D01*
X00385Y0267D02*
Y02738D01*
Y0267D02*
X00401Y02654D01*
Y02606D02*
Y02654D01*
X00632Y03168D02*
X00661D01*
X0071Y03315D02*
X008D01*
X00802Y03313*
X00695Y0333D02*
Y03595D01*
X00706Y03606*
X00802*
Y03515D02*
Y03517D01*
X00815Y03752D02*
X00817D01*
X0163Y0169D02*
X01639Y01698D01*
Y01745*
X02637Y02421D02*
X02638Y02421D01*
X0254Y02421D02*
X02637D01*
X02538Y0242D02*
X0254Y02421D01*
X02538Y0235D02*
Y0242D01*
X01862Y01224D02*
X01924D01*
X02489Y01155D02*
X0249Y01154D01*
X0247Y01155D02*
X02489D01*
X02455Y0114D02*
X0247Y01155D01*
X02455Y01095D02*
Y0114D01*
X02835Y0008D02*
X02847D01*
X02862Y00095*
X02863D02*
X0287Y00102D01*
Y0014*
X02862Y00095D02*
X02863D01*
X03045Y00125D02*
X03345D01*
X03035Y00115D02*
X03045Y00125D01*
X02935Y00125D02*
X02955Y00145D01*
X03332*
X02935Y0008D02*
Y00125D01*
X03035Y0008D02*
Y00115D01*
X02879Y00307D02*
X0288Y00307D01*
X02535Y0008D02*
Y0015D01*
X03488Y00307D02*
D01*
X01028Y00215D02*
Y0027D01*
X01015Y00287D02*
Y00331D01*
X01028Y0027D02*
Y00274D01*
X01012Y00335D02*
X01015Y00331D01*
Y00287D02*
X01028Y00274D01*
X00491Y00595D02*
D01*
Y00645D01*
D01*
X00548Y00595D02*
X0055Y00593D01*
X006*
X006Y00594D02*
X00673D01*
X00673Y00594*
X006Y00593D02*
X006Y00594D01*
X00525Y01032D02*
X0053Y01026D01*
Y00955D02*
Y01026D01*
X00519Y01032D02*
X00525D01*
X00485Y00955D02*
X0053D01*
X00484Y00955D02*
X00485Y00955D01*
X0059D02*
X00595Y0095D01*
Y0093D02*
Y0095D01*
Y0093D02*
X00615Y00909D01*
X00673*
X00495Y01345D02*
X00495Y01345D01*
X00495Y01345D02*
Y01395D01*
X00495Y01395D02*
X00495Y01395D01*
X0038Y01345D02*
X00381Y01343D01*
X00445*
X00494D02*
X00495Y01345D01*
X00445Y01343D02*
X00494D01*
X00555D02*
X00605D01*
X00554Y01345D02*
X00555Y01343D01*
X00605D02*
X00605Y01343D01*
X00673D02*
X00673Y01342D01*
X00605Y01343D02*
X00673D01*
G54D13*
X00325Y03203D02*
X0035D01*
X00375Y03224D02*
X00384D01*
X00385Y03225*
X0035Y03203D02*
X00354D01*
X00375Y03224*
X00619Y03375D02*
X0062Y03375D01*
X00619Y03375D02*
Y03638D01*
X0033Y03279D02*
X00335Y03284D01*
X00285Y03208D02*
Y03211D01*
Y03208D02*
X0029Y03203D01*
X00295*
X0022Y03223D02*
X00273D01*
X00285Y03211*
X002Y03375D02*
X00225Y034D01*
X01385Y02665D02*
X01385Y02665D01*
X0141Y02701D02*
Y02734D01*
X01385Y02677D02*
X0141Y02701D01*
X01385Y02665D02*
Y02677D01*
X01285Y0267D02*
X01285Y0267D01*
X0131Y02701D02*
Y02734D01*
X01285Y02677D02*
X0131Y02701D01*
X01285Y0267D02*
Y02677D01*
X00971Y00335D02*
X00972Y00334D01*
X00673Y00555D02*
X00729D01*
X01656Y02855D02*
Y03192D01*
X01682*
X01623Y02843D02*
X01644D01*
X01528Y02835D02*
X01615D01*
X01622Y02842D02*
X01623Y02843D01*
X01587Y03192D02*
X01656D01*
X01622Y02836D02*
Y02842D01*
X01644Y02843D02*
X01656Y02855D01*
X01095Y03405D02*
X01375D01*
X01587Y03192*
X01527Y02835D02*
X01528Y02835D01*
X00974Y02962D02*
X00974Y02962D01*
Y02908D02*
X00974Y02908D01*
X00974Y02908D02*
Y02962D01*
X00974Y03389D02*
X0098Y03395D01*
X00974Y02962D02*
Y03389D01*
X03044Y00413D02*
Y00444D01*
Y00476D02*
Y00507D01*
Y00444D02*
Y00476D01*
X02529Y00444D02*
X03044D01*
X03113Y01102D02*
Y01151D01*
Y0107D02*
Y01102D01*
Y01039D02*
Y0107D01*
Y01007D02*
Y01039D01*
X03102Y01162D02*
X03113Y01151D01*
X03102Y01162D02*
Y01163D01*
X01682Y03192D02*
X01785Y03295D01*
X00325Y03203D02*
Y03279D01*
X00295Y03203D02*
X00325D01*
X01637Y00219D02*
X01638Y00219D01*
X016Y0022D02*
X016Y00219D01*
X01674D02*
X01675Y0022D01*
X01638Y00218D02*
X01639Y00219D01*
X01674*
X01675Y0022D02*
X01735D01*
X016Y00219D02*
X01637D01*
X01578Y0022D02*
X016D01*
X01573Y00214D02*
X01578Y0022D01*
X0151Y00214D02*
X01573D01*
X01845Y01921D02*
X01851Y01927D01*
Y01936*
X01785Y01921D02*
X01845D01*
X00815Y00498D02*
Y005D01*
X00506Y0019D02*
X00815Y00498D01*
X00505Y00145D02*
X00506Y00146D01*
Y0019*
X00934Y00429D02*
X00935Y0043D01*
X00971Y0021D02*
Y00215D01*
X00933Y00335D02*
X00934Y00335D01*
X00285Y01635D02*
Y01685D01*
X0032Y0172*
X00802Y03515D02*
X0082Y03496D01*
X01855Y02572D02*
X02012D01*
X02053Y02479D02*
Y02531D01*
X02012Y02572D02*
X02053Y02531D01*
X01976Y02295D02*
X01981Y023D01*
X01876Y0231D02*
X01966D01*
X01854Y02265D02*
X01855Y02266D01*
Y02289D02*
X01876Y0231D01*
X01966Y02309D02*
X01971D01*
X01855Y02266D02*
Y02289D01*
X01966Y0231D02*
X01966Y02309D01*
X01971D02*
X01976Y02304D01*
Y023D02*
Y02304D01*
X01995Y0271D02*
X02428D01*
X0195Y02755D02*
X01995Y0271D01*
X02428D02*
X02493Y02644D01*
X0195Y02755D02*
Y02834D01*
X018Y0297D02*
X0196D01*
X02Y0301*
Y03096*
X01776Y02946D02*
X018Y0297D01*
X0205Y02834D02*
X02051Y02835D01*
X02133D02*
X02135Y02837D01*
X02051Y02835D02*
X02133D01*
X00466Y02941D02*
X00528D01*
X01509Y02193D02*
X01536Y0222D01*
X02038Y02304D02*
X02043Y023D01*
X02049*
X02033Y02034D02*
X02043Y02045D01*
X02033Y01983D02*
Y02034D01*
X01971Y01993D02*
X01976Y01988D01*
X01966Y01993D02*
X01971D01*
X01976Y01983D02*
Y01988D01*
X01965Y01995D02*
X01966Y01993D01*
X01885Y01995D02*
X01965D01*
X01852Y01962D02*
X01885Y01995D01*
X01852Y01937D02*
Y01962D01*
X01851Y01936D02*
X01852Y01937D01*
X01854Y02265D02*
Y02268D01*
X01853Y02269D02*
X01854Y02268D01*
X01821Y02256D02*
X01834Y02269D01*
X01853*
X01821Y0221D02*
Y02256D01*
X01841Y02064D02*
X0185D01*
X01815Y02074D02*
X01832D01*
X01851Y02054D02*
Y02063D01*
X0185Y02064D02*
X01851Y02063D01*
X01832Y02074D02*
X01841Y02064D01*
X01815Y02075D02*
X01815Y02074D01*
X01928Y02266D02*
X01929Y02265D01*
X02038Y023D02*
Y02304D01*
X0284Y0089D02*
D01*
Y00827D02*
Y0089D01*
X0277Y00945D02*
X02823D01*
X02863Y00983D02*
Y01086D01*
X02841Y0096D02*
X02847Y00966D01*
Y00967*
X02863Y00983*
X02838Y0096D02*
X02841D01*
X02684Y00945D02*
X0277D01*
X02823D02*
X02838Y0096D01*
X02726Y01675D02*
Y01835D01*
X02715Y01663D02*
X02726Y01675D01*
Y01835D02*
X02728Y01845D01*
X00072Y03022D02*
X00112D01*
X0014Y0305D02*
Y0325D01*
X00065Y03015D02*
X00072Y03022D01*
X00112D02*
X0014Y0305D01*
X00971Y00215D02*
Y0027D01*
X00875Y01655D02*
X0097D01*
X00869D02*
X00875D01*
Y01741*
Y0165D02*
Y01655D01*
X00859Y01635D02*
X00864Y0164D01*
X01521Y02307D02*
X01523Y0231D01*
X01473Y02307D02*
X01521D01*
X01523Y0231D02*
X01525D01*
X021Y03D02*
Y03096D01*
X0098Y03395D02*
Y0343D01*
X00857Y03825D02*
X0097D01*
X0098Y03395D02*
X0101D01*
X00957Y03452D02*
X0098Y0343D01*
X0082Y03452D02*
X00957D01*
X03075Y0119D02*
X03076D01*
X03102Y01163*
X01718Y00261D02*
X01911D01*
X01715Y00258D02*
X01718Y00261D01*
X01911D02*
X01914Y00265D01*
X0149Y017D02*
Y01705D01*
X01492Y01707D02*
Y01751D01*
X0149Y01705D02*
X01492Y01707D01*
X01785Y03295D02*
X0205D01*
X01409Y02421D02*
X0141Y0242D01*
X01315Y02422D02*
X01316Y02421D01*
X01414Y02195D02*
X01415Y02196D01*
X0133Y02192D02*
X01331Y02193D01*
X01327Y01694D02*
X01331Y0169D01*
X01322Y01745D02*
X01327Y01741D01*
Y01694D02*
Y01741D01*
X00971Y00215D02*
X00976Y0021D01*
X00987Y00177D02*
X01087D01*
X00976Y00189D02*
Y0021D01*
Y00189D02*
X00987Y00177D01*
X01087D02*
X01107Y00197D01*
Y00245*
X0216Y00775D02*
X02175Y0076D01*
X02165Y00818D02*
X02193D01*
X02175Y0076D02*
X02212D01*
X0216Y00775D02*
Y00812D01*
X01012Y00335D02*
X01051D01*
X01483Y02539D02*
Y02582D01*
X0149Y02588*
Y0259*
X01316Y02511D02*
X01316Y02511D01*
X01315Y02422D02*
X01316Y02422D01*
X00852Y01764D02*
Y01765D01*
Y01764D02*
X00875Y01741D01*
X00864Y0164D02*
X00875Y0165D01*
X00365Y02942D02*
X00465D01*
X0014Y0325D02*
X00155D01*
X00065D02*
X0014D01*
X00155D02*
X002Y03295D01*
Y03375*
X00933Y01523D02*
X00973D01*
X00403Y01775D02*
X00405Y01773D01*
X0082Y03452D02*
Y03496D01*
X00817Y03752D02*
X00857Y03792D01*
Y03825*
X01471Y02305D02*
X01473Y02307D01*
X01478Y02535D02*
X01483Y02539D01*
X01478Y02535D02*
X01479Y02533D01*
Y02482D02*
Y02533D01*
X0147Y02477D02*
X01474D01*
X01479Y02482*
X0141Y02477D02*
X0147D01*
X0141D02*
D01*
X0147D02*
D01*
X0182Y02384D02*
X01854D01*
X01471Y02252D02*
Y02305D01*
X0147Y0225D02*
X01471Y02252D01*
X0142Y0225D02*
X0147D01*
X01568Y01694D02*
Y01741D01*
Y01694D02*
X01573Y0169D01*
X01564Y01745D02*
X01568Y01741D01*
X0097Y01595D02*
Y01655D01*
X00971Y01525D02*
X00973Y01523D01*
X00971Y01525D02*
Y01593D01*
X0097Y01595D02*
X00971Y01593D01*
X01735Y02775D02*
Y02823D01*
X01737Y02825*
X01735Y02775D02*
X01747Y02763D01*
Y02761D02*
Y02763D01*
X01776Y02916D02*
Y02946D01*
X01775Y02914D02*
X01776Y02916D01*
X02048Y02835D02*
X0205Y02834D01*
X02582Y03156D02*
X02608Y03182D01*
Y03265*
X02587Y03723D02*
X02608Y03702D01*
Y03624D02*
Y03702D01*
X02587Y03723D02*
Y03725D01*
D01*
X02405Y03625D02*
X02507D01*
X02632Y02226D02*
X02638Y02221D01*
X0254Y02231D02*
X02544Y02226D01*
X02632*
X0247Y02231D02*
X0254D01*
X0254Y02288D02*
X02637D01*
X02638Y02288*
X0254Y02288D02*
X0254Y02288D01*
X02021Y01441D02*
Y01485D01*
X01924Y01108D02*
X0193Y01113D01*
X01935*
X01864Y01108D02*
X01924D01*
X02267Y0071D02*
Y00758D01*
X02276Y00749*
X02267Y00758D02*
Y0076D01*
X02276Y00749D02*
X02342D01*
X02235Y01045D02*
X02455D01*
X0221Y0102D02*
X02235Y01045D01*
X0221Y00835D02*
Y0102D01*
X02193Y00818D02*
X0221Y00835D01*
X0216Y00812D02*
X02165Y00818D01*
X02301Y00995D02*
X02455D01*
X02295Y00988D02*
X02301Y00995D01*
X02212Y006D02*
Y00655D01*
Y0071D02*
Y0076D01*
X02295Y00789D02*
Y00831D01*
X02267Y0076D02*
Y00761D01*
X02295Y00789*
X02267Y00655D02*
Y0071D01*
X01714Y00259D02*
X01715Y00258D01*
X01663Y0026D02*
X01664Y00259D01*
X01714*
X01555D02*
X01605D01*
X01555Y00258D02*
X01555Y00259D01*
X01605D02*
X01606Y0026D01*
X01604Y00261D02*
Y00333D01*
X01603Y00335D02*
X01604Y00333D01*
Y00261D02*
X01606Y0026D01*
X00972Y0027D02*
Y00334D01*
X00971Y0027D02*
X00972Y0027D01*
G54D19*
X0022Y03223D03*
Y03396D03*
G54D20*
X00428Y03227D03*
X00632D03*
Y03207D03*
Y03187D03*
Y03168D03*
Y03148D03*
Y03128D03*
Y03108D03*
X00428D03*
Y03128D03*
Y03148D03*
Y03168D03*
Y03187D03*
Y03207D03*
G54D21*
X00471Y0327D03*
X0059Y03066D03*
X0057D03*
X0055D03*
X0053D03*
X00511D03*
X00491D03*
X00471D03*
X00491Y0327D03*
X00511D03*
X0053D03*
X0055D03*
X0057D03*
X0059D03*
G54D22*
X0033Y03402D03*
Y03277D03*
G54D23*
X00301Y02606D03*
X00351D03*
X00401D03*
X00451D03*
X00501D03*
X00551D03*
X00601D03*
X00651D03*
X00701D03*
X00751D03*
X00801D03*
X00851D03*
X00901D03*
X00951D03*
Y01897D03*
X00901D03*
X00851D03*
X00801D03*
X00751D03*
X00701D03*
X00651D03*
X00601D03*
X00551D03*
X00501D03*
X00451D03*
X00401D03*
X00351D03*
X00301D03*
G54D24*
X01012Y02476D03*
Y02426D03*
Y02376D03*
Y02326D03*
Y02276D03*
Y02226D03*
Y02176D03*
Y02126D03*
Y02076D03*
Y02026D03*
G54D25*
X00595Y0228D03*
G54D26*
X00471Y0301D03*
X00528D03*
X02038Y023D03*
X01981D03*
X01331Y0169D03*
X01388D03*
X01027Y01595D03*
X0097D03*
X02176Y0204D03*
X02233D03*
X01416Y02307D03*
X01473D03*
X00811Y02905D03*
X00868D03*
X00427Y00955D03*
X00484D03*
X00223Y0183D03*
X00166D03*
X00223Y0177D03*
X00166D03*
X00403Y0183D03*
X00346D03*
X0163Y0169D03*
X01573D03*
X01421Y02535D03*
X01478D03*
X01878Y0221D03*
X01821D03*
X01976Y01983D03*
X02033D03*
X00548Y00645D03*
X00491D03*
Y00595D03*
X00548D03*
X01606Y0026D03*
X01663D03*
X02481Y0235D03*
X02538D03*
X02671Y01845D03*
X02728D03*
X00346Y01775D03*
X00403D03*
X00311Y0102D03*
X00368D03*
X00971Y00215D03*
X01028D03*
X0097Y01655D03*
X01027D03*
X00971Y0027D03*
X01028D03*
X00836Y0276D03*
X00893D03*
X00811Y02965D03*
X00868D03*
G54D27*
X00568Y03669D03*
X00593D03*
X00619D03*
X00542D03*
X00517D03*
G54D28*
X00694Y03701D03*
X00442D03*
G54D29*
X00611Y0379D03*
X00525D03*
G54D30*
X00465Y03341D03*
Y03398D03*
X0041D03*
Y03341D03*
X0079Y03076D03*
Y03133D03*
X0126Y01745D03*
Y01802D03*
X01555Y00258D03*
Y00201D03*
X01415Y02253D03*
Y02196D03*
X0147Y0225D03*
Y02193D03*
X00295Y03146D03*
Y03203D03*
X0035Y03146D03*
Y03203D03*
X00365Y02885D03*
Y02942D03*
X00465Y02885D03*
Y02942D03*
X01492Y01808D03*
Y01751D03*
X0141Y02477D03*
Y0242D03*
X0147Y02477D03*
Y0242D03*
X01785Y01978D03*
Y01921D03*
X0231Y00389D03*
Y00446D03*
X02217Y00389D03*
Y00446D03*
X02152Y00389D03*
Y00446D03*
X01715Y00201D03*
Y00258D03*
X0228Y0119D03*
Y01247D03*
X0254Y02231D03*
Y02288D03*
X0247Y02231D03*
Y02288D03*
X0254Y02421D03*
Y02478D03*
X006Y00593D03*
Y00536D03*
X00445Y01343D03*
Y01286D03*
X00605Y01343D03*
Y01286D03*
X01935Y01113D03*
Y01056D03*
X02374Y00446D03*
Y00389D03*
X0073Y03133D03*
Y03076D03*
G54D31*
X00727Y03253D03*
X00797D03*
Y03227D03*
Y03201D03*
X00727D03*
Y03227D03*
G54D32*
X0159Y02903D03*
X01622D03*
X01527D03*
X01559D03*
Y02836D03*
X01527D03*
X01622D03*
X0159D03*
X01005Y02908D03*
X01037D03*
X00942D03*
X00974D03*
Y02841D03*
X00942D03*
X01037D03*
X01005D03*
G54D33*
X02949Y0093D03*
Y0088D03*
Y0083D03*
Y0078D03*
Y0073D03*
Y0068D03*
Y0063D03*
Y0058D03*
X0323Y0093D03*
Y0088D03*
Y0083D03*
Y0078D03*
Y0073D03*
Y0068D03*
Y0063D03*
Y0058D03*
G54D34*
X00353Y0039D03*
X00586D03*
X00631Y0164D03*
X00864D03*
G54D35*
X03113Y01039D03*
Y01007D03*
Y01102D03*
Y0107D03*
X03046D03*
Y01102D03*
Y01007D03*
Y01039D03*
X03111Y00444D03*
Y00413D03*
Y00507D03*
Y00476D03*
X03044D03*
Y00507D03*
Y00413D03*
Y00444D03*
G54D36*
X01851Y01936D03*
X01889D03*
X01926D03*
Y02054D03*
X01851D03*
X01854Y02384D03*
X01929D03*
Y02265D03*
X01891D03*
X01854D03*
G54D37*
X00673Y00516D03*
Y01342D03*
X01862Y01342D03*
X00673Y00555D03*
Y00594D03*
Y00634D03*
Y00673D03*
Y00712D03*
Y00752D03*
Y00791D03*
Y00831D03*
Y0087D03*
Y00909D03*
Y00949D03*
Y00988D03*
Y01027D03*
Y01067D03*
Y01106D03*
Y01146D03*
Y01185D03*
Y01224D03*
Y01264D03*
Y01303D03*
X01862D03*
Y01264D03*
Y01224D03*
Y01185D03*
Y01146D03*
Y01106D03*
Y01067D03*
Y01027D03*
Y00988D03*
Y00949D03*
Y00909D03*
Y0087D03*
Y00831D03*
Y00791D03*
Y00752D03*
Y00712D03*
Y00673D03*
Y00634D03*
Y00594D03*
Y00555D03*
G54D38*
X01681Y01523D03*
X00855D03*
Y00335D03*
X01681D03*
X01642D03*
X01603D03*
X01563D03*
X01524D03*
X01484D03*
X01445D03*
X01406D03*
X01366D03*
X01327D03*
X01288D03*
X01248D03*
X01209D03*
X0117D03*
X0113D03*
X01091D03*
X01051D03*
X01012D03*
X00973D03*
X00933D03*
X00894D03*
Y01523D03*
X00933D03*
X00973D03*
X01012D03*
X01051D03*
X01091D03*
X0113D03*
X0117D03*
X01209D03*
X01248D03*
X01288D03*
X01327D03*
X01366D03*
X01406D03*
X01445D03*
X01484D03*
X01524D03*
X01563D03*
X01603D03*
X01642D03*
G54D39*
X02379Y00326D03*
X02305D03*
X02342Y00238D03*
X02787Y00324D03*
X02712D03*
X0275Y00235D03*
X01775Y02914D03*
X01812Y02825D03*
X01737D03*
X0333Y0024D03*
X03292Y00329D03*
X03367D03*
X03646Y0024D03*
X03608Y00329D03*
X03683D03*
X03035Y00235D03*
X02997Y00324D03*
X03072D03*
X0022Y02999D03*
X00257Y0291D03*
X00182D03*
X02224Y00326D03*
X0215D03*
X02187Y00238D03*
G54D40*
X0204Y01242D03*
Y01187D03*
X024Y01192D03*
Y01247D03*
X0198D03*
Y01192D03*
X0189Y02572D03*
Y02627D03*
X0216Y00867D03*
Y00812D03*
X02685Y01155D03*
Y0121D03*
X0277Y00892D03*
Y00947D03*
X0284Y00772D03*
Y00827D03*
X0249Y0121D03*
Y01154D03*
X0284Y0089D03*
Y00945D03*
X02135Y02837D03*
Y02892D03*
X03545Y00252D03*
Y00307D03*
X03488Y00252D03*
Y00307D03*
X03228Y00252D03*
Y00307D03*
X03172Y00252D03*
Y00307D03*
X02935Y00252D03*
Y00307D03*
X0288Y00252D03*
Y00307D03*
X0265Y00252D03*
Y00307D03*
X0259Y00252D03*
Y00307D03*
G54D41*
X0136Y01824D03*
X01397Y01745D03*
X01322D03*
X01564D03*
X01639D03*
X01601Y01824D03*
X0238Y0067D03*
X02342Y00749D03*
X02417D03*
G54D42*
X03373Y03755D03*
X03606D03*
G54D43*
X00802Y0351D03*
X00857D03*
X00802Y03313D03*
X00857D03*
Y03825D03*
X00802D03*
Y03606D03*
X00857D03*
X02267Y006D03*
X02212D03*
Y00655D03*
X02267D03*
X02212Y0076D03*
X02267D03*
X02212Y0071D03*
X02267D03*
X00242Y02775D03*
X00187D03*
X00242Y0284D03*
X00187D03*
X02582Y03155D03*
X02527D03*
X02587Y03725D03*
X02532D03*
X01802Y02761D03*
X01747D03*
G54D44*
X00815Y03752D03*
Y03677D03*
X00894Y03715D03*
X00899Y03415D03*
X0082Y03377D03*
Y03452D03*
G54D45*
X02638Y02488D03*
Y02421D03*
Y02355D03*
Y02288D03*
Y02221D03*
G54D46*
X0074Y02961D03*
Y02878D03*
X0227Y02138D03*
Y02221D03*
X0048Y02735D03*
Y02817D03*
X00385Y02738D03*
Y02821D03*
X02765Y01166D03*
Y01083D03*
G54D47*
X03138Y0139D03*
X02851D03*
G54D48*
X01536Y02232D03*
X01693D03*
X01536Y02464D03*
X01693D03*
G54D49*
X0133Y02192D03*
X01259D03*
X0133Y02277D03*
X01259D03*
X01316Y02511D03*
X01245D03*
X01315Y02422D03*
X01244D03*
X02044Y0238D03*
X02115D03*
X02044Y0212D03*
X02115D03*
X02534Y00595D03*
X02605D03*
X02534Y00685D03*
X02605D03*
X02534Y00775D03*
X02605D03*
X02535Y00865D03*
X02605D03*
G54D50*
X00253Y01105D03*
X00336D03*
G54D51*
X00383Y01635D03*
X00106D03*
G54D52*
X0257Y0102D03*
G54D53*
X02455Y00945D03*
Y00995D03*
Y01045D03*
Y01095D03*
X02684D03*
Y01045D03*
Y00995D03*
Y00945D03*
G54D54*
X02295Y00988D03*
Y00831D03*
G54D55*
X0206Y02834D03*
X0196D03*
X0206Y02475D03*
X0196D03*
X02508Y03265D03*
X02608D03*
X02508Y03624D03*
X02608D03*
G54D56*
X01107Y00245D03*
X01232D03*
X00852Y01765D03*
X00727D03*
G54D57*
X0035Y00653D03*
Y00536D03*
X01975Y00206D03*
Y00323D03*
X0032Y01286D03*
Y01403D03*
G54D58*
X0041Y00595D03*
X01914Y00265D03*
X0038Y01345D03*
G54D59*
X00495Y01434D03*
Y01395D03*
G54D60*
X02149Y0111D03*
X0209D03*
X0059Y00955D03*
X0053D03*
X00495Y01345D03*
X00554D03*
G54D61*
X021Y01244D03*
Y01185D03*
X0234Y01189D03*
Y01248D03*
G54D62*
X0299Y01687D03*
X0299Y01985D03*
G54D63*
X02613Y0198D03*
X02456D03*
G54D64*
X03112Y02865D03*
X02737D03*
G54D65*
X0146Y03015D03*
X0141D03*
X0136D03*
X0131D03*
X0126D03*
X0121D03*
X0116D03*
X0111D03*
X0146Y02734D03*
X0141D03*
X0136D03*
X0131D03*
X0126D03*
X0121D03*
X0116D03*
X0111D03*
G54D66*
X02153Y01244D03*
X02226D03*
Y01218D03*
Y01193D03*
X02153D03*
Y01218D03*
G54D67*
X02182Y0184D03*
X02528D03*
Y01379D03*
X02182D03*
G54D68*
X02021Y01735D03*
Y01685D03*
Y01635D03*
Y01585D03*
Y01535D03*
Y01485D03*
G54D69*
X00519Y01032D03*
Y01107D03*
X0043Y0107D03*
G54D138*
X0053Y03168D03*
G54D139*
X03045Y02355D03*
G54D140*
X0192Y02905D02*
X02162D01*
X0141Y0242D02*
X01504D01*
X00215Y0052D02*
Y01466D01*
X00355Y0034D02*
X00394Y003D01*
Y00105D02*
Y003D01*
X00215Y0052D02*
X00347Y00387D01*
X00322Y02017D02*
X0034Y02035D01*
X0048D02*
X00565Y0212D01*
X0034Y02035D02*
X0048D01*
X00238Y0149D02*
X00375D01*
X00645*
X00215Y01466D02*
X00238Y0149D01*
X00455Y0164D02*
X00549Y01545D01*
X00689*
X0092Y01315*
X00394Y00105D02*
X0043Y0007D01*
X00866Y022D02*
X0089Y02176D01*
X0079Y022D02*
X00866D01*
X0089Y0199D02*
Y02176D01*
X02021Y02384D02*
X02045Y0236D01*
X0251Y0026D02*
Y00425D01*
X02534Y0045*
X00775Y0039D02*
X00815Y0043D01*
X00775Y0016D02*
Y0039D01*
X0043Y0007D02*
X00685D01*
X00775Y0016*
X0023Y01105D02*
X00253D01*
X0071Y0212D02*
X0079Y022D01*
X00565Y0212D02*
X0071D01*
X01205Y0175D02*
Y019D01*
Y0175D02*
X01255Y017D01*
X0139Y02375D02*
Y024D01*
X01536Y02452D02*
Y02464D01*
X01504Y0242D02*
X01536Y02452D01*
X01825Y02665D02*
X01875Y02715D01*
X01745Y02545D02*
Y02641D01*
X01768Y02665*
X01825*
X01854Y0248D02*
X01929Y02404D01*
Y02384D02*
Y02404D01*
X0181Y0248D02*
X01854D01*
X01745Y02545D02*
X0181Y0248D01*
X01701Y02444D02*
X01736D01*
X0176Y02421*
X01693Y02452D02*
Y02464D01*
Y02452D02*
X01701Y02444D01*
X0176Y02153D02*
Y02421D01*
X02433Y02231D02*
X0247D01*
X0239Y02275D02*
Y02485D01*
Y02275D02*
X02433Y02231D01*
X0239Y02485D02*
X0246Y02555D01*
X01875Y02715D02*
Y0286D01*
X0192Y02905*
X02162D02*
X02185Y02928D01*
Y03145*
X0215Y03181D02*
X02185Y03145D01*
X0215Y03181D02*
Y03196D01*
X0224Y03785D02*
X02514D01*
X02532Y03766*
X00285Y01635D02*
X00383D01*
X0027D02*
X00285D01*
X00166Y01738D02*
X0027Y01635D01*
X00166Y01738D02*
Y0177D01*
X00405Y0164D02*
X00455D01*
X0092Y01315D02*
X0148D01*
X01085Y0045D02*
X0115Y00515D01*
X01085Y0043D02*
Y0045D01*
X0115Y00515D02*
X01445D01*
X0148Y0055*
Y01315*
X0147Y02193D02*
X01509D01*
X0141D02*
X0147D01*
X0176Y02153D02*
X01783Y0213D01*
X01911*
X01935Y02153D02*
Y02245D01*
X01911Y0213D02*
X01935Y02153D01*
X02044Y0212D02*
Y02315D01*
X01898Y01823D02*
X01929Y01854D01*
Y01924*
X01751Y01823D02*
X01898D01*
X01693Y01881D02*
X01751Y01823D01*
X01926Y02054D02*
X01936Y02045D01*
X02043*
X01875Y0173D02*
X02053Y01908D01*
X01875Y01455D02*
Y0173D01*
X02053Y01908D02*
X02313D01*
X01588Y01168D02*
X01875Y01455D01*
X01535Y02127D02*
X01536Y02128D01*
Y0222*
X01693Y01881D02*
Y02232D01*
X02045Y02315D02*
Y0236D01*
X02043Y02045D02*
Y02119D01*
Y02045D02*
X02171D01*
X02044Y02315D02*
X02045Y02315D01*
X01929Y02384D02*
X02021D01*
X02851Y0139D02*
X02863Y01413D01*
Y01458*
X02851Y0139D02*
X02863Y01366D01*
Y01086D02*
Y01366D01*
Y01458D02*
X02988Y01584D01*
X02378Y01758D02*
Y01843D01*
X02993Y01726D02*
X03008Y01685D01*
X02378Y01758D02*
X02473Y01663D01*
X02993Y01726D02*
Y01778D01*
X01588Y00631D02*
Y01168D01*
X02988Y01584D02*
Y01647D01*
X02313Y01908D02*
X02378Y01843D01*
X02729D02*
X02928D01*
X02473Y01663D02*
X02715D01*
X02928Y01843D02*
X02971Y018D01*
X02975Y01796D02*
X02993Y01778D01*
X02988Y01647D02*
X03008Y01685D01*
X02465Y02366D02*
X02481Y0235D01*
X02465Y02366D02*
Y0239D01*
X02987Y01982D02*
X0299Y01985D01*
X02616Y01982D02*
X02987D01*
X0299Y01985D02*
Y02255D01*
X00795Y01635D02*
X00859D01*
X0205Y03295D02*
Y03595D01*
Y03196D02*
Y03295D01*
Y03595D02*
X0224Y03785D01*
X0205Y03196D02*
X0215D01*
X02532Y03725D02*
Y03766D01*
X02171Y02045D02*
X02176Y0204D01*
Y01981D02*
Y0204D01*
X02175Y0198D02*
X02176Y01981D01*
X02405Y00945D02*
X02455D01*
X02534Y0045D02*
Y00595D01*
X01316Y02421D02*
X01409D01*
X01331Y02193D02*
X01409D01*
X0133Y02192D02*
Y02277D01*
X01316Y02422D02*
Y02511D01*
X02534Y00595D02*
Y00685D01*
Y00775*
X00405Y01656D02*
Y01773D01*
X00402Y01831D02*
Y01895D01*
X00403Y01775D02*
Y0183D01*
X02507Y03625D02*
X02508Y03624D01*
X02965Y032D02*
Y03335D01*
X02737Y02972D02*
X02965Y032D01*
X02737Y02865D02*
Y02972D01*
X0246Y02555D02*
X02575D01*
X02737Y02717*
Y02865*
X02638Y02355D02*
X0294D01*
X0295Y02345*
X02613Y0198D02*
X02616Y01982D01*
X02534Y00775D02*
X02534Y00775D01*
Y00864D02*
X02535Y00865D01*
X02534Y00775D02*
Y00864D01*
X02535Y00865D02*
Y00868D01*
X02455Y00893D02*
Y00945D01*
X02531Y00872D02*
X02535Y00868D01*
X02475Y00872D02*
X02531D01*
X02455Y00893D02*
X02475Y00872D01*
X0259Y0121D02*
X02685D01*
X0259Y0121D02*
X0259Y0121D01*
X02295Y00831D02*
X02398D01*
X024Y0083*
X0238Y0061D02*
Y0067D01*
G54D141*
X00934Y00335D02*
Y00429D01*
X00933Y00335D02*
X00971D01*
G54D142*
X04025Y00175D03*
Y03705D03*
X00175Y037D03*
Y00175D03*
G54D143*
X00489Y03707D03*
X00647D03*
X00659Y03369D03*
X0062Y03375D03*
X0058Y0354D03*
X00582Y03577D03*
X00497Y0351D03*
X00466D03*
X004Y03515D03*
X00385Y03225D03*
X006Y0138D03*
X01995Y00935D03*
X01975Y0086D03*
X0205Y00895D03*
X004Y03385D03*
X01285Y0267D03*
X01385Y02665D03*
X01308Y03113D03*
X00974Y02962D03*
X02979Y00992D03*
X0298Y01035D03*
Y01075D03*
X0305Y01146D03*
X04015Y03531D03*
X03916Y03334D03*
X04015Y03137D03*
X03916Y0294D03*
X04015Y02744D03*
X03916Y02547D03*
X04015Y0235D03*
X03916Y02153D03*
X04015Y01956D03*
X03916Y01759D03*
X04015Y01562D03*
X03916Y01366D03*
X04015Y01169D03*
X03916Y00972D03*
X04015Y00775D03*
X03916Y00578D03*
X04015Y00381D03*
X0372Y03728D03*
X03818Y03531D03*
Y00381D03*
X0372Y00185D03*
X03523Y03728D03*
X03621Y03531D03*
X03523Y03334D03*
Y0294D03*
Y02547D03*
Y02153D03*
Y01759D03*
Y01366D03*
Y00972D03*
X03424Y03531D03*
X03326Y03334D03*
Y0294D03*
X03424Y02744D03*
X03326Y02547D03*
X03424Y0235D03*
X03326Y02153D03*
X03424Y01956D03*
X03326Y01759D03*
X03424Y01562D03*
X03326Y01366D03*
X03424Y01169D03*
X03326Y00972D03*
X03129Y03728D03*
X03227Y03531D03*
X03129Y03334D03*
X03227Y03137D03*
X03129Y0294D03*
X03227Y02744D03*
Y01956D03*
Y01562D03*
Y01169D03*
X02932Y03728D03*
X03031Y03531D03*
Y03137D03*
X02932Y0294D03*
X03031Y02744D03*
X02735Y03728D03*
X02834Y03531D03*
X02735Y03334D03*
X02834Y02744D03*
X02735Y02547D03*
Y02153D03*
X02637Y03531D03*
X02538Y03334D03*
X02637Y01562D03*
X02342Y03728D03*
Y02547D03*
X02145Y03334D03*
X02243Y03137D03*
Y0235D03*
X02145Y01759D03*
X02243Y01562D03*
X01948Y03728D03*
X01751D03*
X01849Y03531D03*
X01751Y00578D03*
X01849Y00381D03*
X01554Y03728D03*
X01653Y03531D03*
X01554Y03334D03*
X01653Y0235D03*
X01357Y03728D03*
X01456Y03137D03*
X01357Y00972D03*
X01259Y03531D03*
Y03137D03*
Y01169D03*
X0116Y00972D03*
X01259Y00775D03*
X01062Y01169D03*
X00964Y00972D03*
X01062Y00775D03*
X00964Y00578D03*
X00668Y02744D03*
X00373Y03728D03*
Y02153D03*
X00471Y01169D03*
Y00775D03*
X00275Y0235D03*
X01645Y00765D03*
Y0086D03*
Y0093D03*
Y0101D03*
X0077Y00025D03*
X0014Y01525D03*
X0063Y0173D03*
X00815Y00835D03*
X0054Y0047D03*
X00245Y02715D03*
X00271Y02807D03*
X0023Y0316D03*
X00471Y02976D03*
X00322Y02017D03*
X00385Y01955D03*
X00445Y01975D03*
X001Y01765D03*
X00375Y0149D03*
X0046Y0141D03*
X00425D03*
X0039D03*
X00405Y013D03*
X0048D03*
X0056D03*
X0052D03*
X00543Y01412D03*
X00675Y0138D03*
X0064D03*
X00565Y01385D03*
X00559Y0069D03*
X00593Y00691D03*
X00594Y00657D03*
X00491Y00691D03*
X00418Y00656D03*
X00457Y00691D03*
X00456Y00658D03*
X00445Y00555D03*
X0048D03*
X00515D03*
X00526Y00691D03*
X0055Y00555D03*
X00614Y0063D03*
X01515Y0028D03*
Y0022D03*
X01638Y00219D03*
X016Y0022D03*
X01675D03*
X01515Y00252D03*
X01899Y00304D03*
X01871Y00291D03*
X01839D03*
X01808D03*
X01776D03*
X01745D03*
X01713Y00293D03*
X01772Y00231D03*
X01803D03*
X01835D03*
X01866D03*
X01325Y00255D03*
X02265Y00235D03*
X0225Y00535D03*
X0197Y01345D03*
X01775Y02815D03*
X01015Y0268D03*
X00925Y02345D03*
X0089Y0199D03*
X01275Y02125D03*
X01865Y0217D03*
X01889Y019D03*
X01746Y01978D03*
X0201Y0243D03*
X0275Y0033D03*
X0297Y00325D03*
X03255Y00315D03*
X03595Y0034D03*
X0251Y0026D03*
X00415Y0299D03*
X0033Y0274D03*
X00935Y0043D03*
X00815Y0043D03*
X0032Y0172D03*
X0075Y0209D03*
X01205Y019D03*
X0184Y02615D03*
X01825Y02575D03*
X0157Y0164D03*
X01255Y017D03*
X01535Y02127D03*
X01815Y02075D03*
X0164Y01105D03*
X0159Y0063D03*
X0148Y01315D03*
X00695Y02875D03*
X0079Y03042D03*
X00732Y02556D03*
X0222Y01275D03*
X0228Y0119D03*
X0215Y01055D03*
X01915Y0139D03*
X02155Y01155D03*
X00555Y0332D03*
X0216Y00905D03*
X0218Y00325D03*
X0133Y01635D03*
X0212Y0057D03*
X00815Y005D03*
X01485Y00435D03*
X00795Y01635D03*
X00645Y0149D03*
X0065Y02005D03*
X0084Y02145D03*
X0139Y02375D03*
X01525Y0231D03*
X021Y03D03*
X0246Y03155D03*
X0097Y03825D03*
X0101Y03395D03*
X00944Y03415D03*
X0091Y02895D03*
X0053Y0294D03*
X00605Y01445D03*
X00635Y01415D03*
X00605Y01965D03*
X03075Y0119D03*
X01085Y0043D03*
X0117Y0041D03*
X0149Y017D03*
X02175Y0198D03*
X02405Y00945D03*
X02975Y018D03*
X02465Y0239D03*
X01212Y0163D03*
X01187Y01595D03*
X01161Y0163D03*
X0111D03*
X01136Y016D03*
X00925Y01818D03*
X01085Y01595D03*
X0097Y0174D03*
X0102Y0186D03*
X00985Y01838D03*
X02585Y03065D03*
X01075Y02475D03*
X005Y01695D03*
Y01805D03*
X02165Y006D03*
X006Y0247D03*
X00535Y02515D03*
X0065Y0247D03*
X00385Y02545D03*
X01135Y0264D03*
X01235D03*
X01335D03*
X01435D03*
X0085Y0267D03*
X0149Y0259D03*
X03215Y0367D03*
X00845Y0318D03*
X008Y0183D03*
X0234Y0129D03*
X0076Y0341D03*
X0077Y03765D03*
X00945Y03715D03*
X00305Y03055D03*
X00155Y0335D03*
X00225Y0345D03*
X007Y02055D03*
X00682Y03227D03*
X00684Y03114D03*
X0182Y02384D03*
X02405Y03625D03*
X02021Y01441D03*
X01924Y01224D03*
X02275Y01285D03*
X01925Y01303D03*
X01925Y01264D03*
X0259Y0121D03*
X024Y0083D03*
X03025Y00649D03*
Y0068D03*
Y0078D03*
X0238Y0061D03*
X03025Y0088D03*
G54D144*
X00457Y03789D03*
X00679D03*
G54D145*
X0372Y00553D03*
Y03396D03*
X022Y03446D03*
X0175D03*
G54D146*
X0049Y0016D03*
X00589D03*
G54D147*
X02257Y02853D03*
X02375Y02853D03*
X02493Y02853D03*
Y02644D03*
X02375Y02645D03*
X02257D03*
G54D148*
X00065Y0315D03*
Y02715D03*
G54D149*
X00065Y0325D03*
Y0335D03*
Y0345D03*
Y02815D03*
Y02915D03*
Y03015D03*
X02435Y0008D03*
X02535D03*
X02635D03*
X02735D03*
X02835D03*
X02935D03*
X03035D03*
X03135D03*
X03235D03*
X03335D03*
X03435D03*
X03535D03*
X03635D03*
X03735D03*
X0222D03*
X0212D03*
X0202D03*
X0192D03*
X0182D03*
X0172D03*
X0162D03*
X0152D03*
X0142D03*
X0132D03*
X0122D03*
X0112D03*
X0102D03*
X0092D03*
G54D150*
X02965Y03585D03*
Y03335D03*
G54D151*
X02785Y03455D03*
G54D152*
X02284Y03326D03*
X01666D03*
G54D153*
X0185Y03196D03*
X0195D03*
X0205D03*
X0215D03*
X018Y03096D03*
X019D03*
X02D03*
X021D03*
G54D154*
X01325Y03325D03*
X01225D03*
X01275Y03225D03*
X01175D03*
G54D155*
X02335Y0008D03*
X0082D03*
M02*