%FSTAX23Y23*%
%MOIN*%
%SFA1B1*%

%IPPOS*%
%ADD11C,0.010000*%
%ADD12C,0.011810*%
%ADD15C,0.007870*%
%ADD18C,0.003940*%
%ADD162C,0.001970*%
%LNesp_gsm_iot-1*%
%LPD*%
G36*
X00226Y03387D02*
X00259D01*
Y03376*
X00226*
Y03358*
X00215*
Y03376*
X00182*
Y03387*
X00215*
Y03405*
X00226*
Y03387*
G37*
G36*
X00221Y032D02*
X0021D01*
Y03246*
X00221*
Y032*
G37*
G36*
X00629Y03069D02*
X00432D01*
Y03266*
X00629*
Y03069*
G37*
G36*
X00388Y01677D02*
X00363D01*
Y01719*
X00388*
Y01677*
G37*
G36*
X00869Y01671D02*
X0085D01*
Y01702*
X00869*
Y01671*
G37*
G36*
X00672Y01635D02*
X00635D01*
Y01644*
X00672*
Y01635*
G37*
G36*
X00164Y01628D02*
X00114D01*
Y01641*
X00164*
Y01628*
G37*
G36*
X00846Y01644D02*
X0086D01*
Y01635*
X00846*
Y01608*
X00836*
Y01635*
X00822*
Y01644*
X00836*
Y01671*
X00846*
Y01644*
G37*
G36*
X00356Y01641D02*
X00376D01*
Y01628*
X00356*
Y01592*
X00344*
Y01628*
X00325*
Y01641*
X00344*
Y01677*
X00356*
Y01641*
G37*
G36*
X00869Y01577D02*
X0085D01*
Y01608*
X00869*
Y01577*
G37*
G36*
X00388Y0155D02*
X00363D01*
Y01592*
X00388*
Y0155*
G37*
G36*
X00366Y00421D02*
X00347D01*
Y00452*
X00366*
Y00421*
G37*
G36*
X00582Y00385D02*
X00544D01*
Y00394*
X00582*
Y00385*
G37*
G36*
X00381Y00394D02*
X00395D01*
Y00385*
X00381*
Y00358*
X00371*
Y00385*
X00357*
Y00394*
X00371*
Y00421*
X00381*
Y00394*
G37*
G36*
X00366Y00327D02*
X00347D01*
Y00358*
X00366*
Y00327*
G37*
G54D11*
X00717Y03252D02*
X0071Y03256D01*
Y03248*
X00717Y03252*
G54D12*
X03265Y0058D02*
X03259Y00585D01*
X03253Y0058*
X03259Y00574*
X03265Y0058*
X02705Y00942D02*
X02699Y00948D01*
X02693Y00942*
X02699Y00936*
X02705Y00942*
X01465Y03044D02*
X0146Y0305D01*
X01454Y03044*
X0146Y03038*
X01465Y03044*
G54D15*
X02148Y01243D02*
X02141D01*
X02148*
X01555Y0287D02*
X01594D01*
X01575Y0285D02*
Y02889D01*
X0097Y02875D02*
X01009D01*
X0099Y02855D02*
Y02894D01*
X0308Y01035D02*
Y01074D01*
X0306Y01055D02*
X03099D01*
X03078Y0044D02*
Y0048D01*
X03058Y0046D02*
X03097D01*
X0372Y01935D02*
Y02014D01*
X0368Y01975D02*
X03759D01*
X0052Y0016D02*
X00559D01*
X0054Y0014D02*
Y00179D01*
X00705Y00045D02*
Y00313D01*
X00374Y00045D02*
X00705D01*
X00374D02*
Y00313D01*
X00705*
X02384Y02988D02*
Y03913D01*
X01565Y02988D02*
X02384D01*
X01565D02*
Y03913D01*
X02384*
X01925Y03445D02*
X02024D01*
X01975Y03395D02*
Y03494D01*
G54D18*
X0031Y0334D02*
X00349D01*
X0033Y0332D02*
Y03359D01*
X00481Y0301D02*
X00518D01*
X005Y02991D02*
Y03028D01*
X00446Y0337D02*
X00483D01*
X00465Y03351D02*
Y03388D01*
X0041Y03351D02*
Y03388D01*
X00391Y0337D02*
X00428D01*
X0079Y03086D02*
Y03123D01*
X00771Y03105D02*
X00808D01*
X0201Y02281D02*
Y02318D01*
X01991Y023D02*
X02028D01*
X02273Y00359D02*
X02411D01*
X02273Y00205D02*
X02411D01*
Y00359*
X02273Y00205D02*
Y00359D01*
X02342Y00262D02*
Y00302D01*
X02322Y00282D02*
X02362D01*
X02018Y01262D02*
X02061D01*
X02018Y01167D02*
X02061D01*
Y01262*
X02018Y01167D02*
Y01262D01*
X0204Y01196D02*
Y01233D01*
X02021Y01215D02*
X02058D01*
X0136Y01671D02*
Y01708D01*
X01341Y0169D02*
X01378D01*
X01241Y01773D02*
X01278D01*
X0126Y01754D02*
Y01792D01*
X0134Y01785D02*
X01379D01*
X0136Y01765D02*
Y01804D01*
X0098Y01595D02*
X01017D01*
X00999Y01576D02*
Y01613D01*
X02681Y00356D02*
X02818D01*
X02681Y00203D02*
X02818D01*
Y00356*
X02681Y00203D02*
Y00356D01*
X0275Y0026D02*
Y00299D01*
X0273Y0028D02*
X02769D01*
X02378Y01172D02*
X02421D01*
X02378Y01267D02*
X02421D01*
X02378Y01172D02*
Y01267D01*
X02421Y01172D02*
Y01267D01*
X024Y01201D02*
Y01238D01*
X02381Y0122D02*
X02418D01*
X01958Y01267D02*
X02001D01*
X01958Y01172D02*
X02001D01*
Y01267*
X01958Y01172D02*
Y01267D01*
X0198Y01201D02*
Y01238D01*
X01961Y0122D02*
X01998D01*
X03478Y03755D02*
X03501D01*
X0349Y03743D02*
Y03766D01*
X0083Y03491D02*
Y03528D01*
X00811Y0351D02*
X00848D01*
X00782Y03531D02*
X00877D01*
X00782Y03488D02*
X00877D01*
X00782D02*
Y03531D01*
X00877Y03488D02*
Y03531D01*
X0083Y03294D02*
Y03332D01*
X00811Y03313D02*
X00848D01*
X00782Y03334D02*
X00877D01*
X00782Y03291D02*
X00877D01*
X00782D02*
Y03334D01*
X00877Y03291D02*
Y03334D01*
X0083Y03806D02*
Y03843D01*
X00811Y03825D02*
X00848D01*
X00782Y03803D02*
X00877D01*
X00782Y03846D02*
X00877D01*
Y03803D02*
Y03846D01*
X00782Y03803D02*
Y03846D01*
X00835Y03715D02*
X00874D01*
X00855Y03695D02*
Y03734D01*
X0083Y03587D02*
Y03625D01*
X00811Y03606D02*
X00848D01*
X00782Y03627D02*
X00877D01*
X00782Y03584D02*
X00877D01*
X00782D02*
Y03627D01*
X00877Y03584D02*
Y03627D01*
X0086Y03395D02*
Y03434D01*
X0084Y03415D02*
X00879D01*
X01536Y0023D02*
X01573D01*
X01555Y00211D02*
Y00248D01*
X0072Y0292D02*
X00759D01*
X0074Y029D02*
Y02939D01*
X02995Y0137D02*
Y01409D01*
X02975Y0139D02*
X03014D01*
X02205Y02021D02*
Y02058D01*
X02186Y0204D02*
X02223D01*
X01295Y02172D02*
Y02211D01*
X01275Y02192D02*
X01314D01*
X01226Y02154D02*
X01363D01*
X01226Y02229D02*
X01363D01*
Y02154D02*
Y02229D01*
X01226Y02154D02*
Y02229D01*
X01295Y02257D02*
Y02296D01*
X01275Y02277D02*
X01314D01*
X01226Y02239D02*
X01363D01*
X01226Y02314D02*
X01363D01*
Y02239D02*
Y02314D01*
X01226Y02239D02*
Y02314D01*
X01426Y02307D02*
X01463D01*
X01445Y02288D02*
Y02326D01*
X01415Y02206D02*
Y02243D01*
X01396Y02225D02*
X01433D01*
X0147Y02203D02*
Y02241D01*
X01451Y02222D02*
X01488D01*
X00295Y03156D02*
Y03193D01*
X00276Y03175D02*
X00313D01*
X0035Y03156D02*
Y03193D01*
X00331Y03175D02*
X00368D01*
X0227Y0216D02*
Y02199D01*
X0225Y0218D02*
X02289D01*
X00821Y02905D02*
X00858D01*
X0084Y02886D02*
Y02924D01*
X00365Y02894D02*
Y02932D01*
X00346Y02913D02*
X00383D01*
X00465Y02894D02*
Y02932D01*
X00446Y02913D02*
X00483D01*
X0046Y02776D02*
X00499D01*
X0048Y02756D02*
Y02796D01*
X00365Y0278D02*
X00404D01*
X00385Y0276D02*
Y02799D01*
X00275Y01105D02*
X00314D01*
X00295Y01085D02*
Y01124D01*
X00437Y00955D02*
X00475D01*
X00456Y00936D02*
Y00973D01*
X00195Y01811D02*
Y01848D01*
X00176Y0183D02*
X00213D01*
X00195Y01751D02*
Y01788D01*
X00176Y0177D02*
X00213D01*
X00375Y01811D02*
Y01848D01*
X00356Y0183D02*
X00393D01*
X01492Y01761D02*
Y01798D01*
X01473Y0178D02*
X01511D01*
X01601Y01765D02*
Y01804D01*
X01581Y01785D02*
X01621D01*
X01582Y0169D02*
X0162D01*
X01601Y01671D02*
Y01708D01*
X01431Y02535D02*
X01468D01*
X0145Y02516D02*
Y02553D01*
X01868Y02552D02*
X01911D01*
X01868Y02647D02*
X01911D01*
X01868Y02552D02*
Y02647D01*
X01911Y02552D02*
Y02647D01*
X0189Y02581D02*
Y02618D01*
X01871Y026D02*
X01908D01*
X01281Y02492D02*
Y02531D01*
X01261Y02511D02*
X01301D01*
X01212Y02474D02*
X0135D01*
X01212Y02549D02*
X0135D01*
Y02474D02*
Y02549D01*
X01212Y02474D02*
Y02549D01*
X0128Y02402D02*
Y02441D01*
X0126Y02422D02*
X01299D01*
X01211Y02384D02*
X01348D01*
X01211Y02459D02*
X01348D01*
Y02384D02*
Y02459D01*
X01211Y02384D02*
Y02459D01*
X0141Y0243D02*
Y02467D01*
X01391Y02449D02*
X01429D01*
X0147Y0243D02*
Y02468D01*
X01451Y02449D02*
X01488D01*
X0208Y0236D02*
Y02399D01*
X0206Y0238D02*
X02099D01*
X02011Y02417D02*
X02148D01*
X02011Y02342D02*
X02148D01*
X02011D02*
Y02417D01*
X02148Y02342D02*
Y02417D01*
X01831Y0221D02*
X01868D01*
X0185Y02191D02*
Y02228D01*
X0208Y021D02*
Y02139D01*
X0206Y0212D02*
X02099D01*
X02011Y02157D02*
X02148D01*
X02011Y02082D02*
X02148D01*
X02011D02*
Y02157D01*
X02148Y02082D02*
Y02157D01*
X01785Y01931D02*
Y01968D01*
X01766Y0195D02*
X01803D01*
X01986Y01983D02*
X02023D01*
X02005Y01965D02*
Y02002D01*
X02138Y00887D02*
X02181D01*
X02138Y00792D02*
X02181D01*
Y00887*
X02138Y00792D02*
Y00887D01*
X0216Y00821D02*
Y00858D01*
X02141Y0084D02*
X02178D01*
X02663Y01135D02*
X02706D01*
X02663Y01229D02*
X02706D01*
X02663Y01135D02*
Y01229D01*
X02706Y01135D02*
Y01229D01*
X02685Y01163D02*
Y01201D01*
X02666Y01182D02*
X02703D01*
X02745Y01125D02*
X02784D01*
X02765Y01105D02*
Y01144D01*
X02287Y00578D02*
Y00621D01*
X02192Y00578D02*
Y00621D01*
Y00578D02*
X02287D01*
X02192Y00621D02*
X02287D01*
X02221Y006D02*
X02258D01*
X0224Y00581D02*
Y00618D01*
X0236Y0071D02*
X02399D01*
X0238Y0069D02*
Y00729D01*
X02192Y00633D02*
Y00676D01*
X02287Y00633D02*
Y00676D01*
X02192D02*
X02287D01*
X02192Y00633D02*
X02287D01*
X02221Y00655D02*
X02258D01*
X0224Y00636D02*
Y00673D01*
X02192Y00738D02*
Y00781D01*
X02287Y00738D02*
Y00781D01*
X02192D02*
X02287D01*
X02192Y00738D02*
X02287D01*
X02221Y0076D02*
X02258D01*
X0224Y00741D02*
Y00778D01*
X02192Y00688D02*
Y00731D01*
X02287Y00688D02*
Y00731D01*
X02192D02*
X02287D01*
X02192Y00688D02*
X02287D01*
X02221Y0071D02*
X02258D01*
X0224Y00691D02*
Y00728D01*
X0257Y00575D02*
Y00614D01*
X0255Y00595D02*
X02589D01*
X02501Y00632D02*
X02638D01*
X02501Y00557D02*
X02638D01*
X02501D02*
Y00632D01*
X02638Y00557D02*
Y00632D01*
X0257Y00665D02*
Y00704D01*
X0255Y00685D02*
X02589D01*
X02501Y00722D02*
X02638D01*
X02501Y00647D02*
X02638D01*
X02501D02*
Y00722D01*
X02638Y00647D02*
Y00722D01*
X0257Y00755D02*
Y00794D01*
X0255Y00775D02*
X02589D01*
X02501Y00812D02*
X02638D01*
X02501Y00737D02*
X02638D01*
X02501D02*
Y00812D01*
X02638Y00737D02*
Y00812D01*
X0257Y00845D02*
Y00884D01*
X0255Y00865D02*
X0259D01*
X02501Y00902D02*
X02639D01*
X02501Y00827D02*
X02639D01*
X02501D02*
Y00902D01*
X02639Y00827D02*
Y00902D01*
X02748Y00872D02*
X02791D01*
X02748Y00967D02*
X02791D01*
X02748Y00872D02*
Y00967D01*
X02791Y00872D02*
Y00967D01*
X0277Y00901D02*
Y00938D01*
X02751Y0092D02*
X02788D01*
X02818Y00752D02*
X02861D01*
X02818Y00847D02*
X02861D01*
X02818Y00752D02*
Y00847D01*
X02861Y00752D02*
Y00847D01*
X0284Y00781D02*
Y00818D01*
X02821Y008D02*
X02858D01*
X02468Y01229D02*
X02511D01*
X02468Y01135D02*
X02511D01*
Y01229*
X02468Y01135D02*
Y01229D01*
X0249Y01163D02*
Y01201D01*
X02471Y01182D02*
X02508D01*
X02818Y0087D02*
X02861D01*
X02818Y00964D02*
X02861D01*
X02818Y0087D02*
Y00964D01*
X02861Y0087D02*
Y00964D01*
X0284Y00898D02*
Y00936D01*
X02821Y00917D02*
X02858D01*
X02113Y02817D02*
X02156D01*
X02113Y02912D02*
X02156D01*
X02113Y02817D02*
Y02912D01*
X02156Y02817D02*
Y02912D01*
X02135Y02846D02*
Y02883D01*
X02116Y02865D02*
X02153D01*
X0201Y02635D02*
Y02674D01*
X0199Y02655D02*
X02029D01*
X00262Y02753D02*
Y02796D01*
X00167Y02753D02*
Y02796D01*
Y02753D02*
X00262D01*
X00167Y02796D02*
X00262D01*
X00196Y02775D02*
X00233D01*
X00215Y02756D02*
Y02793D01*
X00262Y02818D02*
Y02861D01*
X00167Y02818D02*
Y02861D01*
Y02818D02*
X00262D01*
X00167Y02861D02*
X00262D01*
X00196Y0284D02*
X00233D01*
X00215Y02821D02*
Y02858D01*
X02602Y03133D02*
Y03176D01*
X02507Y03133D02*
Y03176D01*
Y03133D02*
X02602D01*
X02507Y03176D02*
X02602D01*
X02536Y03155D02*
X02573D01*
X02555Y03136D02*
Y03173D01*
X02607Y03703D02*
Y03746D01*
X02512Y03703D02*
Y03746D01*
Y03703D02*
X02607D01*
X02512Y03746D02*
X02607D01*
X02541Y03725D02*
X02578D01*
X0256Y03706D02*
Y03743D01*
X03523Y00232D02*
X03566D01*
X03523Y00327D02*
X03566D01*
X03523Y00232D02*
Y00327D01*
X03566Y00232D02*
Y00327D01*
X03545Y00261D02*
Y00298D01*
X03526Y0028D02*
X03563D01*
X03466Y00232D02*
X0351D01*
X03466Y00327D02*
X0351D01*
X03466Y00232D02*
Y00327D01*
X0351Y00232D02*
Y00327D01*
X03488Y00261D02*
Y00298D01*
X03469Y0028D02*
X03507D01*
X03207Y00232D02*
X0325D01*
X03207Y00327D02*
X0325D01*
X03207Y00232D02*
Y00327D01*
X0325Y00232D02*
Y00327D01*
X03228Y00261D02*
Y00298D01*
X03209Y0028D02*
X03247D01*
X0315Y00232D02*
X03193D01*
X0315Y00327D02*
X03193D01*
X0315Y00232D02*
Y00327D01*
X03193Y00232D02*
Y00327D01*
X03172Y00261D02*
Y00298D01*
X03153Y0028D02*
X0319D01*
X02913Y00232D02*
X02956D01*
X02913Y00327D02*
X02956D01*
X02913Y00232D02*
Y00327D01*
X02956Y00232D02*
Y00327D01*
X02935Y00261D02*
Y00298D01*
X02916Y0028D02*
X02953D01*
X02858Y00232D02*
X02901D01*
X02858Y00327D02*
X02901D01*
X02858Y00232D02*
Y00327D01*
X02901Y00232D02*
Y00327D01*
X0288Y00261D02*
Y00298D01*
X02861Y0028D02*
X02898D01*
X02628Y00232D02*
X02671D01*
X02628Y00327D02*
X02671D01*
X02628Y00232D02*
Y00327D01*
X02671Y00232D02*
Y00327D01*
X0265Y00261D02*
Y00298D01*
X02631Y0028D02*
X02668D01*
X02568Y00232D02*
X02611D01*
X02568Y00327D02*
X02611D01*
X02568Y00232D02*
Y00327D01*
X02611Y00232D02*
Y00327D01*
X0259Y00261D02*
Y00298D01*
X02571Y0028D02*
X02608D01*
X01822Y02739D02*
Y02782D01*
X01727Y02739D02*
Y02782D01*
Y02739D02*
X01822D01*
X01727Y02782D02*
X01822D01*
X01756Y02761D02*
X01793D01*
X01775Y02742D02*
Y0278D01*
X0231Y00398D02*
Y00436D01*
X02291Y00417D02*
X02328D01*
X02217Y00398D02*
Y00436D01*
X02198Y00417D02*
X02236D01*
X02152Y00398D02*
Y00436D01*
X02133Y00417D02*
X02171D01*
X0117Y00225D02*
Y00264D01*
X0115Y00245D02*
X01189D01*
X00501Y00645D02*
X00538D01*
X0052Y00626D02*
Y00663D01*
X00501Y00595D02*
X00538D01*
X0052Y00576D02*
Y00613D01*
X00495Y01403D02*
Y01426D01*
X00483Y01415D02*
X00506D01*
X01715Y00211D02*
Y00248D01*
X01696Y0023D02*
X01733D01*
X01616Y0026D02*
X01653D01*
X01635Y00241D02*
Y00278D01*
X0212Y01091D02*
Y01128D01*
X02101Y0111D02*
X02138D01*
X02072Y01088D02*
X02167D01*
X02072Y01131D02*
X02167D01*
Y01088D02*
Y01131D01*
X02072Y01088D02*
Y01131D01*
X02081Y01215D02*
X02118D01*
X021Y01196D02*
Y01233D01*
X02121Y01167D02*
Y01262D01*
X02078Y01167D02*
Y01262D01*
X02121*
X02078Y01167D02*
X02121D01*
X0228Y012D02*
Y01237D01*
X02261Y01218D02*
X02298D01*
X02321D02*
X02358D01*
X0234Y012D02*
Y01237D01*
X02318Y01171D02*
Y01266D01*
X02361Y01171D02*
Y01266D01*
X02318Y01171D02*
X02361D01*
X02318Y01266D02*
X02361D01*
X02535Y0196D02*
Y01999D01*
X02515Y0198D02*
X02554D01*
X02521Y0226D02*
X02558D01*
X0254Y02241D02*
Y02278D01*
X02451Y0226D02*
X02488D01*
X0247Y02241D02*
Y02278D01*
X0251Y02331D02*
Y02368D01*
X02491Y0235D02*
X02528D01*
X02521Y0245D02*
X02558D01*
X0254Y02431D02*
Y02468D01*
X02925Y02845D02*
Y02884D01*
X02905Y02865D02*
X02944D01*
X02538Y03445D02*
X02577D01*
X02558Y03425D02*
Y03464D01*
X01755Y0287D02*
X01794D01*
X01775Y0285D02*
Y02889D01*
X01843Y02793D02*
Y02946D01*
X01706Y02793D02*
Y02946D01*
X01843*
X01706Y02793D02*
X01843D01*
X0331Y00285D02*
X03349D01*
X0333Y00265D02*
Y00304D01*
X03261Y00208D02*
Y00361D01*
X03398Y00208D02*
Y00361D01*
X03261Y00208D02*
X03398D01*
X03261Y00361D02*
X03398D01*
X03626Y00285D02*
X03665D01*
X03646Y00265D02*
Y00304D01*
X03577Y00208D02*
Y00361D01*
X03715Y00208D02*
Y00361D01*
X03577Y00208D02*
X03715D01*
X03577Y00361D02*
X03715D01*
X03015Y0028D02*
X03054D01*
X03035Y0026D02*
Y00299D01*
X02966Y00203D02*
Y00356D01*
X03103Y00203D02*
Y00356D01*
X02966Y00203D02*
X03103D01*
X02966Y00356D02*
X03103D01*
X02681Y01845D02*
X02718D01*
X027Y01826D02*
Y01863D01*
X002Y02955D02*
X00239D01*
X0022Y02935D02*
Y02974D01*
X00288Y02878D02*
Y03031D01*
X00151Y02878D02*
Y03031D01*
X00288*
X00151Y02878D02*
X00288D01*
X0079Y01745D02*
Y01784D01*
X0077Y01765D02*
X00809D01*
X00356Y01775D02*
X00393D01*
X00375Y01756D02*
Y01793D01*
X02118Y00359D02*
X02256D01*
X02118Y00205D02*
X02256D01*
Y00359*
X02118Y00205D02*
Y00359D01*
X02187Y00262D02*
Y00302D01*
X02167Y00282D02*
X02207D01*
X00581Y00565D02*
X00618D01*
X006Y00546D02*
Y00583D01*
X00551Y01001D02*
Y01138D01*
X00398Y01001D02*
Y01138D01*
Y01001D02*
X00551D01*
X00398Y01138D02*
X00551D01*
X00455Y0107D02*
X00494D01*
X00475Y0105D02*
Y01089D01*
X0034Y01001D02*
Y01038D01*
X00321Y0102D02*
X00358D01*
X00607Y00933D02*
Y00976D01*
X00513Y00933D02*
Y00976D01*
Y00933D02*
X00607D01*
X00513Y00976D02*
X00607D01*
X00541Y00955D02*
X00579D01*
X0056Y00936D02*
Y00973D01*
X00426Y01315D02*
X00463D01*
X00445Y01296D02*
Y01333D01*
X00477Y01323D02*
Y01366D01*
X00572Y01323D02*
Y01366D01*
X00477D02*
X00572D01*
X00477Y01323D02*
X00572D01*
X00506Y01345D02*
X00543D01*
X00525Y01326D02*
Y01363D01*
X00586Y01315D02*
X00623D01*
X00605Y01296D02*
Y01333D01*
X01916Y01085D02*
X01953D01*
X01935Y01066D02*
Y01103D01*
X02355Y00417D02*
X02393D01*
X02374Y00398D02*
Y00436D01*
X01Y00196D02*
Y00233D01*
X00981Y00215D02*
X01018D01*
X00999Y01636D02*
Y01673D01*
X0098Y01655D02*
X01017D01*
X01Y00251D02*
Y00288D01*
X00981Y0027D02*
X01018D01*
X00711Y03105D02*
X00748D01*
X0073Y03086D02*
Y03123D01*
X00865Y02741D02*
Y02778D01*
X00846Y0276D02*
X00883D01*
X0084Y02946D02*
Y02983D01*
X00821Y02965D02*
X00858D01*
G54D162*
X00369Y03249D02*
Y0343D01*
X00294Y03249D02*
Y0343D01*
X0029D02*
X00369D01*
X0029Y03249D02*
X00369D01*
X01504Y02807D02*
Y02932D01*
Y02807D02*
X01645D01*
X01504Y02932D02*
X01645D01*
Y02807D02*
Y02932D01*
X00919Y02812D02*
Y02937D01*
Y02812D02*
X0106D01*
X00919Y02937D02*
X0106D01*
Y02812D02*
Y02937D01*
X03017Y01125D02*
X03142D01*
X03017Y00984D02*
Y01125D01*
X03142Y00984D02*
Y01125D01*
X03017Y00984D02*
X03142D01*
X03015Y00531D02*
X03141D01*
X03015Y00389D02*
Y00531D01*
X03141Y00389D02*
Y00531D01*
X03015Y00389D02*
X03141D01*
X03302Y00447D02*
X04137D01*
Y03502*
X03302D02*
X04137D01*
X03302Y00447D02*
Y03502D01*
X01428Y01718D02*
Y01851D01*
X01291Y01718D02*
Y01851D01*
X01428*
X01291Y01718D02*
X01428D01*
X03328Y03867D02*
X03651D01*
X03328Y0367D02*
Y03867D01*
Y0367D02*
X03651D01*
Y03867*
X00788Y03646D02*
Y03783D01*
X00921Y03646D02*
Y03783D01*
X00788D02*
X00921D01*
X00788Y03646D02*
X00921D01*
X00793Y03346D02*
X00926D01*
X00793Y03483D02*
X00926D01*
Y03346D02*
Y03483D01*
X00793Y03346D02*
Y03483D01*
X02585Y0219D02*
Y02519D01*
Y0219D02*
X02793D01*
Y02145D02*
Y0219D01*
Y02145D02*
X03128D01*
X02793Y02564D02*
X03128D01*
X02793Y02519D02*
Y02564D01*
X02585Y02519D02*
X02793D01*
X03205Y02132D02*
Y02577D01*
X03128Y02564D02*
Y02577D01*
X03205*
X03128Y02132D02*
X03205D01*
X03128D02*
Y02145D01*
X00777Y02845D02*
Y02995D01*
X00702Y02845D02*
Y02995D01*
X00777*
X00702Y02845D02*
X00777D01*
X02758Y01216D02*
X03231D01*
X02758Y01563D02*
X03231D01*
Y01216D02*
Y01563D01*
X02758Y01216D02*
Y01563D01*
X02232Y02105D02*
X02307D01*
X02232Y02255D02*
X02307D01*
X02232Y02105D02*
Y02255D01*
X02307Y02105D02*
Y02255D01*
X00442Y02701D02*
Y02851D01*
X00517Y02701D02*
Y02851D01*
X00442Y02701D02*
X00517D01*
X00442Y02851D02*
X00517D01*
X00347Y02705D02*
Y02855D01*
X00422Y02705D02*
Y02855D01*
X00347Y02705D02*
X00422D01*
X00347Y02855D02*
X00422D01*
X0022Y01067D02*
Y01142D01*
X0037Y01067D02*
Y01142D01*
X0022D02*
X0037D01*
X0022Y01067D02*
X0037D01*
X01532Y01718D02*
X0167D01*
X01532Y01851D02*
X0167D01*
X01532Y01718D02*
Y01851D01*
X0167Y01718D02*
Y01851D01*
X02802Y0105D02*
Y012D01*
X02727Y0105D02*
Y012D01*
X02802*
X02727Y0105D02*
X02802D01*
X02313Y00643D02*
Y00776D01*
X02446Y00643D02*
Y00776D01*
X02313Y00643D02*
X02446D01*
X02313Y00776D02*
X02446D01*
X01899Y02885D02*
X0212D01*
X01899Y02424D02*
X0212D01*
Y02885*
X01899Y02424D02*
Y02885D01*
X01079Y00284D02*
X0126D01*
X01079Y00209D02*
X0126D01*
X01079Y00205D02*
Y00284D01*
X0126Y00205D02*
Y00284D01*
X00288Y00506D02*
X0044D01*
Y00683*
X00288D02*
X0044D01*
X00288Y00506D02*
Y00683D01*
X01884Y00353D02*
X02036D01*
X01884Y00176D02*
Y00353D01*
Y00176D02*
X02036D01*
Y00353*
X02395Y01911D02*
X02675D01*
X02395Y02048D02*
X02675D01*
Y01911D02*
Y02048D01*
X02395Y01911D02*
Y02048D01*
X02621Y0264D02*
X03228D01*
X02621Y03085D02*
X03228D01*
Y0264D02*
Y03085D01*
X02621Y0264D02*
Y03085D01*
X02447Y03214D02*
Y03675D01*
X02668Y03214D02*
Y03675D01*
X02447Y03214D02*
X02668D01*
X02447Y03675D02*
X02668D01*
X00699Y01725D02*
X0088D01*
X00699Y018D02*
X0088D01*
Y01725D02*
Y01804D01*
X00699Y01725D02*
Y01804D01*
X00258Y01256D02*
Y01433D01*
X0041*
Y01256D02*
Y01433D01*
X00258Y01256D02*
X0041D01*
M02*