%FSTAX23Y23*%
%MOIN*%
%SFA1B1*%

%IPPOS*%
%ADD11C,0.010000*%
%ADD12C,0.011810*%
%ADD13C,0.019680*%
%ADD140C,0.039370*%
%ADD142C,0.270000*%
%ADD143C,0.023620*%
%ADD144O,0.043310X0.094490*%
%ADD145C,0.137800*%
%ADD146O,0.068900X0.098430*%
%ADD147C,0.058580*%
%ADD148R,0.059060X0.059060*%
%ADD149C,0.059060*%
%ADD150O,0.157480X0.078740*%
%ADD151O,0.078740X0.157480*%
%ADD152C,0.118110*%
%ADD153O,0.059060X0.078740*%
%ADD154C,0.060000*%
%ADD155R,0.059060X0.059060*%
%LNesp_gsm_v1.1-1*%
%LPD*%
G36*
X01112Y03754D02*
Y03642D01*
X01108Y03646*
X01093Y03656*
X01076Y03663*
X01059Y03666*
X0104*
X01023Y03663*
X01006Y03656*
X01006Y03655*
Y03752*
Y03752*
X01004Y03761*
X01001Y03769*
X00996Y03776*
X00985Y03787*
X01079*
X01112Y03754*
G37*
G36*
X04042Y03872D02*
X04067Y03865D01*
X04091Y03856*
X04113Y03843*
X04134Y03827*
X04152Y03809*
X04167Y03788*
X0418Y03766*
X0419Y03742*
X04197Y03717*
X042Y03692*
Y03679*
Y00197*
X042Y00184*
X04197Y00158*
X04191Y00133*
X04181Y00108*
X04169Y00086*
X04153Y00065*
X04135Y00046*
X04114Y00029*
X04092Y00016*
X04068Y00006*
X04042Y-00001*
X04017Y-00004*
X04003Y-00005*
X01953Y-00001*
X01958Y00001*
X01993Y00036*
X01998Y00043*
X01999Y00046*
X02001Y00051*
X02002Y0006*
Y00091*
X02143Y00231*
X02148Y00238*
X0215Y00243*
X02151Y00246*
X02152Y00255*
Y00548*
X02156Y00554*
X02158Y00561*
X02159Y0056*
X0217*
X0218Y00563*
X02189Y00568*
X02196Y00575*
X02201Y00584*
X02204Y00594*
Y00605*
X02201Y00615*
X022Y00616*
X02322*
X02322Y00615*
X02321Y00614*
X02321Y00614*
X0232Y00612*
X02319Y0061*
X02319Y0061*
X02319Y00608*
X02318Y00607*
X02318Y00605*
X02318Y00605*
X02318Y00605*
X02318Y00605*
X02317Y00603*
Y00603*
X02317Y00601*
Y00599*
X02317Y00598*
Y00546*
X02317Y00545*
Y00543*
X02317Y00541*
X02318Y00539*
X02318Y00539*
X02318Y00539*
X02319Y00534*
X02322Y00529*
X02322Y00529*
X02322Y00529*
X02323Y00528*
X02324Y00526*
X02325Y00525*
X02326Y00524*
X02489Y00361*
X0249Y0036*
X02491Y00359*
X02493Y00358*
Y00358*
X02494Y00357*
X02494Y00357*
X02494Y00357*
X02495Y00356*
X02499Y00354*
X02502Y00353*
X02504Y00353*
X02504Y00353*
X02504Y00353*
X02506Y00352*
X02508Y00352*
X0251*
X02511Y00352*
X03423*
X03424Y00352*
X03424*
X03425Y00352*
X03425Y00352*
X03425Y00352*
X03426Y00352*
X03427Y00352*
X03428Y00352*
X0343Y00353*
X03432Y00353*
X03432Y00353*
X03432Y00353*
X03435Y00354*
X03435Y00354*
X03435Y00354*
X03435Y00354*
X03435Y00354*
X03436Y00355*
X03436Y00355*
X03438Y00356*
X03439Y00356*
X03439Y00356*
X0344Y00357*
X03442Y00358*
X03442Y00359*
X03444Y0036*
X03444Y0036*
X03444Y0036*
X03444Y0036*
X03445Y00361*
X03445Y00361*
X03446Y00361*
X03736Y00667*
X03832Y00769*
X03833Y0077*
X03833Y0077*
X03833Y00771*
X03835Y00772*
X03835Y00773*
X03836Y00774*
X03837Y00776*
X03837Y00776*
X03838Y00776*
X03838Y00779*
X03838Y00779*
X03839Y00779*
X03839Y00779*
X03839Y00779*
X03839Y0078*
X03839Y0078*
X0384Y00782*
X0384Y00783*
X0384Y00783*
X0384Y00785*
X03841Y00786*
X03841Y00788*
Y00789*
X03841Y0079*
Y0079*
X03841Y00791*
Y03419*
X03841Y03419*
X03841Y03419*
X03841Y0342*
X03841Y03422*
X03841Y03422*
X0384Y03424*
X0384Y03427*
X0384Y03428*
X03839Y03429*
X03838Y03431*
X03837Y03433*
X03837Y03434*
X03836Y03435*
X03836Y03436*
X03836Y03436*
X03836Y03436*
X03832Y03441*
X03819Y0346*
X03818Y0346*
X03818Y03461*
X03817Y03462*
X03816Y03463*
X03816Y03463*
X03816Y03463*
X03815Y03464*
X03815Y03465*
X03814Y03466*
X03813Y03466*
X03793Y03487*
X03791Y03488*
X03791Y03488*
X03791Y03488*
X03791Y03488*
X0379Y03489*
X03788Y0349*
X03787Y03491*
X03787Y03491*
X03787Y03491*
X03785Y03492*
X03785Y03492*
X03785Y03492*
X03784Y03493*
X03782Y03494*
X03782Y03494*
X03782Y03494*
X0378Y03494*
X03779Y03495*
X03779Y03495*
X03779Y03495*
X03777Y03495*
X03777Y03495*
X03777Y03495*
X03775Y03496*
X03774Y03496*
X03772*
X03772Y03496*
X03772*
X03771Y03496*
X0377Y03496*
X03671Y03496*
X03645Y03495*
X03644Y03495*
X03643Y03495*
X03643*
X03643Y03495*
X03641Y03495*
X0364Y03495*
X03638Y03494*
X03638Y03494*
X03638Y03494*
X03637Y03494*
X03636Y03494*
X03636Y03494*
X03634Y03493*
X03633Y03493*
X03632Y03492*
X0363Y03491*
X0363Y03491*
X0363Y03491*
X03628Y0349*
X03627Y03489*
X03626Y03488*
X03624Y03487*
X03624Y03487*
X03624Y03487*
X03623Y03485*
X03623Y03485*
X03623Y03485*
X03622Y03484*
X03621Y03483*
X0362Y03482*
X0362Y03481*
X0362Y03481*
X0362Y03481*
X03619Y0348*
X03613Y03469*
X03608Y03461*
X03597Y03447*
X03596Y03446*
X03596Y03446*
X03595Y03445*
X03594Y03444*
X03594Y03443*
X03593Y03443*
X03593Y03442*
X03592Y03441*
X03591Y0344*
X03591Y03439*
X0359Y03436*
X03589Y03434*
X03589Y03433*
X03589Y03432*
X03589Y0343*
X03588Y03429*
X03588Y03429*
Y03428*
X03588Y03427*
Y03426*
X03588Y03425*
Y00887*
X03302Y00572*
X02551*
X02507Y00616*
X03003*
X03009Y00612*
X03019Y0061*
X0303*
X0304Y00612*
X03049Y00617*
X03056Y00625*
X03061Y00634*
X03062Y00636*
X03143Y00717*
X03148Y00724*
X0315Y00729*
X03151Y00732*
X03152Y0074*
Y01076*
X03151Y01085*
X0315Y01088*
X03148Y01093*
X03143Y011*
X0309Y01153*
X0309Y01153*
X03099Y01158*
X03106Y01165*
X03111Y01174*
X03114Y01184*
Y01195*
X03111Y01205*
X03106Y01214*
X03099Y01221*
X0309Y01226*
X0308Y01229*
X03069*
X03063Y01227*
X0285*
X02577Y015*
Y01935*
X02576Y01944*
X02572Y01953*
X02566Y01961*
X02461Y02066*
X02453Y02072*
X02444Y02076*
X02435Y02077*
X02377*
Y024*
X02376Y02409*
X02372Y02418*
X02366Y02426*
X02192Y026*
Y02684*
X0222Y02712*
X02595*
X02604Y02713*
X02613Y02717*
X02621Y02723*
X02781Y02883*
X02787Y02891*
X02789Y02896*
X02791Y029*
X02792Y0291*
Y0311*
X02791Y03119*
X02787Y03128*
X02781Y03136*
X02736Y03181*
X02728Y03187*
X02719Y03191*
X0271Y03192*
X02471*
X02465Y03194*
X02454*
X02444Y03191*
X02442Y0319*
Y03613*
X02444Y03619*
Y0363*
X02442Y03637*
X03193*
X03199Y03633*
X03209Y0363*
X0322*
X0323Y03633*
X03239Y03638*
X03246Y03645*
X03251Y03654*
X03254Y03664*
Y03675*
X03251Y03685*
X03246Y03694*
X03239Y03701*
X0323Y03706*
X0322Y03709*
X03209*
X03199Y03706*
X03193Y03702*
X0133*
X01321Y03701*
X01316Y03699*
X01313Y03698*
X01306Y03693*
X01187Y03574*
Y0377*
X01186Y03779*
X01182Y03788*
X01176Y03796*
X01121Y03851*
X01113Y03857*
X01104Y03861*
X01095Y03862*
X00981*
X00975Y03864*
X00964*
X00954Y03861*
X00945Y03856*
X00938Y03849*
X00933Y0384*
X0093Y0383*
Y03819*
X00933Y03809*
X00938Y038*
X0094Y03798*
X0079*
X00785Y03801*
X00775Y03804*
X00764*
X00754Y03801*
X00745Y03796*
X00738Y03789*
X00733Y0378*
X0073Y0377*
Y03759*
X00733Y03749*
X00738Y0374*
X00745Y03733*
X00754Y03728*
X00764Y03725*
X00775*
X00785Y03728*
X0079Y03731*
X00908*
X00908Y0373*
X00905Y0372*
Y03709*
X00908Y03699*
X00912Y03693*
Y03512*
X00608*
X00611Y03515*
X00616Y03524*
X00619Y03534*
Y03545*
X00616Y03555*
X00615Y03556*
X00618Y03561*
X00621Y03571*
Y03582*
X00618Y03592*
X00613Y03601*
X00606Y03608*
X00597Y03613*
X00587Y03616*
X00576*
X00566Y03613*
X00557Y03608*
X00552Y03603*
X00492*
X00483Y03602*
X00475Y03598*
X00468Y03593*
X00447Y03572*
X00442Y03565*
X00438Y03557*
X00437Y03548*
Y03536*
X00434Y03534*
X00429Y03525*
X00427Y03515*
Y03512*
X00185*
X00176Y03511*
X00173Y0351*
X00168Y03508*
X00161Y03503*
X00131Y03473*
X00126Y03466*
X00124Y03461*
X00123Y03458*
X00122Y0345*
Y03371*
X00119Y03367*
X00118Y03372*
X0011Y03385*
X001Y03395*
X00092Y034*
X001Y03404*
X0011Y03414*
X00118Y03427*
X00122Y03442*
Y03457*
X00118Y03472*
X0011Y03485*
X001Y03495*
X00087Y03503*
X00072Y03507*
X00057*
X00042Y03503*
X00029Y03495*
X00019Y03485*
X00011Y03472*
X00007Y03457*
Y03442*
X00011Y03427*
X00019Y03414*
X00029Y03404*
X00037Y034*
X00029Y03395*
X00019Y03385*
X00011Y03372*
X00007Y03357*
Y03342*
X00011Y03327*
X00019Y03314*
X00029Y03304*
X00037Y033*
X00029Y03295*
X00019Y03285*
X00011Y03272*
X00007Y03257*
Y03242*
X00011Y03227*
X00019Y03214*
X00029Y03204*
X00042Y03196*
X00057Y03192*
X00072*
X00087Y03196*
X001Y03204*
X0011Y03214*
X00118Y03227*
X00122Y03242*
Y03257*
X00118Y03272*
X0011Y03285*
X001Y03295*
X00092Y033*
X001Y03304*
X0011Y03314*
X00118Y03327*
X00119Y03332*
X00123Y03325*
X0013Y03318*
X00139Y03313*
X00141Y03312*
X00131Y03303*
X00126Y03296*
X00124Y0329*
X00123Y03288*
X00122Y0328*
Y02705*
X00123Y02696*
X00124Y02693*
X00126Y02688*
X00131Y02681*
X00203Y0261*
X0*
Y03678*
X0Y03679*
Y03692*
X00004Y03717*
X0001Y03742*
X0002Y03766*
X00033Y03788*
X00049Y03809*
X00067Y03827*
X00088Y03843*
X0011Y03856*
X00134Y03865*
X00159Y03872*
X00184Y03875*
X04016*
X04042Y03872*
G37*
G36*
X02365Y0363D02*
Y03619D01*
X02367Y03613*
Y03352*
X02361Y03367*
X02351Y03381*
X02339Y03393*
X02325Y03403*
X02309Y03409*
X02292Y03413*
X0229*
X02292Y03418*
X02296Y03437*
Y03456*
X02292Y03474*
X02285Y03492*
X02274Y03508*
X02261Y03521*
X02245Y03532*
X02228Y03539*
X02209Y03543*
X0219*
X02171Y03539*
X02154Y03532*
X02138Y03521*
X02125Y03508*
X02114Y03492*
X02107Y03474*
X02103Y03456*
Y03437*
X02107Y03418*
X02114Y034*
X02125Y03385*
X02138Y03371*
X02154Y03361*
X02171Y03353*
X0219Y0335*
X022*
X02197Y03335*
Y03317*
X022Y03301*
X02207Y03285*
X02216Y03271*
X02229Y03259*
X02243Y03249*
X02258Y03243*
X02275Y03239*
X02292*
X02309Y03243*
X02325Y03249*
X02339Y03259*
X02351Y03271*
X02361Y03285*
X02367Y033*
Y03099*
X02305Y03037*
X02129*
X0214Y03046*
X02149Y03057*
X02155Y03071*
X02157Y03086*
Y03106*
X02155Y03121*
X02152Y03129*
X02164Y03131*
X02178Y03136*
X0219Y03146*
X02199Y03157*
X02205Y03171*
X02207Y03186*
Y03206*
X02205Y03221*
X02199Y03235*
X0219Y03247*
X02178Y03256*
X02164Y03262*
X0215Y03264*
X02135Y03262*
X02121Y03256*
X02109Y03247*
X021Y03235*
X021Y03234*
X02099Y03235*
X0209Y03247*
X02078Y03256*
X02064Y03262*
X0205Y03264*
X02035Y03262*
X02021Y03256*
X02009Y03247*
X02Y03235*
X01994Y03221*
X01992Y03206*
Y03186*
X01994Y03171*
X01997Y03163*
X01985Y03162*
X01971Y03156*
X01959Y03147*
X0195Y03135*
X01944Y03121*
X01942Y03106*
Y03086*
X01944Y03071*
X0195Y03057*
X01959Y03046*
X01971Y03036*
X01985Y03031*
X02Y03029*
X02014Y03031*
X02028Y03036*
X0204Y03046*
X02049Y03057*
X0205Y03058*
X0205Y03057*
X02059Y03046*
X02071Y03036*
X02079Y03033*
X02075Y03031*
X02068Y03024*
X02063Y03015*
X0206Y03005*
Y03002*
X0188*
X0187Y03001*
X01861Y02997*
X01853Y02991*
X01813Y02951*
X01807Y02943*
X01803Y02934*
X01802Y02925*
Y02644*
X01668Y02778*
X01661Y02783*
X01656Y02785*
X01653Y02786*
X01645Y02787*
X00943*
Y02874*
X00946Y02879*
X00949Y02889*
Y029*
X00946Y0291*
X00941Y02919*
X00935Y02924*
X00962*
X00968Y02923*
X00979*
X00989Y02925*
X00998Y02931*
X01005Y02938*
X0101Y02947*
X01013Y02957*
Y02967*
X0101Y02977*
X01008Y02982*
X0126*
X01268Y02983*
X01271Y02984*
X01276Y02986*
X01283Y02991*
X01331Y03039*
X01331*
X01336Y03046*
X01338Y03051*
X01339Y03054*
X01341Y03063*
Y03091*
X01344Y03098*
X01347Y03108*
Y03118*
X01344Y03128*
X01339Y03137*
X01332Y03145*
X01323Y0315*
X01313Y03153*
X01303*
X01292Y0315*
X01284Y03145*
X01276Y03137*
X01271Y03128*
X01268Y03118*
Y03108*
X01271Y03098*
X01275Y03091*
Y03076*
X01246Y03047*
X00829*
X00829Y03047*
X00868Y03086*
X00873Y03093*
X00875Y03098*
X00876Y03101*
X00877Y0311*
Y03158*
X00881Y03164*
X00884Y03174*
Y03185*
X00881Y03195*
X00876Y03204*
X00869Y03211*
X0086Y03216*
X0085Y03219*
X00842*
Y03232*
X00925*
X00933Y03233*
X00936Y03234*
X00941Y03236*
X00948Y03241*
X01343Y03637*
X01382*
X01378Y03633*
X01368Y03618*
X01361Y03601*
X01358Y03584*
Y03565*
X01361Y03548*
X01368Y03531*
X01378Y03516*
X01391Y03503*
X01406Y03493*
X01423Y03486*
X0144Y03483*
X01459*
X01476Y03486*
X01493Y03493*
X01508Y03503*
X01521Y03516*
X01531Y03531*
X01538Y03548*
X01541Y03565*
Y03584*
X01538Y03601*
X01531Y03618*
X01521Y03633*
X01517Y03637*
X02367*
X02365Y0363*
G37*
G36*
X00981Y03367D02*
X00911Y03297D01*
X0082*
X00811Y03296*
X00808Y03295*
X00803Y03293*
X00796Y03288*
X00786Y03278*
X00781Y03271*
X00779Y03266*
X00778Y03263*
X00777Y03255*
Y03205*
X00776Y03199*
Y0319*
X00777Y03182*
X00779Y03178*
X0078Y03174*
X00785Y03167*
X00794Y03158*
X00801Y03153*
X00806Y03151*
X00809Y0315*
X00812Y03149*
Y03123*
X00791Y03102*
X00722*
X00724Y03109*
Y0312*
X00721Y0313*
X0072Y03132*
Y03216*
X00721Y03222*
Y03232*
X00719Y03242*
X00714Y03251*
X00706Y03259*
X00697Y03264*
X00687Y03266*
X00677*
X00667Y03264*
X00658Y03259*
X00651Y03251*
X00645Y03242*
X00643Y03232*
Y03222*
X00645Y03212*
X00651Y03203*
X00654Y03199*
Y0314*
X00653Y03139*
X00648Y0313*
X00645Y0312*
Y03109*
X00647Y03102*
X004*
X00538Y03241*
X00625*
X00633Y03242*
X00641Y03245*
X00648Y03251*
X00743Y03346*
X00945*
X00953Y03347*
X00961Y0335*
X00968Y03356*
X00981Y03368*
X00981Y03367*
G37*
G36*
X00611Y03308D02*
X00525D01*
X00516Y03307*
X00508Y03304*
X00501Y03298*
X00424Y03222*
Y0323*
X00422Y03236*
Y03269*
X0049Y03337*
X00608*
X00614Y03335*
X00625*
X00635Y03338*
X00644Y03343*
X00651Y0335*
X00656Y03359*
X00659Y03369*
Y03377*
X00679*
X00611Y03308*
G37*
G36*
X00511Y02974D02*
X00505Y02971D01*
X00498Y02964*
X00493Y02955*
X0049Y02945*
Y02934*
X00492Y02928*
Y0268*
X00468Y02656*
X00466Y02654*
X00413Y02708*
X00406Y02713*
X00401Y02715*
X00398Y02716*
X0039Y02717*
X00362*
X00366Y02724*
X00369Y02734*
Y02745*
X00366Y02755*
X00363Y0276*
Y02941*
X00386Y02963*
X0039Y02958*
X00399Y02953*
X00409Y0295*
X0042*
X0043Y02953*
X00439Y02958*
X00446Y02965*
X00451Y02974*
X00453Y02982*
X00518*
X00511Y02974*
G37*
G36*
X00358Y03311D02*
X00352Y03303D01*
X00348Y03294*
X00347Y03285*
Y03236*
X00345Y0323*
Y03219*
X00348Y03209*
X00353Y032*
X0036Y03193*
X00369Y03188*
X00379Y03185*
X00387*
X00295Y03093*
X00289Y03091*
X0028Y03086*
X00273Y03079*
X00268Y0307*
X00265Y0306*
Y03049*
X00268Y03039*
X00273Y0303*
X0028Y03023*
X00289Y03018*
X00295Y03016*
X00187Y02909*
Y03266*
X00298Y03377*
X00423*
X00358Y03311*
G37*
G36*
X02717Y03094D02*
Y02925D01*
X02579Y02787*
X02205*
X02195Y02786*
X02186Y02782*
X02178Y02776*
X02128Y02726*
X02122Y02718*
X02118Y02709*
X02117Y027*
Y02585*
X02118Y02575*
X02122Y02566*
X02128Y02558*
X02302Y02384*
Y02077*
X01854*
Y0208*
X01851Y0209*
X01846Y02099*
X01839Y02106*
X0183Y02111*
X0182Y02114*
X01809*
X01803Y02112*
X01655*
X01562Y02205*
Y02298*
X01564Y02304*
Y02315*
X01561Y02325*
X01556Y02334*
X01549Y02341*
X0154Y02346*
X0153Y02349*
X01519*
X01509Y02346*
X015Y02341*
X01493Y02334*
X01488Y02325*
X01485Y02315*
Y02304*
X01487Y02298*
Y0219*
X01488Y0218*
X01492Y02171*
X01498Y02163*
X01501Y0216*
X01493Y0215*
X01488Y02139*
X01487Y02127*
Y02045*
Y02029*
X01405Y01947*
X01364*
X01458Y02041*
X01463Y02048*
X01464Y02051*
X01466Y02056*
X01467Y02065*
Y02557*
X01474Y02553*
X01484Y0255*
X01495*
X01498Y02551*
X01505*
X01699Y02357*
X01707Y02351*
X01716Y02347*
X01725Y02346*
X01809*
X01815Y02344*
X01826*
X01836Y02347*
X01845Y02352*
X01852Y02359*
X01857Y02368*
X0186Y02378*
Y02389*
X01857Y02399*
X01852Y02408*
X01845Y02415*
X01836Y0242*
X01826Y02423*
X01815*
X01809Y02421*
X01741*
X01547Y02615*
X01539Y02621*
X0153Y02625*
X0152Y02626*
X01504*
X01495Y02629*
X01484*
X01474Y02626*
X01471Y02624*
X01474Y02634*
Y02645*
X01471Y02655*
X01466Y02664*
X01459Y02671*
X0145Y02676*
X0144Y02679*
X01429*
X01419Y02676*
X0141Y02671*
X01403Y02664*
X01398Y02655*
X01395Y02645*
Y02634*
X01398Y02624*
X01402Y02618*
Y02421*
X0139Y02422*
X01377Y02421*
X01368Y02417*
Y02619*
X01371Y02624*
X01374Y02634*
Y02645*
X01371Y02655*
X01366Y02664*
X01359Y02671*
X0135Y02676*
X0134Y02679*
X01329*
X01319Y02676*
X0131Y02671*
X01303Y02664*
X01298Y02655*
X01295Y02645*
Y02634*
X01298Y02624*
X01303Y02616*
Y02134*
X01226Y02057*
X01179*
X01258Y02136*
X01263Y02143*
X01265Y02148*
X01266Y02151*
X01267Y0216*
Y02618*
X01271Y02624*
X01274Y02634*
Y02645*
X01271Y02655*
X01266Y02664*
X01259Y02671*
X0125Y02676*
X0124Y02679*
X01229*
X01219Y02676*
X0121Y02671*
X01203Y02664*
X01198Y02655*
X01195Y02645*
Y02634*
X01198Y02624*
X01202Y02618*
Y02173*
X01116Y02087*
X01084*
X01158Y02161*
X01163Y02168*
X01164Y02171*
X01166Y02176*
X01167Y02185*
Y02618*
X01171Y02624*
X01174Y02634*
Y02645*
X01171Y02655*
X01166Y02664*
X01159Y02671*
X0115Y02676*
X0114Y02679*
X01129*
X01119Y02676*
X0111Y02671*
X01108Y02669*
Y02681*
X01113Y02686*
X01576*
X01751Y02511*
X01758Y02505*
X01766Y02502*
X01775Y02501*
X0189*
X01898Y02502*
X01906Y02505*
X01913Y02511*
X01963Y02561*
X01969Y02568*
X01972Y02576*
X01973Y02585*
Y02866*
X02003Y02896*
X02219*
X02211Y02888*
X02204Y02875*
X022Y02861*
Y02846*
X02204Y02831*
X02211Y02818*
X02222Y02808*
X02235Y028*
X02249Y02796*
X02264*
X02279Y028*
X02292Y02808*
X02302Y02818*
X0231Y02831*
X02314Y02846*
Y02861*
X0231Y02875*
X02302Y02888*
X02295Y02896*
X02337*
X02329Y02888*
X02322Y02875*
X02318Y0286*
Y02845*
X02322Y02831*
X02329Y02818*
X0234Y02807*
X02353Y028*
X02367Y02796*
X02382*
X02397Y028*
X0241Y02807*
X0242Y02818*
X02428Y02831*
X02432Y02845*
Y0286*
X02428Y02875*
X0242Y02888*
X02412Y02896*
X02455*
X02447Y02888*
X0244Y02875*
X02436Y0286*
Y02845*
X0244Y02831*
X02447Y02818*
X02458Y02807*
X02471Y028*
X02485Y02796*
X025*
X02515Y028*
X02528Y02807*
X02538Y02818*
X02546Y02831*
X0255Y02845*
Y0286*
X02546Y02875*
X02538Y02888*
X02528Y02898*
X02515Y02906*
X02506Y02908*
X02608Y03011*
X02614Y03018*
X02617Y03026*
X02618Y03035*
Y03044*
X02621Y03049*
X02624Y03059*
Y0307*
X02621Y0308*
X02616Y03089*
X02609Y03096*
X026Y03101*
X0259Y03104*
X02579*
X02569Y03101*
X0256Y03096*
X02553Y03089*
X02548Y0308*
X02545Y0307*
Y03059*
X02548Y03049*
X02549Y03047*
X02466Y02963*
X02452*
X02486Y02998*
X02492Y03006*
X02496Y03015*
X02497Y03025*
Y03117*
X02694*
X02717Y03094*
G37*
G36*
X00296Y0276D02*
X00293Y02755D01*
X0029Y02745*
Y02734*
X00293Y02724*
X00297Y02717*
X00218*
X00217Y02718*
Y02846*
X00296Y02924*
Y0276*
G37*
G36*
X01916Y02903D02*
X0191Y02896D01*
X01907Y02888*
X01906Y0288*
Y02598*
X01876Y02568*
X01864*
X01864Y02569*
Y0258*
X01863Y02583*
X01864Y02583*
X01871Y02591*
X01876Y026*
X01879Y0261*
Y0262*
X01877Y02626*
Y02909*
X01895Y02927*
X01939*
X01916Y02903*
G37*
G36*
X00878Y02919D02*
X00873Y0291D01*
X0087Y029*
Y02889*
X00873Y02879*
X00876Y02874*
Y02793*
X00791Y02708*
X00785Y02701*
X00782Y02693*
X00781Y02685*
Y02546*
X00778Y02547*
X0077Y02548*
X00555*
X0055Y02551*
X0054Y02554*
X00532*
Y02614*
X00556Y02638*
X00562Y02646*
X00566Y02655*
X00567Y02665*
Y02924*
X00568Y02924*
X00884*
X00878Y02919*
G37*
G36*
X00432Y02596D02*
Y02012D01*
X00429Y02011*
X0042Y02006*
X00413Y01999*
X00408Y0199*
X00405Y0198*
Y01969*
X00408Y01959*
X00413Y0195*
X0042Y01943*
X00429Y01938*
X00439Y01935*
X0045*
X00457Y01937*
Y0191*
X00362Y01816*
Y01992*
X00363Y01993*
X00368Y02005*
X0037Y02017*
X00368Y02029*
X00363Y02041*
X00356Y02051*
X00346Y02058*
X00334Y02063*
X00322Y02065*
X0031Y02063*
X00298Y02058*
X00288Y02051*
X00281Y02043*
X00273Y02033*
X00268Y02022*
X00267Y0201*
Y01819*
X00196Y01748*
X00188Y01738*
X00183Y01727*
X00182Y01715*
Y0157*
X00183Y01557*
X00188Y01546*
X00196Y01536*
X00244Y01487*
X00235*
X00226Y01486*
X00223Y01485*
X00218Y01483*
X00211Y01478*
X00181Y01448*
X00176Y01441*
X00174Y01436*
X00173Y01433*
X00172Y01425*
Y00535*
X00173Y00526*
X00174Y00523*
X00176Y00518*
X00181Y00511*
X00241Y00451*
X00248Y00446*
X00253Y00444*
X00256Y00443*
X00265Y00442*
X00351*
X00676Y00116*
X00683Y00111*
X00688Y00109*
X00691Y00108*
X007Y00107*
X00762*
Y00022*
X0083*
X00851Y00001*
X00854Y0*
X00197Y0*
X00184*
X00159Y00004*
X00134Y00011*
X0011Y0002*
X00088Y00033*
X00067Y00049*
X00049Y00067*
X00033Y00088*
X0002Y0011*
X0001Y00134*
X00004Y00159*
X0Y00184*
Y00197*
Y0189*
X00005Y01895*
X0022*
Y02593*
X00291Y02521*
X00298Y02516*
X00302Y02514*
X00306Y02513*
X00315Y02512*
X00363*
X00369Y02508*
X00379Y02505*
X0039*
X004Y02508*
X00409Y02513*
X00416Y0252*
X00421Y02529*
X00424Y02539*
Y0255*
X00421Y0256*
X00416Y02569*
X00409Y02576*
X004Y02581*
X0039Y02584*
X00379*
X00369Y02581*
X00363Y02577*
X00328*
X00254Y02652*
X00376*
X00432Y02596*
G37*
G36*
X0056Y02475D02*
Y02464D01*
X00563Y02454*
X00568Y02445*
X00575Y02438*
X00584Y02433*
X00592Y02431*
X00606Y02416*
X00613Y02411*
X00618Y02409*
X00621Y02408*
X0063Y02407*
X00736*
X00747Y02396*
Y02248*
X00711Y02212*
X0067*
X00661Y02211*
X00656Y02209*
X00653Y02208*
X00646Y02203*
X00532Y02089*
Y02475*
X0054*
X0055Y02478*
X00555Y02481*
X00562*
X0056Y02475*
G37*
G36*
X01051Y02718D02*
X01045Y02711D01*
X01042Y02703*
X01041Y02695*
Y02495*
X01038Y0249*
X01035Y0248*
Y02469*
X01038Y02459*
X01043Y0245*
X0105Y02443*
X01059Y02438*
X01069Y02435*
X0108*
X0109Y02438*
X01099Y02443*
X01102Y02446*
Y02198*
X01026Y02122*
X00872*
X00876Y02129*
X00879Y02139*
Y0215*
X00876Y0216*
X00873Y02165*
Y0248*
X00872Y02488*
X00869Y02496*
X00866Y02499*
X00863Y02503*
X00848Y02518*
Y0263*
X00855*
X00865Y02633*
X00874Y02638*
X00881Y02645*
X00886Y02654*
X00888Y02662*
X00948Y02722*
X01054*
X01051Y02718*
G37*
G36*
X00842Y0199D02*
X00843Y01977D01*
X00845Y01972*
X00673*
X00674Y01973*
X00681Y0198*
X00686Y01989*
X00687Y01992*
X00842*
X00842Y0199*
G37*
G36*
X00613Y01911D02*
X00618Y01909D01*
X00621Y01908*
X0063Y01907*
X01158*
X01157Y019*
X01158Y01892*
X01041*
X01035Y01896*
X01025Y01899*
X01014*
X01004Y01896*
X00995Y01891*
X00988Y01884*
X00984Y01877*
X00979*
X00969Y01874*
X0096Y01869*
X00953Y01862*
X00948Y01853*
X00947Y0185*
X0094Y01855*
X0093Y01857*
X00919*
X00909Y01855*
X009Y01849*
X00893Y01842*
X00888Y01833*
X00886Y01826*
X00849*
X00838Y01837*
X00836Y01845*
X00831Y01854*
X00824Y01861*
X00815Y01866*
X00805Y01869*
X00794*
X00784Y01866*
X00775Y01861*
X00768Y01854*
X00763Y01845*
X0076Y01835*
Y01824*
X00763Y01814*
X00766Y01808*
X00623*
X00608Y01823*
Y01915*
X00613Y01911*
G37*
G36*
X00433Y01778D02*
X00432Y0177D01*
Y01488*
X00431Y01487*
X00422*
X00422Y0149*
X00421Y01502*
X00416Y01513*
X00408Y01523*
X00398Y01531*
X00387Y01536*
X00375Y01537*
X00329*
X00277Y01589*
Y01695*
X00284Y01702*
X00288Y01695*
X00295Y01688*
X00304Y01683*
X00314Y0168*
X00325*
X00335Y01683*
X00344Y01688*
X00351Y01695*
X00354Y01701*
X00434Y0178*
X00433Y01778*
G37*
G36*
X0059Y01748D02*
X00593Y01745D01*
X00601Y01742*
X0061Y01741*
X0093*
Y01734*
X00933Y01724*
X00938Y01715*
X00945Y01708*
X00954Y01703*
X00964Y017*
X00975*
X00985Y01703*
X00994Y01708*
X00996Y01711*
X01208*
X01207Y017*
X01208Y01687*
X01213Y01676*
X01219Y01669*
X01218Y01669*
X01207*
X01197Y01666*
X01188Y01661*
X01187Y0166*
X01185Y01661*
X01176Y01666*
X01166Y01669*
X01156*
X01146Y01666*
X01137Y01661*
X01136Y0166*
X01134Y01661*
X01125Y01666*
X01115Y01669*
X01105*
X01095Y01666*
X01086Y01661*
X01079Y01654*
X01073Y01645*
X01071Y01635*
Y01632*
X01069Y01631*
X0106Y01626*
X01053Y01619*
X01048Y0161*
X01045Y016*
Y01589*
X01048Y01579*
X01051Y01574*
Y01538*
X00991Y01478*
X0085*
X00841Y01477*
X00833Y01474*
X0083Y01471*
X00826Y01468*
X00646Y01288*
X0064Y01281*
X00637Y01273*
X00636Y01265*
Y00325*
X00637Y00316*
X0064Y00308*
X00646Y00301*
X00744Y00202*
X00733*
X00408Y00528*
X00402Y00533*
X00403Y00533*
X00409Y00537*
X00413Y00543*
X00416Y0055*
X00417Y00557*
Y00632*
X00416Y00639*
X00413Y00646*
X00409Y00652*
X00403Y00656*
X00396Y00659*
X00389Y0066*
X00298*
X00291Y00659*
X00284Y00656*
X00279Y00652*
X00277Y0065*
Y01279*
X00359*
X00366Y0128*
X00373Y01283*
X00379Y01287*
X00383Y01293*
X00386Y013*
X00387Y01307*
Y01382*
X00386Y01389*
X00383Y01396*
X00379Y01402*
X00378Y01402*
X00465*
X00473Y01403*
X00476Y01404*
X00481Y01406*
X00488Y01411*
X00517Y01441*
X00566Y01391*
X00573Y01386*
X00578Y01384*
X00581Y01383*
X0059Y01382*
X00613*
X00619Y01378*
X00629Y01375*
X0064*
X0065Y01378*
X00659Y01383*
X00666Y0139*
X00671Y01399*
X00674Y01409*
Y0142*
X00671Y0143*
X00666Y01439*
X00663Y01442*
X0073*
X00742Y01443*
X00753Y01448*
X00763Y01456*
X00808Y01501*
X00816Y01511*
X00821Y01522*
X00822Y01535*
Y01595*
X00828Y01601*
X00836Y01611*
X00841Y01622*
X00842Y01635*
X00841Y01647*
X00836Y01658*
X00828Y01668*
X00818Y01676*
X00807Y01681*
X00795Y01682*
X00782Y01681*
X00771Y01676*
X00761Y01668*
X00741Y01648*
X00733Y01638*
X00728Y01627*
X00727Y01615*
Y01554*
X0071Y01537*
X00645*
X00632Y01536*
X00621Y01531*
X00611Y01523*
X00603Y01513*
X00598Y01502*
X00598Y01498*
X00587Y01508*
Y01749*
X0059Y01748*
G37*
G36*
X02502Y01919D02*
Y01485D01*
X02503Y01475*
X02507Y01466*
X02513Y01458*
X02808Y01163*
X02816Y01157*
X02825Y01153*
X02835Y01152*
X0301*
X0301Y01151*
Y01141*
X03013Y01131*
X03018Y01122*
X03025Y01115*
X03034Y0111*
X03042Y01108*
X03043Y01106*
X03043Y01106*
X03035Y01107*
X03001*
X02995Y01111*
X02985Y01114*
X02974*
X02964Y01111*
X02955Y01106*
X02948Y01099*
X02943Y0109*
X0294Y0108*
Y01069*
X02943Y01059*
X02946Y01055*
X02943Y0105*
X0294Y0104*
Y01029*
X02943Y01019*
X02946Y01014*
X02942Y01008*
X0294Y00998*
Y00987*
X02942Y00977*
X02946Y00971*
Y00912*
X02655*
X02646Y00911*
X02641Y00909*
X02638Y00908*
X02637Y00907*
Y0121*
X02636Y01222*
X02631Y01233*
X02623Y01243*
X02613Y01251*
X02602Y01256*
X0259Y01257*
X02577Y01256*
X02566Y01251*
X02556Y01243*
X02548Y01233*
X02543Y01222*
X02542Y0121*
Y00889*
X0253Y00877*
X024*
X02387Y00876*
X02376Y00871*
X02366Y00863*
X02358Y00853*
X02353Y00842*
X02352Y0083*
X01851*
X01822Y00858*
Y01765*
X01821Y01773*
X01819Y01778*
X01818Y01781*
X01813Y01788*
X01718Y01883*
X01711Y01888*
X01706Y0189*
X01703Y01891*
X01695Y01892*
X01485*
X01568Y01976*
X01576Y01986*
X01581Y01997*
X01581Y02002*
X02123*
X02123Y02002*
X02122Y01997*
X02122*
X02121Y01997*
X02121Y01996*
X02121Y01996*
X02121Y01996*
X02121Y01995*
X02121Y01994*
X02121Y01994*
X0212Y01993*
X0212Y01992*
X0212Y01992*
Y01991*
X0212Y0199*
X0212Y01989*
Y01988*
X0212Y01988*
Y01987*
X0212Y01986*
Y01986*
Y01985*
X02119Y01983*
X02119Y01982*
Y01982*
Y0198*
X02119Y01978*
Y01978*
X02119Y01976*
Y01975*
Y01975*
X02119Y01974*
X0212Y01973*
X0212Y01972*
Y01972*
Y0197*
Y01965*
X0212Y01963*
Y01961*
X0212Y01959*
X02121Y01958*
X02121Y01957*
X02121Y01957*
X02122Y01952*
X02125Y01948*
X02125Y01948*
X02125Y01948*
X02126Y01946*
X02127Y01945*
X02128Y01943*
X02129Y01942*
X02182Y01889*
X02183Y01888*
X02185Y01887*
X02186Y01886*
X02188Y01885*
X02188Y01885*
X02188Y01885*
X02192Y01882*
Y01882*
X02195Y01881*
X02196Y01881*
X02196Y01881*
X02197Y01881*
X02197Y01881*
X02198Y0188*
X02199Y0188*
X022Y0188*
X02203Y01879*
X02204Y01879*
X02205Y01879*
X02214Y01878*
X02216Y01878*
X02216*
X02216Y01878*
X02218*
X0222Y01878*
X02277*
X02278Y01877*
X0228Y01876*
X02348Y01808*
X02349Y01807*
X02349Y01805*
Y01334*
X02349Y01334*
X02349Y01333*
X02349Y01333*
X02348Y01332*
X02347Y0133*
X02347Y0133*
X02346Y01329*
X02345Y01329*
X02334*
X02324Y01326*
X02315Y01321*
X02308Y01314*
X02305Y01309*
X02299Y01316*
X0229Y01321*
X02282Y01323*
X02279Y01326*
X02272Y01331*
X02268Y01333*
X02265Y01335*
X02256Y01336*
X02256*
X02054*
Y0142*
X02057Y01425*
X0206Y01435*
Y01446*
X02057Y01456*
X02052Y01465*
X02045Y01472*
X02036Y01477*
X02026Y0148*
X02015*
X02005Y01477*
X01996Y01472*
X01989Y01465*
X01984Y01456*
X01981Y01446*
Y01435*
X01984Y01425*
X01987Y0142*
Y01336*
X01947*
X0194Y0134*
X0193Y01342*
X0192*
X01912Y0134*
X01922Y01351*
X0193Y01353*
X01939Y01358*
X01946Y01365*
X01951Y01374*
X01954Y01384*
Y01395*
X01951Y01405*
X01946Y01414*
X01939Y01421*
X0193Y01426*
X0192Y01429*
X01909*
X01899Y01426*
X0189Y01421*
X01883Y01414*
X01878Y01405*
X01876Y01397*
X01836Y01358*
X01831Y01351*
X01829Y01346*
X01828Y01343*
X01827Y01335*
Y0105*
X01828Y01041*
X01829Y01038*
X01831Y01033*
X01836Y01026*
X01886Y00976*
X01893Y00971*
X01896Y0097*
X01901Y00968*
X0191Y00967*
X02095*
X02103Y00968*
X02106Y00969*
X02111Y00971*
X02118Y00976*
X02157Y01016*
X02165Y01018*
X02174Y01023*
X02181Y0103*
X02186Y01039*
X02189Y01049*
Y0106*
X02186Y0107*
X02181Y01079*
X02174Y01086*
X02165Y01091*
X02155Y01094*
X02144*
X02134Y01091*
X02125Y01086*
X02118Y01079*
X02113Y0107*
X02111Y01062*
X02081Y01032*
X01923*
X01892Y01063*
Y01201*
X01893Y012*
X019Y01193*
X01909Y01188*
X01915Y01186*
X01996Y01105*
X02003Y011*
X02011Y01096*
X0202Y01095*
X02309*
X02318Y01096*
X02326Y011*
X02333Y01105*
X02348Y0112*
X02348Y0112*
X02349Y01119*
X02349Y01119*
X02349Y01118*
X02349Y01118*
Y00948*
Y00946*
X02349Y00944*
Y00942*
X02349Y00942*
X0235Y0094*
X0235Y00939*
Y00939*
Y00938*
Y00935*
X0235Y00933*
X0235Y00931*
X0235Y0093*
X02351Y00928*
X02351Y00928*
X02351Y00928*
X02351Y00926*
X02352Y00923*
X02352Y00923*
X02352Y00923*
X02354Y0092*
X02355Y00918*
X02355Y00918*
X02355Y00918*
X02356Y00916*
X02357Y00915*
X02358Y00914*
X02358Y00914*
X02358Y00913*
X02359Y00913*
X02359Y00912*
X0236Y00912*
X0236Y00912*
X0236Y00911*
X02361Y0091*
X02362Y0091*
X02362Y0091*
X02362Y00909*
X02362Y00909*
X02362Y00909*
X02363Y00909*
X02363Y00908*
X02363Y00908*
X02364Y00907*
X02364Y00907*
X02365Y00906*
X02367Y00905*
X02368Y00903*
X0237Y00902*
X02371Y00901*
X02373Y00901*
X02374Y009*
X02376Y00899*
X02378Y00899*
X0238Y00898*
X02381Y00898*
X02383*
X02383Y00898*
X02383Y00898*
X02384*
X02385Y00898*
X02387Y00898*
X02387Y00898*
X02398*
X02405Y00897*
X02411Y00898*
X02424*
X02425Y00898*
X02425*
X02426Y00898*
X02426Y00898*
X02427*
X02428Y00898*
X02429Y00898*
X02431Y00899*
X02432Y00899*
X02433Y00899*
X02434Y009*
X02435Y009*
X02435Y009*
X02437Y00901*
X02437Y00901*
X02438Y00902*
X0244Y00903*
X0244Y00903*
X02441Y00904*
X02443Y00905*
X02443Y00905*
X02443Y00906*
X02444Y00906*
X02445Y00907*
X02446Y00908*
X02446Y00909*
X02446Y00909*
X02446Y00909*
X02447Y0091*
X02449Y00912*
X0245Y00914*
X02451Y00915*
X02453Y00919*
X02454Y0092*
X02455Y00922*
X02456Y00925*
X02456Y00927*
X02457Y00929*
X02458Y00931*
X02458Y00932*
X02458Y00933*
X02458Y00933*
Y00933*
X02458Y00934*
X02459Y00936*
X02459Y0094*
X0246Y00942*
X0246Y00942*
Y00944*
Y00944*
X0246Y00946*
Y00948*
Y01831*
Y01833*
X0246Y01835*
Y01835*
Y01837*
X0246Y01837*
X02459Y01839*
X02459Y01843*
X02458Y01845*
X02458Y01847*
X02457Y0185*
X02456Y01852*
X02456Y01854*
X02455Y01857*
X02454Y01859*
X02453Y0186*
X02451Y01864*
X0245Y01865*
X02449Y01867*
X02445Y01872*
X02444Y01873*
X02443Y01875*
X02348Y0197*
X02346Y01971*
X02345Y01972*
X02343Y01974*
X02343Y01974*
X02342Y01975*
X02338Y01978*
X02337Y01978*
X02335Y0198*
X0233Y01982*
X0233Y01982*
X02328Y01984*
X02327Y01984*
X02327Y01984*
X02327Y01985*
X02326Y01985*
X02325Y01985*
X02324Y01986*
X02323Y01986*
X02323Y01987*
X02322Y01987*
X0232Y01988*
X0232Y01988*
X02319Y01988*
X02317Y01988*
X02316Y01989*
X02316Y01989*
X02315Y01989*
X02313Y01989*
X02312Y01989*
X02312Y01989*
X02311Y01989*
X02311Y01989*
X0231Y01989*
X02242*
X0224Y0199*
X02239Y01991*
X0223Y02*
X0223Y02*
X02229Y02001*
X02229Y02001*
X02229Y02002*
X02229Y02002*
X02419*
X02502Y01919*
G37*
G36*
X01255Y01652D02*
X01294D01*
X01293Y0165*
X0129Y0164*
Y01629*
X01293Y01619*
X01298Y0161*
X01305Y01603*
X01314Y01598*
X01324Y01595*
X01335*
X01345Y01598*
X01354Y01603*
X01356Y01606*
X01536*
Y01483*
X01416Y01363*
X0141Y01356*
X01407Y01348*
X01406Y0134*
Y01125*
X01407Y01116*
X0141Y01108*
X01416Y01101*
X01436Y01081*
X01443Y01075*
X01451Y01072*
X0146Y01071*
X01619*
X01624Y01068*
X01634Y01065*
X01645*
X01646Y01066*
Y00639*
X01628Y00621*
X01629Y00624*
Y00635*
X01626Y00645*
X01621Y00654*
X01614Y00661*
X01605Y00666*
X01595Y00669*
X01584*
X01578Y00667*
X00945*
X00935Y00666*
X00931Y00664*
X00926Y00662*
X00918Y00656*
X00808Y00547*
Y01201*
X00913Y01306*
X01065*
X01073Y01307*
X01081Y0131*
X01088Y01316*
X01236Y01464*
X01239Y01468*
X01242Y01471*
X01245Y01479*
X01246Y01487*
Y01609*
X01249Y01614*
X01252Y01624*
Y01635*
X01249Y01645*
X01244Y01653*
X01255Y01652*
G37*
G36*
X01646Y01143D02*
X01645Y01144D01*
X01634*
X01624Y01141*
X01619Y01138*
X01473*
X01473Y01138*
Y01268*
X0148Y01267*
X01492Y01268*
X01503Y01273*
X01513Y01281*
X01646Y01414*
Y01143*
G37*
G36*
X02238Y01269D02*
X02243Y0126D01*
X0225Y01253*
X02259Y01248*
X02269Y01245*
X0228*
X0229Y01248*
X02299Y01253*
X02306Y0126*
Y01173*
X02295Y01163*
X02193*
X02191Y0117*
X02187Y01176*
Y01235*
X02186Y01243*
X02184Y01248*
X02183Y01251*
X02178Y01258*
X02165Y0127*
X02238*
X02238Y01269*
G37*
G36*
X02122Y01221D02*
Y01176D01*
X02118Y0117*
X02116Y01163*
X02034*
X01965Y01231*
X02112*
X02122Y01221*
G37*
G36*
X02202Y01997D02*
X02202Y01996D01*
X02202Y01995*
X02202Y01995*
Y01995*
X02202Y01995*
X02202Y01994*
X02202Y01993*
X02203Y01991*
X02204Y01988*
X02205Y01987*
X02205Y01987*
X02207Y01984*
X02208Y01982*
X02209Y01982*
X0221Y01981*
X02221Y0197*
X02226Y01965*
X02233Y01962*
X0224Y01961*
X0231*
X02311Y01961*
X02311Y01961*
X02312Y01961*
X02313Y01961*
X02315Y01959*
X02316Y01959*
X02317Y01958*
X02321Y01956*
X02325Y01953*
X02327Y01951*
X02327Y01951*
X02328Y0195*
X02423Y01855*
X02427Y0185*
X02429Y01847*
X0243Y01843*
X02431Y0184*
X02432Y01835*
X02432Y01833*
X02432Y01833*
Y01831*
Y00948*
Y00946*
X02432Y00946*
X02432Y00944*
X02431Y00939*
X02431Y00938*
X0243Y00936*
X02429Y00932*
X02427Y00929*
X02425Y00927*
X02425Y00926*
X02424Y00926*
X02424Y00926*
X02424Y00926*
X02387*
X02387Y00926*
X02385Y00926*
X02384Y00927*
X02383Y00928*
Y00928*
X02382Y00929*
X02381Y00929*
X02381Y0093*
X0238Y0093*
X0238Y00931*
X02379Y00932*
X02378Y00933*
X02378Y00935*
Y00939*
X02377Y00941*
Y00943*
X02377Y00944*
X02377Y00945*
X02377Y00946*
Y00948*
Y01119*
X02377Y0112*
X02377Y01121*
X02376Y01124*
X02376Y01126*
X02376Y01127*
X02375Y01128*
X02374Y0113*
X02373Y01133*
X02373Y01134*
X02372Y01134*
X02371Y01135*
X02371Y01136*
X0237Y01137*
X0237Y01138*
Y0128*
X02371Y01285*
Y01294*
X0237Y01299*
Y01314*
X0237Y01314*
X0237Y01315*
X02371Y01317*
X02372Y01318*
X02373Y01318*
X02373Y01319*
X02374Y01322*
X02375Y01324*
X02376Y01325*
X02376Y01326*
X02376Y01329*
X02377Y01331*
X02377Y01332*
X02377Y01333*
Y01807*
X02376Y01814*
X02373Y01821*
X02369Y01827*
X02298Y01897*
X02292Y01902*
X02286Y01904*
X02279Y01905*
X0222*
X0222Y01905*
X02218Y01906*
X02209Y01907*
X02209*
X02206Y01907*
X02205Y01907*
X02204Y01908*
X02203Y01908*
X02202Y01909*
X02149Y01962*
X02148Y01963*
X02148Y01965*
Y01972*
X02147Y01973*
Y01975*
X02147Y01976*
X02147Y01978*
X02147Y01978*
Y01978*
X02147Y01981*
Y01983*
X02148Y01985*
Y01986*
X02148Y01987*
Y01988*
X02148Y01988*
X02148Y01989*
X02148Y01989*
X02148Y01989*
X02148Y0199*
X0215Y01996*
X0215Y01998*
X0215Y02*
X022*
X02202Y01997*
G37*
G36*
X03009Y00843D02*
X03019Y0084D01*
X0303*
X03032Y00841*
Y00818*
X0303Y00819*
X03019*
X03009Y00816*
X03002Y00812*
X02633*
X02668Y00847*
X03003*
X03009Y00843*
G37*
G36*
X01792Y00756D02*
X01799Y00751D01*
X01802Y00749*
X01806Y00747*
X01815Y00746*
X03003*
X03009Y00743*
X03019Y0074*
X0303*
X0304Y00743*
X03044Y00745*
X03018Y00719*
X03009Y00717*
X03003Y00713*
X01827*
X01782Y00758*
Y00765*
X01792Y00756*
G37*
G36*
X01584Y0059D02*
X01595D01*
X01598Y00591*
X01591Y00583*
X01115*
X01106Y00582*
X01098Y00579*
X01091Y00573*
X01027Y0051*
X01022Y00503*
X01018Y00495*
X01017Y00486*
Y00353*
X01018Y00344*
X01022Y00336*
X01027Y00329*
X01034Y00323*
X00867*
X00808Y00381*
Y00383*
X00815Y00382*
X00933*
X00935Y00382*
X00947Y00383*
X00958Y00388*
X00968Y00396*
X00976Y00406*
X00981Y00417*
X00982Y0043*
X00981Y00442*
X00976Y00453*
X00968Y00463*
X00968Y00463*
X00958Y00471*
X00947Y00476*
X00934Y00477*
X00847*
X00849Y00481*
X0096Y00592*
X01578*
X01584Y0059*
G37*
G36*
X03772Y03468D02*
X03772D01*
X03772Y03468*
X03773Y03467*
X03794Y03446*
X03794Y03446*
X03795Y03445*
X03796Y03444*
X03796Y03444*
X03809Y03425*
X03813Y0342*
X03813Y03419*
X03813Y03419*
Y00791*
X03813Y0079*
Y0079*
X03813Y00789*
X03812Y00788*
X03715Y00686*
X03426Y00381*
X03425Y0038*
X03424Y0038*
X03424Y0038*
X03423Y0038*
X02511*
X0251Y0038*
X02508Y00381*
X02346Y00543*
X02345Y00545*
X02345Y00546*
Y00598*
X02345Y00599*
X02345Y006*
X02345Y006*
X02379Y00634*
X0245*
X0254Y00545*
X03315*
X03323Y00554*
X03609Y00868*
X03616Y00876*
Y03425*
X03616Y03426*
Y03427*
X03617Y03428*
X03617Y03428*
X03618Y03429*
X03631Y03445*
X03637Y03456*
X03643Y03466*
X03644Y03467*
X03644Y03467*
X03644Y03467*
X03645Y03468*
X03671Y03468*
X0377Y03468*
X03772Y03468*
G37*
G36*
X01787Y00626D02*
X01794Y0062D01*
X01798Y00619*
X01802Y00617*
X0181Y00616*
X01838*
X01751Y00528*
X01745Y00521*
X01742Y00513*
X01741Y00505*
Y00453*
X01706Y00418*
X01521*
X01521Y00419*
X01524Y00429*
Y0044*
X01521Y0045*
X01518Y00456*
X0159*
X01598Y00457*
X01606Y0046*
X01613Y00466*
X01728Y00581*
X01734Y00588*
X01737Y00596*
X01738Y00605*
Y00674*
X01787Y00626*
G37*
G36*
X0208Y00564D02*
X02083Y00554D01*
X02087Y00548*
Y00268*
X02053Y00235*
Y00302*
X02053Y00309*
X0205Y00316*
X02045Y00322*
X0204Y00326*
X02033Y00329*
X02026Y0033*
X01935*
X01928Y00329*
X01921Y00326*
X01915Y00322*
X01911Y00316*
X01908Y00309*
X01907Y00302*
Y00227*
X01908Y0022*
X01911Y00213*
X01915Y00207*
X01921Y00203*
X01928Y002*
X01935Y00199*
X02018*
X01948Y00129*
X01942Y00133*
X01927Y00137*
X01912*
X01897Y00133*
X01888Y00127*
X01861*
X01857Y00137*
X01849Y00147*
X01783Y00213*
X01773Y00221*
X01762Y00226*
X0175Y00227*
X01509*
X01388Y00348*
X01385Y00351*
X0172*
X01728Y00352*
X01736Y00355*
X01743Y00361*
X01798Y00416*
X01801Y0042*
X01804Y00423*
X01805Y00426*
X01807Y00431*
X01808Y0044*
Y00491*
X01883Y00566*
X0208*
Y00564*
G37*
%LNesp_gsm_v1.1-2*%
%LPC*%
G36*
X00652Y03746D02*
X00641D01*
X00631Y03744*
X00622Y03738*
X00615Y03731*
X0061Y03722*
X00607Y03712*
Y03702*
X0061Y03692*
X00615Y03683*
X00622Y03675*
X00631Y0367*
X00641Y03667*
X00652*
X00662Y0367*
X00671Y03675*
X00678Y03683*
X00683Y03692*
X00686Y03702*
Y03712*
X00683Y03722*
X00678Y03731*
X00671Y03738*
X00662Y03744*
X00652Y03746*
G37*
G36*
X00494D02*
X00484D01*
X00474Y03744*
X00465Y03738*
X00458Y03731*
X00452Y03722*
X0045Y03712*
Y03702*
X00452Y03692*
X00458Y03683*
X00465Y03675*
X00474Y0367*
X00484Y03667*
X00494*
X00504Y0367*
X00513Y03675*
X00521Y03683*
X00526Y03692*
X00528Y03702*
Y03712*
X00526Y03722*
X00521Y03731*
X00513Y03738*
X00504Y03744*
X00494Y03746*
G37*
G36*
X04037Y03471D02*
X04022D01*
X04008Y03468*
X03994Y03462*
X03982Y03454*
X03971Y03444*
X03963Y03431*
X03958Y03418*
X03955Y03404*
Y03389*
X03958Y03374*
X03963Y03361*
X03971Y03349*
X03982Y03338*
X03994Y0333*
X04008Y03324*
X04022Y03322*
X04037*
X04051Y03324*
X04065Y0333*
X04077Y03338*
X04087Y03349*
X04095Y03361*
X04101Y03374*
X04104Y03389*
Y03404*
X04101Y03418*
X04095Y03431*
X04087Y03444*
X04077Y03454*
X04065Y03462*
X04051Y03468*
X04037Y03471*
G37*
G36*
X03004Y03402D02*
X02925D01*
X02912Y034*
X02899Y03397*
X02888Y0339*
X02878Y03382*
X02869Y03372*
X02863Y0336*
X02859Y03348*
X02858Y03335*
X02859Y03321*
X02863Y03309*
X02869Y03297*
X02878Y03287*
X02888Y03279*
X02899Y03272*
X02912Y03269*
X02925Y03267*
X03004*
X03017Y03269*
X0303Y03272*
X03041Y03279*
X03051Y03287*
X0306Y03297*
X03066Y03309*
X0307Y03321*
X03071Y03335*
X0307Y03348*
X03066Y0336*
X0306Y03372*
X03051Y03382*
X03041Y0339*
X0303Y03397*
X03017Y034*
X03004Y03402*
G37*
G36*
X03419Y03159D02*
X034D01*
X03381Y03155*
X03364Y03147*
X03348Y03137*
X03334Y03123*
X03323Y03107*
X03316Y0309*
X03312Y03071*
Y03052*
X03316Y03033*
X03323Y03015*
X03334Y02999*
X03348Y02985*
X03364Y02975*
X03381Y02967*
X034Y02964*
X03419*
X03438Y02967*
X03456Y02975*
X03472Y02985*
X03485Y02999*
X03496Y03015*
X03503Y03033*
X03507Y03052*
Y03071*
X03503Y0309*
X03496Y03107*
X03485Y03123*
X03472Y03137*
X03456Y03147*
X03438Y03155*
X03419Y03159*
G37*
G36*
X00072Y03072D02*
X00057D01*
X00042Y03068*
X00029Y0306*
X00019Y0305*
X00011Y03037*
X00007Y03022*
Y03007*
X00011Y02992*
X00019Y02979*
X00029Y02969*
X00037Y02965*
X00029Y0296*
X00019Y0295*
X00011Y02937*
X00007Y02922*
Y02907*
X00011Y02892*
X00019Y02879*
X00029Y02869*
X00037Y02865*
X00029Y0286*
X00019Y0285*
X00011Y02837*
X00007Y02822*
Y02807*
X00011Y02792*
X00019Y02779*
X00029Y02769*
X00042Y02761*
X00057Y02757*
X00072*
X00087Y02761*
X001Y02769*
X0011Y02779*
X00118Y02792*
X00122Y02807*
Y02822*
X00118Y02837*
X0011Y0285*
X001Y0286*
X00092Y02865*
X001Y02869*
X0011Y02879*
X00118Y02892*
X00122Y02907*
Y02922*
X00118Y02937*
X0011Y0295*
X001Y0296*
X00092Y02965*
X001Y02969*
X0011Y02979*
X00118Y02992*
X00122Y03007*
Y03022*
X00118Y03037*
X0011Y0305*
X001Y0306*
X00087Y03068*
X00072Y03072*
G37*
G36*
X02383Y02701D02*
X02368D01*
X02353Y02697*
X0234Y0269*
X0233Y02679*
X02322Y02666*
X02318Y02652*
Y02637*
X02322Y02623*
X0233Y0261*
X0234Y02599*
X02353Y02592*
X02368Y02588*
X02383*
X02397Y02592*
X0241Y02599*
X02421Y0261*
X02428Y02623*
X02432Y02637*
Y02652*
X02428Y02666*
X02421Y02679*
X0241Y0269*
X02397Y02697*
X02383Y02701*
G37*
G36*
X025Y02701D02*
X02485D01*
X02471Y02697*
X02458Y0269*
X02447Y02679*
X0244Y02666*
X02436Y02652*
Y02637*
X0244Y02622*
X02447Y02609*
X02458Y02599*
X02471Y02591*
X02485Y02587*
X025*
X02515Y02591*
X02528Y02599*
X02538Y02609*
X02546Y02622*
X0255Y02637*
Y02652*
X02546Y02666*
X02538Y02679*
X02528Y0269*
X02515Y02697*
X025Y02701*
G37*
G36*
X02465Y02437D02*
X02452Y02436D01*
X02441Y02431*
X02431Y02423*
X02423Y02413*
X02418Y02402*
X02417Y0239*
Y0231*
X02418Y02297*
X02423Y02286*
X02431Y02276*
X02941Y01766*
X02951Y01758*
X02962Y01753*
X02975Y01752*
X02987Y01753*
X02998Y01758*
X03008Y01766*
X03016Y01776*
X03021Y01787*
X03022Y018*
X03021Y01812*
X03016Y01823*
X03008Y01833*
X02512Y02329*
Y0239*
X02511Y02402*
X02506Y02413*
X02498Y02423*
X02488Y02431*
X02477Y02436*
X02465Y02437*
G37*
G36*
X04039Y00985D02*
X0402D01*
X04001Y00982*
X03983Y00974*
X03967Y00964*
X03954Y0095*
X03943Y00934*
X03936Y00916*
X03932Y00897*
Y00878*
X03936Y00859*
X03943Y00842*
X03954Y00826*
X03967Y00812*
X03983Y00802*
X04001Y00794*
X0402Y0079*
X04039*
X04058Y00794*
X04076Y00802*
X04091Y00812*
X04105Y00826*
X04116Y00842*
X04123Y00859*
X04127Y00878*
Y00897*
X04123Y00916*
X04116Y00934*
X04105Y0095*
X04091Y00964*
X04076Y00974*
X04058Y00982*
X04039Y00985*
G37*
G36*
X03255Y00307D02*
X024D01*
X02387Y00306*
X02376Y00301*
X02366Y00293*
X02208Y00136*
X02197Y00133*
X02184Y00125*
X02174Y00115*
X02166Y00102*
X02162Y00087*
Y00072*
X02166Y00057*
X02174Y00044*
X02184Y00034*
X02197Y00026*
X02212Y00022*
X02227*
X02242Y00026*
X02255Y00034*
X02265Y00044*
X02273Y00057*
X02276Y00068*
X02277Y0007*
Y00022*
X02392*
Y00042*
X02399Y00034*
X02412Y00026*
X02427Y00022*
X02442*
X02457Y00026*
X0247Y00034*
X0248Y00044*
X02485Y00052*
X02489Y00044*
X02499Y00034*
X02512Y00026*
X02527Y00022*
X02542*
X02557Y00026*
X0257Y00034*
X0258Y00044*
X02585Y00052*
X02589Y00044*
X02599Y00034*
X02612Y00026*
X02627Y00022*
X02642*
X02657Y00026*
X0267Y00034*
X0268Y00044*
X02685Y00052*
X02689Y00044*
X02699Y00034*
X02712Y00026*
X02727Y00022*
X02742*
X02757Y00026*
X0277Y00034*
X0278Y00044*
X02785Y00052*
X02789Y00044*
X02799Y00034*
X02812Y00026*
X02827Y00022*
X02842*
X02857Y00026*
X0287Y00034*
X0288Y00044*
X02885Y00052*
X02889Y00044*
X02899Y00034*
X02912Y00026*
X02927Y00022*
X02942*
X02957Y00026*
X0297Y00034*
X0298Y00044*
X02985Y00052*
X02989Y00044*
X02999Y00034*
X03012Y00026*
X03027Y00022*
X03042*
X03057Y00026*
X0307Y00034*
X0308Y00044*
X03088Y00057*
X03092Y00072*
Y00087*
X03088Y00102*
X0308Y00115*
X0307Y00125*
X03057Y00133*
X03042Y00137*
X03027*
X03012Y00133*
X02999Y00125*
X02989Y00115*
X02985Y00107*
X0298Y00115*
X0297Y00125*
X02957Y00133*
X02942Y00137*
X02927*
X02912Y00133*
X02899Y00125*
X02889Y00115*
X02885Y00107*
X0288Y00115*
X0287Y00125*
X02857Y00133*
X02842Y00137*
X02827*
X02812Y00133*
X02799Y00125*
X02789Y00115*
X02785Y00107*
X0278Y00115*
X0277Y00125*
X02757Y00133*
X02742Y00137*
X02727*
X02712Y00133*
X02699Y00125*
X02689Y00115*
X02685Y00107*
X0268Y00115*
X0267Y00125*
X02657Y00133*
X02642Y00137*
X02627*
X02612Y00133*
X02599Y00125*
X02589Y00115*
X02585Y00107*
X0258Y00115*
X0257Y00125*
X02557Y00133*
X02542Y00137*
X02527*
X02512Y00133*
X02499Y00125*
X02489Y00115*
X02485Y00107*
X0248Y00115*
X0247Y00125*
X02457Y00133*
X02442Y00137*
X02427*
X02412Y00133*
X02399Y00125*
X02392Y00117*
Y00137*
X02344*
X02419Y00212*
X03235*
X03378Y00068*
X03381Y00057*
X03389Y00044*
X03399Y00034*
X03412Y00026*
X03427Y00022*
X03442*
X03457Y00026*
X03466Y00032*
X03503*
X03512Y00026*
X03527Y00022*
X03542*
X03557Y00026*
X0357Y00034*
X0358Y00044*
X03588Y00057*
X03592Y00072*
Y00087*
X03588Y00102*
X0358Y00115*
X0357Y00125*
X03557Y00133*
X03542Y00137*
X03527*
X03512Y00133*
X03503Y00127*
X03466*
X03457Y00133*
X03446Y00136*
X03288Y00293*
X03278Y00301*
X03267Y00306*
X03255Y00307*
G37*
G36*
X01232Y03382D02*
X01217D01*
X01202Y03378*
X01189Y03371*
X01178Y0336*
X01171Y03347*
X01167Y03332*
Y03317*
X01171Y03302*
X01178Y03289*
X01187Y03281*
X01182Y03282*
X01167*
X01152Y03278*
X01139Y03271*
X01128Y0326*
X01121Y03247*
X01117Y03232*
Y03217*
X01121Y03202*
X01128Y03189*
X01139Y03178*
X01152Y03171*
X01167Y03167*
X01182*
X01197Y03171*
X0121Y03178*
X01221Y03189*
X01225Y03196*
X01228Y03189*
X01239Y03178*
X01252Y03171*
X01267Y03167*
X01282*
X01297Y03171*
X0131Y03178*
X01321Y03189*
X01328Y03202*
X01332Y03217*
Y03232*
X01328Y03247*
X01321Y0326*
X0131Y03271*
X01297Y03278*
X01282Y03282*
X01267*
X01262Y03281*
X01271Y03289*
X01278Y03302*
X01282Y03317*
Y03332*
X01278Y03347*
X01271Y0336*
X0126Y03371*
X01247Y03378*
X01232Y03382*
G37*
G36*
X01759Y03543D02*
X0174D01*
X01721Y03539*
X01704Y03532*
X01688Y03521*
X01675Y03508*
X01664Y03492*
X01657Y03474*
X01653Y03456*
Y03437*
X01657Y03418*
X01659Y03413*
X01657*
X0164Y03409*
X01625Y03403*
X0161Y03393*
X01598Y03381*
X01589Y03367*
X01582Y03351*
X01579Y03335*
Y03317*
X01582Y03301*
X01589Y03285*
X01598Y03271*
X0161Y03259*
X01625Y03249*
X0164Y03243*
X01657Y03239*
X01674*
X01691Y03243*
X01707Y03249*
X01721Y03259*
X01733Y03271*
X01742Y03285*
X01749Y03301*
X01752Y03317*
Y03335*
X01749Y0335*
X01759*
X01778Y03353*
X01795Y03361*
X01811Y03371*
X01824Y03385*
X01835Y034*
X01842Y03418*
X01846Y03437*
Y03456*
X01842Y03474*
X01835Y03492*
X01824Y03508*
X01811Y03521*
X01795Y03532*
X01778Y03539*
X01759Y03543*
G37*
G36*
X0185Y03264D02*
X01835Y03262D01*
X01821Y03256*
X01809Y03247*
X018Y03235*
X01794Y03221*
X01792Y03206*
Y03186*
X01794Y03171*
X018Y03157*
X01809Y03146*
X01821Y03136*
X01835Y03131*
X0185Y03129*
X01864Y03131*
X01878Y03136*
X0189Y03146*
X01899Y03157*
X01905Y03171*
X01907Y03186*
Y03206*
X01905Y03221*
X01899Y03235*
X0189Y03247*
X01878Y03256*
X01864Y03262*
X0185Y03264*
G37*
G36*
X0049Y00237D02*
X00478Y00235D01*
X00466Y00232*
X00456Y00226*
X00446Y00218*
X00438Y00209*
X00433Y00198*
X00429Y00186*
X00428Y00174*
Y00145*
X00429Y00133*
X00433Y00121*
X00438Y0011*
X00446Y00101*
X00456Y00093*
X00466Y00087*
X00478Y00084*
X0049Y00082*
X00502Y00084*
X00514Y00087*
X00525Y00093*
X00534Y00101*
X00542Y0011*
X00548Y00121*
X00551Y00133*
X00553Y00145*
Y00174*
X00551Y00186*
X00548Y00198*
X00542Y00209*
X00534Y00218*
X00525Y00226*
X00514Y00232*
X00502Y00235*
X0049Y00237*
G37*
%LNesp_gsm_v1.1-3*%
%LPD*%
G54D11*
X00155Y02705D02*
Y0328D01*
X00315Y02545D02*
X00385D01*
X00155Y02705D02*
X00315Y02545D01*
X00185Y02705D02*
Y0286D01*
X00205Y02685D02*
X0039D01*
X00185Y02705D02*
X00205Y02685D01*
X0039D02*
X00465Y0261D01*
X00155Y0345D02*
X00185Y0348D01*
X0093D02*
X00945Y03495D01*
X00185Y0348D02*
X0093D01*
X00155Y0335D02*
Y0345D01*
X0053Y01475D02*
X0059Y01415D01*
X00635*
X0126Y03015D02*
X01308Y03063D01*
Y03113*
X02979Y0088D02*
Y00992D01*
X0298Y01035D02*
X0303D01*
X03065Y01*
X0298Y01075D02*
X03035D01*
X03095Y01015*
X0305Y01146D02*
X0312Y01076D01*
Y0074D02*
Y01076D01*
X01935Y00025D02*
X0197Y0006D01*
X00875Y00025D02*
X01935D01*
X0082Y0008D02*
X00875Y00025D01*
X00185Y0286D02*
X00395Y0307D01*
X00805*
X00465Y01995D02*
Y0261D01*
X00445Y01975D02*
X00465Y01995D01*
X00245Y01405D02*
X00275Y01435D01*
X00465D02*
X005Y0147D01*
X00275Y01435D02*
X00465D01*
X00205Y01425D02*
X00235Y01455D01*
X00445D02*
X00465Y01475D01*
X00235Y01455D02*
X00445D01*
X00245Y0052D02*
Y01405D01*
Y0052D02*
X0026Y00505D01*
X00205Y00535D02*
Y01425D01*
Y00535D02*
X00265Y00475D01*
X00365*
X007Y0014*
X00385Y00505D02*
X0072Y0017D01*
X0026Y00505D02*
X00385D01*
X005Y0147D02*
Y01695D01*
X00465Y01475D02*
Y0177D01*
X007Y0014D02*
X0088D01*
X01695Y0186D02*
X0179Y01765D01*
X01694Y01835D02*
X0177Y01759D01*
X01009Y01835D02*
X0101Y01835D01*
X0102Y0186D02*
X01695D01*
X0101Y01835D02*
X01694D01*
X01686Y01813D02*
X0175Y0175D01*
X00937Y01813D02*
X01686D01*
X0167Y01793D02*
X0173Y01734D01*
X00836Y01793D02*
X0167D01*
X00427Y03006D02*
Y03007D01*
X00415Y02993D02*
X00427Y03006D01*
X00415Y0299D02*
Y02993D01*
X00427Y03007D02*
X00435Y03015D01*
X0126*
X00155Y0328D02*
X00285Y0341D01*
X0104Y0209D02*
X01135Y02185D01*
X0075Y0209D02*
X0104D01*
X0067Y02025D02*
X0124D01*
X01335Y0212*
X0065Y02005D02*
X0067Y02025D01*
X0131Y0194D02*
X01435Y02065D01*
X00605Y01965D02*
X0063Y0194D01*
X0131*
X01645Y02755D02*
X01827Y02572D01*
X00935Y02755D02*
X01645D01*
X00925Y01818D02*
X00927Y01815D01*
X00935*
X00937Y01813*
X0088Y0014D02*
X0091Y00109D01*
X0212Y00255D02*
Y0057D01*
X0197Y00105D02*
X0212Y00255D01*
X0197Y0006D02*
Y00105D01*
X00805Y0307D02*
X00845Y0311D01*
X0191Y01D02*
X02095D01*
X0215Y01055*
X0186Y0105D02*
X0191Y01D01*
X0186Y0105D02*
Y01335D01*
X01915Y0139*
X02155Y01155D02*
Y01235D01*
X02256Y01303D02*
X02275Y01285D01*
X02125Y01264D02*
X02155Y01235D01*
X01925Y01303D02*
X0202D01*
X01925Y01264D02*
X02125D01*
X0202Y01303D02*
X02256D01*
X01837Y00797D02*
X02572D01*
X0175Y00745D02*
Y0175D01*
X0179Y00845D02*
Y01765D01*
X0177Y00825D02*
Y01759D01*
X01814Y0068D02*
X03025D01*
X01815Y00779D02*
X03024D01*
X0173Y0073D02*
X0181Y00649D01*
X0173Y0073D02*
Y01734D01*
X0175Y00745D02*
X01814Y0068D01*
X0179Y00845D02*
X01837Y00797D01*
X0177Y00825D02*
X01815Y00779D01*
X0181Y00649D02*
X03025D01*
X02572Y00797D02*
X02655Y0088D01*
X03024Y00779D02*
X03025Y0078D01*
X03027Y00782*
X03025Y00649D02*
X03028D01*
X03025Y0068D02*
X03025D01*
X00465Y0177D02*
X005Y01805D01*
X00555Y01495D02*
X00605Y01445D01*
X00555Y02025D02*
X00685Y02155D01*
X0053Y01475D02*
Y0204D01*
X00555Y01495D02*
Y02025D01*
X0053Y0204D02*
X0067Y0218D01*
X01335Y0212D02*
Y02639D01*
X007Y02055D02*
X0113D01*
X01235Y0216*
X01335Y0264D02*
X01335Y02639D01*
X00942Y03417D02*
Y03437D01*
Y03417D02*
X00944Y03415D01*
X01435Y02065D02*
Y0264D01*
X0072Y0017D02*
X0093D01*
X0102Y0008*
X008Y0183D02*
X00836Y01793D01*
X00987Y01835D02*
X01009D01*
X00985Y01838D02*
X00987Y01835D01*
X008Y02215D02*
Y0245D01*
X0074Y02155D02*
X008Y02215D01*
X00685Y02155D02*
X0074D01*
X0078Y02235D02*
Y0241D01*
X00725Y0218D02*
X0078Y02235D01*
Y0247D02*
X008Y0245D01*
X0075Y0244D02*
X0078Y0241D01*
X0065Y0247D02*
X0078D01*
X0067Y0218D02*
X00725D01*
X0085Y0267D02*
X00935Y02755D01*
X0091Y00089D02*
Y00109D01*
Y00089D02*
X0092Y0008D01*
X006Y0247D02*
X0063Y0244D01*
X0075*
X01135Y02185D02*
Y0264D01*
X01235Y0216D02*
Y0264D01*
X0133Y0367D02*
X03215D01*
X00925Y03265D02*
X0133Y0367D01*
X0082Y03265D02*
X00925D01*
X0081Y03255D02*
X0082Y03265D01*
X0081Y032D02*
Y03255D01*
X00809Y0319D02*
Y03199D01*
Y0319D02*
X00818Y03181D01*
X00809Y03199D02*
X0081Y032D01*
X00818Y03181D02*
X00843D01*
X00845Y0318*
Y0311D02*
Y0318D01*
X02655Y0088D02*
X03025D01*
X03025Y0068D02*
X03095Y0075D01*
Y01015*
X03028Y00649D02*
X0312Y0074D01*
X03027Y00782D02*
X03042D01*
X03065Y00805*
Y01*
X00285Y0341D02*
X0076D01*
X00945Y03495D02*
Y03715D01*
X00225Y0345D02*
X0093D01*
X00942Y03437*
X00687Y03127D02*
Y03218D01*
G54D12*
X00576Y0354D02*
X0058D01*
X00501Y03547D02*
X00569D01*
X00571Y03569D02*
X00578Y03577D01*
X00582*
X00492Y03569D02*
X00571D01*
X00569Y03547D02*
X00576Y0354D01*
X00471Y03548D02*
X00492Y03569D01*
X00493Y03539D02*
X00501Y03547D01*
X00493Y03525D02*
X00495Y03522D01*
X00466Y0351D02*
X00468Y03512D01*
Y03522*
X00495Y03512D02*
Y03522D01*
X00471Y03525D02*
Y03548D01*
X00493Y03525D02*
Y03539D01*
X00468Y03522D02*
X00471Y03525D01*
X00495Y03512D02*
X00497Y0351D01*
X0033Y02955D02*
X00417Y03042D01*
X0079*
X01455Y00145D02*
X01655D01*
X0172Y0008*
X01575Y00125D02*
X0162Y0008D01*
X01425Y00125D02*
X01575D01*
X01359Y0019D02*
X01425Y00125D01*
X0139Y0021D02*
X01455Y00145D01*
X0115Y00255D02*
X01325D01*
X01051Y00353D02*
X0115Y00255D01*
X01324Y0017D02*
X01415Y0008D01*
X01125Y0021D02*
X0139D01*
X01104Y0017D02*
X01324D01*
X01114Y0019D02*
X01359D01*
X0125Y0015D02*
X0132Y0008D01*
X0109Y0015D02*
X0125D01*
X01035Y00269D02*
X01114Y0019D01*
X01025Y0025D02*
X01104Y0017D01*
X01045Y00289D02*
X01125Y0021D01*
X0101Y0023D02*
X0109Y0015D01*
X01135Y0013D02*
X0118Y00084D01*
X0108Y0013D02*
X01135D01*
X01Y0021D02*
X0108Y0013D01*
X0118Y00084D02*
X01215D01*
X0122Y0008*
X0033Y0274D02*
Y02955D01*
X0144Y0134D02*
X0157Y0147D01*
X0144Y01125D02*
Y0134D01*
Y01125D02*
X0146Y01105D01*
X0157Y0147D02*
Y0164D01*
X01065Y0134D02*
X01212Y01487D01*
X01005Y01445D02*
X01085Y01525D01*
X0086Y01425D02*
X0102D01*
X01032Y01405D02*
X01136Y01509D01*
X0067Y01265D02*
X0085Y01445D01*
X0102Y01425D02*
X0111Y01515D01*
X00715Y0125D02*
X0087Y01405D01*
X00893Y01365D02*
X01055D01*
X009Y0134D02*
X01065D01*
X0085Y01445D02*
X01005D01*
X0104Y01385D02*
X01161Y01506D01*
X00695Y0126D02*
X0086Y01425D01*
X01055Y01365D02*
X01187Y01497D01*
X00885Y01385D02*
X0104D01*
X0087Y01405D02*
X01032D01*
X00755Y01227D02*
X00893Y01365D01*
X00735Y01235D02*
X00885Y01385D01*
X00775Y01215D02*
X009Y0134D01*
X00695Y0033D02*
Y0126D01*
X0067Y00325D02*
Y01265D01*
X0111Y01515D02*
Y01525D01*
X01161Y01506D02*
Y0163D01*
X01085Y01525D02*
Y01595D01*
X01136Y01509D02*
Y016D01*
X00715Y0034D02*
Y0125D01*
X00735Y0035D02*
Y01235D01*
X0111Y01525D02*
X0111Y01525D01*
Y0163*
X01187Y01497D02*
Y01595D01*
X00755Y0036D02*
Y01227D01*
X01051Y00486D02*
X01115Y0055D01*
X01118Y00406D02*
Y00468D01*
X0114Y0049*
X01118Y00406D02*
X0114Y00385D01*
X01705Y00605D02*
Y0171D01*
X01051Y00353D02*
Y00486D01*
X0097Y0174D02*
X00972Y01742D01*
X00982Y01745D02*
X01625D01*
X00575Y0181D02*
X0061Y01775D01*
X0164D02*
X01705Y0171D01*
X0061Y01775D02*
X0164D01*
X00972Y01742D02*
X0098D01*
X00982Y01745*
X01625D02*
X0168Y01689D01*
X0146Y01105D02*
X0164D01*
X01605Y0055D02*
X0168Y00625D01*
Y01689*
X00805Y0019D02*
X00975D01*
X0067Y00325D02*
X00805Y0019D01*
X00695Y0033D02*
X00815Y0021D01*
X01*
X00715Y0034D02*
X00825Y0023D01*
X0101*
X00775Y00367D02*
X00853Y00289D01*
X00775Y00367D02*
Y01215D01*
X00735Y0035D02*
X00835Y0025D01*
X00755Y0036D02*
X00845Y00269D01*
X0202Y01129D02*
X02309D01*
X0234Y0116*
X01924Y01224D02*
X0202Y01129D01*
X0159Y0049D02*
X01705Y00605D01*
X0133Y01635D02*
X01333D01*
X01338Y0164D02*
X0157D01*
X01333Y01635D02*
X01338Y0164D01*
X0187Y006D02*
X02165D01*
X01775Y00505D02*
X0187Y006D01*
X0114Y0049D02*
X0159D01*
X01115Y0055D02*
X01605D01*
X01775Y0044D02*
Y00505D01*
X0172Y00385D02*
X01775Y0044D01*
X0114Y00385D02*
X0172D01*
X01195Y00435D02*
X01485D01*
X0117Y0041D02*
X01195Y00435D01*
X0084Y02145D02*
Y0248D01*
X0248Y0293D02*
X02585Y03035D01*
X0199Y0293D02*
X0248D01*
X0194Y0288D02*
X0199Y0293D01*
X0194Y02585D02*
Y0288D01*
X0189Y02535D02*
X0194Y02585D01*
X0091Y0278D02*
Y02895D01*
X00815Y02685D02*
X0091Y0278D01*
X00575Y0181D02*
Y02005D01*
X007Y0213*
X00845Y00269D02*
X01035D01*
X00835Y0025D02*
X01025D01*
X00853Y00289D02*
X01045D01*
X01212Y01487D02*
Y0163D01*
X01415Y0008D02*
X0142D01*
X00975Y0019D02*
X0108Y00084D01*
X01115*
X0112Y0008*
X007Y0213D02*
X00755D01*
X0082Y02195*
Y02465*
X00815Y02505D02*
Y02685D01*
Y02505D02*
X0084Y0248D01*
X0077Y02515D02*
X0082Y02465D01*
X00535Y02515D02*
X0077D01*
X02585Y03035D02*
Y03065D01*
X01775Y02535D02*
X0189D01*
X01594Y02715D02*
D01*
X0159Y0272D02*
X01594Y02715D01*
X01775Y02535D01*
X011Y0272D02*
X0159D01*
X01075Y02475D02*
Y02695D01*
X011Y0272*
X0234Y0116D02*
Y0129D01*
X0077Y03765D02*
X0096D01*
X00972Y03542D02*
Y03752D01*
X0096Y03765D02*
X00972Y03752D01*
Y03542D02*
X0099Y03525D01*
Y03425D02*
Y03525D01*
X00945Y0338D02*
X0099Y03425D01*
X00625Y03275D02*
X0073Y0338D01*
X00945*
X00305Y03055D02*
X00525Y03275D01*
X00625*
X02021Y01304D02*
Y01441D01*
G54D13*
X00659Y03362D02*
Y03369D01*
X00616Y0332D02*
X00659Y03362D01*
X00555Y0332D02*
X00616D01*
X00385Y03285D02*
X00475Y03375D01*
X0062*
X00385Y03225D02*
Y03285D01*
X00552Y02962D02*
X00974D01*
X0053Y0294D02*
D01*
X00552Y02962*
X01165Y01695D02*
X0119D01*
X01222Y01662*
X01242D02*
X01265Y0164D01*
X01222Y01662D02*
X01242D01*
X0154Y0204D02*
X0234D01*
X01535Y02045D02*
X0154Y0204D01*
X0184Y02613D02*
Y02615D01*
X00495Y01895D02*
Y0263D01*
X0032Y0172D02*
X00495Y01895D01*
X0184Y02615D02*
Y02925D01*
X0188Y02965*
X00495Y0263D02*
X0053Y02665D01*
Y0294*
X0164Y02075D02*
X01815D01*
X01525Y0219D02*
X0164Y02075D01*
X01525Y0219D02*
Y0231D01*
X00945Y0063D02*
X0159D01*
X00815Y005D02*
X00945Y0063D01*
X024Y02965D02*
X0246Y03025D01*
Y03155*
X0188Y02965D02*
X024D01*
X02321Y03D02*
X02405Y03083D01*
X021Y03D02*
X02321D01*
X02155Y02585D02*
X0234Y024D01*
X02155Y027D02*
X02205Y0275D01*
X02155Y02585D02*
Y027D01*
X0234Y0204D02*
Y024D01*
Y0204D02*
X02435D01*
X0246Y03155D02*
X0271D01*
X02755Y0311*
Y0291D02*
Y0311D01*
X02595Y0275D02*
X02755Y0291D01*
X02205Y0275D02*
X02595D01*
X0097Y03825D02*
X01095D01*
X0115Y0377*
Y03535D02*
Y0377D01*
X0101Y03395D02*
X0115Y03535D01*
X02435Y0204D02*
X0254Y01935D01*
Y01485D02*
Y01935D01*
Y01485D02*
X02835Y0119D01*
X03075*
X0149Y02589D02*
X0152D01*
X0149Y0259D02*
X0149Y02589D01*
X0152D02*
X01725Y02384D01*
X0182*
X02405Y03083D02*
Y03625D01*
G54D140*
X0259Y004D02*
X03395D01*
X03745Y0075*
X0238Y0061D02*
X0259Y004D01*
X00315Y0201D02*
X00322Y02017D01*
X00315Y018D02*
Y0201D01*
X0031Y0149D02*
X00375D01*
X0023Y0157D02*
X0031Y0149D01*
X01355Y00315D02*
X0149Y0018D01*
X0175D02*
X01816Y00113D01*
X0149Y0018D02*
X0175D01*
X0023Y0157D02*
Y01715D01*
X00315Y018*
X0115Y00315D02*
X01355D01*
X01816Y00083D02*
X0182Y0008D01*
X01816Y00083D02*
Y00113D01*
X01085Y0038D02*
X0115Y00315D01*
X0128Y0198D02*
X0139Y0209D01*
X009Y0198D02*
X0128D01*
X0089Y0199D02*
X009Y0198D01*
X024Y0026D02*
X03255D01*
X0222Y0008D02*
X024Y0026D01*
X03255D02*
X03435Y0008D01*
X0372Y03396D02*
X03738Y03377D01*
Y0333D02*
X03745Y03324D01*
X03738Y0333D02*
Y03377D01*
X03745Y0075D02*
Y03324D01*
X0149Y017D02*
X0159D01*
X0163Y0166*
X01255Y017D02*
X0149D01*
X00815Y0043D02*
X00934D01*
X00935Y0043*
X0073Y0149D02*
X00775Y01535D01*
X00645Y0149D02*
X0073D01*
X00775Y01615D02*
X00795Y01635D01*
X0139Y0209D02*
Y02375D01*
X01425Y019D02*
X01535Y0201D01*
X01205Y019D02*
X01425D01*
X0182Y0008D02*
X0192D01*
X01085Y0038D02*
Y0043D01*
X0163Y01465D02*
Y0166D01*
X0148Y01315D02*
X0163Y01465D01*
X01535Y02045D02*
Y02127D01*
X00775Y01535D02*
Y01615D01*
X01535Y0201D02*
Y02045D01*
X02175Y01977D02*
Y0198D01*
Y01977D02*
X02218Y01933D01*
X02306*
X02405Y01835*
Y00945D02*
Y01835D01*
X02465Y0231D02*
Y0239D01*
Y0231D02*
X02975Y018D01*
X03435Y0008D02*
X03535D01*
X0255Y0083D02*
X0259Y0087D01*
Y0121*
X024Y0083D02*
X0255D01*
G54D142*
X04025Y00175D03*
Y03705D03*
X00175Y037D03*
Y00175D03*
G54D143*
X00489Y03707D03*
X00647D03*
X00659Y03369D03*
X0062Y03375D03*
X0058Y0354D03*
X00582Y03577D03*
X00497Y0351D03*
X00466D03*
X004Y03515D03*
X00385Y03225D03*
X006Y0138D03*
X01995Y00935D03*
X01975Y0086D03*
X0205Y00895D03*
X004Y03385D03*
X01285Y0267D03*
X01385Y02665D03*
X01308Y03113D03*
X00974Y02962D03*
X02979Y00992D03*
X0298Y01035D03*
Y01075D03*
X0305Y01146D03*
X04015Y03531D03*
X03916Y03334D03*
X04015Y03137D03*
X03916Y0294D03*
X04015Y02744D03*
X03916Y02547D03*
X04015Y0235D03*
X03916Y02153D03*
X04015Y01956D03*
X03916Y01759D03*
X04015Y01562D03*
X03916Y01366D03*
X04015Y01169D03*
X03916Y00972D03*
X04015Y00775D03*
X03916Y00578D03*
X04015Y00381D03*
X0372Y03728D03*
X03818Y03531D03*
Y00381D03*
X0372Y00185D03*
X03523Y03728D03*
X03621Y03531D03*
X03523Y03334D03*
Y0294D03*
Y02547D03*
Y02153D03*
Y01759D03*
Y01366D03*
Y00972D03*
X03424Y03531D03*
X03326Y03334D03*
Y0294D03*
X03424Y02744D03*
X03326Y02547D03*
X03424Y0235D03*
X03326Y02153D03*
X03424Y01956D03*
X03326Y01759D03*
X03424Y01562D03*
X03326Y01366D03*
X03424Y01169D03*
X03326Y00972D03*
X03129Y03728D03*
X03227Y03531D03*
X03129Y03334D03*
X03227Y03137D03*
X03129Y0294D03*
X03227Y02744D03*
Y01956D03*
Y01562D03*
Y01169D03*
X02932Y03728D03*
X03031Y03531D03*
Y03137D03*
X02932Y0294D03*
X03031Y02744D03*
X02735Y03728D03*
X02834Y03531D03*
X02735Y03334D03*
X02834Y02744D03*
X02735Y02547D03*
Y02153D03*
X02637Y03531D03*
X02538Y03334D03*
X02637Y01562D03*
X02342Y03728D03*
Y02547D03*
X02145Y03334D03*
X02243Y03137D03*
Y0235D03*
X02145Y01759D03*
X02243Y01562D03*
X01948Y03728D03*
X01751D03*
X01849Y03531D03*
X01751Y00578D03*
X01849Y00381D03*
X01554Y03728D03*
X01653Y03531D03*
X01554Y03334D03*
X01653Y0235D03*
X01357Y03728D03*
X01456Y03137D03*
X01357Y00972D03*
X01259Y03531D03*
Y03137D03*
Y01169D03*
X0116Y00972D03*
X01259Y00775D03*
X01062Y01169D03*
X00964Y00972D03*
X01062Y00775D03*
X00964Y00578D03*
X00668Y02744D03*
X00373Y03728D03*
Y02153D03*
X00471Y01169D03*
Y00775D03*
X00275Y0235D03*
X01645Y00765D03*
Y0086D03*
Y0093D03*
Y0101D03*
X0077Y00025D03*
X0014Y01525D03*
X0063Y0173D03*
X00815Y00835D03*
X0054Y0047D03*
X00245Y02715D03*
X00271Y02807D03*
X0023Y0316D03*
X00471Y02976D03*
X00322Y02017D03*
X00385Y01955D03*
X00445Y01975D03*
X001Y01765D03*
X00375Y0149D03*
X0046Y0141D03*
X00425D03*
X0039D03*
X00405Y013D03*
X0048D03*
X0056D03*
X0052D03*
X00543Y01412D03*
X00675Y0138D03*
X0064D03*
X00565Y01385D03*
X00559Y0069D03*
X00593Y00691D03*
X00594Y00657D03*
X00491Y00691D03*
X00418Y00656D03*
X00457Y00691D03*
X00456Y00658D03*
X00445Y00555D03*
X0048D03*
X00515D03*
X00526Y00691D03*
X0055Y00555D03*
X00614Y0063D03*
X01515Y0028D03*
Y0022D03*
X01638Y00219D03*
X016Y0022D03*
X01675D03*
X01515Y00252D03*
X01899Y00304D03*
X01871Y00291D03*
X01839D03*
X01808D03*
X01776D03*
X01745D03*
X01713Y00293D03*
X01772Y00231D03*
X01803D03*
X01835D03*
X01866D03*
X01325Y00255D03*
X02265Y00235D03*
X0225Y00535D03*
X0197Y01345D03*
X01775Y02815D03*
X01015Y0268D03*
X00925Y02345D03*
X0089Y0199D03*
X01275Y02125D03*
X01865Y0217D03*
X01889Y019D03*
X01746Y01978D03*
X0201Y0243D03*
X0275Y0033D03*
X0297Y00325D03*
X03255Y00315D03*
X03595Y0034D03*
X0251Y0026D03*
X00415Y0299D03*
X0033Y0274D03*
X00935Y0043D03*
X00815Y0043D03*
X0032Y0172D03*
X0075Y0209D03*
X01205Y019D03*
X0184Y02615D03*
X01825Y02575D03*
X0157Y0164D03*
X01255Y017D03*
X01535Y02127D03*
X01815Y02075D03*
X0164Y01105D03*
X0159Y0063D03*
X0148Y01315D03*
X00695Y02875D03*
X0079Y03042D03*
X00732Y02556D03*
X0222Y01275D03*
X0228Y0119D03*
X0215Y01055D03*
X01915Y0139D03*
X02155Y01155D03*
X00555Y0332D03*
X0216Y00905D03*
X0218Y00325D03*
X0133Y01635D03*
X0212Y0057D03*
X00815Y005D03*
X01485Y00435D03*
X00795Y01635D03*
X00645Y0149D03*
X0065Y02005D03*
X0084Y02145D03*
X0139Y02375D03*
X01525Y0231D03*
X021Y03D03*
X0246Y03155D03*
X0097Y03825D03*
X0101Y03395D03*
X00944Y03415D03*
X0091Y02895D03*
X0053Y0294D03*
X00605Y01445D03*
X00635Y01415D03*
X00605Y01965D03*
X03075Y0119D03*
X01085Y0043D03*
X0117Y0041D03*
X0149Y017D03*
X02175Y0198D03*
X02405Y00945D03*
X02975Y018D03*
X02465Y0239D03*
X01212Y0163D03*
X01187Y01595D03*
X01161Y0163D03*
X0111D03*
X01136Y016D03*
X00925Y01818D03*
X01085Y01595D03*
X0097Y0174D03*
X0102Y0186D03*
X00985Y01838D03*
X02585Y03065D03*
X01075Y02475D03*
X005Y01695D03*
Y01805D03*
X02165Y006D03*
X006Y0247D03*
X00535Y02515D03*
X0065Y0247D03*
X00385Y02545D03*
X01135Y0264D03*
X01235D03*
X01335D03*
X01435D03*
X0085Y0267D03*
X0149Y0259D03*
X03215Y0367D03*
X00845Y0318D03*
X008Y0183D03*
X0234Y0129D03*
X0076Y0341D03*
X0077Y03765D03*
X00945Y03715D03*
X00305Y03055D03*
X00155Y0335D03*
X00225Y0345D03*
X007Y02055D03*
X00682Y03227D03*
X00684Y03114D03*
X0182Y02384D03*
X02405Y03625D03*
X02021Y01441D03*
X01924Y01224D03*
X02275Y01285D03*
X01925Y01303D03*
X01925Y01264D03*
X0259Y0121D03*
X024Y0083D03*
X03025Y00649D03*
Y0068D03*
Y0078D03*
X0238Y0061D03*
X03025Y0088D03*
G54D144*
X00457Y03789D03*
X00679D03*
G54D145*
X0372Y00553D03*
Y03396D03*
X022Y03446D03*
X0175D03*
G54D146*
X0049Y0016D03*
X00589D03*
G54D147*
X02257Y02853D03*
X02375Y02853D03*
X02493Y02853D03*
Y02644D03*
X02375Y02645D03*
X02257D03*
G54D148*
X00065Y0315D03*
Y02715D03*
G54D149*
X00065Y0325D03*
Y0335D03*
Y0345D03*
Y02815D03*
Y02915D03*
Y03015D03*
X02435Y0008D03*
X02535D03*
X02635D03*
X02735D03*
X02835D03*
X02935D03*
X03035D03*
X03135D03*
X03235D03*
X03335D03*
X03435D03*
X03535D03*
X03635D03*
X03735D03*
X0222D03*
X0212D03*
X0202D03*
X0192D03*
X0182D03*
X0172D03*
X0162D03*
X0152D03*
X0142D03*
X0132D03*
X0122D03*
X0112D03*
X0102D03*
X0092D03*
G54D150*
X02965Y03585D03*
Y03335D03*
G54D151*
X02785Y03455D03*
G54D152*
X02284Y03326D03*
X01666D03*
G54D153*
X0185Y03196D03*
X0195D03*
X0205D03*
X0215D03*
X018Y03096D03*
X019D03*
X02D03*
X021D03*
G54D154*
X01325Y03325D03*
X01225D03*
X01275Y03225D03*
X01175D03*
G54D155*
X02335Y0008D03*
X0082D03*
M02*