%FSTAX23Y23*%
%MOIN*%
%SFA1B1*%

%IPPOS*%
%ADD122C,0.278000*%
%ADD123C,0.031620*%
%ADD124O,0.051310X0.102490*%
%ADD125R,0.008000X0.008000*%
%ADD126C,0.145800*%
%ADD127O,0.076900X0.106420*%
%ADD128C,0.066580*%
%ADD129R,0.067060X0.067060*%
%ADD130C,0.067060*%
%ADD131O,0.165480X0.086740*%
%ADD132O,0.086740X0.165480*%
%ADD133C,0.126110*%
%ADD134O,0.067060X0.086740*%
%ADD135C,0.068000*%
%ADD136C,0.008000*%
%ADD137R,0.067060X0.067060*%
%LNesp_gsm_v1.1-1*%
%LPD*%
G54D122*
X04025Y00175D03*
Y03705D03*
X00175Y037D03*
Y00175D03*
G54D123*
X00489Y03707D03*
X00647D03*
X00659Y03369D03*
X0062Y03375D03*
X0058Y0354D03*
X00582Y03577D03*
X00497Y0351D03*
X00466D03*
X004Y03515D03*
X00385Y03225D03*
X006Y0138D03*
X01995Y00935D03*
X01975Y0086D03*
X0205Y00895D03*
X004Y03385D03*
X01285Y0267D03*
X01385Y02665D03*
X01308Y03113D03*
X00974Y02962D03*
X02979Y00992D03*
X0298Y01035D03*
Y01075D03*
X0305Y01146D03*
X04015Y03531D03*
X03916Y03334D03*
X04015Y03137D03*
X03916Y0294D03*
X04015Y02744D03*
X03916Y02547D03*
X04015Y0235D03*
X03916Y02153D03*
X04015Y01956D03*
X03916Y01759D03*
X04015Y01562D03*
X03916Y01366D03*
X04015Y01169D03*
X03916Y00972D03*
X04015Y00775D03*
X03916Y00578D03*
X04015Y00381D03*
X0372Y03728D03*
X03818Y03531D03*
Y00381D03*
X0372Y00185D03*
X03523Y03728D03*
X03621Y03531D03*
X03523Y03334D03*
Y0294D03*
Y02547D03*
Y02153D03*
Y01759D03*
Y01366D03*
Y00972D03*
X03424Y03531D03*
X03326Y03334D03*
Y0294D03*
X03424Y02744D03*
X03326Y02547D03*
X03424Y0235D03*
X03326Y02153D03*
X03424Y01956D03*
X03326Y01759D03*
X03424Y01562D03*
X03326Y01366D03*
X03424Y01169D03*
X03326Y00972D03*
X03129Y03728D03*
X03227Y03531D03*
X03129Y03334D03*
X03227Y03137D03*
X03129Y0294D03*
X03227Y02744D03*
Y01956D03*
Y01562D03*
Y01169D03*
X02932Y03728D03*
X03031Y03531D03*
Y03137D03*
X02932Y0294D03*
X03031Y02744D03*
X02735Y03728D03*
X02834Y03531D03*
X02735Y03334D03*
X02834Y02744D03*
X02735Y02547D03*
Y02153D03*
X02637Y03531D03*
X02538Y03334D03*
X02637Y01562D03*
X02342Y03728D03*
Y02547D03*
X02145Y03334D03*
X02243Y03137D03*
Y0235D03*
X02145Y01759D03*
X02243Y01562D03*
X01948Y03728D03*
X01751D03*
X01849Y03531D03*
X01751Y00578D03*
X01849Y00381D03*
X01554Y03728D03*
X01653Y03531D03*
X01554Y03334D03*
X01653Y0235D03*
X01357Y03728D03*
X01456Y03137D03*
X01357Y00972D03*
X01259Y03531D03*
Y03137D03*
Y01169D03*
X0116Y00972D03*
X01259Y00775D03*
X01062Y01169D03*
X00964Y00972D03*
X01062Y00775D03*
X00964Y00578D03*
X00668Y02744D03*
X00373Y03728D03*
Y02153D03*
X00471Y01169D03*
Y00775D03*
X00275Y0235D03*
X01645Y00765D03*
Y0086D03*
Y0093D03*
Y0101D03*
X0077Y00025D03*
X0014Y01525D03*
X0063Y0173D03*
X00815Y00835D03*
X0054Y0047D03*
X00245Y02715D03*
X00271Y02807D03*
X0023Y0316D03*
X00471Y02976D03*
X00322Y02017D03*
X00385Y01955D03*
X00445Y01975D03*
X001Y01765D03*
X00375Y0149D03*
X0046Y0141D03*
X00425D03*
X0039D03*
X00405Y013D03*
X0048D03*
X0056D03*
X0052D03*
X00543Y01412D03*
X00675Y0138D03*
X0064D03*
X00565Y01385D03*
X00559Y0069D03*
X00593Y00691D03*
X00594Y00657D03*
X00491Y00691D03*
X00418Y00656D03*
X00457Y00691D03*
X00456Y00658D03*
X00445Y00555D03*
X0048D03*
X00515D03*
X00526Y00691D03*
X0055Y00555D03*
X00614Y0063D03*
X01515Y0028D03*
Y0022D03*
X01638Y00219D03*
X016Y0022D03*
X01675D03*
X01515Y00252D03*
X01899Y00304D03*
X01871Y00291D03*
X01839D03*
X01808D03*
X01776D03*
X01745D03*
X01713Y00293D03*
X01772Y00231D03*
X01803D03*
X01835D03*
X01866D03*
X01325Y00255D03*
X02265Y00235D03*
X0225Y00535D03*
X0197Y01345D03*
X01775Y02815D03*
X01015Y0268D03*
X00925Y02345D03*
X0089Y0199D03*
X01275Y02125D03*
X01865Y0217D03*
X01889Y019D03*
X01746Y01978D03*
X0201Y0243D03*
X0275Y0033D03*
X0297Y00325D03*
X03255Y00315D03*
X03595Y0034D03*
X0251Y0026D03*
X00415Y0299D03*
X0033Y0274D03*
X00935Y0043D03*
X00815Y0043D03*
X0032Y0172D03*
X0075Y0209D03*
X01205Y019D03*
X0184Y02615D03*
X01825Y02575D03*
X0157Y0164D03*
X01255Y017D03*
X01535Y02127D03*
X01815Y02075D03*
X0164Y01105D03*
X0159Y0063D03*
X0148Y01315D03*
X00695Y02875D03*
X0079Y03042D03*
X00732Y02556D03*
X0222Y01275D03*
X0228Y0119D03*
X0215Y01055D03*
X01915Y0139D03*
X02155Y01155D03*
X00555Y0332D03*
X0216Y00905D03*
X0218Y00325D03*
X0133Y01635D03*
X0212Y0057D03*
X00815Y005D03*
X01485Y00435D03*
X00795Y01635D03*
X00645Y0149D03*
X0065Y02005D03*
X0084Y02145D03*
X0139Y02375D03*
X01525Y0231D03*
X021Y03D03*
X0246Y03155D03*
X0097Y03825D03*
X0101Y03395D03*
X00944Y03415D03*
X0091Y02895D03*
X0053Y0294D03*
X00605Y01445D03*
X00635Y01415D03*
X00605Y01965D03*
X03075Y0119D03*
X01085Y0043D03*
X0117Y0041D03*
X0149Y017D03*
X02175Y0198D03*
X02405Y00945D03*
X02975Y018D03*
X02465Y0239D03*
X01212Y0163D03*
X01187Y01595D03*
X01161Y0163D03*
X0111D03*
X01136Y016D03*
X00925Y01818D03*
X01085Y01595D03*
X0097Y0174D03*
X0102Y0186D03*
X00985Y01838D03*
X02585Y03065D03*
X01075Y02475D03*
X005Y01695D03*
Y01805D03*
X02165Y006D03*
X006Y0247D03*
X00535Y02515D03*
X0065Y0247D03*
X00385Y02545D03*
X01135Y0264D03*
X01235D03*
X01335D03*
X01435D03*
X0085Y0267D03*
X0149Y0259D03*
X03215Y0367D03*
X00845Y0318D03*
X008Y0183D03*
X0234Y0129D03*
X0076Y0341D03*
X0077Y03765D03*
X00945Y03715D03*
X00305Y03055D03*
X00155Y0335D03*
X00225Y0345D03*
X007Y02055D03*
X00682Y03227D03*
X00684Y03114D03*
X0182Y02384D03*
X02405Y03625D03*
X02021Y01441D03*
X01924Y01224D03*
X02275Y01285D03*
X01925Y01303D03*
X01925Y01264D03*
X0259Y0121D03*
X024Y0083D03*
X03025Y00649D03*
Y0068D03*
Y0078D03*
X0238Y0061D03*
X03025Y0088D03*
G54D124*
X00457Y03789D03*
X00679D03*
G54D125*
X04029Y00888D03*
Y03396D03*
X0341Y03061D03*
G54D126*
X0372Y00553D03*
Y03396D03*
X022Y03446D03*
X0175D03*
G54D127*
X0049Y0016D03*
X00589D03*
G54D128*
X02257Y02853D03*
X02375Y02853D03*
X02493Y02853D03*
Y02644D03*
X02375Y02645D03*
X02257D03*
G54D129*
X00065Y0315D03*
Y02715D03*
G54D130*
X00065Y0325D03*
Y0335D03*
Y0345D03*
Y02815D03*
Y02915D03*
Y03015D03*
X02435Y0008D03*
X02535D03*
X02635D03*
X02735D03*
X02835D03*
X02935D03*
X03035D03*
X03135D03*
X03235D03*
X03335D03*
X03435D03*
X03535D03*
X03635D03*
X03735D03*
X0222D03*
X0212D03*
X0202D03*
X0192D03*
X0182D03*
X0172D03*
X0162D03*
X0152D03*
X0142D03*
X0132D03*
X0122D03*
X0112D03*
X0102D03*
X0092D03*
G54D131*
X02965Y03585D03*
Y03335D03*
G54D132*
X02785Y03455D03*
G54D133*
X02284Y03326D03*
X01666D03*
G54D134*
X0185Y03196D03*
X0195D03*
X0205D03*
X0215D03*
X018Y03096D03*
X019D03*
X02D03*
X021D03*
G54D135*
X01325Y03325D03*
X01225D03*
X01275Y03225D03*
X01175D03*
G54D136*
X0145Y03575D03*
X0105D03*
G54D137*
X02335Y0008D03*
X0082D03*
M02*