%FSTAX23Y23*%
%MOIN*%
%SFA1B1*%

%IPPOS*%
%ADD142C,0.270000*%
%ADD143C,0.023620*%
%ADD144O,0.043310X0.094490*%
%ADD145C,0.137800*%
%ADD146O,0.068900X0.098430*%
%ADD147C,0.058580*%
%ADD148R,0.059060X0.059060*%
%ADD149C,0.059060*%
%ADD150O,0.157480X0.078740*%
%ADD151O,0.078740X0.157480*%
%ADD152C,0.118110*%
%ADD153O,0.059060X0.078740*%
%ADD154C,0.060000*%
%ADD155R,0.059060X0.059060*%
%LNesp_gsm_v1.1-1*%
%LPD*%
G54D142*
X04025Y00175D03*
Y03705D03*
X00175Y037D03*
Y00175D03*
G54D143*
X00489Y03707D03*
X00647D03*
G54D144*
X00457Y03789D03*
X00679D03*
G54D145*
X0372Y00553D03*
Y03396D03*
X022Y03446D03*
X0175D03*
G54D146*
X0049Y0016D03*
X00589D03*
G54D147*
X02257Y02853D03*
X02375Y02853D03*
X02493Y02853D03*
Y02644D03*
X02375Y02645D03*
X02257D03*
G54D148*
X00065Y0315D03*
Y02715D03*
G54D149*
X00065Y0325D03*
Y0335D03*
Y0345D03*
Y02815D03*
Y02915D03*
Y03015D03*
X02435Y0008D03*
X02535D03*
X02635D03*
X02735D03*
X02835D03*
X02935D03*
X03035D03*
X03135D03*
X03235D03*
X03335D03*
X03435D03*
X03535D03*
X03635D03*
X03735D03*
X0222D03*
X0212D03*
X0202D03*
X0192D03*
X0182D03*
X0172D03*
X0162D03*
X0152D03*
X0142D03*
X0132D03*
X0122D03*
X0112D03*
X0102D03*
X0092D03*
G54D150*
X02965Y03585D03*
Y03335D03*
G54D151*
X02785Y03455D03*
G54D152*
X02284Y03326D03*
X01666D03*
G54D153*
X0185Y03196D03*
X0195D03*
X0205D03*
X0215D03*
X018Y03096D03*
X019D03*
X02D03*
X021D03*
G54D154*
X01325Y03325D03*
X01225D03*
X01275Y03225D03*
X01175D03*
G54D155*
X02335Y0008D03*
X0082D03*
M02*