G04*
G04 #@! TF.GenerationSoftware,Altium Limited,Altium Designer,21.6.4 (81)*
G04*
G04 Layer_Color=8388736*
%FSLAX25Y25*%
%MOIN*%
G70*
G04*
G04 #@! TF.SameCoordinates,66C397C5-0B84-4E1A-9DB0-3B2DC1B0179D*
G04*
G04*
G04 #@! TF.FilePolarity,Positive*
G04*
G01*
G75*
%ADD157C,0.00050*%
D157*
X251902Y264516D02*
X251708Y265496D01*
X251153Y266326D01*
X250323Y266881D01*
X249343Y267076D01*
X248364Y266881D01*
X247534Y266326D01*
X246979Y265496D01*
X246784Y264516D01*
X246979Y263537D01*
X247534Y262707D01*
X248364Y262152D01*
X249343Y261958D01*
X250323Y262152D01*
X251153Y262707D01*
X251708Y263537D01*
X251902Y264516D01*
Y285383D02*
X251708Y286362D01*
X251153Y287192D01*
X250323Y287747D01*
X249343Y287942D01*
X248364Y287747D01*
X247534Y287192D01*
X246979Y286362D01*
X246784Y285383D01*
X246979Y284403D01*
X247534Y283573D01*
X248364Y283018D01*
X249343Y282824D01*
X250323Y283018D01*
X251153Y283573D01*
X251708Y284403D01*
X251902Y285383D01*
X240091Y264516D02*
X239896Y265496D01*
X239342Y266326D01*
X238512Y266881D01*
X237532Y267076D01*
X236553Y266881D01*
X235723Y266326D01*
X235168Y265496D01*
X234973Y264516D01*
X235168Y263537D01*
X235723Y262707D01*
X236553Y262152D01*
X237532Y261958D01*
X238512Y262152D01*
X239342Y262707D01*
X239896Y263537D01*
X240091Y264516D01*
Y285383D02*
X239896Y286362D01*
X239342Y287192D01*
X238512Y287747D01*
X237532Y287942D01*
X236553Y287747D01*
X235723Y287192D01*
X235168Y286362D01*
X234973Y285383D01*
X235168Y284403D01*
X235723Y283573D01*
X236553Y283018D01*
X237532Y282824D01*
X238512Y283018D01*
X239342Y283573D01*
X239896Y284403D01*
X240091Y285383D01*
X228280Y264516D02*
X228085Y265496D01*
X227531Y266326D01*
X226701Y266881D01*
X225721Y267076D01*
X224742Y266881D01*
X223912Y266326D01*
X223357Y265496D01*
X223162Y264516D01*
X223357Y263537D01*
X223912Y262707D01*
X224742Y262152D01*
X225721Y261958D01*
X226701Y262152D01*
X227531Y262707D01*
X228085Y263537D01*
X228280Y264516D01*
Y285383D02*
X228085Y286362D01*
X227531Y287192D01*
X226701Y287747D01*
X225721Y287942D01*
X224742Y287747D01*
X223912Y287192D01*
X223357Y286362D01*
X223162Y285383D01*
X223357Y284403D01*
X223912Y283573D01*
X224742Y283018D01*
X225721Y282824D01*
X226701Y283018D01*
X227531Y283573D01*
X228085Y284403D01*
X228280Y285383D01*
X119087Y322520D02*
X118787Y323446D01*
X117999Y324018D01*
X117026D01*
X116239Y323446D01*
X115938Y322520D01*
X116239Y321595D01*
X117026Y321023D01*
X117999D01*
X118787Y321595D01*
X119087Y322520D01*
X124087Y332521D02*
X123787Y333446D01*
X122999Y334018D01*
X122026D01*
X121239Y333446D01*
X120938Y332521D01*
X121239Y331595D01*
X122026Y331023D01*
X122999D01*
X123787Y331595D01*
X124087Y332521D01*
X129087Y322520D02*
X128787Y323446D01*
X127999Y324018D01*
X127026D01*
X126239Y323446D01*
X125938Y322520D01*
X126239Y321595D01*
X127026Y321023D01*
X127999D01*
X128787Y321595D01*
X129087Y322520D01*
X134087Y332521D02*
X133787Y333446D01*
X132999Y334018D01*
X132026D01*
X131239Y333446D01*
X130938Y332521D01*
X131239Y331595D01*
X132026Y331023D01*
X132999D01*
X133787Y331595D01*
X134087Y332521D01*
M02*
