G04*
G04 #@! TF.GenerationSoftware,Altium Limited,Altium Designer,21.6.4 (81)*
G04*
G04 Layer_Color=8388736*
%FSLAX25Y25*%
%MOIN*%
G70*
G04*
G04 #@! TF.SameCoordinates,66C397C5-0B84-4E1A-9DB0-3B2DC1B0179D*
G04*
G04*
G04 #@! TF.FilePolarity,Negative*
G04*
G01*
G75*
%ADD70R,0.07493X0.05721*%
%ADD71R,0.04343X0.01800*%
%ADD72R,0.01800X0.04343*%
%ADD73R,0.04540X0.04343*%
%ADD74O,0.04300X0.07800*%
%ADD75O,0.07800X0.04300*%
%ADD76R,0.16550X0.16550*%
%ADD77R,0.03753X0.04737*%
%ADD78R,0.13005X0.13005*%
%ADD79R,0.02375X0.09068*%
%ADD80R,0.06706X0.04737*%
%ADD81R,0.08280X0.08280*%
%ADD82R,0.04737X0.03753*%
%ADD83R,0.04343X0.02375*%
%ADD84R,0.02572X0.04343*%
%ADD85O,0.09583X0.03170*%
%ADD86R,0.09491X0.10154*%
%ADD87R,0.04343X0.02572*%
%ADD88R,0.02965X0.04737*%
%ADD89O,0.07887X0.03556*%
%ADD90O,0.03556X0.07887*%
%ADD91R,0.03162X0.05328*%
%ADD92R,0.04343X0.03950*%
%ADD93R,0.03950X0.04343*%
%ADD94R,0.07480X0.15354*%
%ADD95R,0.03950X0.04343*%
%ADD96R,0.04343X0.03950*%
%ADD97R,0.09304X0.05013*%
%ADD98R,0.05524X0.05524*%
%ADD99R,0.17335X0.09461*%
%ADD100R,0.06312X0.08674*%
%ADD101R,0.05524X0.06312*%
%ADD102R,0.05524X0.05524*%
%ADD103R,0.09491X0.11005*%
%ADD104R,0.10642X0.14579*%
%ADD105R,0.05524X0.03162*%
%ADD106R,0.08674X0.06312*%
%ADD107O,0.06312X0.09068*%
%ADD108R,0.04343X0.04540*%
%ADD109R,0.09461X0.04934*%
%ADD110R,0.04934X0.04737*%
%ADD111R,0.03398X0.03241*%
%ADD112R,0.03556X0.04343*%
%ADD113R,0.04343X0.03556*%
%ADD114R,0.20485X0.12611*%
%ADD115R,0.10642X0.07493*%
%ADD116R,0.19107X0.09855*%
%ADD117O,0.03170X0.09583*%
%ADD118R,0.03556X0.02454*%
%ADD119R,0.07887X0.05918*%
%ADD120R,0.05524X0.04343*%
%ADD121R,0.05328X0.03162*%
%ADD122C,0.03162*%
%ADD123O,0.05131X0.10249*%
%ADD124R,0.00800X0.00800*%
%ADD125C,0.14580*%
%ADD126C,0.27800*%
%ADD127O,0.07690X0.10642*%
%ADD128C,0.06658*%
%ADD129R,0.06706X0.06706*%
%ADD130C,0.06706*%
%ADD131O,0.16548X0.08674*%
%ADD132O,0.08674X0.16548*%
%ADD133C,0.12611*%
%ADD134O,0.06706X0.08674*%
%ADD135C,0.06800*%
%ADD136C,0.00800*%
%ADD137R,0.06706X0.06706*%
G36*
X319992Y213846D02*
X313417D01*
Y217980D01*
X289008D01*
Y253020D01*
X313417D01*
Y257154D01*
X319992D01*
Y213846D01*
D02*
G37*
D70*
X22000Y339661D02*
D03*
Y322339D02*
D03*
D71*
X42898Y322709D02*
D03*
X63291D02*
D03*
Y320740D02*
D03*
Y318772D02*
D03*
Y316803D02*
D03*
Y314835D02*
D03*
Y312866D02*
D03*
Y310898D02*
D03*
X42898D02*
D03*
Y312866D02*
D03*
Y314835D02*
D03*
Y316803D02*
D03*
Y318772D02*
D03*
Y320740D02*
D03*
D72*
X47189Y327000D02*
D03*
X59000Y306606D02*
D03*
X57032D02*
D03*
X55063D02*
D03*
X53095D02*
D03*
X51126D02*
D03*
X49158D02*
D03*
X47189D02*
D03*
X49158Y327000D02*
D03*
X51126D02*
D03*
X53095D02*
D03*
X55063D02*
D03*
X57032D02*
D03*
X59000D02*
D03*
D73*
X33000Y340201D02*
D03*
Y327799D02*
D03*
D74*
X30100Y260600D02*
D03*
X35100D02*
D03*
X40100D02*
D03*
X45100D02*
D03*
X50100D02*
D03*
X55100D02*
D03*
X60100D02*
D03*
X65100D02*
D03*
X70100D02*
D03*
X75100D02*
D03*
X80100D02*
D03*
X85100D02*
D03*
X90100D02*
D03*
X95100D02*
D03*
Y189700D02*
D03*
X90100D02*
D03*
X85100D02*
D03*
X80100D02*
D03*
X75100D02*
D03*
X70100D02*
D03*
X65100D02*
D03*
X60100D02*
D03*
X55100D02*
D03*
X50100D02*
D03*
X45100D02*
D03*
X40100D02*
D03*
X35100D02*
D03*
X30100D02*
D03*
D75*
X101200Y247600D02*
D03*
Y242600D02*
D03*
Y237600D02*
D03*
Y232600D02*
D03*
Y227600D02*
D03*
Y222600D02*
D03*
Y217600D02*
D03*
Y212600D02*
D03*
Y207600D02*
D03*
Y202600D02*
D03*
D76*
X59500Y228000D02*
D03*
D77*
X47146Y301000D02*
D03*
X52854D02*
D03*
X203854Y230000D02*
D03*
X198146D02*
D03*
X133146Y169000D02*
D03*
X138854D02*
D03*
X102779Y159500D02*
D03*
X97071D02*
D03*
X217646Y204000D02*
D03*
X223354D02*
D03*
X141646Y230731D02*
D03*
X147354D02*
D03*
X81146Y290530D02*
D03*
X86854D02*
D03*
X42789Y95506D02*
D03*
X48498D02*
D03*
X22354Y183000D02*
D03*
X16646D02*
D03*
X22354Y177000D02*
D03*
X16646D02*
D03*
X40354Y183000D02*
D03*
X34646D02*
D03*
X163018Y169000D02*
D03*
X157310D02*
D03*
X142146Y253500D02*
D03*
X147854D02*
D03*
X187854Y221000D02*
D03*
X182146D02*
D03*
X197646Y198396D02*
D03*
X203354D02*
D03*
X54854Y64500D02*
D03*
X49146D02*
D03*
X49146Y59500D02*
D03*
X54854D02*
D03*
X160646Y26000D02*
D03*
X166354D02*
D03*
X248146Y235000D02*
D03*
X253854D02*
D03*
X267146Y184500D02*
D03*
X272854D02*
D03*
X34646Y177500D02*
D03*
X40354D02*
D03*
X31146Y102000D02*
D03*
X36854D02*
D03*
X97146Y21500D02*
D03*
X102854D02*
D03*
X97071Y165500D02*
D03*
X102779D02*
D03*
X97146Y27000D02*
D03*
X102854D02*
D03*
X83646Y276000D02*
D03*
X89354D02*
D03*
X81146Y296500D02*
D03*
X86854D02*
D03*
D78*
X53095Y316803D02*
D03*
D79*
X56831Y366992D02*
D03*
X59390D02*
D03*
X61949D02*
D03*
X54272D02*
D03*
X51713D02*
D03*
D80*
X69429Y370142D02*
D03*
X44232D02*
D03*
D81*
X61162Y379000D02*
D03*
X52500D02*
D03*
D82*
X46500Y334146D02*
D03*
Y339854D02*
D03*
X41000D02*
D03*
Y334146D02*
D03*
X79000Y307646D02*
D03*
Y313354D02*
D03*
X126000Y174500D02*
D03*
Y180209D02*
D03*
X155500Y25854D02*
D03*
Y20146D02*
D03*
X141500Y225354D02*
D03*
Y219646D02*
D03*
X147000Y225085D02*
D03*
Y219376D02*
D03*
X29500Y314646D02*
D03*
Y320354D02*
D03*
X35000Y314646D02*
D03*
Y320354D02*
D03*
X36500Y288500D02*
D03*
Y294209D02*
D03*
X46500Y288500D02*
D03*
Y294209D02*
D03*
X149251Y180854D02*
D03*
Y175146D02*
D03*
X141039Y247784D02*
D03*
Y242075D02*
D03*
X147000Y247784D02*
D03*
Y242075D02*
D03*
X178500Y197854D02*
D03*
Y192146D02*
D03*
X231013Y38902D02*
D03*
Y44610D02*
D03*
X221744Y38902D02*
D03*
Y44610D02*
D03*
X215244Y38902D02*
D03*
Y44610D02*
D03*
X171500Y20146D02*
D03*
Y25854D02*
D03*
X228000Y119039D02*
D03*
Y124748D02*
D03*
X254000Y223146D02*
D03*
Y228854D02*
D03*
X247000Y223146D02*
D03*
Y228854D02*
D03*
X254000Y242146D02*
D03*
Y247854D02*
D03*
X60000Y59354D02*
D03*
Y53646D02*
D03*
X44500Y134354D02*
D03*
Y128646D02*
D03*
X60500Y134354D02*
D03*
Y128646D02*
D03*
X193500Y111354D02*
D03*
Y105646D02*
D03*
X237454Y44610D02*
D03*
Y38902D02*
D03*
X73000Y313354D02*
D03*
Y307646D02*
D03*
D83*
X72707Y325309D02*
D03*
X79793D02*
D03*
Y322750D02*
D03*
Y320191D02*
D03*
X72707D02*
D03*
Y322750D02*
D03*
D84*
X159075Y290347D02*
D03*
X162224D02*
D03*
X152776D02*
D03*
X155925D02*
D03*
Y283653D02*
D03*
X152776D02*
D03*
X162224D02*
D03*
X159075D02*
D03*
X100575Y290846D02*
D03*
X103724D02*
D03*
X94276D02*
D03*
X97425D02*
D03*
Y284154D02*
D03*
X94276D02*
D03*
X103724D02*
D03*
X100575D02*
D03*
D85*
X294963Y93000D02*
D03*
Y88000D02*
D03*
Y83000D02*
D03*
Y78000D02*
D03*
Y73000D02*
D03*
Y68000D02*
D03*
Y63000D02*
D03*
Y58000D02*
D03*
X323037Y93000D02*
D03*
Y88000D02*
D03*
Y83000D02*
D03*
Y78000D02*
D03*
Y73000D02*
D03*
Y68000D02*
D03*
Y63000D02*
D03*
Y58000D02*
D03*
D86*
X35342Y39000D02*
D03*
X58658D02*
D03*
X63108Y164000D02*
D03*
X86425D02*
D03*
D87*
X311347Y103925D02*
D03*
Y100776D02*
D03*
Y110224D02*
D03*
Y107075D02*
D03*
X304654D02*
D03*
Y110224D02*
D03*
Y100776D02*
D03*
Y103925D02*
D03*
X311151Y44463D02*
D03*
Y41313D02*
D03*
Y50762D02*
D03*
Y47613D02*
D03*
X304458D02*
D03*
Y50762D02*
D03*
Y41313D02*
D03*
Y44463D02*
D03*
D88*
X185169Y193658D02*
D03*
X188909D02*
D03*
X192649D02*
D03*
Y205469D02*
D03*
X185169D02*
D03*
X185459Y238405D02*
D03*
X192939D02*
D03*
Y226594D02*
D03*
X189199D02*
D03*
X185459D02*
D03*
D89*
X67394Y51610D02*
D03*
Y134288D02*
D03*
X186291Y134287D02*
D03*
X67394Y55547D02*
D03*
Y59484D02*
D03*
Y63421D02*
D03*
Y67358D02*
D03*
Y71295D02*
D03*
Y75232D02*
D03*
Y79169D02*
D03*
Y83106D02*
D03*
Y87043D02*
D03*
Y90980D02*
D03*
Y94917D02*
D03*
Y98854D02*
D03*
Y102791D02*
D03*
Y106728D02*
D03*
Y110665D02*
D03*
Y114602D02*
D03*
Y118539D02*
D03*
Y122476D02*
D03*
Y126413D02*
D03*
Y130350D02*
D03*
X186291D02*
D03*
Y126413D02*
D03*
Y122476D02*
D03*
Y118539D02*
D03*
Y114602D02*
D03*
Y110665D02*
D03*
Y106728D02*
D03*
Y102791D02*
D03*
Y98854D02*
D03*
Y94917D02*
D03*
Y90980D02*
D03*
Y87043D02*
D03*
Y83106D02*
D03*
Y79169D02*
D03*
Y75232D02*
D03*
Y71295D02*
D03*
Y67358D02*
D03*
Y63421D02*
D03*
Y59484D02*
D03*
Y55547D02*
D03*
D90*
X168181Y152398D02*
D03*
X85504D02*
D03*
Y33500D02*
D03*
X168181D02*
D03*
X164244D02*
D03*
X160307D02*
D03*
X156370D02*
D03*
X152433D02*
D03*
X148496D02*
D03*
X144559D02*
D03*
X140622D02*
D03*
X136685D02*
D03*
X132748D02*
D03*
X128811D02*
D03*
X124874D02*
D03*
X120937D02*
D03*
X117000D02*
D03*
X113063D02*
D03*
X109126D02*
D03*
X105189D02*
D03*
X101252D02*
D03*
X97315D02*
D03*
X93378D02*
D03*
X89441D02*
D03*
Y152398D02*
D03*
X93378D02*
D03*
X97315D02*
D03*
X101252D02*
D03*
X105189D02*
D03*
X109126D02*
D03*
X113063D02*
D03*
X117000D02*
D03*
X120937D02*
D03*
X124874D02*
D03*
X128811D02*
D03*
X132748D02*
D03*
X136685D02*
D03*
X140622D02*
D03*
X144559D02*
D03*
X148496D02*
D03*
X152433D02*
D03*
X156370D02*
D03*
X160307D02*
D03*
X164244D02*
D03*
D91*
X237984Y32685D02*
D03*
X230504D02*
D03*
X234244Y23827D02*
D03*
X278740Y32429D02*
D03*
X271260D02*
D03*
X275000Y23571D02*
D03*
X177500Y291429D02*
D03*
X181240Y282571D02*
D03*
X173760D02*
D03*
X333000Y24071D02*
D03*
X329260Y32929D02*
D03*
X336740D02*
D03*
X364621Y24071D02*
D03*
X360881Y32929D02*
D03*
X368361D02*
D03*
X303500Y23571D02*
D03*
X299760Y32429D02*
D03*
X307240D02*
D03*
X22000Y299929D02*
D03*
X25740Y291071D02*
D03*
X18260D02*
D03*
X222484Y32685D02*
D03*
X215004D02*
D03*
X218744Y23827D02*
D03*
D92*
X204000Y124256D02*
D03*
Y118744D02*
D03*
X240000Y119244D02*
D03*
Y124756D02*
D03*
X198000Y124756D02*
D03*
Y119244D02*
D03*
X189000Y257244D02*
D03*
Y262756D02*
D03*
X216000Y86756D02*
D03*
Y81244D02*
D03*
X268500Y115500D02*
D03*
Y121012D02*
D03*
X277000Y89244D02*
D03*
Y94756D02*
D03*
X284000Y77244D02*
D03*
Y82756D02*
D03*
X249000Y121000D02*
D03*
Y115488D02*
D03*
X284000Y89000D02*
D03*
Y94512D02*
D03*
X213500Y283744D02*
D03*
Y289256D02*
D03*
X354504Y25244D02*
D03*
Y30756D02*
D03*
X348844Y25244D02*
D03*
Y30756D02*
D03*
X322869Y25244D02*
D03*
Y30756D02*
D03*
X317225Y25244D02*
D03*
Y30756D02*
D03*
X293500Y25244D02*
D03*
Y30756D02*
D03*
X288000Y25244D02*
D03*
Y30756D02*
D03*
X265000Y25244D02*
D03*
Y30756D02*
D03*
X259000Y25244D02*
D03*
Y30756D02*
D03*
D93*
X136000Y182437D02*
D03*
X139740Y174563D02*
D03*
X132260D02*
D03*
X156424D02*
D03*
X163904D02*
D03*
X160164Y182437D02*
D03*
X238000Y67063D02*
D03*
X234260Y74937D02*
D03*
X241740D02*
D03*
D94*
X337386Y375500D02*
D03*
X360614D02*
D03*
D95*
X80244Y351000D02*
D03*
X85756D02*
D03*
X80244Y331330D02*
D03*
X85756D02*
D03*
X85756Y382500D02*
D03*
X80244D02*
D03*
X80244Y360631D02*
D03*
X85756D02*
D03*
X226756Y60000D02*
D03*
X221244D02*
D03*
X221244Y65500D02*
D03*
X226756D02*
D03*
X221244Y76000D02*
D03*
X226756D02*
D03*
X221244Y71000D02*
D03*
X226756D02*
D03*
X24256Y277500D02*
D03*
X18744D02*
D03*
X24256Y284000D02*
D03*
X18744D02*
D03*
X258256Y315500D02*
D03*
X252744D02*
D03*
X258756Y372500D02*
D03*
X253244D02*
D03*
X180256Y276131D02*
D03*
X174744D02*
D03*
D96*
X81563Y375240D02*
D03*
Y367760D02*
D03*
X89437Y371500D02*
D03*
X89937Y341500D02*
D03*
X82063Y337760D02*
D03*
Y345240D02*
D03*
D97*
X263811Y248886D02*
D03*
Y242193D02*
D03*
Y235500D02*
D03*
Y228807D02*
D03*
Y222114D02*
D03*
D98*
X74000Y296134D02*
D03*
Y287866D02*
D03*
X227000Y213866D02*
D03*
Y222134D02*
D03*
X48000Y273500D02*
D03*
Y281768D02*
D03*
X38500Y273866D02*
D03*
Y282134D02*
D03*
X276500Y116634D02*
D03*
Y108366D02*
D03*
D99*
X313870Y139000D02*
D03*
X285130D02*
D03*
D100*
X153626Y223231D02*
D03*
X169375D02*
D03*
X153626Y246410D02*
D03*
X169375D02*
D03*
D101*
X133043Y219231D02*
D03*
X125957D02*
D03*
X133043Y227731D02*
D03*
X125957D02*
D03*
X131682Y251196D02*
D03*
X124595D02*
D03*
X131543Y242219D02*
D03*
X124457D02*
D03*
X204457Y238000D02*
D03*
X211543D02*
D03*
X204457Y212000D02*
D03*
X211543D02*
D03*
X253457Y59500D02*
D03*
X260543D02*
D03*
X253457Y68500D02*
D03*
X260543D02*
D03*
X253457Y77500D02*
D03*
X260543D02*
D03*
X253500Y86500D02*
D03*
X260587D02*
D03*
D102*
X25366Y110500D02*
D03*
X33634D02*
D03*
D103*
X38324Y163500D02*
D03*
X10676D02*
D03*
D104*
X257000Y102000D02*
D03*
D105*
X245550Y94500D02*
D03*
Y99500D02*
D03*
Y104500D02*
D03*
Y109500D02*
D03*
X268450D02*
D03*
Y104500D02*
D03*
Y99500D02*
D03*
Y94500D02*
D03*
D106*
X229500Y98875D02*
D03*
Y83126D02*
D03*
D107*
X206000Y283413D02*
D03*
X196000D02*
D03*
X206000Y247587D02*
D03*
X196000D02*
D03*
X250819Y326587D02*
D03*
X260819D02*
D03*
X250819Y362413D02*
D03*
X260819D02*
D03*
D108*
X110799Y24500D02*
D03*
X123201D02*
D03*
X85201Y176500D02*
D03*
X72799D02*
D03*
D109*
X35000Y65307D02*
D03*
Y53693D02*
D03*
X197500Y20693D02*
D03*
Y32307D02*
D03*
X32000Y128693D02*
D03*
Y140307D02*
D03*
D110*
X41004Y59500D02*
D03*
X191496Y26500D02*
D03*
X38004Y134500D02*
D03*
D111*
X49500Y143429D02*
D03*
Y139571D02*
D03*
D112*
X214953Y111000D02*
D03*
X209047D02*
D03*
X59000Y95500D02*
D03*
X53095D02*
D03*
X49547Y134500D02*
D03*
X55453D02*
D03*
D113*
X210000Y124453D02*
D03*
Y118547D02*
D03*
X234000Y118941D02*
D03*
Y124846D02*
D03*
D114*
X299059Y168736D02*
D03*
X299000Y198500D02*
D03*
D115*
X261374Y198000D02*
D03*
X245626D02*
D03*
D116*
X311201Y286500D02*
D03*
X273799D02*
D03*
D117*
X146000Y301537D02*
D03*
X141000D02*
D03*
X136000D02*
D03*
X131000D02*
D03*
X126000D02*
D03*
X121000D02*
D03*
X116000D02*
D03*
X111000D02*
D03*
X146000Y273463D02*
D03*
X141000D02*
D03*
X136000D02*
D03*
X131000D02*
D03*
X126000D02*
D03*
X121000D02*
D03*
X116000D02*
D03*
X111000D02*
D03*
D118*
X215378Y124452D02*
D03*
X222621Y124452D02*
D03*
X222621Y121894D02*
D03*
X222621Y119334D02*
D03*
X215378Y119334D02*
D03*
X215378Y121893D02*
D03*
D119*
X218252Y184043D02*
D03*
X252898D02*
D03*
Y137957D02*
D03*
X218252D02*
D03*
D120*
X202102Y173506D02*
D03*
Y168506D02*
D03*
Y163506D02*
D03*
Y158506D02*
D03*
Y153506D02*
D03*
Y148506D02*
D03*
D121*
X51929Y103260D02*
D03*
Y110740D02*
D03*
X43071Y107000D02*
D03*
D122*
X48957Y370732D02*
D03*
X64705D02*
D03*
X65937Y336982D02*
D03*
X62000Y337500D02*
D03*
X58000Y354000D02*
D03*
X58201Y357701D02*
D03*
X49789Y351000D02*
D03*
X46639D02*
D03*
X40000Y351500D02*
D03*
X38500Y322500D02*
D03*
X60000Y138000D02*
D03*
X199500Y93500D02*
D03*
X197500Y86000D02*
D03*
X205000Y89500D02*
D03*
X40000Y338500D02*
D03*
X128500Y267000D02*
D03*
X138500Y266500D02*
D03*
X130818Y311375D02*
D03*
X97410Y296256D02*
D03*
X297957Y99295D02*
D03*
X298000Y103500D02*
D03*
Y107500D02*
D03*
X305017Y114673D02*
D03*
X401528Y353146D02*
D03*
X391685Y333461D02*
D03*
X401528Y313776D02*
D03*
X391685Y294091D02*
D03*
X401528Y274406D02*
D03*
X391685Y254720D02*
D03*
X401528Y235035D02*
D03*
X391685Y215350D02*
D03*
X401528Y195665D02*
D03*
X391685Y175980D02*
D03*
X401528Y156295D02*
D03*
X391685Y136610D02*
D03*
X401528Y116925D02*
D03*
X391685Y97240D02*
D03*
X401528Y77555D02*
D03*
X391685Y57870D02*
D03*
X401528Y38185D02*
D03*
X372000Y372831D02*
D03*
X381842Y353146D02*
D03*
Y38185D02*
D03*
X372000Y18500D02*
D03*
X352315Y372831D02*
D03*
X362158Y353146D02*
D03*
X352315Y333461D02*
D03*
Y294091D02*
D03*
Y254720D02*
D03*
Y215350D02*
D03*
Y175980D02*
D03*
Y136610D02*
D03*
Y97240D02*
D03*
X342472Y353146D02*
D03*
X332630Y333461D02*
D03*
Y294091D02*
D03*
X342472Y274406D02*
D03*
X332630Y254720D02*
D03*
X342472Y235035D02*
D03*
X332630Y215350D02*
D03*
X342472Y195665D02*
D03*
X332630Y175980D02*
D03*
X342472Y156295D02*
D03*
X332630Y136610D02*
D03*
X342472Y116925D02*
D03*
X332630Y97240D02*
D03*
X312945Y372831D02*
D03*
X322787Y353146D02*
D03*
X312945Y333461D02*
D03*
X322787Y313776D02*
D03*
X312945Y294091D02*
D03*
X322787Y274406D02*
D03*
Y195665D02*
D03*
Y156295D02*
D03*
Y116925D02*
D03*
X293260Y372831D02*
D03*
X303102Y353146D02*
D03*
Y313776D02*
D03*
X293260Y294091D02*
D03*
X303102Y274406D02*
D03*
X273575Y372831D02*
D03*
X283417Y353146D02*
D03*
X273575Y333461D02*
D03*
X283417Y274406D02*
D03*
X273575Y254720D02*
D03*
Y215350D02*
D03*
X263732Y353146D02*
D03*
X253890Y333461D02*
D03*
X263732Y156295D02*
D03*
X234205Y372831D02*
D03*
Y254720D02*
D03*
X214520Y333461D02*
D03*
X224362Y313776D02*
D03*
Y235035D02*
D03*
X214520Y175980D02*
D03*
X224362Y156295D02*
D03*
X194835Y372831D02*
D03*
X175150D02*
D03*
X184992Y353146D02*
D03*
X175150Y57870D02*
D03*
X184992Y38185D02*
D03*
X155465Y372831D02*
D03*
X165307Y353146D02*
D03*
X155465Y333461D02*
D03*
X165307Y235035D02*
D03*
X135780Y372831D02*
D03*
X145622Y313776D02*
D03*
X135780Y97240D02*
D03*
X125937Y353146D02*
D03*
Y313776D02*
D03*
Y116925D02*
D03*
X116095Y97240D02*
D03*
X125937Y77555D02*
D03*
X106252Y116925D02*
D03*
X96409Y97240D02*
D03*
X106252Y77555D02*
D03*
X96409Y57870D02*
D03*
X66882Y274406D02*
D03*
X37354Y372831D02*
D03*
Y215350D02*
D03*
X47197Y116925D02*
D03*
Y77555D02*
D03*
X27512Y235035D02*
D03*
X164500Y76500D02*
D03*
Y86000D02*
D03*
Y93000D02*
D03*
Y101000D02*
D03*
X78500Y1500D02*
D03*
X14000Y152500D02*
D03*
X63000Y173000D02*
D03*
X81500Y83500D02*
D03*
X54000Y47000D02*
D03*
X24500Y271500D02*
D03*
X27130Y280750D02*
D03*
X23000Y316000D02*
D03*
X47146Y297654D02*
D03*
X32256Y201756D02*
D03*
X38500Y195500D02*
D03*
X44500Y197500D02*
D03*
X10000Y176500D02*
D03*
X37500Y149000D02*
D03*
X46000Y141000D02*
D03*
X42500D02*
D03*
X39000D02*
D03*
X40500Y130000D02*
D03*
X48000D02*
D03*
X56000D02*
D03*
X52000D02*
D03*
X54380Y141215D02*
D03*
X67500Y138000D02*
D03*
X64000D02*
D03*
X56500Y138500D02*
D03*
X55958Y69083D02*
D03*
X59368Y69106D02*
D03*
X59463Y65741D02*
D03*
X49129Y69194D02*
D03*
X41888Y65682D02*
D03*
X45704Y69194D02*
D03*
X45662Y65874D02*
D03*
X44500Y55500D02*
D03*
X48000D02*
D03*
X51500D02*
D03*
X52638Y69137D02*
D03*
X55000Y55500D02*
D03*
X61463Y63075D02*
D03*
X151500Y28000D02*
D03*
Y22000D02*
D03*
X163802Y21937D02*
D03*
X160000Y22000D02*
D03*
X167500D02*
D03*
X151524Y25270D02*
D03*
X189977Y30476D02*
D03*
X187103Y29188D02*
D03*
X183953D02*
D03*
X180804D02*
D03*
X177654D02*
D03*
X174505D02*
D03*
X171359Y29338D02*
D03*
X177221Y23167D02*
D03*
X180371D02*
D03*
X183521D02*
D03*
X186670D02*
D03*
X132500Y25500D02*
D03*
X226500Y23500D02*
D03*
X225000Y53500D02*
D03*
X197000Y134500D02*
D03*
X177500Y281500D02*
D03*
X101500Y268000D02*
D03*
X92500Y234500D02*
D03*
X89000Y199000D02*
D03*
X127500Y212500D02*
D03*
X186500Y217000D02*
D03*
X188909Y190091D02*
D03*
X174646Y197854D02*
D03*
X201000Y243000D02*
D03*
X275000Y33000D02*
D03*
X297000Y32500D02*
D03*
X325500Y31500D02*
D03*
X359500Y34000D02*
D03*
X251000Y26000D02*
D03*
X41500Y299000D02*
D03*
X33000Y274000D02*
D03*
X93500Y43000D02*
D03*
X81516Y43016D02*
D03*
X32000Y172000D02*
D03*
X75000Y209000D02*
D03*
X120500Y190000D02*
D03*
X184000Y261535D02*
D03*
X182500Y257500D02*
D03*
X157000Y164000D02*
D03*
X125500Y170000D02*
D03*
X153500Y212711D02*
D03*
X181500Y207500D02*
D03*
X164000Y110500D02*
D03*
X159000Y63000D02*
D03*
X148000Y131500D02*
D03*
X69500Y287500D02*
D03*
X79000Y304252D02*
D03*
X73225Y255602D02*
D03*
X222000Y127500D02*
D03*
X228000Y119039D02*
D03*
X215000Y105500D02*
D03*
X191500Y139000D02*
D03*
X215500Y115500D02*
D03*
X55594Y332000D02*
D03*
X216000Y90500D02*
D03*
X218000Y32500D02*
D03*
X133000Y163500D02*
D03*
X212000Y57000D02*
D03*
X81500Y50000D02*
D03*
X148500Y43500D02*
D03*
X79500Y163500D02*
D03*
X64500Y149000D02*
D03*
X65000Y200500D02*
D03*
X84000Y214500D02*
D03*
X139000Y237500D02*
D03*
X152500Y231000D02*
D03*
X210000Y300000D02*
D03*
X246000Y315500D02*
D03*
X97000Y382500D02*
D03*
X101000Y339500D02*
D03*
X94441Y341560D02*
D03*
X91000Y289500D02*
D03*
X53000Y294000D02*
D03*
X60500Y144500D02*
D03*
X63500Y141500D02*
D03*
X60500Y196500D02*
D03*
X307500Y119000D02*
D03*
X108500Y43000D02*
D03*
X117059Y41059D02*
D03*
X149000Y170000D02*
D03*
X217500Y198000D02*
D03*
X240500Y94500D02*
D03*
X297500Y180000D02*
D03*
X246500Y239000D02*
D03*
X121295Y163000D02*
D03*
X118736Y159500D02*
D03*
X116177Y163000D02*
D03*
X111059D02*
D03*
X113618Y160000D02*
D03*
X92500Y181846D02*
D03*
X108500Y159500D02*
D03*
X97000Y174000D02*
D03*
X102000Y186000D02*
D03*
X98500Y183815D02*
D03*
X258500Y306500D02*
D03*
X107500Y247500D02*
D03*
X50000Y169500D02*
D03*
Y180500D02*
D03*
X216500Y60000D02*
D03*
X60000Y247000D02*
D03*
X53500Y251500D02*
D03*
X65000Y247000D02*
D03*
X38500Y254500D02*
D03*
X113500Y264000D02*
D03*
X123500D02*
D03*
X133500D02*
D03*
X143500D02*
D03*
X85000Y267000D02*
D03*
X149000Y259000D02*
D03*
X321500Y367000D02*
D03*
X84500Y318000D02*
D03*
X80000Y183000D02*
D03*
X234000Y129000D02*
D03*
X76000Y341000D02*
D03*
X77000Y376500D02*
D03*
X94500Y371500D02*
D03*
X30500Y305500D02*
D03*
X15500Y335000D02*
D03*
X22500Y345000D02*
D03*
X70000Y205500D02*
D03*
X68250Y322750D02*
D03*
X68498Y311491D02*
D03*
X182095Y238405D02*
D03*
X240500Y362500D02*
D03*
X202102Y144103D02*
D03*
X192476Y122476D02*
D03*
X227500Y128500D02*
D03*
X192566Y130350D02*
D03*
X192587Y126413D02*
D03*
X259000Y121000D02*
D03*
X240000Y83000D02*
D03*
X302500Y64937D02*
D03*
Y68087D02*
D03*
Y78000D02*
D03*
X238000Y61000D02*
D03*
X302500Y88000D02*
D03*
D123*
X45709Y378999D02*
D03*
X67953D02*
D03*
D124*
X402984Y88839D02*
D03*
Y339665D02*
D03*
X341016Y306161D02*
D03*
D125*
X372000Y55335D02*
D03*
Y339665D02*
D03*
X220000Y344657D02*
D03*
X175000D02*
D03*
D126*
X402500Y370500D02*
D03*
X17500Y370000D02*
D03*
Y17500D02*
D03*
X402500D02*
D03*
D127*
X49079Y16000D02*
D03*
X58921D02*
D03*
D128*
X225726Y285362D02*
D03*
X237545Y285339D02*
D03*
X249340Y285343D02*
D03*
Y264480D02*
D03*
X237565Y264500D02*
D03*
X225726D02*
D03*
D129*
X6500Y315000D02*
D03*
Y271500D02*
D03*
D130*
Y325000D02*
D03*
Y335000D02*
D03*
Y345000D02*
D03*
Y281500D02*
D03*
Y291500D02*
D03*
Y301500D02*
D03*
X243500Y8000D02*
D03*
X253500D02*
D03*
X263500D02*
D03*
X273500D02*
D03*
X283500D02*
D03*
X293500D02*
D03*
X303500D02*
D03*
X313500D02*
D03*
X323500D02*
D03*
X333500D02*
D03*
X343500D02*
D03*
X353500D02*
D03*
X363500D02*
D03*
X373500D02*
D03*
X222000D02*
D03*
X212000D02*
D03*
X202000D02*
D03*
X192000D02*
D03*
X182000D02*
D03*
X172000D02*
D03*
X162000D02*
D03*
X152000D02*
D03*
X142000D02*
D03*
X132000D02*
D03*
X122000D02*
D03*
X112000D02*
D03*
X102000D02*
D03*
X92000D02*
D03*
D131*
X296500Y358500D02*
D03*
Y333500D02*
D03*
D132*
X278500Y345500D02*
D03*
D133*
X228425Y332650D02*
D03*
X166614D02*
D03*
D134*
X185000Y319657D02*
D03*
X195000D02*
D03*
X205000D02*
D03*
X215000D02*
D03*
X180000Y309658D02*
D03*
X190000D02*
D03*
X200000D02*
D03*
X210000D02*
D03*
D135*
X132500Y332500D02*
D03*
X122500D02*
D03*
X127500Y322500D02*
D03*
X117500D02*
D03*
D136*
X145000Y357500D02*
D03*
X105000D02*
D03*
D137*
X233500Y8000D02*
D03*
X82000D02*
D03*
M02*
