G04*
G04 #@! TF.GenerationSoftware,Altium Limited,Altium Designer,21.6.4 (81)*
G04*
G04 Layer_Color=16711935*
%FSLAX25Y25*%
%MOIN*%
G70*
G04*
G04 #@! TF.SameCoordinates,94B67592-C5F0-476C-964B-405C66203207*
G04*
G04*
G04 #@! TF.FilePolarity,Negative*
G04*
G01*
G75*
%ADD122C,0.27800*%
%ADD123C,0.03162*%
%ADD124O,0.05131X0.10249*%
%ADD125R,0.00800X0.00800*%
%ADD126C,0.14580*%
%ADD127O,0.07690X0.10642*%
%ADD128C,0.06658*%
%ADD129R,0.06706X0.06706*%
%ADD130C,0.06706*%
%ADD131O,0.16548X0.08674*%
%ADD132O,0.08674X0.16548*%
%ADD133C,0.12611*%
%ADD134O,0.06706X0.08674*%
%ADD135C,0.06800*%
%ADD136C,0.00800*%
%ADD137R,0.06706X0.06706*%
D122*
X402500Y17500D02*
D03*
Y370500D02*
D03*
X17500Y370000D02*
D03*
Y17500D02*
D03*
D123*
X48957Y370732D02*
D03*
X64705D02*
D03*
X175000Y239500D02*
D03*
X201000Y243000D02*
D03*
X128575Y267075D02*
D03*
X119000Y267147D02*
D03*
X65937Y336982D02*
D03*
X62000Y337500D02*
D03*
X58000Y354000D02*
D03*
X58201Y357701D02*
D03*
X49789Y351000D02*
D03*
X46639D02*
D03*
X40000Y351500D02*
D03*
X38500Y322500D02*
D03*
X60000Y138000D02*
D03*
X199500Y93500D02*
D03*
X197500Y86000D02*
D03*
X205000Y89500D02*
D03*
X40000Y338500D02*
D03*
X138500Y266500D02*
D03*
X130818Y311375D02*
D03*
X97410Y296256D02*
D03*
X297957Y99295D02*
D03*
X298000Y103500D02*
D03*
Y107500D02*
D03*
X305017Y114673D02*
D03*
X401528Y353146D02*
D03*
X391685Y333461D02*
D03*
X401528Y313776D02*
D03*
X391685Y294091D02*
D03*
X401528Y274406D02*
D03*
X391685Y254720D02*
D03*
X401528Y235035D02*
D03*
X391685Y215350D02*
D03*
X401528Y195665D02*
D03*
X391685Y175980D02*
D03*
X401528Y156295D02*
D03*
X391685Y136610D02*
D03*
X401528Y116925D02*
D03*
X391685Y97240D02*
D03*
X401528Y77555D02*
D03*
X391685Y57870D02*
D03*
X401528Y38185D02*
D03*
X372000Y372831D02*
D03*
X381842Y353146D02*
D03*
Y38185D02*
D03*
X372000Y18500D02*
D03*
X352315Y372831D02*
D03*
X362158Y353146D02*
D03*
X352315Y333461D02*
D03*
Y294091D02*
D03*
Y254720D02*
D03*
Y215350D02*
D03*
Y175980D02*
D03*
Y136610D02*
D03*
Y97240D02*
D03*
X342472Y353146D02*
D03*
X332630Y333461D02*
D03*
Y294091D02*
D03*
X342472Y274406D02*
D03*
X332630Y254720D02*
D03*
X342472Y235035D02*
D03*
X332630Y215350D02*
D03*
X342472Y195665D02*
D03*
X332630Y175980D02*
D03*
X342472Y156295D02*
D03*
X332630Y136610D02*
D03*
X342472Y116925D02*
D03*
X332630Y97240D02*
D03*
X312945Y372831D02*
D03*
X322787Y353146D02*
D03*
X312945Y333461D02*
D03*
X322787Y313776D02*
D03*
X312945Y294091D02*
D03*
X322787Y274406D02*
D03*
Y195665D02*
D03*
Y156295D02*
D03*
Y116925D02*
D03*
X293260Y372831D02*
D03*
X303102Y353146D02*
D03*
Y313776D02*
D03*
X293260Y294091D02*
D03*
X303102Y274406D02*
D03*
X273575Y372831D02*
D03*
X283417Y353146D02*
D03*
X273575Y333461D02*
D03*
X283417Y274406D02*
D03*
X273575Y254720D02*
D03*
Y215350D02*
D03*
X263732Y353146D02*
D03*
X253890Y333461D02*
D03*
X263732Y156295D02*
D03*
X234205Y372831D02*
D03*
Y254720D02*
D03*
X214520Y333461D02*
D03*
X224362Y313776D02*
D03*
Y235035D02*
D03*
X214520Y175980D02*
D03*
X224362Y156295D02*
D03*
X194835Y372831D02*
D03*
X175150D02*
D03*
X184992Y353146D02*
D03*
X175150Y57870D02*
D03*
X184992Y38185D02*
D03*
X155465Y372831D02*
D03*
X165307Y353146D02*
D03*
X155465Y333461D02*
D03*
X165307Y235035D02*
D03*
X135780Y372831D02*
D03*
X145622Y313776D02*
D03*
X135780Y97240D02*
D03*
X125937Y353146D02*
D03*
Y313776D02*
D03*
Y116925D02*
D03*
X116095Y97240D02*
D03*
X125937Y77555D02*
D03*
X106252Y116925D02*
D03*
X96409Y97240D02*
D03*
X106252Y77555D02*
D03*
X96409Y57870D02*
D03*
X66882Y274406D02*
D03*
X37354Y372831D02*
D03*
Y215350D02*
D03*
X47197Y116925D02*
D03*
Y77555D02*
D03*
X27512Y235035D02*
D03*
X164500Y76500D02*
D03*
Y86000D02*
D03*
Y93000D02*
D03*
Y101000D02*
D03*
X77000Y2500D02*
D03*
X14000Y152500D02*
D03*
X63000Y173000D02*
D03*
X81500Y83500D02*
D03*
X54000Y47000D02*
D03*
X24500Y271500D02*
D03*
X27130Y280750D02*
D03*
X23000Y316000D02*
D03*
X47146Y297654D02*
D03*
X32256Y201756D02*
D03*
X38500Y195500D02*
D03*
X44500Y197500D02*
D03*
X10000Y176500D02*
D03*
X37500Y149000D02*
D03*
X46000Y141000D02*
D03*
X42500D02*
D03*
X39000D02*
D03*
X40500Y130000D02*
D03*
X48000D02*
D03*
X56000D02*
D03*
X52000D02*
D03*
X54380Y141215D02*
D03*
X67500Y138000D02*
D03*
X64000D02*
D03*
X56500Y138500D02*
D03*
X55958Y69083D02*
D03*
X59368Y69106D02*
D03*
X59463Y65741D02*
D03*
X49129Y69194D02*
D03*
X41888Y65682D02*
D03*
X45704Y69194D02*
D03*
X45662Y65874D02*
D03*
X44500Y55500D02*
D03*
X48000D02*
D03*
X51500D02*
D03*
X52638Y69137D02*
D03*
X55000Y55500D02*
D03*
X61463Y63075D02*
D03*
X151500Y28000D02*
D03*
Y22000D02*
D03*
X163802Y21937D02*
D03*
X160000Y22000D02*
D03*
X167500D02*
D03*
X151524Y25270D02*
D03*
X189977Y30476D02*
D03*
X187103Y29188D02*
D03*
X183953D02*
D03*
X180804D02*
D03*
X177654D02*
D03*
X174505D02*
D03*
X171359Y29338D02*
D03*
X177221Y23167D02*
D03*
X180371D02*
D03*
X183521D02*
D03*
X186670D02*
D03*
X132500Y25500D02*
D03*
X226500Y23500D02*
D03*
X225000Y53500D02*
D03*
X197000Y134500D02*
D03*
X177500Y281500D02*
D03*
X101500Y268000D02*
D03*
X92500Y234500D02*
D03*
X89000Y199000D02*
D03*
X127500Y212500D02*
D03*
X188909Y190091D02*
D03*
X275000Y33000D02*
D03*
X297000Y32500D02*
D03*
X325500Y31500D02*
D03*
X359500Y34000D02*
D03*
X251000Y26000D02*
D03*
X41500Y299000D02*
D03*
X33000Y274000D02*
D03*
X93500Y43000D02*
D03*
X81516Y43016D02*
D03*
X32000Y172000D02*
D03*
X75000Y209000D02*
D03*
X120500Y190000D02*
D03*
X184000Y261535D02*
D03*
X182500Y257500D02*
D03*
X157000Y164000D02*
D03*
X125500Y170000D02*
D03*
X153500Y212711D02*
D03*
X181500Y207500D02*
D03*
X164000Y110500D02*
D03*
X159000Y63000D02*
D03*
X148000Y131500D02*
D03*
X69500Y287500D02*
D03*
X79000Y304252D02*
D03*
X73225Y255602D02*
D03*
X222000Y127500D02*
D03*
X228000Y119039D02*
D03*
X215000Y105500D02*
D03*
X191500Y139000D02*
D03*
X215500Y115500D02*
D03*
X55594Y332000D02*
D03*
X216000Y90500D02*
D03*
X218000Y32500D02*
D03*
X133000Y163500D02*
D03*
X212000Y57000D02*
D03*
X81500Y50000D02*
D03*
X148500Y43500D02*
D03*
X79500Y163500D02*
D03*
X64500Y149000D02*
D03*
X65000Y200500D02*
D03*
X84000Y214500D02*
D03*
X139000Y237500D02*
D03*
X152500Y231000D02*
D03*
X210000Y300000D02*
D03*
X246000Y315500D02*
D03*
X97000Y382500D02*
D03*
X101000Y339500D02*
D03*
X94441Y341560D02*
D03*
X91000Y289500D02*
D03*
X53000Y294000D02*
D03*
X60500Y144500D02*
D03*
X63500Y141500D02*
D03*
X60500Y196500D02*
D03*
X307500Y119000D02*
D03*
X108500Y43000D02*
D03*
X117059Y41059D02*
D03*
X149000Y170000D02*
D03*
X217500Y198000D02*
D03*
X240500Y94500D02*
D03*
X297500Y180000D02*
D03*
X246500Y239000D02*
D03*
X121295Y163000D02*
D03*
X118736Y159500D02*
D03*
X116177Y163000D02*
D03*
X111059D02*
D03*
X113618Y160000D02*
D03*
X92500Y181846D02*
D03*
X108500Y159500D02*
D03*
X97000Y174000D02*
D03*
X102000Y186000D02*
D03*
X98500Y183815D02*
D03*
X258500Y306500D02*
D03*
X107500Y247500D02*
D03*
X50000Y169500D02*
D03*
Y180500D02*
D03*
X216500Y60000D02*
D03*
X60000Y247000D02*
D03*
X53500Y251500D02*
D03*
X65000Y247000D02*
D03*
X38500Y254500D02*
D03*
X113500Y264000D02*
D03*
X123500D02*
D03*
X133500D02*
D03*
X143500D02*
D03*
X85000Y267000D02*
D03*
X149000Y259000D02*
D03*
X321500Y367000D02*
D03*
X84500Y318000D02*
D03*
X80000Y183000D02*
D03*
X234000Y129000D02*
D03*
X76000Y341000D02*
D03*
X77000Y376500D02*
D03*
X94500Y371500D02*
D03*
X30500Y305500D02*
D03*
X15500Y335000D02*
D03*
X22500Y345000D02*
D03*
X70000Y205500D02*
D03*
X68250Y322750D02*
D03*
X68498Y311491D02*
D03*
X240500Y362500D02*
D03*
X202102Y144103D02*
D03*
X192476Y122476D02*
D03*
X227500Y128500D02*
D03*
X192566Y130350D02*
D03*
X192587Y126413D02*
D03*
X259000Y121000D02*
D03*
X240000Y83000D02*
D03*
X302500Y64937D02*
D03*
Y68087D02*
D03*
Y78000D02*
D03*
X238000Y61000D02*
D03*
X302500Y88000D02*
D03*
D124*
X45709Y378999D02*
D03*
X67953D02*
D03*
D125*
X402984Y88839D02*
D03*
Y339665D02*
D03*
X341016Y306161D02*
D03*
D126*
X372000Y55335D02*
D03*
Y339665D02*
D03*
X220000Y344657D02*
D03*
X175000D02*
D03*
D127*
X49079Y16000D02*
D03*
X58921D02*
D03*
D128*
X225726Y285362D02*
D03*
X237545Y285339D02*
D03*
X249340Y285343D02*
D03*
Y264480D02*
D03*
X237565Y264500D02*
D03*
X225726D02*
D03*
D129*
X6500Y315000D02*
D03*
Y271500D02*
D03*
D130*
Y325000D02*
D03*
Y335000D02*
D03*
Y345000D02*
D03*
Y281500D02*
D03*
Y291500D02*
D03*
Y301500D02*
D03*
X243500Y8000D02*
D03*
X253500D02*
D03*
X263500D02*
D03*
X273500D02*
D03*
X283500D02*
D03*
X293500D02*
D03*
X303500D02*
D03*
X313500D02*
D03*
X323500D02*
D03*
X333500D02*
D03*
X343500D02*
D03*
X353500D02*
D03*
X363500D02*
D03*
X373500D02*
D03*
X222000D02*
D03*
X212000D02*
D03*
X202000D02*
D03*
X192000D02*
D03*
X182000D02*
D03*
X172000D02*
D03*
X162000D02*
D03*
X152000D02*
D03*
X142000D02*
D03*
X132000D02*
D03*
X122000D02*
D03*
X112000D02*
D03*
X102000D02*
D03*
X92000D02*
D03*
D131*
X296500Y358500D02*
D03*
Y333500D02*
D03*
D132*
X278500Y345500D02*
D03*
D133*
X228425Y332650D02*
D03*
X166614D02*
D03*
D134*
X185000Y319657D02*
D03*
X195000D02*
D03*
X205000D02*
D03*
X215000D02*
D03*
X180000Y309658D02*
D03*
X190000D02*
D03*
X200000D02*
D03*
X210000D02*
D03*
D135*
X132500Y332500D02*
D03*
X122500D02*
D03*
X127500Y322500D02*
D03*
X117500D02*
D03*
D136*
X145000Y357500D02*
D03*
X105000D02*
D03*
D137*
X233500Y8000D02*
D03*
X82000D02*
D03*
M02*
