M48
;Layer_Color=9474304
;FILE_FORMAT=2:4
INCH,TZ
;TYPE=PLATED
T1F00S00C0.0118
T3F00S00C0.0300
T4F00S00C0.0354
T5F00S00C0.0394
T7F00S00C0.0520
T8F00S00C0.0630
T9F00S00C0.1260
T10F00S00C0.1280
;TYPE=NON_PLATED
T11F00S00C0.0236
T12F00S00C0.0941
T13F00S00C0.1398
%
T01
X4450Y5550
X4800
X5150
X5500
X5400Y4700
X5264Y6914
X4913Y6919
X4570
X4566Y6587
X4189Y6568
X5596Y6908
X5937Y6911
X5946Y6574
X6146Y6307
X8150Y5000
X8152Y4302
X9350Y4300
X10850
X11706Y4106
X13250Y2550
X15152Y2527
X15150Y2800
Y2200
X16000
X16380Y2194
X16750Y2200
X17722Y2317
X18037
X18352
X18667
X18710Y2919
X18395
X18080
X17765
X17450
X17136Y2934
X18998Y3048
X18499Y3819
X17515Y5787
X15900Y6300
X14850Y4350
X9641Y5787
X7700Y250
X22650Y2350
X21800Y3250
X22500Y5350
X21650Y6000
X21200Y5700
X23800Y6100
X25100Y2600
X27500Y3300
X29700Y3250
X32550Y3150
X35950Y3400
X30250Y6494
Y6809
X39169Y5787
X40153Y3819
X38184
X37200Y1850
X40153Y7756
X39169Y9724
X40153Y11693
X39169Y13661
X40153Y15630
X39169Y17598
X40153Y19567
X39169Y21535
X35231
X33263
X34247Y19567
X32279
X33263Y17598
X35231
X34247Y15630
X32279
X33263Y13661
X35231
X34247Y11693
X32279
X30750Y11900
X30502Y11467
X29800Y10750
Y10350
X29796Y9930
X30250Y8800
Y7800
X33263Y9724
X35231
X24050Y9450
X24000Y8300
X21600Y9050
X21500Y10550
X21550Y11550
X22800Y11904
X22750Y12850
X22200Y12750
X23400Y12900
X25900Y12100
X26373Y15630
X22436
X21452Y17598
X21750Y19800
X27357Y21535
X29750Y18000
X18891Y19009
X18150Y20750
X15350Y21271
X12750Y21250
X12050Y19000
X10200Y18600
X9850Y18381
X9250Y18185
X9700Y17400
X11106Y16300
X11618
X12130
X11874Y15950
X11362Y16000
X10850Y15950
X12550Y17000
X13300Y16350
X14900Y17000
X15700Y16400
X14800Y13150
X12594Y11693
X10625
X11609Y9724
X13578
X12594Y7756
X10625
X9641Y9724
X8150Y8350
X6750Y13800
X6400
X6000
X5650Y13850
X5600Y13000
X6050Y14450
X6350Y14150
X6450Y14900
X6300Y17300
X7950Y16350
X8000Y18300
X8900Y19900
X8400Y21450
X7500Y20900
X7000Y20550
X6500Y20050
X6050Y19650
X19150Y13900
X19257Y13035
X19259Y12641
X19248Y12248
X19700Y13450
X20210Y14410
X19950Y9350
X19750Y8600
X20500Y8950
X16450Y8600
Y9300
Y10100
X16400Y11050
X16450Y7650
X4720Y7756
Y11693
X4800Y13000
X5200
X4050
X3900Y14100
X4250
X4600
X5438Y14122
X3750Y14900
X1400Y15250
X1000Y17650
X3200Y17200
X5000Y16950
Y18050
X4450Y19750
X3850Y19550
X3226Y20176
X3735Y21535
X2751Y23504
X3850Y25450
X5350Y25150
X3300Y27400
X2450Y27150
X2713Y28075
X3050Y30550
X4150Y29900
X4715Y29765
X5300Y29400
X5559Y33200
X4000Y33850
Y35150
X4664Y35100
X4979
X2250Y34500
X1550Y33500
X2300Y31600
X3850Y32250
X3735Y37283
X5820Y35770
X5800Y35400
X6200Y33750
X6594Y33698
X7600Y34100
X9444Y34156
X10100Y33950
X8450Y31800
X7900Y30425
X6850Y31149
X6825Y32275
X6950Y28750
X6688Y27441
X7322Y25560
X6500Y24700
X6000
X9250Y23450
X10750Y24750
X11350Y26400
X11900Y26715
X12350Y26400
X12858Y26708
X13350Y26400
X13850Y26650
X14350Y26400
X14900Y25900
X13900Y23750
X15250Y23100
X16531Y23504
X17500Y23950
X18250Y25750
X18400Y26154
X17750Y28150
X21000Y30000
X20100Y24300
X10150Y26800
X8500Y26700
X9100Y28950
X9741Y29626
X12594Y31378
X13082Y31137
X14562Y31378
X15546Y33346
X16531Y35315
X18499
X19483Y37283
X17515
X15546
X13578
X12594Y35315
X9450Y37150
X9700Y38250
X7700Y37650
X23420Y37283
X24050Y36250
X26373Y35315
X28342
X30310
X32279
X32150Y36700
X31294Y37283
X29326
X27357
Y33346
X25389
X24600Y31550
X25850Y30650
X22436Y31378
X21452Y33346
X31294
X33263
X35231
X36216Y35315
X34247
X35231Y37283
Y29409
X33263
X31294
X29326
X30310Y31378
X32279
Y27441
X34247
X35231Y25472
X33263
X34247Y23504
X30310Y27441
X28342
X27357Y25472
X23420
X24650Y23900
X22436Y23504
X40153
X39169Y25472
X40153Y27441
X39169Y29409
X40153Y31378
X39169Y33346
X40153Y35315
X38184
X37200Y37283
T03
X11750Y32250
X12750
X13250Y33250
X12250
T04
X8200Y800
X9200
X10200
X11200
X12200
X13200
X14200
X15200
X16200
X17200
X18200
X19200
X20200
X21200
X22200
X23350
X24350
X25350
X26350
X27350
X28350
X29350
X30350
X31350
X32350
X33350
X34350
X35350
X36350
X37350
X650Y27150
Y28150
Y29150
Y30150
Y31500
Y32500
Y33500
Y34500
X18500Y31966
X19500
X20500
X20000Y30966
X19000
X18000
X21000
X21500Y31966
T05
X4908Y1600
X5892
X22573Y26450
X23756
X24934Y26448
Y28534
X23754Y28534
X22573Y28536
T07
X37200Y5533
Y33967
T08
X16661Y33265
X22843
T09
X1750Y1750
X40250
X1750Y37000
X17500Y34466
X22000
X40250Y37050
T10
X10500Y35750
X14500
T11
X4896Y37073
X6471
T12
X40298Y33967
T13
X40298Y8884
X34102Y30616
M30
