G04*
G04 #@! TF.GenerationSoftware,Altium Limited,Altium Designer,21.6.4 (81)*
G04*
G04 Layer_Color=16711935*
%FSLAX25Y25*%
%MOIN*%
G70*
G04*
G04 #@! TF.SameCoordinates,94B67592-C5F0-476C-964B-405C66203207*
G04*
G04*
G04 #@! TF.FilePolarity,Positive*
G04*
G01*
G75*
%ADD11C,0.01000*%
G36*
X35937Y130760D02*
X26882D01*
Y138240D01*
X35937D01*
Y130760D01*
D02*
G37*
G36*
X38937Y55760D02*
X29882D01*
Y63240D01*
X38937D01*
Y55760D01*
D02*
G37*
G36*
X202618Y22760D02*
X193563D01*
Y30240D01*
X202618D01*
Y22760D01*
D02*
G37*
D11*
X420000Y368000D02*
X420013Y369016D01*
X419971Y370032D01*
X419874Y371043D01*
X419723Y372048D01*
X419517Y373043D01*
X419258Y374026D01*
X418946Y374993D01*
X418582Y375942D01*
X418167Y376870D01*
X417703Y377774D01*
X417190Y378651D01*
X416631Y379500D01*
X416026Y380317D01*
X415378Y381100D01*
X414689Y381847D01*
X413960Y382555D01*
X413194Y383223D01*
X412393Y383848D01*
X411559Y384429D01*
X410695Y384965D01*
X409804Y385452D01*
X408887Y385891D01*
X407948Y386279D01*
X406989Y386616D01*
X406013Y386900D01*
X405023Y387132D01*
X404023Y387309D01*
X403014Y387432D01*
X402000Y387500D01*
X400513Y-13D02*
X401508Y-13D01*
X402501Y40D01*
X403491Y144D01*
X404473Y301D01*
X405447Y508D01*
X406408Y766D01*
X407354Y1074D01*
X408283Y1431D01*
X409192Y1836D01*
X410078Y2289D01*
X410939Y2787D01*
X411774Y3329D01*
X412578Y3915D01*
X413351Y4541D01*
X414090Y5207D01*
X414794Y5911D01*
X415459Y6651D01*
X416085Y7425D01*
X416669Y8230D01*
X417211Y9065D01*
X417708Y9927D01*
X418159Y10814D01*
X418564Y11723D01*
X418920Y12652D01*
X419227Y13599D01*
X419484Y14560D01*
X419690Y15534D01*
X419845Y16517D01*
X419948Y17506D01*
X420000Y18500D01*
X19000Y387500D02*
X18006Y387474D01*
X17014Y387396D01*
X16028Y387266D01*
X15050Y387085D01*
X14082Y386853D01*
X13129Y386570D01*
X12191Y386238D01*
X11272Y385857D01*
X10374Y385429D01*
X9500Y384955D01*
X8652Y384435D01*
X7832Y383871D01*
X7043Y383266D01*
X6286Y382620D01*
X5565Y381935D01*
X4880Y381213D01*
X4234Y380457D01*
X3629Y379668D01*
X3065Y378848D01*
X2545Y378000D01*
X2071Y377126D01*
X1643Y376228D01*
X1262Y375309D01*
X930Y374371D01*
X647Y373418D01*
X415Y372450D01*
X234Y371472D01*
X104Y370486D01*
X26Y369494D01*
X0Y368500D01*
Y20000D02*
X13Y18999D01*
X76Y18001D01*
X190Y17006D01*
X354Y16019D01*
X568Y15042D01*
X831Y14076D01*
X1143Y13125D01*
X1502Y12191D01*
X1908Y11277D01*
X2360Y10384D01*
X2857Y9515D01*
X3397Y8673D01*
X3979Y7859D01*
X4602Y7075D01*
X5263Y6324D01*
X5962Y5608D01*
X6696Y4927D01*
X7463Y4285D01*
X8262Y3683D01*
X9091Y3122D01*
X9947Y2603D01*
X10828Y2128D01*
X11732Y1699D01*
X12656Y1316D01*
X13599Y981D01*
X14558Y693D01*
X15529Y455D01*
X16512Y266D01*
X17503Y127D01*
X18500Y38D01*
X19500Y-0D01*
X420000Y368500D02*
X420000Y19000D01*
X19500Y0D02*
X401500D01*
X0Y261156D02*
Y368500D01*
Y20000D02*
Y189500D01*
X22000D01*
Y261000D01*
X156D02*
X22000D01*
X19000Y387500D02*
X402000Y387500D01*
M02*
