G04*
G04 #@! TF.GenerationSoftware,Altium Limited,Altium Designer,21.6.4 (81)*
G04*
G04 Layer_Physical_Order=1*
G04 Layer_Color=255*
%FSLAX25Y25*%
%MOIN*%
G70*
G04*
G04 #@! TF.SameCoordinates,94B67592-C5F0-476C-964B-405C66203207*
G04*
G04*
G04 #@! TF.FilePolarity,Positive*
G04*
G01*
G75*
%ADD11C,0.01000*%
%ADD12C,0.01181*%
%ADD13C,0.01968*%
%ADD19R,0.02953X0.03937*%
%ADD20R,0.03937X0.02953*%
%ADD21R,0.06693X0.04921*%
%ADD22R,0.03543X0.01000*%
%ADD23R,0.01000X0.03543*%
%ADD24R,0.03740X0.03543*%
%ADD25O,0.03500X0.07000*%
%ADD26O,0.07000X0.03500*%
%ADD27R,0.15750X0.15750*%
%ADD28R,0.01575X0.08268*%
%ADD29R,0.05906X0.03937*%
%ADD30R,0.07480X0.07480*%
%ADD31R,0.03543X0.01575*%
%ADD32R,0.01772X0.03543*%
%ADD33O,0.08784X0.02370*%
%ADD34R,0.08691X0.09354*%
%ADD35R,0.03543X0.01772*%
%ADD36R,0.02165X0.03937*%
%ADD37O,0.07087X0.02756*%
%ADD38O,0.02756X0.07087*%
%ADD39R,0.02362X0.04528*%
%ADD40R,0.03543X0.03150*%
%ADD41R,0.03150X0.03543*%
%ADD42R,0.06693X0.14567*%
%ADD43R,0.03150X0.03543*%
%ADD44R,0.03543X0.03150*%
%ADD45R,0.08504X0.04213*%
%ADD46R,0.04724X0.04724*%
%ADD47R,0.16535X0.08661*%
%ADD48R,0.05512X0.07874*%
%ADD49R,0.04724X0.05512*%
%ADD50R,0.04724X0.04724*%
%ADD51R,0.08691X0.10205*%
%ADD52R,0.09843X0.13779*%
%ADD53R,0.04724X0.02362*%
%ADD54R,0.07874X0.05512*%
%ADD55O,0.05512X0.08268*%
%ADD56R,0.03543X0.03740*%
%ADD57R,0.08661X0.04134*%
%ADD58R,0.04134X0.03937*%
%ADD59R,0.02598X0.02441*%
%ADD60R,0.02756X0.03543*%
%ADD61R,0.03543X0.02756*%
%ADD62R,0.19685X0.11811*%
%ADD63R,0.09843X0.06693*%
%ADD64R,0.18307X0.09055*%
%ADD65O,0.02370X0.08784*%
%ADD66R,0.02756X0.01654*%
%ADD67R,0.07087X0.05118*%
%ADD68R,0.04724X0.03543*%
%ADD69R,0.04528X0.02362*%
%ADD138R,0.12205X0.12205*%
%ADD139R,0.05000X0.02500*%
%ADD140C,0.03937*%
%ADD141C,0.02756*%
%ADD142C,0.27000*%
%ADD143C,0.02362*%
%ADD144O,0.04331X0.09449*%
%ADD145C,0.13780*%
%ADD146O,0.06890X0.09843*%
%ADD147C,0.05858*%
%ADD148R,0.05906X0.05906*%
%ADD149C,0.05906*%
%ADD150O,0.15748X0.07874*%
%ADD151O,0.07874X0.15748*%
%ADD152C,0.11811*%
%ADD153O,0.05906X0.07874*%
%ADD154C,0.06000*%
%ADD155R,0.05906X0.05906*%
G36*
X400394Y387598D02*
X402357Y387574D01*
X406199Y386759D01*
X409808Y385211D01*
X413046Y382989D01*
X415788Y380177D01*
X417928Y376885D01*
X419385Y373238D01*
X420103Y369377D01*
X420079Y367413D01*
X420079D01*
X420079Y367413D01*
X420079Y19284D01*
X420079Y17345D01*
X419322Y13542D01*
X417838Y9959D01*
X415684Y6735D01*
X412942Y3993D01*
X409718Y1839D01*
X406136Y355D01*
X402332Y-402D01*
X400394Y-402D01*
X72518D01*
X72279Y386D01*
X72780Y720D01*
X76351Y4292D01*
X77079Y3991D01*
Y3079D01*
X86921D01*
Y5326D01*
X87709Y5564D01*
X88452Y4452D01*
X90080Y3364D01*
X92000Y2982D01*
X93920Y3364D01*
X95548Y4452D01*
X96579Y5994D01*
X97000Y6040D01*
X97421Y5994D01*
X98452Y4452D01*
X100080Y3364D01*
X102000Y2982D01*
X103920Y3364D01*
X105548Y4452D01*
X106579Y5994D01*
X107000Y6040D01*
X107422Y5994D01*
X108452Y4452D01*
X110080Y3364D01*
X112000Y2982D01*
X113920Y3364D01*
X115548Y4452D01*
X116578Y5994D01*
X117000Y6040D01*
X117421Y5994D01*
X118452Y4452D01*
X120080Y3364D01*
X122000Y2982D01*
X123920Y3364D01*
X125548Y4452D01*
X126578Y5994D01*
X127000Y6040D01*
X127421Y5994D01*
X128452Y4452D01*
X130080Y3364D01*
X132000Y2982D01*
X133920Y3364D01*
X135548Y4452D01*
X136579Y5994D01*
X137000Y6040D01*
X137422Y5994D01*
X138452Y4452D01*
X140080Y3364D01*
X142000Y2982D01*
X143920Y3364D01*
X145548Y4452D01*
X146579Y5994D01*
X147000Y6040D01*
X147422Y5994D01*
X148452Y4452D01*
X150080Y3364D01*
X152000Y2982D01*
X153920Y3364D01*
X155548Y4452D01*
X156579Y5994D01*
X157000Y6040D01*
X157422Y5994D01*
X158452Y4452D01*
X160080Y3364D01*
X162000Y2982D01*
X163920Y3364D01*
X165548Y4452D01*
X166578Y5994D01*
X167000Y6040D01*
X167421Y5994D01*
X168452Y4452D01*
X170080Y3364D01*
X172000Y2982D01*
X173920Y3364D01*
X175548Y4452D01*
X176578Y5994D01*
X177000Y6040D01*
X177421Y5994D01*
X178452Y4452D01*
X180080Y3364D01*
X182000Y2982D01*
X183920Y3364D01*
X185548Y4452D01*
X186579Y5994D01*
X187000Y6040D01*
X187422Y5994D01*
X188452Y4452D01*
X190080Y3364D01*
X192000Y2982D01*
X193920Y3364D01*
X195548Y4452D01*
X196636Y6080D01*
X197018Y8000D01*
X196680Y9696D01*
X197134Y10483D01*
X216865D01*
X217320Y9696D01*
X216982Y8000D01*
X217364Y6080D01*
X218452Y4452D01*
X220080Y3364D01*
X222000Y2982D01*
X223920Y3364D01*
X225548Y4452D01*
X226636Y6080D01*
X227018Y8000D01*
X226680Y9696D01*
X227134Y10483D01*
X228579D01*
Y3079D01*
X238421D01*
Y5326D01*
X239209Y5564D01*
X239952Y4452D01*
X241580Y3364D01*
X243500Y2982D01*
X245420Y3364D01*
X247048Y4452D01*
X248078Y5994D01*
X248500Y6040D01*
X248921Y5994D01*
X249952Y4452D01*
X251580Y3364D01*
X253500Y2982D01*
X255420Y3364D01*
X257048Y4452D01*
X258079Y5994D01*
X258500Y6040D01*
X258922Y5994D01*
X259952Y4452D01*
X261580Y3364D01*
X263500Y2982D01*
X265420Y3364D01*
X267048Y4452D01*
X268078Y5994D01*
X268500Y6040D01*
X268921Y5994D01*
X269952Y4452D01*
X271580Y3364D01*
X273500Y2982D01*
X275420Y3364D01*
X277048Y4452D01*
X278079Y5994D01*
X278500Y6040D01*
X278922Y5994D01*
X279952Y4452D01*
X281580Y3364D01*
X283500Y2982D01*
X285420Y3364D01*
X287048Y4452D01*
X288078Y5994D01*
X288500Y6040D01*
X288921Y5994D01*
X289952Y4452D01*
X291580Y3364D01*
X293500Y2982D01*
X295420Y3364D01*
X297048Y4452D01*
X298078Y5994D01*
X298500Y6040D01*
X298921Y5994D01*
X299952Y4452D01*
X301580Y3364D01*
X303500Y2982D01*
X305420Y3364D01*
X307048Y4452D01*
X308136Y6080D01*
X308518Y8000D01*
X308292Y9135D01*
X308938Y9922D01*
X334500D01*
X335498Y10121D01*
X336345Y10687D01*
X342081Y16422D01*
X362531D01*
X363530Y16621D01*
X364376Y17187D01*
X366774Y19584D01*
X366944Y19839D01*
X367771D01*
Y21462D01*
X372071D01*
X373069Y21660D01*
X373916Y22226D01*
X374845Y23155D01*
X375411Y24002D01*
X375609Y25000D01*
Y36000D01*
X375411Y36999D01*
X374845Y37845D01*
X368845Y43845D01*
X367999Y44411D01*
X367000Y44609D01*
X361000D01*
X360536Y44517D01*
X345543D01*
X343517Y46543D01*
Y85000D01*
X343325Y85963D01*
X342780Y86780D01*
X334780Y94780D01*
X333963Y95325D01*
X333000Y95517D01*
X328154D01*
X327474Y95971D01*
X326244Y96215D01*
X319831D01*
X318600Y95971D01*
X317557Y95274D01*
X316860Y94230D01*
X316615Y93000D01*
X316860Y91770D01*
X317171Y91304D01*
X316750Y90517D01*
X315500D01*
X314537Y90325D01*
X313720Y89780D01*
X310720Y86780D01*
X310175Y85963D01*
X309983Y85000D01*
Y53628D01*
X309971Y53616D01*
X305244D01*
X304458Y53773D01*
X303673Y53616D01*
X300718D01*
Y47473D01*
X258007D01*
Y49148D01*
Y88763D01*
X257968Y88957D01*
Y89154D01*
X257910Y89451D01*
X257834Y89633D01*
X257831Y89649D01*
Y91224D01*
X256614D01*
X256504Y91334D01*
X256504Y91334D01*
X253419Y94419D01*
X253419Y94419D01*
X252490Y95349D01*
X252386Y95418D01*
X252317Y95522D01*
X250102Y97737D01*
X249881Y97884D01*
Y101350D01*
Y106350D01*
Y111945D01*
X252740D01*
Y119032D01*
X245260D01*
Y117415D01*
X245155Y117345D01*
X243705Y115895D01*
X243139Y115049D01*
X242941Y114050D01*
Y112650D01*
X241219D01*
Y112017D01*
X241000D01*
X240037Y111825D01*
X239220Y111280D01*
X237958Y110017D01*
X221190D01*
X220885Y110516D01*
X220823Y110784D01*
X221325Y111537D01*
X221517Y112500D01*
Y113395D01*
X222244Y113696D01*
X223720Y112220D01*
X224537Y111675D01*
X225500Y111483D01*
X231000D01*
X231963Y111675D01*
X232780Y112220D01*
X235780Y115220D01*
X236030Y115594D01*
X237740D01*
Y121213D01*
X243740D01*
Y128299D01*
X237692D01*
X237193Y128908D01*
X237211Y129000D01*
X236967Y130229D01*
X236271Y131271D01*
X235229Y131967D01*
X234000Y132211D01*
X232771Y131967D01*
X231729Y131271D01*
X231033Y130229D01*
X230208Y130116D01*
X229771Y130771D01*
X228729Y131467D01*
X227500Y131711D01*
X226271Y131467D01*
X225229Y130771D01*
X224533Y129729D01*
X224363Y128873D01*
X224063Y128193D01*
X224063Y128193D01*
X224063Y128193D01*
Y127248D01*
X222120D01*
X221736Y127824D01*
X218280Y131280D01*
X217463Y131825D01*
X216500Y132017D01*
X211551D01*
X203200Y140368D01*
X203460Y141221D01*
X204373Y141832D01*
X205069Y142874D01*
X205314Y144103D01*
X205303Y144157D01*
X205802Y144766D01*
X206433D01*
Y152246D01*
X200251D01*
Y154718D01*
X200831D01*
X201074Y154766D01*
X206433D01*
Y159766D01*
Y164766D01*
Y169766D01*
Y177246D01*
X198537D01*
X198210Y178033D01*
X207020Y186843D01*
X212741D01*
Y179516D01*
X223764D01*
Y186843D01*
X229640D01*
X233789Y182694D01*
Y175857D01*
X234095Y174321D01*
X234965Y173019D01*
X244465Y163519D01*
X245767Y162649D01*
X247303Y162343D01*
X268352D01*
X268993Y161556D01*
X268993Y132237D01*
X269032Y132043D01*
Y131846D01*
X269075Y131626D01*
X269375Y130903D01*
X269375Y130903D01*
X269499Y130717D01*
X269639Y130577D01*
X269748Y130413D01*
X276201Y123961D01*
X279493Y120669D01*
Y112697D01*
X272240D01*
Y117469D01*
Y119634D01*
X272514Y121012D01*
X272240Y122389D01*
Y124555D01*
X270284D01*
X270036Y124720D01*
X268500Y125026D01*
X259012D01*
X257476Y124720D01*
X256173Y123850D01*
X256162Y123838D01*
X255291Y122536D01*
X254986Y121000D01*
X255291Y119464D01*
X256162Y118162D01*
X257464Y117291D01*
X259000Y116986D01*
X259059Y116998D01*
X264760D01*
Y112650D01*
X264119D01*
Y106350D01*
Y101350D01*
Y97517D01*
X264079Y97419D01*
X264032Y97182D01*
X264032Y96984D01*
X263993Y96791D01*
X263993Y93402D01*
X264119Y92766D01*
Y91350D01*
X265327D01*
X265634Y91146D01*
X266402Y90993D01*
X280260D01*
Y86299D01*
X280260D01*
Y79213D01*
X287740D01*
Y85457D01*
X287740D01*
Y90932D01*
X288321Y90993D01*
X288349D01*
X288380Y90999D01*
X288491Y91011D01*
X288511Y91015D01*
X288587Y91008D01*
X288723Y91024D01*
X288905Y91083D01*
X288965Y91090D01*
X288972Y91092D01*
X289012Y91114D01*
X289260Y91164D01*
X289357Y91229D01*
X289468Y91264D01*
X289660Y91428D01*
X289703Y91445D01*
X289708Y91449D01*
X289752Y91492D01*
X289911Y91599D01*
X290007Y91695D01*
X290050Y91759D01*
X290065Y91772D01*
X290077Y91796D01*
X290167Y91872D01*
X294612Y97485D01*
X295399Y97454D01*
X295686Y97025D01*
X296728Y96328D01*
X297957Y96084D01*
X299186Y96328D01*
X300227Y97025D01*
X300434Y97334D01*
X300913Y97921D01*
Y97921D01*
X300913Y97921D01*
X310561D01*
X311347Y97765D01*
X312132Y97921D01*
X315087D01*
Y101071D01*
Y104220D01*
Y107370D01*
Y113079D01*
X314357D01*
Y115154D01*
X314128Y116306D01*
X313475Y117282D01*
X313475Y117282D01*
X312603Y118155D01*
X312388Y118476D01*
X312388Y118476D01*
X310128Y120737D01*
X309771Y121271D01*
X308729Y121967D01*
X307500Y122211D01*
X306271Y121967D01*
X305229Y121271D01*
X304533Y120229D01*
X304289Y119000D01*
X304530Y117787D01*
X303788Y117639D01*
X302746Y116943D01*
X302050Y115901D01*
X301805Y114673D01*
X301966Y113866D01*
X301419Y113079D01*
X300913D01*
Y110077D01*
X300275Y109879D01*
X300126Y109867D01*
X299229Y110467D01*
X298000Y110711D01*
X296906Y110494D01*
X296117Y110905D01*
X296062Y125156D01*
X296010Y138672D01*
X311752Y154413D01*
X311861Y154577D01*
X312001Y154717D01*
X312125Y154903D01*
X312425Y155626D01*
X312469Y155846D01*
Y156043D01*
X312507Y156237D01*
Y185263D01*
X312469Y185457D01*
Y185654D01*
X312425Y185873D01*
X312125Y186597D01*
X312125Y186597D01*
X312001Y186783D01*
X311861Y186923D01*
X311752Y187087D01*
X310587Y188251D01*
X310423Y188361D01*
X310283Y188501D01*
X310097Y188625D01*
X309373Y188925D01*
X309154Y188969D01*
X308957D01*
X308763Y189007D01*
X271237D01*
X271043Y188969D01*
X270846D01*
X270648Y188929D01*
X270648Y188929D01*
X270648D01*
X270245Y188762D01*
X269924Y188629D01*
X269924Y188629D01*
X269924Y188629D01*
X269732Y188437D01*
X269409D01*
Y188115D01*
X269371Y188076D01*
X269371Y188076D01*
X269371Y188076D01*
X269071Y187352D01*
X269032Y187154D01*
Y186957D01*
X268993Y186763D01*
Y184407D01*
X268983Y184357D01*
X268993Y184308D01*
Y170371D01*
X248966D01*
X241817Y177520D01*
Y184357D01*
X241512Y185893D01*
X240642Y187196D01*
X234142Y193696D01*
X232839Y194566D01*
X231303Y194871D01*
X221140D01*
X220719Y195659D01*
X221354Y196609D01*
X221660Y198146D01*
Y200063D01*
X226799D01*
Y201560D01*
X227377Y201675D01*
X228194Y202220D01*
X228780Y202806D01*
X229325Y203623D01*
X229517Y204586D01*
Y209535D01*
X231331D01*
Y218197D01*
X222669D01*
Y209535D01*
X224483D01*
Y207937D01*
X219088D01*
X218682Y208209D01*
X217146Y208514D01*
X209287D01*
Y215224D01*
X208471D01*
Y217000D01*
Y225000D01*
Y231326D01*
X208514Y231543D01*
Y233276D01*
X208787D01*
Y242389D01*
X209406Y242803D01*
X210450Y244365D01*
X210817Y246209D01*
Y248965D01*
X210450Y250808D01*
X209406Y252371D01*
X208333Y253088D01*
Y253178D01*
X208103Y254330D01*
X207451Y255307D01*
X207451Y255307D01*
X203385Y259373D01*
X202408Y260026D01*
X201256Y260255D01*
X201256Y260255D01*
X192740D01*
Y266299D01*
X189005D01*
X188704Y267027D01*
X190338Y268662D01*
X191209Y269964D01*
X191514Y271500D01*
Y274093D01*
X191754Y274180D01*
X192301Y274224D01*
X192871Y273371D01*
X197371Y268871D01*
X197371Y268871D01*
X198348Y268219D01*
X199500Y267989D01*
X199500Y267989D01*
X233171D01*
X233542Y267295D01*
X232951Y266411D01*
X232571Y264500D01*
X232951Y262589D01*
X234034Y260969D01*
X235654Y259887D01*
X237565Y259506D01*
X239475Y259887D01*
X241096Y260969D01*
X242178Y262589D01*
X242558Y264500D01*
X242213Y266236D01*
X242816Y266681D01*
X242862Y266701D01*
X244469Y265094D01*
X244347Y264480D01*
X244727Y262569D01*
X245809Y260949D01*
X246779Y260301D01*
X246540Y259514D01*
X246000D01*
X244464Y259209D01*
X243162Y258338D01*
X236162Y251338D01*
X235291Y250036D01*
X234986Y248500D01*
Y227500D01*
X235291Y225964D01*
X236162Y224662D01*
X240516Y220307D01*
X241818Y219437D01*
X243354Y219131D01*
X247000D01*
X248536Y219437D01*
X248931Y219701D01*
X254201D01*
X254492Y219643D01*
X254492Y219643D01*
X257591D01*
Y218039D01*
X270031D01*
Y224732D01*
Y231486D01*
X287394D01*
Y218374D01*
X287547Y217606D01*
X287982Y216955D01*
X288633Y216520D01*
X289402Y216367D01*
X294986D01*
Y206374D01*
X287189D01*
Y202264D01*
X268264D01*
Y203315D01*
X254484D01*
Y192685D01*
X268264D01*
Y194236D01*
X287189D01*
Y190626D01*
X310811D01*
Y206374D01*
X303014D01*
Y216367D01*
X311804D01*
Y214240D01*
X311957Y213472D01*
X312392Y212821D01*
X313043Y212386D01*
X313811Y212233D01*
X319598D01*
X320367Y212386D01*
X321018Y212821D01*
X321453Y213472D01*
X321605Y214240D01*
Y256760D01*
X321453Y257528D01*
X321018Y258179D01*
X320367Y258614D01*
X319598Y258767D01*
X313811D01*
X313043Y258614D01*
X312392Y258179D01*
X311957Y257528D01*
X311804Y256760D01*
Y254633D01*
X289402D01*
X288633Y254480D01*
X287982Y254045D01*
X287547Y253394D01*
X287394Y252626D01*
Y239514D01*
X270031D01*
Y246268D01*
X257591D01*
Y245590D01*
X250063D01*
Y242063D01*
X249276Y241880D01*
X248036Y242709D01*
X246500Y243014D01*
X244964Y242709D01*
X243801Y241932D01*
X243014Y242179D01*
Y246837D01*
X247663Y251486D01*
X257500D01*
X259036Y251791D01*
X260338Y252662D01*
X276638Y268961D01*
X277508Y270263D01*
X277813Y271799D01*
Y280004D01*
X284921D01*
Y292996D01*
X277813D01*
Y295637D01*
X299338Y317162D01*
X300209Y318464D01*
X300514Y320000D01*
X300514Y320000D01*
Y327494D01*
X302741Y327937D01*
X304695Y329242D01*
X306000Y331196D01*
X306458Y333500D01*
X306000Y335804D01*
X304695Y337758D01*
X302741Y339063D01*
X300437Y339521D01*
X292563D01*
X290259Y339063D01*
X288305Y337758D01*
X287000Y335804D01*
X286542Y333500D01*
X287000Y331196D01*
X288305Y329242D01*
X290259Y327937D01*
X292486Y327494D01*
Y321663D01*
X270961Y300138D01*
X270091Y298835D01*
X269785Y297299D01*
Y292996D01*
X262677D01*
Y280004D01*
X269785D01*
Y273462D01*
X255837Y259514D01*
X252140D01*
X251902Y260301D01*
X252871Y260949D01*
X253954Y262569D01*
X254334Y264480D01*
X253954Y266391D01*
X252871Y268011D01*
X251251Y269094D01*
X249340Y269474D01*
X248726Y269352D01*
X244949Y273129D01*
X243973Y273781D01*
X242821Y274011D01*
X242820Y274011D01*
X200747D01*
X198011Y276747D01*
Y277697D01*
X199406Y278629D01*
X200450Y280192D01*
X200599Y280938D01*
X201401D01*
X201550Y280192D01*
X202594Y278629D01*
X204157Y277585D01*
X206000Y277219D01*
X207843Y277585D01*
X209406Y278629D01*
X210450Y280192D01*
X210452Y280201D01*
X217240D01*
Y286676D01*
X217822Y286791D01*
X219124Y287662D01*
X221430Y289968D01*
X222300Y291270D01*
X222606Y292806D01*
Y314549D01*
X222300Y316085D01*
X221430Y317387D01*
X220018Y318800D01*
Y320642D01*
X219636Y322562D01*
X218548Y324190D01*
X216920Y325277D01*
X215000Y325659D01*
X213080Y325277D01*
X211452Y324190D01*
X211106Y323672D01*
X209014D01*
Y329500D01*
Y357837D01*
X225663Y374486D01*
X249230D01*
Y372500D01*
X249535Y370964D01*
X249701Y370717D01*
X249701Y368760D01*
X249116Y368270D01*
X248976Y368242D01*
X247413Y367197D01*
X246369Y365635D01*
X246344Y365511D01*
X241509D01*
X240500Y365711D01*
X239271Y365467D01*
X238229Y364771D01*
X237533Y363729D01*
X237289Y362500D01*
X237533Y361271D01*
X238229Y360229D01*
X239271Y359533D01*
X240500Y359289D01*
X241509Y359489D01*
X246310D01*
X246369Y359192D01*
X247413Y357629D01*
X248976Y356585D01*
X250819Y356219D01*
X252662Y356585D01*
X254225Y357629D01*
X255269Y359192D01*
X255418Y359938D01*
X256220D01*
X256369Y359192D01*
X257413Y357629D01*
X258976Y356585D01*
X260819Y356219D01*
X262662Y356585D01*
X264225Y357629D01*
X265269Y359192D01*
X265636Y361035D01*
Y363791D01*
X265269Y365635D01*
X264225Y367197D01*
X263830Y367462D01*
Y370240D01*
X263830Y370240D01*
X263600Y371392D01*
X262948Y372369D01*
X262299Y373018D01*
Y376240D01*
X257258D01*
Y376694D01*
X256953Y378230D01*
X256083Y379532D01*
X254276Y381338D01*
X252974Y382209D01*
X251438Y382514D01*
X224000D01*
X222464Y382209D01*
X221162Y381338D01*
X202162Y362338D01*
X201291Y361036D01*
X200986Y359500D01*
Y332511D01*
X178500D01*
X178500Y332511D01*
X177348Y332281D01*
X176371Y331629D01*
X176371Y331629D01*
X175255Y330512D01*
X174321Y330639D01*
X174295Y330666D01*
X174556Y332650D01*
X174285Y334705D01*
X174100Y335154D01*
X174579Y335778D01*
X175000Y335723D01*
X177313Y336027D01*
X179467Y336920D01*
X181318Y338340D01*
X182738Y340190D01*
X183630Y342345D01*
X183935Y344657D01*
X183630Y346970D01*
X182738Y349125D01*
X181318Y350975D01*
X179467Y352395D01*
X177313Y353288D01*
X175000Y353592D01*
X172687Y353288D01*
X170533Y352395D01*
X168682Y350975D01*
X167262Y349125D01*
X166370Y346970D01*
X166065Y344657D01*
X166370Y342345D01*
X166805Y341294D01*
X166263Y340545D01*
X164559Y340321D01*
X162643Y339528D01*
X160998Y338265D01*
X159736Y336621D01*
X158943Y334705D01*
X158672Y332650D01*
X158943Y330594D01*
X159736Y328679D01*
X160998Y327034D01*
X162643Y325772D01*
X164559Y324978D01*
X166614Y324708D01*
X168598Y324969D01*
X168625Y324943D01*
X168751Y324009D01*
X167003Y322261D01*
X159997D01*
X139629Y342629D01*
X138652Y343281D01*
X137500Y343511D01*
X137500Y343511D01*
X110179D01*
X105373Y348317D01*
X105656Y349148D01*
X107184Y349349D01*
X109219Y350192D01*
X110967Y351533D01*
X112308Y353281D01*
X113151Y355316D01*
X113438Y357500D01*
X113151Y359684D01*
X112308Y361719D01*
X110967Y363467D01*
X109219Y364808D01*
X107184Y365651D01*
X105000Y365938D01*
X102816Y365651D01*
X100781Y364808D01*
X99033Y363467D01*
X97692Y361719D01*
X96849Y359684D01*
X96648Y358155D01*
X95817Y357873D01*
X95202Y358488D01*
X94355Y359054D01*
X93357Y359252D01*
X91840D01*
X91539Y359980D01*
X91780Y360220D01*
X92325Y361037D01*
X92517Y362000D01*
Y367650D01*
X93177Y367957D01*
Y367957D01*
X93965Y368395D01*
X94500Y368289D01*
X95729Y368533D01*
X96771Y369229D01*
X97467Y370271D01*
X97711Y371500D01*
X97467Y372729D01*
X96771Y373771D01*
X95729Y374467D01*
X94500Y374711D01*
X93965Y374605D01*
X93177Y375043D01*
Y375043D01*
X86849D01*
X86548Y375771D01*
X87885Y377107D01*
X87885Y377107D01*
X88537Y378084D01*
X88672Y378760D01*
X89299D01*
Y379489D01*
X95991D01*
X97000Y379289D01*
X98229Y379533D01*
X99271Y380229D01*
X99967Y381271D01*
X100211Y382500D01*
X99967Y383729D01*
X99271Y384771D01*
X98229Y385467D01*
X97000Y385711D01*
X95991Y385511D01*
X89299D01*
Y386240D01*
X76701D01*
Y385017D01*
X75086D01*
X74123Y384825D01*
X73306Y384280D01*
X72720Y383694D01*
X72175Y382877D01*
X71983Y381914D01*
Y376964D01*
X71891Y376500D01*
X71983Y376036D01*
Y370000D01*
X72175Y369037D01*
X72720Y368220D01*
X74961Y365980D01*
X75777Y365435D01*
X76740Y365243D01*
X77823D01*
Y364371D01*
X76701D01*
Y363240D01*
X70631D01*
X69633Y363042D01*
X68786Y362476D01*
X67655Y361345D01*
X67089Y360498D01*
X66891Y359500D01*
Y334609D01*
X64652D01*
X64382Y335397D01*
X64967Y336271D01*
X65211Y337500D01*
X64985Y338637D01*
Y363843D01*
X64756Y364995D01*
X64705Y365071D01*
Y367521D01*
X65934Y367765D01*
X66976Y368461D01*
X67672Y369503D01*
X67916Y370732D01*
X67672Y371961D01*
X66976Y373003D01*
X65934Y373699D01*
X64705Y373943D01*
X63476Y373699D01*
X62572Y373095D01*
X51516D01*
X51516Y373095D01*
Y373095D01*
X51516Y373095D01*
X50807Y373284D01*
X50186Y373699D01*
X48957Y373943D01*
X47728Y373699D01*
X46686Y373003D01*
X45990Y371961D01*
X45746Y370732D01*
X45990Y369503D01*
X46686Y368461D01*
X47728Y367765D01*
X48957Y367521D01*
X50186Y367765D01*
X50729Y368128D01*
X51516Y367707D01*
Y360890D01*
X52562D01*
Y358071D01*
X52000Y357609D01*
X37500D01*
X36502Y357411D01*
X35655Y356845D01*
X25863Y347053D01*
X24939Y347018D01*
X24771Y347271D01*
X23729Y347967D01*
X22500Y348211D01*
X21271Y347967D01*
X20598Y347517D01*
X10737D01*
X10048Y348548D01*
X8420Y349636D01*
X6500Y350018D01*
X4580Y349636D01*
X2952Y348548D01*
X1864Y346920D01*
X1482Y345000D01*
X1864Y343080D01*
X2952Y341452D01*
X4494Y340422D01*
X4540Y340000D01*
X4494Y339579D01*
X2952Y338548D01*
X1864Y336920D01*
X1482Y335000D01*
X1864Y333080D01*
X2952Y331452D01*
X4494Y330421D01*
X4540Y330000D01*
X4494Y329578D01*
X2952Y328548D01*
X1864Y326920D01*
X1482Y325000D01*
X1864Y323080D01*
X2952Y321452D01*
X4580Y320364D01*
X6500Y319982D01*
X8420Y320364D01*
X10048Y321452D01*
X10202Y321682D01*
X10989Y321444D01*
Y306247D01*
X10006Y305264D01*
X9725D01*
X8420Y306136D01*
X6500Y306518D01*
X4580Y306136D01*
X2952Y305048D01*
X1864Y303420D01*
X1482Y301500D01*
X1864Y299580D01*
X2755Y298246D01*
X2155Y297845D01*
X787Y296477D01*
X0Y296803D01*
Y367320D01*
X94Y367413D01*
X51Y369359D01*
X728Y373192D01*
X2139Y376820D01*
X4230Y380103D01*
X6922Y382914D01*
X10111Y385146D01*
X13674Y386714D01*
X17474Y387556D01*
X19419Y387598D01*
X19419Y387598D01*
X400394Y387598D01*
D02*
G37*
G36*
X43548Y351603D02*
X43428Y351000D01*
X43672Y349771D01*
X44368Y348729D01*
X44697Y348510D01*
Y344406D01*
X44889Y343443D01*
X45434Y342626D01*
X48578Y339483D01*
Y337591D01*
X37063D01*
X36839Y338285D01*
Y343941D01*
X31160D01*
X30858Y344668D01*
X38581Y352391D01*
X42906D01*
X43548Y351603D01*
D02*
G37*
G36*
X156621Y317121D02*
X156621Y317121D01*
X157598Y316469D01*
X158750Y316239D01*
X158750Y316239D01*
X162643D01*
Y302445D01*
X161916Y302144D01*
X160742Y303317D01*
X159926Y303863D01*
X158963Y304054D01*
X149215D01*
Y304744D01*
X148971Y305975D01*
X148274Y307018D01*
X147230Y307715D01*
X146000Y307959D01*
X144770Y307715D01*
X143726Y307018D01*
X143029Y305975D01*
X142785Y304744D01*
Y298331D01*
X142527Y298017D01*
X139873D01*
X139215Y298675D01*
Y304744D01*
X138971Y305975D01*
X138274Y307018D01*
X137230Y307715D01*
X136000Y307959D01*
X134770Y307715D01*
X134213Y307343D01*
X133426Y307764D01*
Y309608D01*
X133785Y310146D01*
X134030Y311375D01*
X133785Y312603D01*
X133089Y313645D01*
X132047Y314341D01*
X130818Y314586D01*
X129589Y314341D01*
X128548Y313645D01*
X127851Y312603D01*
X127607Y311375D01*
X127851Y310146D01*
X128392Y309336D01*
Y307885D01*
X127605Y307465D01*
X127230Y307715D01*
X126000Y307959D01*
X124770Y307715D01*
X124397Y307466D01*
X123609Y307886D01*
Y314919D01*
X126352Y317662D01*
X127500Y317434D01*
X129439Y317820D01*
X131082Y318918D01*
X132180Y320561D01*
X132566Y322500D01*
X132180Y324439D01*
X131082Y326082D01*
X129439Y327180D01*
X127500Y327566D01*
X125561Y327180D01*
X123918Y326082D01*
X122938Y324615D01*
X122687Y324556D01*
X122313D01*
X122063Y324615D01*
X121082Y326082D01*
X119439Y327180D01*
X117500Y327566D01*
X115561Y327180D01*
X114429Y326424D01*
X113642Y326845D01*
Y329891D01*
X118268D01*
X118918Y328918D01*
X120561Y327820D01*
X122500Y327434D01*
X124439Y327820D01*
X126082Y328918D01*
X127180Y330561D01*
X127566Y332500D01*
X127180Y334439D01*
X126082Y336082D01*
X125154Y336702D01*
X125393Y337489D01*
X136253D01*
X156621Y317121D01*
D02*
G37*
G36*
X106658Y339652D02*
X106719Y339348D01*
X107371Y338371D01*
X108348Y337719D01*
X109500Y337489D01*
X119607D01*
X119846Y336702D01*
X118918Y336082D01*
X118268Y335109D01*
X112000D01*
X111002Y334911D01*
X110155Y334345D01*
X109188Y333378D01*
X108622Y332531D01*
X108424Y331533D01*
Y306565D01*
X108029Y305975D01*
X107785Y304744D01*
Y298331D01*
X108029Y297100D01*
X108726Y296057D01*
X109770Y295360D01*
X111000Y295115D01*
X112230Y295360D01*
X112696Y295671D01*
X113483Y295250D01*
Y292500D01*
X113675Y291537D01*
X114220Y290720D01*
X116374Y288567D01*
X117190Y288021D01*
X118154Y287830D01*
X149921D01*
Y284384D01*
X149765Y283598D01*
X149921Y282813D01*
Y279913D01*
X165079D01*
Y281445D01*
X165562Y281541D01*
X166539Y282194D01*
X167782Y283437D01*
X168435Y284414D01*
X168664Y285566D01*
X168664Y285566D01*
Y316322D01*
X169402Y316469D01*
X170379Y317121D01*
X179747Y326489D01*
X200986D01*
Y323492D01*
X200364Y322562D01*
X199982Y320642D01*
Y318673D01*
X200364Y316753D01*
X200691Y316264D01*
X200254Y315609D01*
X200000Y315659D01*
X198080Y315277D01*
X196452Y314190D01*
X195364Y312562D01*
X194982Y310642D01*
Y308673D01*
X195364Y306753D01*
X196452Y305125D01*
X196989Y304766D01*
Y302247D01*
X194753Y300011D01*
X180000D01*
X180000Y300011D01*
X178848Y299781D01*
X177871Y299129D01*
X177871Y299129D01*
X175568Y296826D01*
X174915Y295849D01*
X174878Y295661D01*
X174350D01*
Y287197D01*
X173726Y286803D01*
X170610D01*
Y282630D01*
X170561Y282383D01*
X170561Y282383D01*
Y277500D01*
X170561Y277500D01*
X170790Y276348D01*
X171201Y275733D01*
Y273773D01*
X170151D01*
X169188Y273581D01*
X168372Y273036D01*
X159321Y263985D01*
X146723D01*
X146711Y264000D01*
X146467Y265229D01*
X146017Y265902D01*
Y266713D01*
X146430Y267126D01*
X147230Y267285D01*
X148274Y267982D01*
X148971Y269025D01*
X149215Y270256D01*
Y276669D01*
X148971Y277900D01*
X148517Y278579D01*
Y281000D01*
X148325Y281963D01*
X147780Y282780D01*
X144626Y285933D01*
X143810Y286479D01*
X142847Y286670D01*
X106579D01*
Y294587D01*
X100641D01*
X100446Y295374D01*
X100621Y296256D01*
X100420Y297265D01*
Y335813D01*
X101000Y336289D01*
X102229Y336533D01*
X103271Y337229D01*
X103967Y338271D01*
X104211Y339500D01*
X103967Y340729D01*
X103271Y341771D01*
X102229Y342467D01*
X101011Y342709D01*
Y343000D01*
X100781Y344152D01*
X100252Y344945D01*
X100864Y345446D01*
X106658Y339652D01*
D02*
G37*
G36*
X59551Y320240D02*
Y318272D01*
Y316303D01*
Y314335D01*
Y312366D01*
Y310398D01*
Y310347D01*
X46638D01*
Y310398D01*
Y312366D01*
Y314335D01*
Y316303D01*
Y318272D01*
Y320240D01*
Y321618D01*
X48280Y323260D01*
X59551D01*
Y320240D01*
D02*
G37*
G36*
X25563Y316910D02*
X38937D01*
X39158Y316213D01*
Y312366D01*
Y308429D01*
X44721D01*
Y302866D01*
X49409D01*
Y297654D01*
X45246D01*
X44600Y298441D01*
X44711Y299000D01*
X44467Y300229D01*
X43771Y301271D01*
X42729Y301967D01*
X41500Y302211D01*
X40271Y301967D01*
X39864Y301695D01*
X37517Y304043D01*
Y308000D01*
X37325Y308963D01*
X36780Y309780D01*
X34280Y312280D01*
X33463Y312825D01*
X32500Y313017D01*
X24500D01*
X23537Y312825D01*
X22720Y312280D01*
X20220Y309780D01*
X19675Y308963D01*
X19483Y308000D01*
Y304161D01*
X18850D01*
Y298609D01*
X12104D01*
X12027Y299397D01*
X12405Y299472D01*
X13382Y300125D01*
X16129Y302871D01*
X16129Y302871D01*
X16781Y303848D01*
X17011Y305000D01*
X17011Y305000D01*
Y317910D01*
X25563D01*
Y316910D01*
D02*
G37*
G36*
X83409Y294467D02*
X77701D01*
Y292197D01*
X69669D01*
X69017Y292523D01*
Y296957D01*
X71326Y299267D01*
X83409D01*
Y294467D01*
D02*
G37*
G36*
X189025Y293202D02*
X184662Y288838D01*
X183791Y287536D01*
X183486Y286000D01*
Y279871D01*
X176909D01*
Y286803D01*
X177534Y287197D01*
X180650D01*
Y291335D01*
X180708Y291626D01*
X180707Y291626D01*
Y293450D01*
X181247Y293989D01*
X188832D01*
X189025Y293202D01*
D02*
G37*
G36*
X10891Y287796D02*
Y286500D01*
X11089Y285502D01*
X11655Y284655D01*
X14155Y282155D01*
X15001Y281589D01*
X15201Y281550D01*
Y280260D01*
X20713D01*
Y273760D01*
X27799D01*
X27832Y272986D01*
Y269559D01*
X28030Y268561D01*
X28596Y267714D01*
X29488Y266822D01*
X29228Y265968D01*
X28649Y265853D01*
X27419Y265031D01*
X26597Y263801D01*
X26309Y262350D01*
Y258850D01*
X26597Y257399D01*
X27419Y256169D01*
X27491Y256121D01*
Y253400D01*
X27689Y252401D01*
X28255Y251555D01*
X30155Y249655D01*
X31001Y249089D01*
X32000Y248891D01*
X51736D01*
X52271Y248533D01*
X53500Y248289D01*
X54729Y248533D01*
X55771Y249229D01*
X56467Y250271D01*
X56711Y251500D01*
X56467Y252729D01*
X55771Y253771D01*
X54987Y254294D01*
X55046Y254697D01*
X55224Y255083D01*
X56551Y255347D01*
X56839Y255540D01*
X57533Y255168D01*
Y248977D01*
X57033Y248229D01*
X56789Y247000D01*
X57033Y245771D01*
X57729Y244729D01*
X58771Y244033D01*
X60000Y243789D01*
X61229Y244033D01*
X61933Y244504D01*
X62500Y244664D01*
X63067Y244504D01*
X63771Y244033D01*
X65000Y243789D01*
X66229Y244033D01*
X67271Y244729D01*
X67967Y245771D01*
X68211Y247000D01*
X67967Y248229D01*
X67567Y248828D01*
Y255123D01*
X68354Y255544D01*
X68649Y255347D01*
X70100Y255059D01*
X71551Y255347D01*
X72600Y256048D01*
X73649Y255347D01*
X75100Y255059D01*
X75293Y255097D01*
X80670Y249720D01*
X81487Y249175D01*
X82450Y248983D01*
X95313D01*
X95813Y248375D01*
X95659Y247600D01*
X95947Y246149D01*
X96648Y245100D01*
X95947Y244051D01*
X95659Y242600D01*
X95947Y241149D01*
X96648Y240100D01*
X95947Y239051D01*
X95659Y237600D01*
X95947Y236149D01*
X96648Y235100D01*
X95947Y234051D01*
X95659Y232600D01*
X95947Y231149D01*
X96648Y230100D01*
X95947Y229051D01*
X95659Y227600D01*
X95947Y226149D01*
X96648Y225100D01*
X95947Y224051D01*
X95659Y222600D01*
X95947Y221149D01*
X96648Y220100D01*
X95947Y219051D01*
X95659Y217600D01*
X95947Y216149D01*
X96648Y215100D01*
X95947Y214051D01*
X95659Y212600D01*
X95947Y211149D01*
X96769Y209919D01*
X97999Y209097D01*
X99450Y208809D01*
X102950D01*
X103035Y208825D01*
X105635Y206225D01*
X105133Y205614D01*
X104401Y206103D01*
X102950Y206391D01*
X99450D01*
X97999Y206103D01*
X96769Y205281D01*
X95947Y204051D01*
X95659Y202600D01*
X95947Y201149D01*
X96769Y199919D01*
X97999Y199097D01*
X98591Y198979D01*
Y197609D01*
X93358D01*
X92859Y198218D01*
X93014Y199000D01*
Y217694D01*
X92709Y219230D01*
X91838Y220532D01*
X89532Y222838D01*
X88230Y223709D01*
X86694Y224014D01*
X79000D01*
X77464Y223709D01*
X76162Y222838D01*
X69337Y216014D01*
X56500D01*
X56500Y216014D01*
X54964Y215709D01*
X53662Y214838D01*
X46337Y207514D01*
X34000D01*
X34000Y207514D01*
X32464Y207209D01*
X31162Y206338D01*
X29417Y204594D01*
X28547Y203292D01*
X28242Y201756D01*
X28547Y200220D01*
X28793Y199852D01*
X25283Y196342D01*
X24737Y195526D01*
X24546Y194563D01*
Y192678D01*
X22727Y190860D01*
X22000Y191161D01*
Y260500D01*
X0D01*
Y280792D01*
X787Y281118D01*
X1347Y280559D01*
X1719Y280310D01*
X1864Y279580D01*
X2952Y277952D01*
X4580Y276864D01*
X6500Y276482D01*
X8420Y276864D01*
X10048Y277952D01*
X11136Y279580D01*
X11518Y281500D01*
X11136Y283420D01*
X10048Y285048D01*
X8506Y286079D01*
X8460Y286500D01*
X8506Y286922D01*
X10048Y287952D01*
X10103Y288035D01*
X10891Y287796D01*
D02*
G37*
G36*
X65586Y282355D02*
X68720Y279220D01*
X69537Y278675D01*
X70500Y278483D01*
X85457D01*
X85909Y278031D01*
Y272063D01*
X87118D01*
Y270208D01*
X86424Y269837D01*
X86229Y269967D01*
X85000Y270211D01*
X83771Y269967D01*
X83098Y269517D01*
X74750D01*
X73787Y269325D01*
X72970Y268780D01*
X70293Y266103D01*
X70100Y266141D01*
X68649Y265853D01*
X67600Y265152D01*
X66551Y265853D01*
X65100Y266141D01*
X63649Y265853D01*
X62600Y265152D01*
X61551Y265853D01*
X60100Y266141D01*
X58649Y265853D01*
X57600Y265152D01*
X56551Y265853D01*
X55100Y266141D01*
X53649Y265853D01*
X52600Y265152D01*
X51551Y265853D01*
X50703Y266021D01*
X50340Y266896D01*
X50411Y267002D01*
X50609Y268000D01*
Y269169D01*
X52331D01*
Y270957D01*
X52999Y271089D01*
X53845Y271655D01*
X64508Y282319D01*
X65465Y282404D01*
X65586Y282355D01*
D02*
G37*
G36*
X112785Y276669D02*
Y270256D01*
X113029Y269025D01*
X113483Y268346D01*
Y267543D01*
X113066Y267125D01*
X112271Y266967D01*
X111598Y266517D01*
X100158D01*
X98517Y268158D01*
Y276707D01*
X112754D01*
X112785Y276669D01*
D02*
G37*
G36*
X172641Y268012D02*
X171662Y267032D01*
X170791Y265730D01*
X170486Y264194D01*
Y254500D01*
X170764Y253102D01*
X170350Y252315D01*
X164650D01*
Y240504D01*
X171368D01*
X171867Y239895D01*
X171789Y239500D01*
X172033Y238271D01*
X172729Y237229D01*
X173668Y236602D01*
X173353Y236131D01*
X173047Y234594D01*
Y232439D01*
X173353Y230903D01*
X174007Y229924D01*
X173608Y229136D01*
X164650D01*
Y217325D01*
X174099D01*
Y219369D01*
X176000D01*
X176388Y219446D01*
X180112D01*
Y225856D01*
X181490D01*
Y219446D01*
X181769D01*
X182413Y218483D01*
X183566Y217330D01*
X183566Y217330D01*
X184543Y216677D01*
X185695Y216448D01*
X194019D01*
Y211257D01*
X200385D01*
Y204500D01*
X200691Y202964D01*
X201561Y201662D01*
X202863Y200791D01*
X204399Y200486D01*
X213632D01*
Y198732D01*
X213486Y198000D01*
X213791Y196464D01*
X214329Y195659D01*
X213909Y194871D01*
X205357D01*
X205357Y194871D01*
X203821Y194566D01*
X202519Y193696D01*
X184662Y175838D01*
X183791Y174536D01*
X183486Y173000D01*
Y147217D01*
X157572Y121303D01*
X156845Y121604D01*
Y124155D01*
X178345Y145655D01*
X178911Y146502D01*
X179109Y147500D01*
Y158000D01*
X178911Y158999D01*
X178345Y159845D01*
X168723Y169467D01*
X167876Y170033D01*
X167582Y170091D01*
X167448Y170823D01*
X167448D01*
Y178303D01*
X164332D01*
X163707Y178697D01*
Y186177D01*
X161779D01*
X161571Y186488D01*
X159780Y188280D01*
X158963Y188825D01*
X158000Y189017D01*
X140042D01*
X139517Y189542D01*
Y197500D01*
X139325Y198463D01*
X138780Y199280D01*
X126017Y212042D01*
Y214500D01*
X125825Y215463D01*
X125280Y216280D01*
X123324Y218235D01*
Y245693D01*
X123132Y246656D01*
X122587Y247473D01*
X116059Y254000D01*
X121011Y258952D01*
X144857D01*
X145356Y258343D01*
X145336Y258240D01*
X145336Y258240D01*
Y257437D01*
X144410D01*
Y251229D01*
X143063D01*
Y251229D01*
X137102D01*
Y246770D01*
X136800Y246601D01*
X136013Y247063D01*
Y255921D01*
X127351D01*
Y246943D01*
X127213D01*
Y237494D01*
X134987D01*
X135291Y235964D01*
X136162Y234662D01*
X137464Y233791D01*
X139000Y233486D01*
X140536Y233791D01*
X141838Y234662D01*
X142709Y235964D01*
X143014Y237500D01*
Y238061D01*
X150473D01*
X152009Y238367D01*
X153311Y239237D01*
X154579Y240504D01*
X158351D01*
Y252315D01*
X151299D01*
Y253701D01*
X151357Y253992D01*
X151357Y253992D01*
Y256858D01*
X151967Y257771D01*
X152202Y258952D01*
X160364D01*
X161327Y259143D01*
X162144Y259689D01*
X171194Y268739D01*
X172340D01*
X172641Y268012D01*
D02*
G37*
G36*
X180857Y261877D02*
X180789Y261535D01*
X181033Y260308D01*
X180229Y259771D01*
X179533Y258729D01*
X179289Y257500D01*
X179533Y256271D01*
X180229Y255229D01*
X181271Y254533D01*
X182500Y254289D01*
X183729Y254533D01*
X183986Y254705D01*
X184348Y254463D01*
X185260Y254281D01*
Y253701D01*
X192740D01*
Y254234D01*
X200009D01*
X202305Y251938D01*
X201550Y250808D01*
X201183Y248965D01*
Y246209D01*
X201550Y244365D01*
X202120Y243512D01*
X201699Y242724D01*
X200126D01*
Y238591D01*
X197799D01*
X197508Y238648D01*
X197508Y238648D01*
X195670D01*
X187593Y246726D01*
Y250342D01*
X181490D01*
Y243541D01*
X180780Y242934D01*
X180172Y243024D01*
X180112Y243112D01*
Y250342D01*
X176782D01*
X176543Y251130D01*
X177338Y251662D01*
X178209Y252964D01*
X178514Y254500D01*
Y262486D01*
X180357D01*
X180857Y261877D01*
D02*
G37*
G36*
X319598Y214240D02*
X313811D01*
Y218374D01*
X289402D01*
Y252626D01*
X313811D01*
Y256760D01*
X319598D01*
Y214240D01*
D02*
G37*
G36*
X73649Y184447D02*
X75100Y184159D01*
X76266Y184391D01*
X76867Y183914D01*
X76945Y183784D01*
X76789Y183000D01*
X77033Y181771D01*
X77729Y180729D01*
X78771Y180033D01*
X80000Y179789D01*
X80673Y179923D01*
X81461Y179313D01*
Y172661D01*
X84489D01*
Y170646D01*
X80111D01*
Y167514D01*
X79500D01*
X77964Y167209D01*
X76662Y166338D01*
X75791Y165036D01*
X75486Y163500D01*
X75791Y161964D01*
X76662Y160662D01*
X77964Y159791D01*
X79500Y159486D01*
X80111D01*
Y157354D01*
X82397D01*
X82818Y156567D01*
X82352Y155869D01*
X82092Y154563D01*
Y150232D01*
X82352Y148927D01*
X83091Y147820D01*
X84198Y147080D01*
X85504Y146820D01*
X86810Y147080D01*
X87917Y147820D01*
X88656Y148927D01*
X88916Y150232D01*
Y154563D01*
X88656Y155869D01*
X88190Y156567D01*
X88611Y157354D01*
X90271D01*
X90692Y156567D01*
X90226Y155869D01*
X89966Y154563D01*
Y150232D01*
X90226Y148927D01*
X90965Y147820D01*
X92072Y147080D01*
X93378Y146820D01*
X94684Y147080D01*
X95346Y147523D01*
X96009Y147080D01*
X97315Y146820D01*
X98621Y147080D01*
X99728Y147820D01*
X100467Y148927D01*
X100727Y150232D01*
Y154563D01*
X100516Y155625D01*
Y161563D01*
Y169437D01*
X93626D01*
Y168511D01*
X92739D01*
Y170646D01*
X90511D01*
Y174102D01*
X90511Y174102D01*
X90281Y175254D01*
X89629Y176231D01*
X89629Y176231D01*
X88941Y176919D01*
Y179069D01*
X90988D01*
X91271Y178880D01*
X92500Y178635D01*
X93729Y178880D01*
X94771Y179576D01*
X95467Y180617D01*
X95520Y180884D01*
X97217D01*
X97271Y180848D01*
X98500Y180604D01*
X98875Y180678D01*
X99263Y179953D01*
X96403Y177093D01*
X95771Y176967D01*
X94729Y176271D01*
X94033Y175229D01*
X93789Y174000D01*
X94033Y172771D01*
X94729Y171729D01*
X95771Y171033D01*
X97000Y170789D01*
X98229Y171033D01*
X99271Y171729D01*
X99967Y172771D01*
X100092Y173403D01*
X103695Y177005D01*
X104422Y176704D01*
Y165549D01*
X104621Y164550D01*
X105186Y163704D01*
X105891Y163000D01*
Y161264D01*
X105533Y160729D01*
X105289Y159500D01*
X105442Y158728D01*
X105393Y158581D01*
X104909Y157935D01*
X104863Y157910D01*
X103883Y157715D01*
X102776Y156976D01*
X102037Y155869D01*
X101777Y154563D01*
Y150232D01*
X102037Y148927D01*
X102776Y147820D01*
X103883Y147080D01*
X105189Y146820D01*
X106495Y147080D01*
X107158Y147523D01*
X107820Y147080D01*
X109126Y146820D01*
X110432Y147080D01*
X111094Y147523D01*
X111757Y147080D01*
X113063Y146820D01*
X114369Y147080D01*
X115032Y147523D01*
X115694Y147080D01*
X117000Y146820D01*
X118306Y147080D01*
X118968Y147523D01*
X119631Y147080D01*
X120937Y146820D01*
X122243Y147080D01*
X122906Y147523D01*
X123568Y147080D01*
X124874Y146820D01*
X126180Y147080D01*
X126843Y147523D01*
X127505Y147080D01*
X128811Y146820D01*
X130117Y147080D01*
X130780Y147523D01*
X131442Y147080D01*
X132748Y146820D01*
X134054Y147080D01*
X134717Y147523D01*
X135379Y147080D01*
X136685Y146820D01*
X137991Y147080D01*
X138654Y147523D01*
X139316Y147080D01*
X140622Y146820D01*
X141928Y147080D01*
X142591Y147523D01*
X143253Y147080D01*
X144559Y146820D01*
X145865Y147080D01*
X146528Y147523D01*
X147190Y147080D01*
X148496Y146820D01*
X149802Y147080D01*
X150465Y147523D01*
X151127Y147080D01*
X152433Y146820D01*
X153739Y147080D01*
X154402Y147523D01*
X155064Y147080D01*
X156370Y146820D01*
X157676Y147080D01*
X158339Y147523D01*
X159001Y147080D01*
X160307Y146820D01*
X161613Y147080D01*
X162276Y147523D01*
X162938Y147080D01*
X164244Y146820D01*
X165550Y147080D01*
X166213Y147523D01*
X166876Y147080D01*
X167627Y146931D01*
X167886Y146076D01*
X152742Y130931D01*
X152014Y131233D01*
Y131500D01*
X151709Y133036D01*
X150838Y134338D01*
X149536Y135209D01*
X148000Y135514D01*
X93663D01*
X71808Y157369D01*
X70506Y158239D01*
X68970Y158545D01*
X56632D01*
X49614Y165563D01*
X50000Y166289D01*
X51229Y166533D01*
X52271Y167229D01*
X52967Y168271D01*
X53125Y169065D01*
X56880Y172820D01*
X57425Y173637D01*
X57617Y174600D01*
Y184302D01*
X58311Y184673D01*
X58649Y184447D01*
X60100Y184159D01*
X61551Y184447D01*
X62600Y185148D01*
X63649Y184447D01*
X65100Y184159D01*
X66551Y184447D01*
X67600Y185148D01*
X68649Y184447D01*
X70100Y184159D01*
X71551Y184447D01*
X72600Y185148D01*
X73649Y184447D01*
D02*
G37*
G36*
X39871Y195196D02*
X38649Y194953D01*
X37419Y194131D01*
X36597Y192901D01*
X36309Y191450D01*
Y190053D01*
X36213Y189573D01*
Y183127D01*
X36340Y182488D01*
Y177500D01*
X36486Y176768D01*
Y170571D01*
X35708D01*
X35084Y171358D01*
X35211Y172000D01*
X34967Y173229D01*
X34271Y174271D01*
X33229Y174967D01*
X32000Y175211D01*
X30771Y174967D01*
X29729Y174271D01*
X29158Y173415D01*
X26371Y170629D01*
X25622Y170555D01*
X23841Y172336D01*
X24143Y173063D01*
X25799D01*
Y179063D01*
Y186475D01*
X26587Y186553D01*
X26597Y186499D01*
X27419Y185269D01*
X28649Y184447D01*
X30100Y184159D01*
X31551Y184447D01*
X32781Y185269D01*
X33603Y186499D01*
X33891Y187950D01*
Y191450D01*
X33603Y192901D01*
X32781Y194131D01*
X32050Y194619D01*
X31924Y195459D01*
X32378Y195983D01*
X39793D01*
X39871Y195196D01*
D02*
G37*
G36*
X18910Y180937D02*
X17033D01*
X16646Y181014D01*
X16258Y180937D01*
X13201D01*
Y178931D01*
X12937Y178536D01*
X12632Y177000D01*
Y173854D01*
X12937Y172318D01*
X13807Y171016D01*
X24162Y160662D01*
X25464Y159791D01*
X27000Y159486D01*
X32010D01*
Y156429D01*
X44638D01*
Y158157D01*
X45365Y158458D01*
X50082Y153742D01*
X49780Y153014D01*
X23806D01*
X22270Y152709D01*
X20968Y151838D01*
X18662Y149532D01*
X17791Y148230D01*
X17486Y146694D01*
Y143640D01*
X17035Y143410D01*
X16699Y143361D01*
X6017Y154042D01*
Y176458D01*
X13970Y184410D01*
X18910D01*
Y180937D01*
D02*
G37*
G36*
X57289Y144500D02*
X57533Y143271D01*
X58229Y142229D01*
X59271Y141533D01*
X60324Y141324D01*
X60533Y140271D01*
X61229Y139229D01*
X61565Y139005D01*
X61745Y137937D01*
X61641Y137799D01*
X58799D01*
Y138240D01*
X52768D01*
Y142760D01*
X46232D01*
Y138240D01*
X46201D01*
Y137799D01*
X42039D01*
Y138437D01*
X37905D01*
X37791Y139008D01*
X37356Y139659D01*
X36705Y140094D01*
X35937Y140247D01*
X26882D01*
X26302Y140132D01*
X25514Y140569D01*
Y144986D01*
X56890D01*
X57289Y144500D01*
D02*
G37*
G36*
X82983Y127457D02*
Y53672D01*
X82196Y53073D01*
X81500Y53211D01*
X80271Y52967D01*
X79229Y52271D01*
X78533Y51229D01*
X78523Y51178D01*
X50131Y22786D01*
X49079Y22996D01*
X46967Y22576D01*
X45176Y21379D01*
X44234Y19970D01*
X43447Y20209D01*
Y30067D01*
X43142Y31603D01*
X42271Y32905D01*
X41655Y33521D01*
Y45646D01*
X33531D01*
X25514Y53663D01*
Y106169D01*
X27010D01*
X27701Y105937D01*
Y98063D01*
X40299D01*
Y99483D01*
X41500D01*
X42463Y99675D01*
X43280Y100220D01*
X44780Y101720D01*
X45325Y102537D01*
X45517Y103500D01*
X45867Y103850D01*
X47303Y103850D01*
X47697Y103226D01*
Y100110D01*
X47697D01*
X47406Y99443D01*
X45053D01*
Y91569D01*
X51942D01*
Y91760D01*
X57251D01*
X57655Y91155D01*
X59675Y89135D01*
X60521Y88570D01*
X61346Y88406D01*
X61520Y88371D01*
X61924Y87584D01*
X61816Y87043D01*
X62076Y85738D01*
X62519Y85075D01*
X62076Y84412D01*
X61816Y83106D01*
X62076Y81801D01*
X62519Y81138D01*
X62076Y80475D01*
X61816Y79169D01*
X62076Y77864D01*
X62519Y77201D01*
X62076Y76538D01*
X61816Y75232D01*
X62076Y73927D01*
X62519Y73264D01*
X62076Y72601D01*
X61816Y71295D01*
X62076Y69990D01*
X62816Y68883D01*
X63923Y68143D01*
X65228Y67883D01*
X69559D01*
X70865Y68143D01*
X71972Y68883D01*
X72711Y69990D01*
X72971Y71295D01*
X72711Y72601D01*
X72268Y73264D01*
X72711Y73927D01*
X72971Y75232D01*
X72711Y76538D01*
X72268Y77201D01*
X72711Y77864D01*
X72971Y79169D01*
X72711Y80475D01*
X72268Y81138D01*
X72711Y81801D01*
X72971Y83106D01*
X72711Y84412D01*
X72268Y85075D01*
X72711Y85738D01*
X72971Y87043D01*
X72711Y88349D01*
X72268Y89012D01*
X72711Y89675D01*
X72971Y90980D01*
X72711Y92286D01*
X72268Y92949D01*
X72711Y93612D01*
X72971Y94917D01*
X72711Y96223D01*
X72268Y96886D01*
X72711Y97549D01*
X72971Y98854D01*
X72711Y100160D01*
X72268Y100823D01*
X72711Y101486D01*
X72971Y102791D01*
X72711Y104097D01*
X72268Y104760D01*
X72711Y105423D01*
X72971Y106728D01*
X72711Y108034D01*
X72268Y108697D01*
X72711Y109360D01*
X72971Y110665D01*
X72711Y111971D01*
X72268Y112634D01*
X72711Y113297D01*
X72971Y114602D01*
X72711Y115908D01*
X72268Y116571D01*
X72711Y117234D01*
X72971Y118539D01*
X72711Y119845D01*
X71972Y120952D01*
X70865Y121692D01*
X69559Y121951D01*
X65228D01*
X63923Y121692D01*
X62816Y120952D01*
X62076Y119845D01*
X61816Y118539D01*
X62076Y117234D01*
X62519Y116571D01*
X62076Y115908D01*
X61816Y114602D01*
X62076Y113297D01*
X62519Y112634D01*
X62076Y111971D01*
X61816Y110665D01*
X62076Y109360D01*
X62519Y108697D01*
X62076Y108034D01*
X61816Y106728D01*
X62076Y105423D01*
X62519Y104760D01*
X62076Y104097D01*
X61816Y102791D01*
X62076Y101486D01*
X62519Y100823D01*
X62076Y100160D01*
X61893Y99240D01*
X55704D01*
Y100110D01*
X56161D01*
Y106409D01*
X48091D01*
X47697Y106409D01*
X47303Y107034D01*
Y110150D01*
X38839D01*
Y106706D01*
X38752Y106644D01*
X37965Y107048D01*
Y114831D01*
X25514D01*
Y128431D01*
X26302Y128868D01*
X26882Y128753D01*
X35937D01*
X36705Y128905D01*
X37356Y129341D01*
X37791Y129992D01*
X37905Y130563D01*
X42039D01*
Y130910D01*
X46201D01*
Y130760D01*
X58799D01*
Y130910D01*
X64437D01*
Y130909D01*
X64558Y131009D01*
X65228Y130876D01*
X69559D01*
X70865Y131135D01*
X71972Y131875D01*
X72711Y132982D01*
X72971Y134288D01*
X72711Y135593D01*
X71972Y136700D01*
X70865Y137440D01*
X69559Y137699D01*
X65228D01*
X65224Y137699D01*
X65071Y137860D01*
X65212Y138856D01*
X65402Y138983D01*
X71457D01*
X82983Y127457D01*
D02*
G37*
G36*
X188426Y139689D02*
X188289Y139000D01*
X188533Y137771D01*
X189229Y136729D01*
X190271Y136033D01*
X191500Y135789D01*
X192729Y136033D01*
X193771Y136729D01*
X194467Y137771D01*
X194561Y138246D01*
X195416Y138505D01*
X206260Y127661D01*
Y122287D01*
X201740D01*
Y122787D01*
X195626D01*
X195443Y123705D01*
X195004Y124362D01*
X195553Y125185D01*
X195798Y126413D01*
X195553Y127642D01*
X195049Y128398D01*
X195532Y129121D01*
X195777Y130350D01*
X195532Y131579D01*
X194836Y132621D01*
X193795Y133317D01*
X192566Y133562D01*
X191337Y133317D01*
X190688Y132884D01*
X189762Y133503D01*
X188457Y133762D01*
X184126D01*
X182820Y133503D01*
X181713Y132763D01*
X180974Y131656D01*
X180714Y130350D01*
X180974Y129045D01*
X181417Y128382D01*
X180974Y127719D01*
X180714Y126413D01*
X180974Y125108D01*
X181417Y124445D01*
X180974Y123782D01*
X180714Y122476D01*
X180974Y121171D01*
X181417Y120508D01*
X180974Y119845D01*
X180714Y118539D01*
X180974Y117234D01*
X181417Y116571D01*
X180974Y115908D01*
X180714Y114602D01*
X180838Y113979D01*
X180192Y113192D01*
X165640D01*
X165229Y113467D01*
X164000Y113711D01*
X163426Y113597D01*
X162817Y114097D01*
Y115194D01*
X187700Y140077D01*
X188426Y139689D01*
D02*
G37*
G36*
X200220Y109220D02*
X201037Y108675D01*
X202000Y108483D01*
X205701D01*
Y107260D01*
X211513D01*
X211982Y106473D01*
X211789Y105500D01*
X212033Y104271D01*
X212729Y103229D01*
X212769Y102828D01*
X210220Y100280D01*
X209675Y99463D01*
X209483Y98500D01*
Y66105D01*
X208756Y65804D01*
X205421Y69138D01*
X204605Y69684D01*
X203642Y69875D01*
X190714D01*
X189762Y70511D01*
X188457Y70770D01*
X184126D01*
X182820Y70511D01*
X181713Y69771D01*
X180974Y68664D01*
X180714Y67358D01*
X180974Y66053D01*
X181417Y65390D01*
X180974Y64727D01*
X180714Y63421D01*
X180974Y62116D01*
X181713Y61009D01*
X182820Y60269D01*
X184126Y60009D01*
X188457D01*
X189762Y60269D01*
X190714Y60904D01*
X202036D01*
X203483Y59457D01*
Y32878D01*
X202696Y32232D01*
X202618Y32247D01*
X193563D01*
X192795Y32094D01*
X192144Y31659D01*
X191709Y31008D01*
X191595Y30437D01*
X187461D01*
Y29188D01*
X175437D01*
Y29299D01*
X171681D01*
X171356Y29907D01*
X171345Y30087D01*
X171593Y31335D01*
Y35665D01*
X171334Y36971D01*
X170594Y38078D01*
X169487Y38818D01*
X168181Y39077D01*
X166876Y38818D01*
X165769Y38078D01*
X165029Y36971D01*
X164769Y35665D01*
Y31335D01*
X164244Y30699D01*
X163719Y31334D01*
X163719Y31338D01*
Y35665D01*
X163459Y36971D01*
X162720Y38078D01*
X161613Y38818D01*
X160307Y39077D01*
X159001Y38818D01*
X157894Y38078D01*
X157155Y36971D01*
X156895Y35665D01*
Y31335D01*
X157143Y30087D01*
X157137Y29985D01*
X156861Y29299D01*
X152108D01*
X151665Y30002D01*
X151660Y30087D01*
X151908Y31335D01*
Y35665D01*
X151648Y36971D01*
X150909Y38078D01*
X149802Y38818D01*
X148496Y39077D01*
X147190Y38818D01*
X146528Y38375D01*
X145865Y38818D01*
X144559Y39077D01*
X143253Y38818D01*
X142591Y38375D01*
X141928Y38818D01*
X140622Y39077D01*
X139316Y38818D01*
X138654Y38375D01*
X137991Y38818D01*
X136685Y39077D01*
X135379Y38818D01*
X134717Y38375D01*
X134054Y38818D01*
X133583Y38911D01*
X133355Y39665D01*
X138581Y44891D01*
X144766D01*
X145409Y44103D01*
X145289Y43500D01*
X145533Y42271D01*
X146229Y41229D01*
X147271Y40533D01*
X148500Y40289D01*
X149729Y40533D01*
X149868Y40626D01*
X153544D01*
X154542Y40825D01*
X155389Y41391D01*
X156080Y42082D01*
X156646Y42929D01*
X156845Y43927D01*
Y58895D01*
X157632Y59416D01*
X158803Y59183D01*
X160339Y59488D01*
X161642Y60358D01*
X162512Y61661D01*
X162817Y63197D01*
Y106903D01*
X163426Y107403D01*
X164000Y107289D01*
X165229Y107533D01*
X165888Y107974D01*
X182131D01*
X182820Y107513D01*
X184126Y107253D01*
X188457D01*
X189762Y107513D01*
X190200Y107806D01*
X192470D01*
X192470Y107805D01*
X192992Y107910D01*
X197437D01*
Y110975D01*
X198164Y111276D01*
X200220Y109220D01*
D02*
G37*
G36*
X308982Y186956D02*
X309168Y186832D01*
X310332Y185668D01*
X310456Y185482D01*
X310500Y185263D01*
Y156237D01*
X310456Y156018D01*
X310332Y155832D01*
X294000Y139500D01*
X294004Y138497D01*
X294055Y125148D01*
X294151Y100374D01*
X294132Y100275D01*
X294132Y100144D01*
X294051Y100040D01*
X294005Y99951D01*
X288594Y93118D01*
X288588Y93114D01*
X288491Y93018D01*
X288356Y93002D01*
X288349Y93000D01*
X266402D01*
X266000Y93402D01*
X266000Y96791D01*
X266047Y97028D01*
X278590D01*
X281500Y100137D01*
Y109500D01*
Y121500D01*
X277620Y125380D01*
X271168Y131832D01*
X271044Y132018D01*
X271000Y132237D01*
X271000Y161989D01*
Y170725D01*
Y186763D01*
X271039Y186961D01*
X271237Y187000D01*
X308763D01*
X308982Y186956D01*
D02*
G37*
G36*
X246875Y82286D02*
X246875Y82286D01*
X246993Y82169D01*
Y47595D01*
X246266Y47294D01*
X242780Y50780D01*
X241963Y51325D01*
X241000Y51517D01*
X224000D01*
X223037Y51325D01*
X222220Y50780D01*
X220220Y48780D01*
X219736Y48055D01*
X217807D01*
Y42347D01*
X211307D01*
X211017Y43014D01*
Y53364D01*
X211626Y53863D01*
X212000Y53789D01*
X213229Y54033D01*
X214271Y54729D01*
X214967Y55771D01*
X215078Y56330D01*
X215260Y56993D01*
X215933Y56901D01*
X216500Y56789D01*
X217092Y56906D01*
X217701Y56407D01*
Y56260D01*
X224787D01*
Y61760D01*
X230299D01*
Y67260D01*
Y70582D01*
X230717Y71197D01*
X233832D01*
X234457Y70803D01*
X234457Y70410D01*
Y68846D01*
X234291Y68599D01*
X233986Y67063D01*
Y61000D01*
X234291Y59464D01*
X235162Y58162D01*
X236464Y57291D01*
X238000Y56986D01*
X239536Y57291D01*
X240838Y58162D01*
X241709Y59464D01*
X242014Y61000D01*
Y67063D01*
X241709Y68599D01*
X241543Y68846D01*
Y70803D01*
X239377D01*
X238500Y70978D01*
X237984Y71140D01*
X237803Y71841D01*
Y78677D01*
X238410Y79112D01*
X239366D01*
X240000Y78986D01*
X241536Y79291D01*
X242838Y80162D01*
X243709Y81464D01*
X244014Y83000D01*
X243757Y84291D01*
X243859Y84387D01*
X244483Y84679D01*
X246875Y82286D01*
D02*
G37*
G36*
X334891Y41672D02*
Y40000D01*
X335089Y39002D01*
X335655Y38155D01*
X335921Y37889D01*
X335620Y37161D01*
X333591D01*
Y30609D01*
X330500D01*
X329502Y30411D01*
X328655Y29845D01*
X327397Y28587D01*
X326610Y28787D01*
Y28787D01*
X320965D01*
Y34299D01*
X321715Y34391D01*
X325500D01*
X326499Y34589D01*
X327345Y35155D01*
X334163Y41973D01*
X334891Y41672D01*
D02*
G37*
G36*
X342720Y40220D02*
X343537Y39675D01*
X344500Y39483D01*
X360536D01*
X361000Y39391D01*
X365919D01*
X367421Y37889D01*
X367120Y37161D01*
X365212D01*
Y31109D01*
X363000D01*
X362001Y30911D01*
X361155Y30345D01*
X359032Y28222D01*
X358245Y28548D01*
Y28787D01*
X352584D01*
Y34299D01*
X345104D01*
Y33273D01*
X344897Y33136D01*
X344109Y33558D01*
Y36000D01*
X343911Y36999D01*
X343345Y37845D01*
X340115Y41075D01*
X340183Y41781D01*
X340880Y42060D01*
X342720Y40220D01*
D02*
G37*
G36*
X304091Y31109D02*
X302000D01*
X301002Y30911D01*
X300155Y30345D01*
X298027Y28218D01*
X297240Y28544D01*
Y28787D01*
X291740D01*
Y34299D01*
X285017D01*
Y36483D01*
X304091D01*
Y31109D01*
D02*
G37*
G36*
X281511Y41122D02*
X281606Y40665D01*
X280720Y39780D01*
X280175Y38963D01*
X279983Y38000D01*
Y36661D01*
X275591D01*
Y31109D01*
X273500D01*
X272501Y30911D01*
X271655Y30345D01*
X269528Y28218D01*
X268740Y28544D01*
Y28787D01*
X262740D01*
Y34299D01*
X255507D01*
Y38169D01*
X257252Y39913D01*
X257361Y40077D01*
X257501Y40217D01*
X257625Y40403D01*
X257925Y41126D01*
X257968Y41346D01*
Y41452D01*
X281310D01*
X281511Y41122D01*
D02*
G37*
G36*
X151267Y28683D02*
X151563Y28484D01*
Y22410D01*
X157201D01*
Y22063D01*
X169799D01*
Y22410D01*
X175437D01*
Y23167D01*
X187461D01*
Y22563D01*
X191595D01*
X191709Y21992D01*
X192144Y21341D01*
X192795Y20906D01*
X193563Y20753D01*
X202618D01*
X203386Y20906D01*
X204037Y21341D01*
X204417Y21910D01*
X204619Y22017D01*
X205304Y22137D01*
X208708Y18733D01*
X208407Y18005D01*
X114027D01*
X113610Y18792D01*
X113810Y19799D01*
X113810Y19799D01*
Y20661D01*
X114539D01*
Y28052D01*
X115251Y28478D01*
X115694Y28182D01*
X117000Y27923D01*
X118306Y28182D01*
X118968Y28625D01*
X119631Y28182D01*
X120937Y27923D01*
X122243Y28182D01*
X122906Y28625D01*
X123568Y28182D01*
X124874Y27923D01*
X126180Y28182D01*
X126843Y28625D01*
X127505Y28182D01*
X128811Y27923D01*
X129505Y28061D01*
X129945Y27345D01*
X129533Y26729D01*
X129289Y25500D01*
X129533Y24271D01*
X130229Y23229D01*
X131271Y22533D01*
X132500Y22289D01*
X133729Y22533D01*
X134771Y23229D01*
X135467Y24271D01*
X135711Y25500D01*
X135467Y26729D01*
X135141Y27217D01*
Y27467D01*
X135928Y28073D01*
X136685Y27923D01*
X137991Y28182D01*
X138654Y28625D01*
X139316Y28182D01*
X140622Y27923D01*
X141928Y28182D01*
X142591Y28625D01*
X143253Y28182D01*
X144559Y27923D01*
X145865Y28182D01*
X146528Y28625D01*
X147190Y28182D01*
X148496Y27923D01*
X149802Y28182D01*
X150776Y28833D01*
X151267Y28683D01*
D02*
G37*
G36*
X247277Y96318D02*
X247278Y96318D01*
X248682D01*
X250898Y94102D01*
Y93929D01*
X251071D01*
X252000Y93000D01*
X252000Y93000D01*
X255085Y89915D01*
X255085Y89915D01*
X255941Y89059D01*
X256000Y88763D01*
Y49148D01*
Y41737D01*
X255956Y41518D01*
X255832Y41332D01*
X253500Y39000D01*
Y34693D01*
Y29926D01*
X253368Y29728D01*
X253231Y29037D01*
Y26500D01*
X249214D01*
Y42500D01*
X249084Y43156D01*
X249000Y43281D01*
Y83000D01*
X248295Y83705D01*
X248295Y83705D01*
X245750Y86250D01*
X245750Y86250D01*
X245750Y86250D01*
X241500Y90500D01*
X238000D01*
Y96000D01*
X238323Y96323D01*
X247277D01*
X247277Y96318D01*
D02*
G37*
G36*
X233517Y42347D02*
X227076D01*
Y35457D01*
X234835D01*
Y28453D01*
X234210Y28059D01*
X231095D01*
Y22017D01*
X221894D01*
Y28059D01*
X222518Y28453D01*
X225634D01*
Y35457D01*
X225681D01*
Y41165D01*
Y46483D01*
X233517D01*
Y42347D01*
D02*
G37*
G36*
X92000Y127486D02*
X143986D01*
Y56663D01*
X142837Y55514D01*
X115000D01*
X113464Y55209D01*
X112162Y54338D01*
X105662Y47838D01*
X104791Y46536D01*
X104486Y45000D01*
Y43000D01*
X104791Y41464D01*
X105662Y40162D01*
X106964Y39291D01*
X107078Y39269D01*
X107244Y38433D01*
X106713Y38078D01*
X105974Y36971D01*
X105714Y35665D01*
Y31335D01*
X105974Y30029D01*
X106682Y28970D01*
X107059Y28339D01*
Y20770D01*
X101365D01*
X100648Y21008D01*
X100591Y21299D01*
Y23063D01*
Y30649D01*
X100727Y31335D01*
Y35665D01*
X100467Y36971D01*
X99728Y38078D01*
X98621Y38818D01*
X97315Y39077D01*
X96851Y39458D01*
Y42939D01*
X96591Y44245D01*
X95852Y45352D01*
X94745Y46091D01*
X93439Y46351D01*
X92133Y46091D01*
X91304Y45537D01*
X90517Y45899D01*
Y127160D01*
X91126Y127660D01*
X92000Y127486D01*
D02*
G37*
G36*
X73486Y36597D02*
Y17663D01*
X66837Y11014D01*
X54080D01*
X53708Y11709D01*
X54178Y12411D01*
X54598Y14524D01*
Y17476D01*
X54389Y18529D01*
X72758Y36898D01*
X73486Y36597D01*
D02*
G37*
G36*
X11156Y188713D02*
X11147Y188707D01*
X1720Y179280D01*
X1175Y178463D01*
X983Y177500D01*
Y153000D01*
X1175Y152037D01*
X1720Y151220D01*
X12483Y140457D01*
Y46500D01*
X12675Y45537D01*
X13220Y44720D01*
X32983Y24958D01*
Y6000D01*
X33175Y5037D01*
X33720Y4220D01*
X37220Y720D01*
X37721Y386D01*
X37482Y-402D01*
X17840D01*
X14037Y355D01*
X10454Y1839D01*
X7230Y3993D01*
X4488Y6735D01*
X2334Y9959D01*
X850Y13542D01*
X94Y17345D01*
Y19284D01*
Y188594D01*
X1000Y189500D01*
X10917D01*
X11156Y188713D01*
D02*
G37*
%LPC*%
G36*
X342701Y384752D02*
X332071D01*
Y378017D01*
X330000D01*
X330000Y378017D01*
X329037Y377825D01*
X328220Y377280D01*
X321065Y370125D01*
X320271Y369967D01*
X319229Y369271D01*
X318533Y368229D01*
X318289Y367000D01*
X318533Y365771D01*
X319229Y364729D01*
X320271Y364033D01*
X321500Y363789D01*
X322729Y364033D01*
X323771Y364729D01*
X324467Y365771D01*
X324625Y366565D01*
X331043Y372983D01*
X332071D01*
Y366248D01*
X342701D01*
Y384752D01*
D02*
G37*
G36*
X145000Y365938D02*
X142816Y365651D01*
X140781Y364808D01*
X139033Y363467D01*
X137692Y361719D01*
X136849Y359684D01*
X136562Y357500D01*
X136849Y355316D01*
X137692Y353281D01*
X139033Y351533D01*
X140781Y350192D01*
X142816Y349349D01*
X145000Y349062D01*
X147184Y349349D01*
X149219Y350192D01*
X150967Y351533D01*
X152308Y353281D01*
X153151Y355316D01*
X153438Y357500D01*
X153151Y359684D01*
X152308Y361719D01*
X150967Y363467D01*
X149219Y364808D01*
X147184Y365651D01*
X145000Y365938D01*
D02*
G37*
G36*
X402984Y346396D02*
X401242Y346167D01*
X399619Y345494D01*
X398225Y344425D01*
X397155Y343031D01*
X396483Y341407D01*
X396253Y339665D01*
X396483Y337923D01*
X397155Y336300D01*
X398225Y334906D01*
X399619Y333836D01*
X401242Y333164D01*
X402984Y332934D01*
X404726Y333164D01*
X406350Y333836D01*
X407744Y334906D01*
X408813Y336300D01*
X409486Y337923D01*
X409715Y339665D01*
X409486Y341407D01*
X408813Y343031D01*
X407744Y344425D01*
X406350Y345494D01*
X404726Y346167D01*
X402984Y346396D01*
D02*
G37*
G36*
X372000Y348600D02*
X369688Y348296D01*
X367533Y347403D01*
X365682Y345983D01*
X364262Y344133D01*
X363370Y341978D01*
X363065Y339665D01*
X363370Y337353D01*
X364262Y335198D01*
X365682Y333348D01*
X367533Y331928D01*
X369688Y331035D01*
X372000Y330731D01*
X374312Y331035D01*
X376467Y331928D01*
X378318Y333348D01*
X379738Y335198D01*
X380630Y337353D01*
X380935Y339665D01*
X380630Y341978D01*
X379738Y344133D01*
X378318Y345983D01*
X376467Y347403D01*
X374312Y348296D01*
X372000Y348600D01*
D02*
G37*
G36*
X220000Y353592D02*
X217688Y353288D01*
X215533Y352395D01*
X213682Y350975D01*
X212262Y349125D01*
X211370Y346970D01*
X211065Y344657D01*
X211370Y342345D01*
X212262Y340190D01*
X213682Y338340D01*
X215533Y336920D01*
X217688Y336027D01*
X220000Y335723D01*
X220462Y335784D01*
X220942Y335159D01*
X220754Y334705D01*
X220483Y332650D01*
X220754Y330594D01*
X221547Y328679D01*
X222809Y327034D01*
X224454Y325772D01*
X226370Y324978D01*
X228425Y324708D01*
X230481Y324978D01*
X232396Y325772D01*
X234041Y327034D01*
X235303Y328679D01*
X236097Y330594D01*
X236367Y332650D01*
X236097Y334705D01*
X235303Y336621D01*
X234041Y338265D01*
X232396Y339528D01*
X230481Y340321D01*
X228739Y340550D01*
X228190Y341282D01*
X228630Y342345D01*
X228935Y344657D01*
X228630Y346970D01*
X227738Y349125D01*
X226318Y350975D01*
X224467Y352395D01*
X222312Y353288D01*
X220000Y353592D01*
D02*
G37*
G36*
X260819Y332782D02*
X258976Y332415D01*
X257413Y331371D01*
X256369Y329808D01*
X256002Y327965D01*
Y325209D01*
X256369Y323365D01*
X257413Y321803D01*
X257808Y321538D01*
Y319507D01*
X257542Y319240D01*
X249201D01*
Y318109D01*
X247764D01*
X247229Y318467D01*
X246000Y318711D01*
X244771Y318467D01*
X243729Y317771D01*
X243033Y316729D01*
X242789Y315500D01*
X243033Y314271D01*
X243729Y313229D01*
X244771Y312533D01*
X246000Y312289D01*
X247229Y312533D01*
X247764Y312891D01*
X249201D01*
Y311760D01*
X255769D01*
Y308082D01*
X255533Y307729D01*
X255289Y306500D01*
X255533Y305271D01*
X256229Y304229D01*
X257271Y303533D01*
X258500Y303289D01*
X259729Y303533D01*
X260771Y304229D01*
X261467Y305271D01*
X261711Y306500D01*
X261467Y307729D01*
X260987Y308447D01*
Y311760D01*
X261799D01*
Y314983D01*
X262948Y316131D01*
X263600Y317108D01*
X263830Y318260D01*
X263830Y318260D01*
Y321538D01*
X264225Y321803D01*
X265269Y323365D01*
X265636Y325209D01*
Y327965D01*
X265269Y329808D01*
X264225Y331371D01*
X262662Y332415D01*
X260819Y332782D01*
D02*
G37*
G36*
X341016Y315195D02*
X338678Y314888D01*
X336499Y313985D01*
X334628Y312549D01*
X333192Y310678D01*
X332290Y308500D01*
X331982Y306161D01*
X332290Y303823D01*
X333192Y301644D01*
X334628Y299773D01*
X336499Y298338D01*
X338678Y297435D01*
X341016Y297127D01*
X343354Y297435D01*
X345533Y298338D01*
X347404Y299773D01*
X348839Y301644D01*
X349742Y303823D01*
X350050Y306161D01*
X349742Y308500D01*
X348839Y310678D01*
X347404Y312549D01*
X345533Y313985D01*
X343354Y314888D01*
X341016Y315195D01*
D02*
G37*
G36*
X225726Y290356D02*
X223815Y289976D01*
X222195Y288893D01*
X221112Y287273D01*
X220732Y285362D01*
X221112Y283451D01*
X222195Y281831D01*
X223815Y280749D01*
X225726Y280369D01*
X227637Y280749D01*
X229257Y281831D01*
X230339Y283451D01*
X230720Y285362D01*
X230339Y287273D01*
X229257Y288893D01*
X227637Y289976D01*
X225726Y290356D01*
D02*
G37*
G36*
X249340Y290336D02*
X247429Y289956D01*
X245809Y288874D01*
X244727Y287253D01*
X244347Y285343D01*
X244727Y283432D01*
X245809Y281811D01*
X247429Y280729D01*
X249340Y280349D01*
X251251Y280729D01*
X252871Y281811D01*
X253954Y283432D01*
X254334Y285343D01*
X253954Y287253D01*
X252871Y288874D01*
X251251Y289956D01*
X249340Y290336D01*
D02*
G37*
G36*
X237545Y290332D02*
X235634Y289952D01*
X234014Y288870D01*
X232931Y287249D01*
X232551Y285339D01*
X232931Y283428D01*
X234014Y281808D01*
X235634Y280725D01*
X237545Y280345D01*
X239456Y280725D01*
X241076Y281808D01*
X242158Y283428D01*
X242538Y285339D01*
X242158Y287249D01*
X241076Y288870D01*
X239456Y289952D01*
X237545Y290332D01*
D02*
G37*
G36*
X258409Y188571D02*
X247386D01*
Y179516D01*
X258409D01*
Y188571D01*
D02*
G37*
G36*
Y142484D02*
X247386D01*
Y133429D01*
X258409D01*
Y142484D01*
D02*
G37*
G36*
X223764D02*
X212741D01*
Y133429D01*
X223764D01*
Y142484D01*
D02*
G37*
G36*
X298169Y91215D02*
X291756D01*
X290526Y90971D01*
X289482Y90274D01*
X288785Y89230D01*
X288541Y88000D01*
X288785Y86770D01*
X289482Y85726D01*
X290526Y85029D01*
X291756Y84785D01*
X298169D01*
X299400Y85029D01*
X300079Y85483D01*
X300598D01*
X301271Y85033D01*
X302500Y84789D01*
X303729Y85033D01*
X304771Y85729D01*
X305467Y86771D01*
X305711Y88000D01*
X305467Y89229D01*
X304771Y90271D01*
X303729Y90967D01*
X302500Y91211D01*
X301271Y90967D01*
X300598Y90517D01*
X300079D01*
X299400Y90971D01*
X298169Y91215D01*
D02*
G37*
G36*
X402984Y97873D02*
X400646Y97565D01*
X398467Y96662D01*
X396596Y95227D01*
X395161Y93356D01*
X394258Y91177D01*
X393950Y88839D01*
X394258Y86500D01*
X395161Y84322D01*
X396596Y82451D01*
X398467Y81015D01*
X400646Y80112D01*
X402984Y79805D01*
X405322Y80112D01*
X407501Y81015D01*
X409372Y82451D01*
X410808Y84322D01*
X411710Y86500D01*
X412018Y88839D01*
X411710Y91177D01*
X410808Y93356D01*
X409372Y95227D01*
X407501Y96662D01*
X405322Y97565D01*
X402984Y97873D01*
D02*
G37*
G36*
X298169Y81215D02*
X291756D01*
X290526Y80971D01*
X289482Y80274D01*
X288785Y79230D01*
X288541Y78000D01*
X288785Y76770D01*
X289482Y75726D01*
X290526Y75029D01*
X291756Y74785D01*
X298169D01*
X299400Y75029D01*
X300079Y75483D01*
X300598D01*
X301271Y75033D01*
X302500Y74789D01*
X303729Y75033D01*
X304771Y75729D01*
X305467Y76771D01*
X305711Y78000D01*
X305467Y79229D01*
X304771Y80271D01*
X303729Y80967D01*
X302500Y81211D01*
X301271Y80967D01*
X300598Y80517D01*
X300079D01*
X299400Y80971D01*
X298169Y81215D01*
D02*
G37*
G36*
X302500Y71298D02*
X301271Y71053D01*
X300533Y70560D01*
X300014D01*
X299400Y70971D01*
X298169Y71215D01*
X291756D01*
X290526Y70971D01*
X289482Y70274D01*
X288785Y69230D01*
X288541Y68000D01*
X288785Y66770D01*
X289482Y65726D01*
X290526Y65029D01*
X291756Y64785D01*
X298169D01*
X299230Y64996D01*
X299289Y64937D01*
X299533Y63708D01*
X299983Y63035D01*
Y61528D01*
X299799Y61352D01*
X299196Y61011D01*
X298169Y61215D01*
X291756D01*
X290526Y60971D01*
X289482Y60274D01*
X288785Y59230D01*
X288541Y58000D01*
X288785Y56770D01*
X289482Y55726D01*
X290526Y55029D01*
X291756Y54785D01*
X298169D01*
X299400Y55029D01*
X300079Y55483D01*
X300854D01*
X301817Y55675D01*
X302634Y56220D01*
X304280Y57866D01*
X304825Y58683D01*
X305017Y59646D01*
Y63035D01*
X305467Y63708D01*
X305711Y64937D01*
X305467Y66166D01*
X305236Y66512D01*
X305467Y66858D01*
X305711Y68087D01*
X305467Y69315D01*
X304771Y70357D01*
X303729Y71053D01*
X302500Y71298D01*
D02*
G37*
G36*
X353500Y13018D02*
X351580Y12636D01*
X349952Y11548D01*
X348921Y10006D01*
X348500Y9960D01*
X348078Y10006D01*
X347048Y11548D01*
X345420Y12636D01*
X343500Y13018D01*
X341580Y12636D01*
X339952Y11548D01*
X338864Y9920D01*
X338482Y8000D01*
X338864Y6080D01*
X339952Y4452D01*
X341580Y3364D01*
X343500Y2982D01*
X345420Y3364D01*
X347048Y4452D01*
X348078Y5994D01*
X348500Y6040D01*
X348921Y5994D01*
X349952Y4452D01*
X351580Y3364D01*
X353500Y2982D01*
X355420Y3364D01*
X357048Y4452D01*
X358136Y6080D01*
X358518Y8000D01*
X358136Y9920D01*
X357048Y11548D01*
X355420Y12636D01*
X353500Y13018D01*
D02*
G37*
G36*
X185000Y325659D02*
X183080Y325277D01*
X181452Y324190D01*
X180364Y322562D01*
X179982Y320642D01*
Y318673D01*
X180364Y316753D01*
X181452Y315125D01*
X183080Y314037D01*
X185000Y313656D01*
X186920Y314037D01*
X188548Y315125D01*
X189636Y316753D01*
X190018Y318673D01*
Y320642D01*
X189636Y322562D01*
X188548Y324190D01*
X186920Y325277D01*
X185000Y325659D01*
D02*
G37*
G36*
X150799Y234668D02*
X143910D01*
Y228799D01*
X137563D01*
X137374Y229508D01*
Y232455D01*
X128713D01*
Y223006D01*
Y214506D01*
X137374D01*
Y215289D01*
X140966D01*
X141332Y215362D01*
X149612D01*
Y213345D01*
X149486Y212711D01*
X149791Y211175D01*
X150662Y209872D01*
X151964Y209002D01*
X153500Y208697D01*
X155036Y209002D01*
X156338Y209872D01*
X156465Y209998D01*
X157335Y211301D01*
X157640Y212837D01*
Y217325D01*
X158351D01*
Y229136D01*
X155918D01*
X155497Y229924D01*
X155711Y231000D01*
X155467Y232229D01*
X154771Y233271D01*
X153729Y233967D01*
X152500Y234211D01*
X151587Y234030D01*
X150901Y234462D01*
X150799Y234599D01*
Y234668D01*
D02*
G37*
G36*
X187593Y215509D02*
X181490D01*
Y211765D01*
X181432Y211474D01*
X181432Y211474D01*
Y211138D01*
X180735Y210839D01*
X180112Y211296D01*
Y215509D01*
X174010D01*
Y207635D01*
X178178D01*
X178289Y207500D01*
X178533Y206271D01*
X179229Y205229D01*
X180271Y204533D01*
X181500Y204289D01*
X182729Y204533D01*
X182776Y204565D01*
X183388D01*
X183388Y204565D01*
X184540Y204794D01*
X185517Y205447D01*
X186572Y206501D01*
X186572Y206501D01*
X187224Y207478D01*
X187256Y207635D01*
X187593D01*
Y215509D01*
D02*
G37*
G36*
X69559Y129825D02*
X65228D01*
X63923Y129566D01*
X62816Y128826D01*
X62076Y127719D01*
X61816Y126413D01*
X62076Y125108D01*
X62816Y124001D01*
X63923Y123261D01*
X65228Y123001D01*
X69559D01*
X70865Y123261D01*
X71972Y124001D01*
X72711Y125108D01*
X72971Y126413D01*
X72711Y127719D01*
X71972Y128826D01*
X70865Y129566D01*
X69559Y129825D01*
D02*
G37*
G36*
X52591Y68437D02*
X45701D01*
Y63741D01*
X45039Y63437D01*
X40905D01*
X40791Y64008D01*
X40356Y64659D01*
X39705Y65094D01*
X38937Y65247D01*
X29882D01*
X29114Y65094D01*
X28463Y64659D01*
X28028Y64008D01*
X27875Y63240D01*
Y55760D01*
X28028Y54992D01*
X28463Y54341D01*
X29114Y53906D01*
X29882Y53753D01*
X38937D01*
X39705Y53906D01*
X40356Y54341D01*
X40791Y54992D01*
X40905Y55563D01*
X45039D01*
Y55563D01*
X45701D01*
Y55563D01*
X58299D01*
Y55910D01*
X63937D01*
Y55910D01*
X64349Y56247D01*
X65228Y56072D01*
X69559D01*
X70865Y56332D01*
X71972Y57072D01*
X72711Y58179D01*
X72971Y59484D01*
X72711Y60790D01*
X71972Y61897D01*
X70865Y62637D01*
X69559Y62896D01*
X65228D01*
X64094Y62671D01*
X63937Y62799D01*
Y62799D01*
X58299D01*
Y63437D01*
X52591D01*
Y68437D01*
D02*
G37*
G36*
X69559Y55022D02*
X65228D01*
X63923Y54763D01*
X62816Y54023D01*
X62076Y52916D01*
X61816Y51610D01*
X62076Y50305D01*
X62816Y49198D01*
X63923Y48458D01*
X65228Y48198D01*
X69559D01*
X70865Y48458D01*
X71972Y49198D01*
X72711Y50305D01*
X72971Y51610D01*
X72711Y52916D01*
X71972Y54023D01*
X70865Y54763D01*
X69559Y55022D01*
D02*
G37*
G36*
X188457Y106203D02*
X184126D01*
X182820Y105944D01*
X181713Y105204D01*
X180974Y104097D01*
X180714Y102791D01*
X180974Y101486D01*
X181417Y100823D01*
X180974Y100160D01*
X180714Y98854D01*
X180974Y97549D01*
X181417Y96886D01*
X180974Y96223D01*
X180714Y94917D01*
X180974Y93612D01*
X181713Y92505D01*
X182820Y91765D01*
X184126Y91505D01*
X188457D01*
X189762Y91765D01*
X190869Y92505D01*
X191609Y93612D01*
X191869Y94917D01*
X191609Y96223D01*
X191166Y96886D01*
X191609Y97549D01*
X191869Y98854D01*
X191609Y100160D01*
X191166Y100823D01*
X191609Y101486D01*
X191869Y102791D01*
X191609Y104097D01*
X190869Y105204D01*
X189762Y105944D01*
X188457Y106203D01*
D02*
G37*
G36*
Y90455D02*
X184126D01*
X182820Y90196D01*
X181713Y89456D01*
X180974Y88349D01*
X180714Y87043D01*
X180974Y85738D01*
X181417Y85075D01*
X180974Y84412D01*
X180714Y83106D01*
X180974Y81801D01*
X181417Y81138D01*
X180974Y80475D01*
X180714Y79169D01*
X180974Y77864D01*
X181417Y77201D01*
X180974Y76538D01*
X180714Y75232D01*
X180974Y73927D01*
X181713Y72820D01*
X182820Y72080D01*
X184126Y71820D01*
X188457D01*
X189762Y72080D01*
X190869Y72820D01*
X191609Y73927D01*
X191869Y75232D01*
X191609Y76538D01*
X191166Y77201D01*
X191609Y77864D01*
X191869Y79169D01*
X191609Y80475D01*
X191166Y81138D01*
X191609Y81801D01*
X191869Y83106D01*
X191609Y84412D01*
X191166Y85075D01*
X191609Y85738D01*
X191869Y87043D01*
X191609Y88349D01*
X190869Y89456D01*
X189762Y90196D01*
X188457Y90455D01*
D02*
G37*
%LPD*%
D11*
X113575Y255075D02*
X119968Y261469D01*
X160364D01*
X86925Y255075D02*
X113575D01*
X27063Y191635D02*
Y194563D01*
X31000Y198500D02*
X43233D01*
X27063Y194563D02*
X31000Y198500D01*
X22354Y186927D02*
X27063Y191635D01*
X53095Y327000D02*
Y341354D01*
X49214Y345234D02*
Y350057D01*
X49789Y350631D02*
Y351000D01*
X49214Y345234D02*
X53095Y341354D01*
Y327000D02*
X53126Y327031D01*
X51095Y327000D02*
Y340525D01*
X46639Y350631D02*
Y351000D01*
X49214Y350057D02*
X49789Y350631D01*
X47214Y344406D02*
X51095Y340525D01*
X47214Y344406D02*
Y350057D01*
X46639Y350631D02*
X47214Y350057D01*
X51095Y327000D02*
X51126D01*
X33000Y335000D02*
X37500Y330500D01*
X33000Y335000D02*
Y340201D01*
X37500Y330500D02*
X46000D01*
X47189Y329311D01*
Y327000D02*
Y329311D01*
X44169Y322709D02*
X47189Y325728D01*
X42898Y322709D02*
X44169D01*
X47189Y325728D02*
Y327000D01*
X66500Y298000D02*
X70284Y301783D01*
X66500Y285000D02*
Y298000D01*
Y285000D02*
X70500Y281000D01*
X69882Y316118D02*
X77882D01*
X79000Y313354D02*
Y315000D01*
X77882Y316118D02*
X79000Y315000D01*
X67228Y318772D02*
X69882Y316118D01*
X75882Y318000D02*
X84500D01*
X73691Y320191D02*
X75882Y318000D01*
X85357Y13000D02*
X238000D01*
X81051Y17306D02*
X85357Y13000D01*
X238000D02*
X247500Y22500D01*
X236988Y15488D02*
X245000Y23500D01*
X82838Y19794D02*
X87145Y15488D01*
X236988D01*
X82838Y19794D02*
Y36811D01*
X143500Y264000D02*
Y267756D01*
X146000Y270256D02*
Y273463D01*
X143500Y267756D02*
X146000Y270256D01*
X133500Y267756D02*
X136000Y270256D01*
X133500Y264000D02*
Y267756D01*
X136000Y270256D02*
Y273463D01*
X123500Y267756D02*
X126000Y270256D01*
Y273463D01*
X123500Y264000D02*
Y267756D01*
X116000Y266500D02*
Y273463D01*
X113500Y264000D02*
X116000Y266500D01*
X96000Y267116D02*
X99116Y264000D01*
X113500D01*
X96000Y267116D02*
Y278656D01*
X94276Y280380D02*
Y284154D01*
Y280380D02*
X96000Y278656D01*
X100575Y284154D02*
X100909Y283820D01*
X101523Y281095D02*
X132905D01*
X100909Y281709D02*
X101523Y281095D01*
X100909Y281709D02*
Y283820D01*
X123776Y279224D02*
X126000Y277000D01*
Y273463D02*
Y277000D01*
X98149Y279224D02*
X123776D01*
X97425Y279948D02*
X98149Y279224D01*
X132905Y281095D02*
X135738Y278262D01*
X97425Y279948D02*
Y284154D01*
X135738Y273725D02*
X136000Y273463D01*
X135738Y273725D02*
Y278262D01*
X142847Y284154D02*
X146000Y281000D01*
Y273463D02*
Y281000D01*
X103724Y284154D02*
X142847D01*
X128595Y293406D02*
X155095D01*
X126000Y296000D02*
Y301537D01*
Y296000D02*
X128595Y293406D01*
X136000Y298331D02*
X138831Y295500D01*
X157000D01*
X159075Y293425D01*
X118154Y290347D02*
X152776D01*
X116000Y292500D02*
X118154Y290347D01*
X116000Y292500D02*
Y301537D01*
X155539Y290732D02*
Y292961D01*
Y290732D02*
X155925Y290347D01*
X155095Y293406D02*
X155539Y292961D01*
X159075Y290347D02*
Y293425D01*
X136000Y298331D02*
Y301537D01*
X162224Y290347D02*
Y298276D01*
X158963Y301537D02*
X162224Y298276D01*
X146000Y301537D02*
X158963D01*
X130818Y311375D02*
X130909Y311284D01*
Y302101D02*
Y311284D01*
X130738Y301930D02*
X130909Y302101D01*
X311151Y50762D02*
Y51237D01*
X312500Y52586D01*
Y85000D01*
X315500Y88000D01*
X323037D01*
X311151Y47613D02*
X311537Y47998D01*
X313998D01*
X315000Y49000D01*
Y76500D01*
X316500Y78000D01*
X323037D01*
X311151Y44463D02*
X311189Y44500D01*
X316000D01*
X317000Y45500D01*
Y66500D01*
X318238Y67738D01*
X322775D01*
X323037Y68000D01*
X311151Y41313D02*
X316813D01*
X323037Y47537D01*
Y58000D01*
X322500Y39000D02*
X330000Y46500D01*
X283500Y39000D02*
X322500D01*
X282500Y38000D02*
X283500Y39000D01*
X305017Y110588D02*
Y114673D01*
X304654Y110224D02*
X305017Y110588D01*
X297957Y99295D02*
X298325D01*
X299806Y100776D02*
X304654D01*
X298325Y99295D02*
X299806Y100776D01*
X298213Y103713D02*
X304441D01*
X298000Y103500D02*
X298213Y103713D01*
X304441D02*
X304654Y103925D01*
X298000Y107500D02*
X298213Y107287D01*
X304441D02*
X304654Y107075D01*
X298213Y107287D02*
X304441D01*
X35000Y303000D02*
Y308000D01*
Y303000D02*
X39000Y299000D01*
X32500Y310500D02*
X35000Y308000D01*
X24500Y310500D02*
X32500D01*
X39000Y299000D02*
X41500D01*
X22000Y308000D02*
X24500Y310500D01*
X22000Y299929D02*
Y308000D01*
X43233Y198500D02*
X44233Y197500D01*
X44500D01*
X44761Y197239D01*
Y190039D02*
Y197239D01*
X15000Y46500D02*
Y141500D01*
Y46500D02*
X35500Y26000D01*
Y6000D02*
Y26000D01*
Y6000D02*
X39000Y2500D01*
X132500Y25500D02*
X132624Y25624D01*
Y33376D02*
X132748Y33500D01*
X132624Y25624D02*
Y33376D01*
X237984Y32685D02*
X240984D01*
X247500Y22500D02*
Y42500D01*
X241000Y49000D02*
X247500Y42500D01*
X88000Y41972D02*
Y129000D01*
X72500Y144500D02*
X88000Y129000D01*
X82838Y36811D02*
X88000Y41972D01*
X81051Y37551D02*
X85500Y42000D01*
Y128500D01*
X81051Y17306D02*
Y37551D01*
X72500Y141500D02*
X85500Y128500D01*
X39000Y2500D02*
X71000D01*
X77500Y9000D01*
X75050Y189750D02*
Y208950D01*
X75000Y209000D02*
X75050Y208950D01*
Y189750D02*
X75100Y189700D01*
X180000Y275875D02*
X180256Y276131D01*
X180000Y274000D02*
Y275875D01*
X177256Y271256D02*
X180000Y274000D01*
X170151Y271256D02*
X177256D01*
X160364Y261469D02*
X170151Y271256D01*
X182500Y257500D02*
X188744D01*
X189000Y257244D01*
X44761Y190039D02*
X45100Y189700D01*
X85578Y183422D02*
X87414Y181586D01*
X92239D01*
X85578Y183422D02*
Y189222D01*
X135213Y183224D02*
X135606Y182831D01*
X341000Y45500D02*
X344500Y42000D01*
X361000D01*
X333000Y93000D02*
X341000Y85000D01*
Y45500D02*
Y85000D01*
X330000Y46500D02*
Y62000D01*
X323037Y63000D02*
X329000D01*
X330000Y62000D01*
X282500Y30459D02*
Y38000D01*
X224000Y49000D02*
X241000D01*
X245000Y23500D02*
Y41500D01*
X237454Y44610D02*
X241890D01*
X245000Y41500D01*
X237454Y38902D02*
X240454D01*
X231013D02*
X237454D01*
X234244Y20827D02*
Y23827D01*
X232917Y19500D02*
X234244Y20827D01*
X211500Y19500D02*
X232917D01*
X70284Y301783D02*
X84784D01*
X87500Y304500D01*
Y321500D01*
X204197Y118547D02*
X210000D01*
X204000Y118744D02*
X204197Y118547D01*
X219956Y120534D02*
X220828Y119661D01*
X219000Y112500D02*
Y117500D01*
X215705Y119007D02*
X217493D01*
X219956Y120534D02*
Y126044D01*
X217493Y119007D02*
X219000Y117500D01*
X215378Y119334D02*
X215705Y119007D01*
X216500Y129500D02*
X219956Y126044D01*
X214976Y105524D02*
X215000Y105500D01*
X214953Y111000D02*
X214976Y110976D01*
Y105524D02*
Y110976D01*
X191500Y139000D02*
Y170000D01*
X210000Y124452D02*
X215377D01*
X215378Y124452D01*
X210000Y124453D02*
X210000Y124452D01*
X209500Y128000D02*
X210000Y127500D01*
Y124453D02*
Y127500D01*
X209481Y128000D02*
X209500D01*
X217500Y111000D02*
X219000Y112500D01*
X214953Y111000D02*
X217500D01*
X202000D02*
X209047D01*
X198000Y115000D02*
X202000Y111000D01*
X198000Y115000D02*
Y119244D01*
X210000Y118547D02*
X210086Y118461D01*
Y115500D02*
Y118461D01*
Y115500D02*
X215500D01*
X194000Y143481D02*
Y166000D01*
X197734Y142274D02*
Y156649D01*
X210508Y129500D02*
X216500D01*
X197734Y142274D02*
X210508Y129500D01*
X194000Y143481D02*
X209481Y128000D01*
X220828Y119661D02*
X222294D01*
X206000Y25000D02*
X211500Y19500D01*
X203642Y67358D02*
X208500Y62500D01*
X206000Y25000D02*
Y60500D01*
X203079Y63421D02*
X206000Y60500D01*
X208500Y27000D02*
Y62500D01*
X211673Y23827D02*
X218744D01*
X208500Y27000D02*
X211673Y23827D01*
X191500Y170000D02*
X195006Y173506D01*
X186291Y63421D02*
X203079D01*
X186291Y67358D02*
X203642D01*
X221744Y44610D02*
X222000Y44866D01*
Y47000D01*
X212000Y57000D02*
Y98500D01*
X222000Y47000D02*
X224000Y49000D01*
X65050Y189750D02*
Y200450D01*
X70000Y205500D02*
X70050Y205450D01*
X65000Y200500D02*
X65050Y200450D01*
X70050Y189750D02*
Y205450D01*
X139000Y186500D02*
X158000D01*
X159791Y184709D01*
X137000Y188500D02*
X139000Y186500D01*
X159791Y182810D02*
Y184709D01*
X89937Y341500D02*
X89996Y341560D01*
X94441D01*
X73691Y325022D02*
X74978D01*
X60500Y144500D02*
X72500D01*
X63500Y141500D02*
X72500D01*
X60300Y189900D02*
Y196300D01*
X60100Y189700D02*
X60300Y189900D01*
Y196300D02*
X60500Y196500D01*
X3500Y153000D02*
X15000Y141500D01*
X22354Y183000D02*
Y186927D01*
X12927D02*
X22354D01*
X3500Y177500D02*
X12927Y186927D01*
X3500Y153000D02*
Y177500D01*
X72107Y354765D02*
X84133D01*
X84740Y352722D02*
Y354158D01*
Y352722D02*
X85756Y351706D01*
X84133Y354765D02*
X84740Y354158D01*
X71500D02*
X72107Y354765D01*
X71500Y341000D02*
Y354158D01*
X90000Y362000D02*
Y370937D01*
X85756Y360631D02*
X88631D01*
X90000Y362000D01*
X137000Y188500D02*
Y197500D01*
X135213Y183224D02*
Y196287D01*
X123500Y211000D02*
X137000Y197500D01*
X121500Y210000D02*
X135213Y196287D01*
X121500Y210000D02*
Y213000D01*
X123500Y211000D02*
Y214500D01*
X119000Y215500D02*
X121500Y213000D01*
X120807Y217193D02*
X123500Y214500D01*
X119000Y215500D02*
Y244500D01*
X120807Y217193D02*
Y245693D01*
X113213Y253287D02*
X120807Y245693D01*
X112000Y251500D02*
X119000Y244500D01*
X64563Y322709D02*
Y323709D01*
X92239Y181586D02*
X92500Y181846D01*
X99550Y188450D02*
X102000Y186000D01*
X96255Y188450D02*
X99550D01*
X90100Y188400D02*
X95099Y183401D01*
X97233D02*
X97386Y183554D01*
X98239D01*
X98500Y183815D01*
X95099Y183401D02*
X97233D01*
X90100Y188400D02*
Y189700D01*
X95100Y189605D02*
Y189700D01*
Y189605D02*
X96255Y188450D01*
X85100Y189700D02*
X85578Y189222D01*
X65050Y189750D02*
X65100Y189700D01*
X79793Y325309D02*
X83691D01*
X87500Y321500D01*
X66163Y325309D02*
X72697D01*
X55100Y174600D02*
Y189700D01*
X50000Y169500D02*
X55100Y174600D01*
X50050Y180550D02*
Y189650D01*
X50000Y180500D02*
X50050Y180550D01*
Y189650D02*
X50100Y189700D01*
X239000Y107500D02*
X241000Y109500D01*
X245550D01*
X212000Y98500D02*
X221000Y107500D01*
X239000D01*
X77500Y9000D02*
X81000D01*
X82000Y8000D01*
X41500Y102000D02*
X43000Y103500D01*
Y106929D01*
X43071Y107000D01*
X216500Y60000D02*
X216500Y60000D01*
X221244D01*
X60050Y247050D02*
Y260550D01*
X60000Y247000D02*
X60050Y247050D01*
X65050D02*
Y260550D01*
X65000Y247000D02*
X65050Y247050D01*
Y260550D02*
X65100Y260600D01*
X60050Y260550D02*
X60100Y260600D01*
X49000Y254500D02*
X50100Y255600D01*
X38500Y254500D02*
X49000D01*
X50100Y255600D02*
Y260600D01*
X74750Y267000D02*
X85000D01*
X70100Y262350D02*
X74750Y267000D01*
X70100Y260600D02*
Y262350D01*
X85500Y256500D02*
X86925Y255075D01*
X85100Y260600D02*
X85500Y260200D01*
Y256500D02*
Y260200D01*
X84213Y253287D02*
X113213D01*
X75100Y258850D02*
X82450Y251500D01*
X112000D01*
X80578Y256922D02*
X84213Y253287D01*
X159791Y182810D02*
X160164Y182437D01*
X80578Y256922D02*
Y260122D01*
X80100Y260600D02*
X80578Y260122D01*
X330000Y375500D02*
X337386D01*
X321500Y367000D02*
X330000Y375500D01*
X70500Y281000D02*
X86500D01*
X89354Y276000D02*
X89500Y276146D01*
Y278000D01*
X86500Y281000D02*
X89500Y278000D01*
X80000Y183000D02*
X80100Y183100D01*
Y189700D01*
X75100Y258850D02*
Y260600D01*
X71500Y338500D02*
Y341000D01*
X76000D01*
X74500Y376500D02*
Y381914D01*
Y370000D02*
Y376500D01*
X89437Y371500D02*
X94500D01*
X6500Y335000D02*
X15500D01*
X6500Y345000D02*
X22500D01*
X22354Y177000D02*
Y183000D01*
X70050Y189750D02*
X70100Y189700D01*
X80482Y289866D02*
X81146Y290530D01*
X53095Y301240D02*
Y306606D01*
X52854Y301000D02*
X53095Y301240D01*
X41000Y334146D02*
X46500D01*
X46992D01*
X49158Y331980D01*
Y327000D02*
Y331980D01*
X72707Y320191D02*
X73691D01*
X79506Y323037D02*
X79793Y322750D01*
X76963Y323037D02*
X79506D01*
X74978Y325022D02*
X76963Y323037D01*
X72994Y322463D02*
X74815D01*
X76799Y320478D01*
X79506D02*
X79793Y320191D01*
X76799Y320478D02*
X79506D01*
X72707Y322750D02*
X72994Y322463D01*
X68250Y322750D02*
X72707D01*
X63291Y322709D02*
X64563D01*
Y323709D02*
X66163Y325309D01*
X63291Y318772D02*
X67228D01*
X65415Y314835D02*
X68498Y311752D01*
X63291Y314835D02*
X65415D01*
X68498Y311491D02*
Y311752D01*
X75086Y382500D02*
X80244D01*
X74500Y381914D02*
X75086Y382500D01*
X74500Y370000D02*
X76740Y367760D01*
X81563D01*
X72500Y337500D02*
X81803D01*
X71500Y338500D02*
X72500Y337500D01*
X81803D02*
X82063Y337760D01*
X90500Y333500D02*
Y340937D01*
X89937Y341500D02*
X90500Y340937D01*
X88330Y331330D02*
X90500Y333500D01*
X85756Y331330D02*
X88330D01*
X89437Y371500D02*
X90000Y370937D01*
X227000Y204586D02*
Y213866D01*
X223354Y204000D02*
X226414D01*
X227000Y204586D01*
X215244Y38902D02*
X221744D01*
Y34508D02*
Y38902D01*
Y34508D02*
X222484Y33768D01*
Y32685D02*
Y33768D01*
X240454Y38902D02*
X240984Y38372D01*
Y32685D02*
Y38372D01*
X225500Y114000D02*
X231000D01*
X234000Y117000D01*
X222621Y116879D02*
X225500Y114000D01*
X227500Y124756D02*
Y128500D01*
Y124756D02*
X227508Y124748D01*
X186291Y130350D02*
X192566D01*
X186291Y126413D02*
X192587D01*
X225146Y121894D02*
X226532Y123280D01*
X222621Y121894D02*
X225146D01*
X226532Y123280D02*
Y123772D01*
X227508Y124748D01*
X222294Y119661D02*
X222621Y119334D01*
X197734Y156649D02*
X198320Y157234D01*
X200831D01*
X202102Y158506D01*
X194000Y166000D02*
X196506Y168506D01*
X202102D01*
X195006Y173506D02*
X202102D01*
X197295Y118539D02*
X198000Y119244D01*
X186291Y118539D02*
X197295D01*
X239910Y124846D02*
X240000Y124756D01*
X234000Y124846D02*
X239910D01*
X234000Y118941D02*
X234000Y118941D01*
X234000Y117000D02*
Y118941D01*
X222621Y116879D02*
Y119334D01*
X295006Y68043D02*
X302457D01*
X294963Y68000D02*
X295006Y68043D01*
X302457D02*
X302500Y68087D01*
Y59646D02*
Y64937D01*
X300854Y58000D02*
X302500Y59646D01*
X294963Y58000D02*
X300854D01*
X294963Y78000D02*
X302500D01*
X268450Y115450D02*
X268500Y115500D01*
X268450Y109500D02*
Y115450D01*
Y104500D02*
Y109500D01*
X275134Y107000D02*
X276500Y108366D01*
X294963Y88000D02*
X302500D01*
X323037Y93000D02*
X333000D01*
X33500Y110366D02*
X33634Y110500D01*
X33500Y107500D02*
Y110366D01*
X31146Y105146D02*
X33500Y107500D01*
X31146Y102000D02*
Y105146D01*
X36854Y102000D02*
X41500D01*
D12*
X59390Y363646D02*
Y366992D01*
X59193Y363449D02*
X59390Y363646D01*
X59193Y361424D02*
Y363449D01*
X57975Y357927D02*
X58201Y357701D01*
X56634Y362484D02*
Y366795D01*
X55172Y356828D02*
Y361022D01*
X57731Y358983D02*
Y359962D01*
X57975Y357927D02*
Y358739D01*
X55172Y356828D02*
X58000Y354000D01*
X57731Y358983D02*
X57975Y358739D01*
X55172Y361022D02*
X56634Y362484D01*
X57731Y359962D02*
X59193Y361424D01*
X56634Y366795D02*
X56831Y366992D01*
X56000Y337000D02*
Y351000D01*
X52000Y355000D02*
X56000Y351000D01*
X37500Y355000D02*
X52000D01*
X56000Y337000D02*
X61000Y332000D01*
X22500Y340000D02*
X26500D01*
X27500Y341000D01*
Y345000D01*
X69000Y314000D02*
X72354D01*
X73000Y313354D01*
X66197Y316803D02*
X69000Y314000D01*
X95100Y260600D02*
Y262101D01*
X86854Y285146D02*
X93000Y279000D01*
Y264201D02*
X95100Y262101D01*
X93000Y264201D02*
Y279000D01*
X111033Y301483D02*
Y331533D01*
X112000Y332500D01*
X122500D01*
X121000Y316000D02*
X127500Y322500D01*
X121000Y301299D02*
Y316000D01*
X95127Y289797D02*
X103429D01*
X103724Y290092D01*
Y290846D01*
X27130Y281070D02*
X28000Y281939D01*
X26331Y287220D02*
X28000Y285551D01*
X27130Y280750D02*
Y281070D01*
X28000Y281939D02*
Y285551D01*
X30441Y269559D02*
Y293441D01*
X30500Y293500D01*
Y305500D01*
X30441Y269559D02*
X35000Y265000D01*
X26331Y287220D02*
Y290480D01*
X25740Y291071D02*
X26331Y290480D01*
X24256Y277500D02*
Y284000D01*
X20521Y289979D02*
X23272Y287228D01*
Y284984D02*
Y287228D01*
Y284984D02*
X24256Y284000D01*
X18850Y289979D02*
X20521D01*
X18260Y290570D02*
X18850Y289979D01*
X18260Y290570D02*
Y291071D01*
X47146Y297417D02*
Y297654D01*
Y301000D01*
X35100Y189700D02*
Y194808D01*
X35792Y195500D02*
X38500D01*
X35100Y194808D02*
X35792Y195500D01*
X177500Y281500D02*
X180650D01*
X181240Y282090D02*
Y282571D01*
X180650Y281500D02*
X181240Y282090D01*
X89441Y146559D02*
Y152398D01*
X101252Y146252D02*
Y152398D01*
X249894Y20519D02*
X251746D01*
X255511Y21500D02*
X280000D01*
X251746Y20519D02*
X255037Y23810D01*
X250277Y14777D02*
Y16266D01*
X255037Y23810D02*
Y29037D01*
X250277Y16266D02*
X255511Y21500D01*
X238908Y9533D02*
X249894Y20519D01*
X243500Y8000D02*
X250277Y14777D01*
X235033Y9533D02*
X238908D01*
X255037Y29037D02*
X257000Y31000D01*
X16000Y284000D02*
X18744D01*
X13500Y286500D02*
X16000Y284000D01*
X13500Y286500D02*
Y289500D01*
X11500Y291500D02*
X13500Y289500D01*
X6500Y291500D02*
X11500D01*
X22000Y297282D02*
Y299929D01*
X20718Y296000D02*
X22000Y297282D01*
X4000Y296000D02*
X20718D01*
X2169Y294169D02*
X4000Y296000D01*
X2169Y283427D02*
Y294169D01*
X3192Y282404D02*
X5596D01*
X2169Y283427D02*
X3192Y282404D01*
X5596D02*
X6500Y281500D01*
X33000Y274000D02*
X38366D01*
X38500Y273866D01*
X35000Y260700D02*
X35100Y260600D01*
X35000Y260700D02*
Y265000D01*
X184320Y261535D02*
X185457Y262672D01*
X184000Y261535D02*
X184320D01*
X188916Y262672D02*
X189000Y262756D01*
X185457Y262672D02*
X188916D01*
X243000Y231000D02*
Y246000D01*
X245000Y248000D01*
X243000Y231000D02*
X244260Y229740D01*
X246114D02*
X247000Y228854D01*
X244260Y229740D02*
X246114D01*
X52896Y294104D02*
X53000Y294000D01*
X46500Y294209D02*
X46604Y294104D01*
X46500Y283268D02*
X48000Y281768D01*
X46500Y283268D02*
Y288500D01*
X36500Y284134D02*
Y288500D01*
Y284134D02*
X38500Y282134D01*
X137500Y47500D02*
X150000D01*
X128811Y38811D02*
X137500Y47500D01*
X150000D02*
X151347Y48847D01*
Y125847D02*
X174000Y148500D01*
X151347Y48847D02*
Y125847D01*
X154235Y43927D02*
Y125235D01*
X176500Y147500D01*
X153544Y43235D02*
X154235Y43927D01*
X157155Y164155D02*
Y168845D01*
X157000Y164000D02*
X157155Y164155D01*
X121295Y163000D02*
Y167020D01*
X117153Y171162D02*
X121295Y167020D01*
X117153Y171162D02*
Y212131D01*
X115184Y170347D02*
X118736Y166795D01*
Y159500D02*
Y166795D01*
X115184Y170347D02*
Y211315D01*
X113216Y169284D02*
X116177Y166323D01*
X109000Y167500D02*
X110833Y165667D01*
X113618Y160000D02*
Y165882D01*
X110833Y163226D02*
Y165667D01*
X111000Y168500D02*
X113618Y165882D01*
X116177Y163000D02*
Y166323D01*
X109000Y167500D02*
Y206550D01*
X111000Y168500D02*
Y209932D01*
X113216Y169284D02*
Y210500D01*
X135276Y182500D02*
X135606Y182831D01*
X126692Y182500D02*
X135276D01*
X126000Y181808D02*
X126692Y182500D01*
X126000Y180209D02*
Y181808D01*
X126492Y180209D02*
X127378Y181095D01*
X126000Y180209D02*
X126492D01*
X276500Y104500D02*
Y108366D01*
X272091Y100091D02*
X276500Y104500D01*
X269040Y100091D02*
X272091D01*
X268450Y99500D02*
X269040Y100091D01*
X164083Y110583D02*
X186209D01*
X164000Y110500D02*
X164083Y110583D01*
X149600Y43235D02*
X153544D01*
X186209Y110583D02*
X186442Y110816D01*
X367000Y42000D02*
X373000Y36000D01*
X361000Y42000D02*
X367000D01*
X373000Y25000D02*
Y36000D01*
X364621Y24071D02*
X372071D01*
X373000Y25000D01*
X364621Y24071D02*
X364929Y23763D01*
Y21429D02*
Y23763D01*
X367000Y28500D02*
X368361Y29861D01*
Y32929D01*
X359744Y25244D02*
X363000Y28500D01*
X367000D01*
X354504Y25244D02*
X359744D01*
X348844D02*
X354504D01*
X348588Y30500D02*
X348844Y30756D01*
X346500Y30500D02*
X348588D01*
X344500Y28500D02*
X346500Y30500D01*
X344500Y23500D02*
Y28500D01*
X343000Y22000D02*
X344500Y23500D01*
X340784Y22000D02*
X343000D01*
X333284Y14500D02*
X340784Y22000D01*
X323037Y83000D02*
X331500D01*
X337500Y77000D01*
Y40000D02*
Y77000D01*
Y40000D02*
X341500Y36000D01*
Y26000D02*
Y36000D01*
X339571Y24071D02*
X341500Y26000D01*
X333000Y24071D02*
X339571D01*
X333000Y20500D02*
Y24071D01*
X290000Y17000D02*
X329500D01*
X333000Y20500D01*
X287000Y14000D02*
X290000Y17000D01*
X336740Y32929D02*
X337000Y32669D01*
Y28692D02*
Y32669D01*
X330500Y28000D02*
X336308D01*
X337000Y28692D01*
X327744Y25244D02*
X330500Y28000D01*
X322869Y25244D02*
X327744D01*
X317225D02*
X322869D01*
X317225Y25244D02*
X317225Y25244D01*
X323037Y73000D02*
X331000D01*
X334000Y70000D01*
Y45500D02*
Y70000D01*
X325500Y37000D02*
X334000Y45500D01*
X288000Y21500D02*
X308500D01*
Y21503D01*
X311032Y24035D01*
X316756Y30500D02*
X317000Y30256D01*
X314500Y30500D02*
X316756D01*
X313000Y29000D02*
X314500Y30500D01*
X311032Y36411D02*
X311620Y37000D01*
X309063Y19000D02*
X313000Y22937D01*
X311032Y24035D02*
Y36411D01*
X313000Y22937D02*
Y29000D01*
X285716Y15500D02*
X289216Y19000D01*
X309063D01*
X307240Y32429D02*
X307500Y32169D01*
Y30000D02*
Y32169D01*
X306000Y28500D02*
X307500Y30000D01*
X302000Y28500D02*
X306000D01*
X298744Y25244D02*
X302000Y28500D01*
X293500Y25244D02*
X298744D01*
X288000D02*
X293500D01*
X267500Y17500D02*
X284000D01*
X288000Y21500D01*
X282500Y24000D02*
Y30459D01*
X280000Y21500D02*
X282500Y24000D01*
X287744Y30500D02*
X288000Y30756D01*
X286000Y30500D02*
X287744D01*
X284500Y29000D02*
X286000Y30500D01*
X284500Y22500D02*
Y29000D01*
X281500Y19500D02*
X284500Y22500D01*
X311620Y37000D02*
X325500D01*
X278740Y32429D02*
X279000Y32169D01*
Y29500D02*
Y32169D01*
X278000Y28500D02*
X279000Y29500D01*
X273500Y28500D02*
X278000D01*
X270244Y25244D02*
X273500Y28500D01*
X265000Y25244D02*
X270244D01*
X259000D02*
X265000D01*
X257000Y31000D02*
X258756D01*
X259000Y30756D01*
X233500Y8000D02*
X235033Y9533D01*
X69500Y287500D02*
Y294308D01*
X70192Y295000D02*
X72866D01*
X69500Y294308D02*
X70192Y295000D01*
X72866D02*
X74000Y296134D01*
X63000Y303000D02*
X67646Y307646D01*
X63000Y284500D02*
Y303000D01*
X52000Y273500D02*
X63000Y284500D01*
X86854Y285146D02*
Y290530D01*
X78974Y287866D02*
X80482Y289374D01*
X74000Y287866D02*
X78974D01*
X80482Y289374D02*
Y289866D01*
X79000Y304252D02*
Y307646D01*
X204197Y124256D02*
X206756Y121697D01*
X215182D01*
X215378Y121893D01*
X204000Y124256D02*
X204197D01*
X215378Y119334D02*
X215544Y119500D01*
X245000Y248000D02*
X245500D01*
X55594Y331680D02*
Y332000D01*
X55063Y327000D02*
Y331149D01*
X55594Y331680D01*
X276500Y15500D02*
X285716D01*
X273500Y12500D02*
X276500Y15500D01*
X253500Y15000D02*
X258000Y19500D01*
X273500Y8000D02*
Y12500D01*
X263500Y8000D02*
Y13500D01*
X258000Y19500D02*
X281500D01*
X263500Y13500D02*
X267500Y17500D01*
X354504Y30756D02*
X354701D01*
X341000Y19031D02*
X362531D01*
X364929Y21429D01*
X334500Y12531D02*
X341000Y19031D01*
X164244Y33500D02*
Y38744D01*
X164500Y39000D01*
X216000Y86756D02*
Y90500D01*
Y86756D02*
X216000Y86756D01*
X215004Y32685D02*
X215189Y32500D01*
X218000D01*
X157155Y168845D02*
X157310Y169000D01*
X170500Y160500D02*
X174000Y157000D01*
X140232Y167622D02*
X147354Y160500D01*
X170500D01*
X133146Y163646D02*
Y169000D01*
X133000Y163500D02*
X133146Y163646D01*
X148726Y43274D02*
X149561D01*
X149600Y43235D01*
X148500Y43500D02*
X148726Y43274D01*
X174000Y148500D02*
Y157000D01*
X166878Y167622D02*
X176500Y158000D01*
Y147500D02*
Y158000D01*
X163904Y167622D02*
X166878D01*
X163018Y168508D02*
X163904Y167622D01*
X163018Y168508D02*
Y169000D01*
X84000Y198000D02*
Y214500D01*
X149246Y180859D02*
Y182808D01*
X149938Y183500D02*
X159180D01*
X149246Y182808D02*
X149938Y183500D01*
X149246Y180859D02*
X149251Y180854D01*
X246000Y315500D02*
X252744D01*
X252744Y315500D01*
X85756Y382500D02*
X85756Y382500D01*
X93357Y356643D02*
X109500Y340500D01*
X82049Y356643D02*
X93357D01*
X91000Y289500D02*
Y321000D01*
X84500Y327500D02*
X91000Y321000D01*
X117000Y33500D02*
Y41000D01*
X117059Y41059D01*
X139740Y167622D02*
X140232D01*
X138854Y168508D02*
X139740Y167622D01*
X108046Y218454D02*
X115184Y211315D01*
X106078Y217638D02*
X113216Y210500D01*
X110015Y219269D02*
X117153Y212131D01*
X103332Y217600D02*
X111000Y209932D01*
X107032Y165549D02*
Y190469D01*
X101200Y196300D02*
X107032Y190469D01*
X102950Y212600D02*
X109000Y206550D01*
X107032Y165549D02*
X108500Y164080D01*
X97000Y174000D02*
X105063Y182063D01*
Y189437D01*
X99500Y195000D02*
X105063Y189437D01*
X70250Y332250D02*
X71000Y331500D01*
X69500Y333000D02*
X70250Y332250D01*
X61000Y332000D02*
X70000D01*
X70250Y332250D01*
X27500Y345000D02*
X37500Y355000D01*
X80000Y358692D02*
X82049Y356643D01*
X80000Y358692D02*
Y360387D01*
X80244Y360631D01*
X110015Y219269D02*
Y222985D01*
X110000Y223000D02*
X110015Y222985D01*
X108031Y222185D02*
Y232519D01*
X110000Y223000D02*
Y239000D01*
X108046Y218454D02*
Y222170D01*
X102950Y237600D02*
X108031Y232519D01*
Y222185D02*
X108046Y222170D01*
X101200Y242600D02*
X106400D01*
X110000Y239000D01*
X101200Y222600D02*
X101644Y222156D01*
X104844D01*
X106078Y220922D01*
Y217638D02*
Y220922D01*
X101200Y217600D02*
X103332D01*
X101200Y237600D02*
X102950D01*
X110833Y163226D02*
X111059Y163000D01*
X108500Y159500D02*
Y164080D01*
X138854Y168508D02*
Y169000D01*
X139297Y174120D02*
X139740Y174563D01*
X138854Y169000D02*
X139297Y169443D01*
Y174120D01*
X101200Y212600D02*
X102950D01*
X87000Y195000D02*
X99500D01*
X101200Y196300D02*
Y202600D01*
X84000Y198000D02*
X87000Y195000D01*
X73888Y326808D02*
X74580Y327500D01*
X84500D01*
X73888Y325506D02*
Y326808D01*
X72707Y325309D02*
X73691D01*
X73888Y325506D01*
X258256Y315697D02*
X258378Y315575D01*
Y306622D02*
Y315575D01*
Y306622D02*
X258500Y306500D01*
X101200Y247600D02*
X101250Y247550D01*
X107450D01*
X107500Y247500D01*
X41004Y59500D02*
X49146D01*
X30100Y253400D02*
X32000Y251500D01*
X53500D01*
X30100Y253400D02*
Y260600D01*
X89354Y276000D02*
X89727Y275627D01*
Y260973D02*
Y275627D01*
Y260973D02*
X90100Y260600D01*
X55063Y318772D02*
Y327000D01*
X53095Y316803D02*
X55063Y318772D01*
X128811Y33500D02*
Y38811D01*
X234000Y124846D02*
X234000Y124846D01*
X234000Y124846D02*
Y129000D01*
X159180Y183500D02*
X159500Y183180D01*
X74500Y376500D02*
X77000D01*
X40227Y183127D02*
X40354Y183000D01*
X40100Y189700D02*
X40227Y189573D01*
X86854Y290530D02*
Y296500D01*
X86854Y296500D02*
X86854Y296500D01*
Y290530D02*
X86854Y290530D01*
X67646Y307646D02*
X73000D01*
X48000Y273500D02*
X52000D01*
X45544Y265544D02*
X48000Y268000D01*
Y273500D01*
X45544Y261044D02*
Y265544D01*
X45100Y260600D02*
X45544Y261044D01*
X38500Y267000D02*
Y273866D01*
Y267000D02*
X40100Y265400D01*
Y260600D02*
Y265400D01*
X63291Y316803D02*
X66197D01*
X71000Y331500D02*
X80074D01*
X80244Y331330D01*
X69500Y333000D02*
Y359500D01*
X70631Y360631D01*
X80244D01*
Y351509D02*
Y351706D01*
X81563Y375240D02*
X81760D01*
X163018Y169000D02*
X163904Y169886D01*
Y174563D01*
X263764Y242146D02*
X263811Y242193D01*
X254000Y242146D02*
X263764D01*
X253854Y242000D02*
X254000Y242146D01*
X253854Y235000D02*
Y242000D01*
X186291Y122476D02*
X192476D01*
X248988Y115500D02*
X249000Y115488D01*
X247000Y115500D02*
X248988D01*
X245550Y114050D02*
X247000Y115500D01*
X245550Y109500D02*
Y114050D01*
X283500Y8000D02*
X284778D01*
X286289Y9511D01*
X286308D02*
X287000Y10203D01*
Y14000D01*
X286289Y9511D02*
X286308D01*
X304532Y12531D02*
X334500D01*
X303500Y11500D02*
X304532Y12531D01*
X293500Y12500D02*
X295500Y14500D01*
X333284D01*
X293500Y8000D02*
Y12500D01*
X303500Y8000D02*
Y11500D01*
X287997Y30759D02*
X288000Y30756D01*
X253500Y8000D02*
Y15000D01*
X348844Y30756D02*
X348844Y30756D01*
X102854Y21500D02*
Y27000D01*
X101553Y28793D02*
Y33199D01*
X102854Y27000D02*
Y27492D01*
X101252Y33500D02*
X101553Y33199D01*
Y28793D02*
X102854Y27492D01*
X49146Y59500D02*
X49146Y59500D01*
X49146Y59500D02*
Y64500D01*
X49146Y64500D02*
X49146Y64500D01*
X54854Y59500D02*
X55000Y59354D01*
X60000D01*
X60065Y59419D02*
X67329D01*
X67394Y59484D01*
X60000Y59354D02*
X60065Y59419D01*
X52504Y103260D02*
X53095Y102669D01*
Y95500D02*
Y102669D01*
X51929Y103260D02*
X52504D01*
X48504Y95500D02*
X53095D01*
X48498Y95506D02*
X48504Y95500D01*
X59000D02*
X59500Y95000D01*
Y93000D02*
Y95000D01*
Y93000D02*
X61520Y90980D01*
X67394D01*
X49524Y134524D02*
X49547Y134500D01*
X49524Y134524D02*
Y139547D01*
X49500Y139571D02*
X49524Y139547D01*
X38004Y134500D02*
X38150Y134354D01*
X44500D01*
X49402D02*
X49547Y134500D01*
X44500Y134354D02*
X49402D01*
X55598D02*
X60500D01*
X55453Y134500D02*
X55598Y134354D01*
X60500D02*
X60533Y134321D01*
X67360D02*
X67394Y134288D01*
X60533Y134321D02*
X67360D01*
D13*
X180900Y248347D02*
X182699Y250146D01*
X188293D01*
X190291Y248147D01*
X195440D01*
X180900Y246504D02*
Y248347D01*
X195440Y248147D02*
X196000Y247587D01*
X180801Y246406D02*
X180900Y246504D01*
X198719Y240854D02*
X200789Y242925D01*
X198000Y240854D02*
X198719D01*
X200789Y242925D02*
X200925D01*
X201000Y243000D01*
X198073Y231073D02*
Y235073D01*
Y231073D02*
X198146Y231000D01*
X198000Y235146D02*
X198073Y235073D01*
X194423Y235638D02*
X197508D01*
X198000Y235146D01*
X184541Y245520D02*
Y246406D01*
Y245520D02*
X194423Y235638D01*
X198301Y219155D02*
X198604Y219459D01*
X197957Y214701D02*
X198301Y215046D01*
Y219155D01*
X184541Y220612D02*
Y223383D01*
X185695Y219459D02*
X198604D01*
X184541Y220612D02*
X185695Y219459D01*
X175000Y239500D02*
X180522D01*
X184541Y234594D02*
Y235480D01*
X180522Y239500D02*
X184541Y235480D01*
X167500Y22000D02*
X173500D01*
X163802Y21859D02*
X163911Y21969D01*
X151012Y21488D02*
X157335D01*
X203854Y231000D02*
Y231492D01*
X204346Y231000D02*
X204957D01*
X203854Y231492D02*
X204346Y231000D01*
X184443Y208630D02*
Y211474D01*
X181575Y207575D02*
X183388D01*
X184443Y211474D02*
X184541Y211572D01*
X183388Y207575D02*
X184443Y208630D01*
X181500Y207500D02*
X181575Y207575D01*
X184443Y234693D02*
X184541Y234594D01*
X119000Y267147D02*
Y268147D01*
X121000Y270147D01*
Y273463D01*
X32527Y320354D02*
X35000D01*
X37563Y322425D02*
X38425D01*
X38500Y322500D01*
X35000Y320354D02*
X35492D01*
X37563Y322425D01*
X61975Y337526D02*
X62000Y337500D01*
X61975Y337526D02*
Y363843D01*
X33027Y327925D02*
X33527Y328425D01*
X28516Y320847D02*
Y321186D01*
Y320847D02*
X29008Y320354D01*
X29500D01*
X22000Y322339D02*
X27363D01*
X28516Y321186D01*
X20000Y337500D02*
X22500Y340000D01*
X138500Y266500D02*
X138575Y266575D01*
X141000Y270147D02*
Y273463D01*
X138575Y267723D02*
X141000Y270147D01*
X138575Y266575D02*
Y267723D01*
X131000Y270147D02*
Y273463D01*
X128575Y267723D02*
X131000Y270147D01*
X128575Y267075D02*
Y267723D01*
X97146Y33500D02*
X97230Y33415D01*
X67394Y55547D02*
X72953D01*
X165654Y285566D02*
Y319250D01*
X168250D01*
X162323Y284323D02*
X164410D01*
X152874Y283500D02*
X161500D01*
X162224Y284224D02*
X162323Y284323D01*
X158750Y319250D02*
X165654D01*
X162224Y283653D02*
Y284224D01*
X164410Y284323D02*
X165654Y285566D01*
X109500Y340500D02*
X137500D01*
X158750Y319250D01*
X152776Y283598D02*
X152874Y283500D01*
X97410Y296256D02*
X97417Y296249D01*
Y290854D02*
X97425Y290846D01*
X97417Y290854D02*
Y296249D01*
X97410Y338910D02*
X98000Y339500D01*
X97410Y296256D02*
Y338910D01*
X304458Y41313D02*
Y44463D01*
Y47613D02*
Y50762D01*
Y44463D02*
Y47613D01*
X252920Y44463D02*
X304458D01*
X311347Y110224D02*
Y115154D01*
Y107075D02*
Y110224D01*
Y103925D02*
Y107075D01*
Y100776D02*
Y103925D01*
X310260Y116240D02*
X311347Y115154D01*
X310260Y116240D02*
Y116347D01*
X168250Y319250D02*
X178500Y329500D01*
X32527Y320354D02*
Y327925D01*
X29500Y320354D02*
X32527D01*
X163771Y21969D02*
X163802Y21937D01*
X160000Y22000D02*
X160031Y21969D01*
X167469D02*
X167500Y22000D01*
X163911Y21969D02*
X167469D01*
X160031D02*
X163771D01*
X157846Y22000D02*
X160000D01*
X157335Y21488D02*
X157846Y22000D01*
X81500Y49898D02*
Y50000D01*
X50686Y19084D02*
X81500Y49898D01*
X50579Y14500D02*
X50686Y14607D01*
Y19084D01*
X93439Y42939D02*
X93500Y43000D01*
X97146Y21008D02*
Y21500D01*
X93378Y33500D02*
X93439Y33561D01*
X28500Y163500D02*
Y168500D01*
X32000Y172000D01*
X80244Y351509D02*
X82063Y349690D01*
X185500Y257244D02*
X201256D01*
X205322Y247909D02*
Y253178D01*
X201256Y257244D02*
X205322Y253178D01*
X199500Y271000D02*
X242821D01*
X195000Y275500D02*
X199500Y271000D01*
X242821D02*
X249340Y264480D01*
X195000Y275500D02*
Y283413D01*
X180000Y297000D02*
X196000D01*
X200000Y301000D01*
Y309658D01*
X177697Y294697D02*
X180000Y297000D01*
X205000Y283413D02*
X205165Y283579D01*
X213335D02*
X213500Y283744D01*
X205165Y283579D02*
X213335D01*
X46604Y294104D02*
X52896D01*
X150953Y219376D02*
X153626Y222050D01*
X181500Y207500D02*
X181575Y207425D01*
X284000Y89000D02*
X284000Y89000D01*
X284000Y82756D02*
Y89000D01*
X277000Y94554D02*
X282345D01*
X286303Y98315D02*
Y108613D01*
X284197Y96012D02*
X284787Y96602D01*
Y96799D01*
X286303Y98315D01*
X283803Y96012D02*
X284197D01*
X268450Y94554D02*
X277000D01*
X282345D02*
X283803Y96012D01*
X272657Y167510D02*
Y183516D01*
X271504Y166357D02*
X272657Y167510D01*
Y183516D02*
X272854Y184500D01*
X7253Y302253D02*
X11253D01*
X14000Y305000D02*
Y325000D01*
X6500Y301500D02*
X7253Y302253D01*
X11253D02*
X14000Y305000D01*
X97146Y21500D02*
Y27000D01*
X87500Y165500D02*
X97071D01*
X86925D02*
X87500D01*
Y174102D01*
Y165075D02*
Y165500D01*
X85925Y163500D02*
X86425Y164000D01*
X152124Y230731D02*
X152393Y231000D01*
X147354Y230731D02*
X152124D01*
X152393Y231000D02*
X152500D01*
X210000Y300000D02*
Y309658D01*
X98000Y339500D02*
Y343000D01*
X85756Y382500D02*
X97000D01*
X98000Y339500D02*
X101000D01*
X95760Y345240D02*
X98000Y343000D01*
X82063Y345240D02*
X95760D01*
X307500Y119000D02*
X307607D01*
X310260Y116347D01*
X171823Y26177D02*
X191173D01*
X171500Y25854D02*
X171823Y26177D01*
X191173D02*
X191496Y26500D01*
X149000Y170000D02*
Y170500D01*
X149251Y170751D02*
Y175146D01*
X149000Y170500D02*
X149251Y170751D01*
X178500Y329500D02*
X205000D01*
X140967Y242147D02*
X141039Y242075D01*
X131543Y242219D02*
X131615Y242147D01*
X141427Y219573D02*
X141500Y219646D01*
X133043Y219231D02*
X133116Y219303D01*
X132703Y169443D02*
X133146Y169000D01*
X132260Y174563D02*
X132703Y174120D01*
Y169443D02*
Y174120D01*
X97146Y21500D02*
X97638Y21008D01*
X98791Y17760D02*
X108760D01*
X97638Y18913D02*
Y21008D01*
Y18913D02*
X98791Y17760D01*
X108760D02*
X110799Y19799D01*
Y24500D01*
X216000Y77500D02*
X217500Y76000D01*
X216591Y81835D02*
X219335D01*
X217500Y76000D02*
X221244D01*
X216000Y77500D02*
Y81244D01*
X216000Y81244D01*
X101252Y33500D02*
X105189D01*
X148346Y253992D02*
Y258240D01*
X149000Y258893D01*
Y259000D01*
X131613Y251127D02*
X131682Y251196D01*
X131543Y242219D02*
X131613Y242288D01*
X85201Y176402D02*
Y176500D01*
Y176402D02*
X87500Y174102D01*
X86425Y164000D02*
X87500Y165075D01*
X36500Y294209D02*
X46500D01*
X14000Y325000D02*
X15500D01*
X6500D02*
X14000D01*
X15500D02*
X20000Y329500D01*
Y337500D01*
X93378Y152398D02*
X97315D01*
X40354Y177500D02*
X40500Y177354D01*
X82063Y345240D02*
Y349690D01*
X81760Y375240D02*
X85756Y379236D01*
Y382500D01*
X147177Y230554D02*
X147354Y230731D01*
X147854Y253500D02*
X148346Y253992D01*
X147854Y253500D02*
X147984Y253370D01*
Y248276D02*
Y253370D01*
X147000Y247784D02*
X147492D01*
X147984Y248276D01*
X141039Y247784D02*
X147000D01*
X141039Y247784D02*
X141039Y247784D01*
X147000D02*
X147000Y247784D01*
X147177Y225262D02*
Y230554D01*
X147000Y225085D02*
X147177Y225262D01*
X142000Y225085D02*
X147000D01*
X156867Y169443D02*
Y174120D01*
Y169443D02*
X157310Y169000D01*
X156424Y174563D02*
X156867Y174120D01*
X97071Y159500D02*
Y165500D01*
X97193Y152520D02*
X97315Y152398D01*
X97193Y152520D02*
Y159378D01*
X97071Y159500D02*
X97193Y159378D01*
X173572Y277500D02*
Y282383D01*
X173760Y282571D01*
X173572Y277500D02*
X174744Y276328D01*
Y276131D02*
Y276328D01*
X177697Y291626D02*
Y294697D01*
X177500Y291429D02*
X177697Y291626D01*
X204872Y283541D02*
X205000Y283413D01*
X258256Y315697D02*
X260819Y318260D01*
Y326587D01*
X258756Y372303D02*
X260819Y370240D01*
Y362413D02*
Y370240D01*
X258756Y372303D02*
Y372500D01*
X258756Y372500D02*
X258756Y372500D01*
X240500Y362500D02*
X250732D01*
X263272Y222654D02*
X263811Y222114D01*
X254000Y223146D02*
X254492Y222654D01*
X263272D01*
X247000Y223146D02*
X254000D01*
X254024Y228831D02*
X263787D01*
X263811Y228807D01*
X254000Y228854D02*
X254024Y228831D01*
X202102Y144103D02*
Y148506D01*
X192470Y110816D02*
X193008Y111354D01*
X193500D01*
X186442Y110816D02*
X192470D01*
X226756Y71000D02*
Y75803D01*
X227622Y74937D01*
X226756Y75803D02*
Y76000D01*
X227622Y74937D02*
X234260D01*
X223500Y104500D02*
X245550D01*
X221000Y102000D02*
X223500Y104500D01*
X221000Y83500D02*
Y102000D01*
X219335Y81835D02*
X221000Y83500D01*
X216000Y81244D02*
X216591Y81835D01*
X230125Y99500D02*
X245550D01*
X229500Y98875D02*
X230125Y99500D01*
X221244Y60000D02*
Y65500D01*
X221244Y65500D01*
Y71000D02*
Y76000D01*
X229500Y78941D02*
Y83126D01*
X226756Y76000D02*
Y76197D01*
X229500Y78941D01*
X226756Y65500D02*
Y71000D01*
X171427Y25927D02*
X171500Y25854D01*
X166354Y26000D02*
X166427Y25927D01*
X171427D01*
X155573D02*
X160573D01*
X155500Y25854D02*
X155573Y25927D01*
X160573D02*
X160646Y26000D01*
X160458Y26188D02*
Y33349D01*
X160307Y33500D02*
X160458Y33349D01*
Y26188D02*
X160646Y26000D01*
X97230Y27085D02*
Y33415D01*
X97146Y27000D02*
X97230Y27085D01*
D19*
X198146Y231000D02*
D03*
X203854D02*
D03*
X47146Y301000D02*
D03*
X52854D02*
D03*
X133146Y169000D02*
D03*
X138854D02*
D03*
X102779Y159500D02*
D03*
X97071D02*
D03*
X217646Y204000D02*
D03*
X223354D02*
D03*
X141646Y230731D02*
D03*
X147354D02*
D03*
X81146Y290530D02*
D03*
X86854D02*
D03*
X42789Y95506D02*
D03*
X48498D02*
D03*
X22354Y183000D02*
D03*
X16646D02*
D03*
X22354Y177000D02*
D03*
X16646D02*
D03*
X40354Y183000D02*
D03*
X34646D02*
D03*
X163018Y169000D02*
D03*
X157310D02*
D03*
X142146Y253500D02*
D03*
X147854D02*
D03*
X198646Y219500D02*
D03*
X204354D02*
D03*
X54854Y64500D02*
D03*
X49146D02*
D03*
X49146Y59500D02*
D03*
X54854D02*
D03*
X160646Y26000D02*
D03*
X166354D02*
D03*
X248146Y235000D02*
D03*
X253854D02*
D03*
X267146Y184500D02*
D03*
X272854D02*
D03*
X34646Y177500D02*
D03*
X40354D02*
D03*
X31146Y102000D02*
D03*
X36854D02*
D03*
X97146Y21500D02*
D03*
X102854D02*
D03*
X97071Y165500D02*
D03*
X102779D02*
D03*
X97146Y27000D02*
D03*
X102854D02*
D03*
X83646Y276000D02*
D03*
X89354D02*
D03*
X81146Y296500D02*
D03*
X86854D02*
D03*
D20*
X198000Y235146D02*
D03*
Y240854D02*
D03*
X46500Y334146D02*
D03*
Y339854D02*
D03*
X41000D02*
D03*
Y334146D02*
D03*
X79000Y307646D02*
D03*
Y313354D02*
D03*
X126000Y174500D02*
D03*
Y180209D02*
D03*
X155500Y25854D02*
D03*
Y20146D02*
D03*
X141500Y225354D02*
D03*
Y219646D02*
D03*
X147000Y225085D02*
D03*
Y219376D02*
D03*
X29500Y314646D02*
D03*
Y320354D02*
D03*
X35000Y314646D02*
D03*
Y320354D02*
D03*
X36500Y288500D02*
D03*
Y294209D02*
D03*
X46500Y288500D02*
D03*
Y294209D02*
D03*
X149251Y180854D02*
D03*
Y175146D02*
D03*
X141039Y247784D02*
D03*
Y242075D02*
D03*
X147000Y247784D02*
D03*
Y242075D02*
D03*
X197957Y208993D02*
D03*
Y214701D02*
D03*
X231013Y38902D02*
D03*
Y44610D02*
D03*
X221744Y38902D02*
D03*
Y44610D02*
D03*
X215244Y38902D02*
D03*
Y44610D02*
D03*
X171500Y20146D02*
D03*
Y25854D02*
D03*
X228000Y119039D02*
D03*
Y124748D02*
D03*
X254000Y223146D02*
D03*
Y228854D02*
D03*
X247000Y223146D02*
D03*
Y228854D02*
D03*
X254000Y242146D02*
D03*
Y247854D02*
D03*
X60000Y59354D02*
D03*
Y53646D02*
D03*
X44500Y134354D02*
D03*
Y128646D02*
D03*
X60500Y134354D02*
D03*
Y128646D02*
D03*
X193500Y111354D02*
D03*
Y105646D02*
D03*
X237454Y44610D02*
D03*
Y38902D02*
D03*
X73000Y313354D02*
D03*
Y307646D02*
D03*
D21*
X22000Y322339D02*
D03*
Y339661D02*
D03*
D22*
X42898Y322709D02*
D03*
X63291D02*
D03*
Y320740D02*
D03*
Y318772D02*
D03*
Y316803D02*
D03*
Y314835D02*
D03*
Y312866D02*
D03*
Y310898D02*
D03*
X42898D02*
D03*
Y312866D02*
D03*
Y314835D02*
D03*
Y316803D02*
D03*
Y318772D02*
D03*
Y320740D02*
D03*
D23*
X47189Y327000D02*
D03*
X59000Y306606D02*
D03*
X57032D02*
D03*
X55063D02*
D03*
X53095D02*
D03*
X51126D02*
D03*
X49158D02*
D03*
X47189D02*
D03*
X49158Y327000D02*
D03*
X51126D02*
D03*
X53095D02*
D03*
X55063D02*
D03*
X57032D02*
D03*
X59000D02*
D03*
D24*
X33000Y340201D02*
D03*
Y327799D02*
D03*
D25*
X30100Y260600D02*
D03*
X35100D02*
D03*
X40100D02*
D03*
X45100D02*
D03*
X50100D02*
D03*
X55100D02*
D03*
X60100D02*
D03*
X65100D02*
D03*
X70100D02*
D03*
X75100D02*
D03*
X80100D02*
D03*
X85100D02*
D03*
X90100D02*
D03*
X95100D02*
D03*
Y189700D02*
D03*
X90100D02*
D03*
X85100D02*
D03*
X80100D02*
D03*
X75100D02*
D03*
X70100D02*
D03*
X65100D02*
D03*
X60100D02*
D03*
X55100D02*
D03*
X50100D02*
D03*
X45100D02*
D03*
X40100D02*
D03*
X35100D02*
D03*
X30100D02*
D03*
D26*
X101200Y247600D02*
D03*
Y242600D02*
D03*
Y237600D02*
D03*
Y232600D02*
D03*
Y227600D02*
D03*
Y222600D02*
D03*
Y217600D02*
D03*
Y212600D02*
D03*
Y207600D02*
D03*
Y202600D02*
D03*
D27*
X59500Y228000D02*
D03*
D28*
X56831Y366992D02*
D03*
X59390D02*
D03*
X61949D02*
D03*
X54272D02*
D03*
X51713D02*
D03*
D29*
X69429Y370142D02*
D03*
X44232D02*
D03*
D30*
X61162Y379000D02*
D03*
X52500D02*
D03*
D31*
X72707Y325309D02*
D03*
X79793D02*
D03*
Y322750D02*
D03*
Y320191D02*
D03*
X72707D02*
D03*
Y322750D02*
D03*
D32*
X159075Y290347D02*
D03*
X162224D02*
D03*
X152776D02*
D03*
X155925D02*
D03*
Y283653D02*
D03*
X152776D02*
D03*
X162224D02*
D03*
X159075D02*
D03*
X100575Y290846D02*
D03*
X103724D02*
D03*
X94276D02*
D03*
X97425D02*
D03*
Y284154D02*
D03*
X94276D02*
D03*
X103724D02*
D03*
X100575D02*
D03*
D33*
X294963Y93000D02*
D03*
Y88000D02*
D03*
Y83000D02*
D03*
Y78000D02*
D03*
Y73000D02*
D03*
Y68000D02*
D03*
Y63000D02*
D03*
Y58000D02*
D03*
X323037Y93000D02*
D03*
Y88000D02*
D03*
Y83000D02*
D03*
Y78000D02*
D03*
Y73000D02*
D03*
Y68000D02*
D03*
Y63000D02*
D03*
Y58000D02*
D03*
D34*
X35342Y39000D02*
D03*
X58658D02*
D03*
X63108Y164000D02*
D03*
X86425D02*
D03*
D35*
X311347Y103925D02*
D03*
Y100776D02*
D03*
Y110224D02*
D03*
Y107075D02*
D03*
X304654D02*
D03*
Y110224D02*
D03*
Y100776D02*
D03*
Y103925D02*
D03*
X311151Y44463D02*
D03*
Y41313D02*
D03*
Y50762D02*
D03*
Y47613D02*
D03*
X304458D02*
D03*
Y50762D02*
D03*
Y41313D02*
D03*
Y44463D02*
D03*
D36*
X184541Y223383D02*
D03*
X180801D02*
D03*
X177061D02*
D03*
Y211572D02*
D03*
X184541D02*
D03*
Y234594D02*
D03*
X177061D02*
D03*
Y246406D02*
D03*
X180801D02*
D03*
X184541D02*
D03*
D37*
X67394Y51610D02*
D03*
Y134288D02*
D03*
X186291Y134287D02*
D03*
X67394Y55547D02*
D03*
Y59484D02*
D03*
Y63421D02*
D03*
Y67358D02*
D03*
Y71295D02*
D03*
Y75232D02*
D03*
Y79169D02*
D03*
Y83106D02*
D03*
Y87043D02*
D03*
Y90980D02*
D03*
Y94917D02*
D03*
Y98854D02*
D03*
Y102791D02*
D03*
Y106728D02*
D03*
Y110665D02*
D03*
Y114602D02*
D03*
Y118539D02*
D03*
Y122476D02*
D03*
Y126413D02*
D03*
Y130350D02*
D03*
X186291D02*
D03*
Y126413D02*
D03*
Y122476D02*
D03*
Y118539D02*
D03*
Y114602D02*
D03*
Y110665D02*
D03*
Y106728D02*
D03*
Y102791D02*
D03*
Y98854D02*
D03*
Y94917D02*
D03*
Y90980D02*
D03*
Y87043D02*
D03*
Y83106D02*
D03*
Y79169D02*
D03*
Y75232D02*
D03*
Y71295D02*
D03*
Y67358D02*
D03*
Y63421D02*
D03*
Y59484D02*
D03*
Y55547D02*
D03*
D38*
X168181Y152398D02*
D03*
X85504D02*
D03*
Y33500D02*
D03*
X168181D02*
D03*
X164244D02*
D03*
X160307D02*
D03*
X156370D02*
D03*
X152433D02*
D03*
X148496D02*
D03*
X144559D02*
D03*
X140622D02*
D03*
X136685D02*
D03*
X132748D02*
D03*
X128811D02*
D03*
X124874D02*
D03*
X120937D02*
D03*
X117000D02*
D03*
X113063D02*
D03*
X109126D02*
D03*
X105189D02*
D03*
X101252D02*
D03*
X97315D02*
D03*
X93378D02*
D03*
X89441D02*
D03*
Y152398D02*
D03*
X93378D02*
D03*
X97315D02*
D03*
X101252D02*
D03*
X105189D02*
D03*
X109126D02*
D03*
X113063D02*
D03*
X117000D02*
D03*
X120937D02*
D03*
X124874D02*
D03*
X128811D02*
D03*
X132748D02*
D03*
X136685D02*
D03*
X140622D02*
D03*
X144559D02*
D03*
X148496D02*
D03*
X152433D02*
D03*
X156370D02*
D03*
X160307D02*
D03*
X164244D02*
D03*
D39*
X237984Y32685D02*
D03*
X230504D02*
D03*
X234244Y23827D02*
D03*
X278740Y32429D02*
D03*
X271260D02*
D03*
X275000Y23571D02*
D03*
X177500Y291429D02*
D03*
X181240Y282571D02*
D03*
X173760D02*
D03*
X333000Y24071D02*
D03*
X329260Y32929D02*
D03*
X336740D02*
D03*
X364621Y24071D02*
D03*
X360881Y32929D02*
D03*
X368361D02*
D03*
X303500Y23571D02*
D03*
X299760Y32429D02*
D03*
X307240D02*
D03*
X22000Y299929D02*
D03*
X25740Y291071D02*
D03*
X18260D02*
D03*
X222484Y32685D02*
D03*
X215004D02*
D03*
X218744Y23827D02*
D03*
D40*
X204000Y124256D02*
D03*
Y118744D02*
D03*
X240000Y119244D02*
D03*
Y124756D02*
D03*
X198000Y124756D02*
D03*
Y119244D02*
D03*
X189000Y257244D02*
D03*
Y262756D02*
D03*
X216000Y86756D02*
D03*
Y81244D02*
D03*
X268500Y115500D02*
D03*
Y121012D02*
D03*
X277000Y89244D02*
D03*
Y94756D02*
D03*
X284000Y77244D02*
D03*
Y82756D02*
D03*
X249000Y121000D02*
D03*
Y115488D02*
D03*
X284000Y89000D02*
D03*
Y94512D02*
D03*
X213500Y283744D02*
D03*
Y289256D02*
D03*
X354504Y25244D02*
D03*
Y30756D02*
D03*
X348844Y25244D02*
D03*
Y30756D02*
D03*
X322869Y25244D02*
D03*
Y30756D02*
D03*
X317225Y25244D02*
D03*
Y30756D02*
D03*
X293500Y25244D02*
D03*
Y30756D02*
D03*
X288000Y25244D02*
D03*
Y30756D02*
D03*
X265000Y25244D02*
D03*
Y30756D02*
D03*
X259000Y25244D02*
D03*
Y30756D02*
D03*
D41*
X136000Y182437D02*
D03*
X139740Y174563D02*
D03*
X132260D02*
D03*
X156424D02*
D03*
X163904D02*
D03*
X160164Y182437D02*
D03*
X238000Y67063D02*
D03*
X234260Y74937D02*
D03*
X241740D02*
D03*
D42*
X337386Y375500D02*
D03*
X360614D02*
D03*
D43*
X80244Y351000D02*
D03*
X85756D02*
D03*
X80244Y331330D02*
D03*
X85756D02*
D03*
X85756Y382500D02*
D03*
X80244D02*
D03*
X80244Y360631D02*
D03*
X85756D02*
D03*
X226756Y60000D02*
D03*
X221244D02*
D03*
X221244Y65500D02*
D03*
X226756D02*
D03*
X221244Y76000D02*
D03*
X226756D02*
D03*
X221244Y71000D02*
D03*
X226756D02*
D03*
X24256Y277500D02*
D03*
X18744D02*
D03*
X24256Y284000D02*
D03*
X18744D02*
D03*
X258256Y315500D02*
D03*
X252744D02*
D03*
X258756Y372500D02*
D03*
X253244D02*
D03*
X180256Y276131D02*
D03*
X174744D02*
D03*
D44*
X81563Y375240D02*
D03*
Y367760D02*
D03*
X89437Y371500D02*
D03*
X89937Y341500D02*
D03*
X82063Y337760D02*
D03*
Y345240D02*
D03*
D45*
X263811Y248886D02*
D03*
Y242193D02*
D03*
Y235500D02*
D03*
Y228807D02*
D03*
Y222114D02*
D03*
D46*
X74000Y296134D02*
D03*
Y287866D02*
D03*
X227000Y213866D02*
D03*
Y222134D02*
D03*
X48000Y273500D02*
D03*
Y281768D02*
D03*
X38500Y273866D02*
D03*
Y282134D02*
D03*
X276500Y116634D02*
D03*
Y108366D02*
D03*
D47*
X313870Y139000D02*
D03*
X285130D02*
D03*
D48*
X153626Y223231D02*
D03*
X169375D02*
D03*
X153626Y246410D02*
D03*
X169375D02*
D03*
D49*
X133043Y219231D02*
D03*
X125957D02*
D03*
X133043Y227731D02*
D03*
X125957D02*
D03*
X131682Y251196D02*
D03*
X124595D02*
D03*
X131543Y242219D02*
D03*
X124457D02*
D03*
X204457Y238000D02*
D03*
X211543D02*
D03*
X204957Y210500D02*
D03*
X212043D02*
D03*
X253457Y59500D02*
D03*
X260543D02*
D03*
X253457Y68500D02*
D03*
X260543D02*
D03*
X253457Y77500D02*
D03*
X260543D02*
D03*
X253500Y86500D02*
D03*
X260587D02*
D03*
D50*
X25366Y110500D02*
D03*
X33634D02*
D03*
D51*
X38324Y163500D02*
D03*
X10676D02*
D03*
D52*
X257000Y102000D02*
D03*
D53*
X245550Y94500D02*
D03*
Y99500D02*
D03*
Y104500D02*
D03*
Y109500D02*
D03*
X268450D02*
D03*
Y104500D02*
D03*
Y99500D02*
D03*
Y94500D02*
D03*
D54*
X229500Y98875D02*
D03*
Y83126D02*
D03*
D55*
X206000Y283413D02*
D03*
X196000D02*
D03*
X206000Y247587D02*
D03*
X196000D02*
D03*
X250819Y326587D02*
D03*
X260819D02*
D03*
X250819Y362413D02*
D03*
X260819D02*
D03*
D56*
X110799Y24500D02*
D03*
X123201D02*
D03*
X85201Y176500D02*
D03*
X72799D02*
D03*
D57*
X35000Y65307D02*
D03*
Y53693D02*
D03*
X197500Y20693D02*
D03*
Y32307D02*
D03*
X32000Y128693D02*
D03*
Y140307D02*
D03*
D58*
X41004Y59500D02*
D03*
X191496Y26500D02*
D03*
X38004Y134500D02*
D03*
D59*
X49500Y143429D02*
D03*
Y139571D02*
D03*
D60*
X214953Y111000D02*
D03*
X209047D02*
D03*
X59000Y95500D02*
D03*
X53095D02*
D03*
X49547Y134500D02*
D03*
X55453D02*
D03*
D61*
X210000Y124453D02*
D03*
Y118547D02*
D03*
X234000Y118941D02*
D03*
Y124846D02*
D03*
D62*
X299059Y168736D02*
D03*
X299000Y198500D02*
D03*
D63*
X261374Y198000D02*
D03*
X245626D02*
D03*
D64*
X311201Y286500D02*
D03*
X273799D02*
D03*
D65*
X146000Y301537D02*
D03*
X141000D02*
D03*
X136000D02*
D03*
X131000D02*
D03*
X126000D02*
D03*
X121000D02*
D03*
X116000D02*
D03*
X111000D02*
D03*
X146000Y273463D02*
D03*
X141000D02*
D03*
X136000D02*
D03*
X131000D02*
D03*
X126000D02*
D03*
X121000D02*
D03*
X116000D02*
D03*
X111000D02*
D03*
D66*
X215378Y124452D02*
D03*
X222621Y124452D02*
D03*
X222621Y121894D02*
D03*
X222621Y119334D02*
D03*
X215378Y119334D02*
D03*
X215378Y121893D02*
D03*
D67*
X218252Y184043D02*
D03*
X252898D02*
D03*
Y137957D02*
D03*
X218252D02*
D03*
D68*
X202102Y173506D02*
D03*
Y168506D02*
D03*
Y163506D02*
D03*
Y158506D02*
D03*
Y153506D02*
D03*
Y148506D02*
D03*
D69*
X51929Y103260D02*
D03*
Y110740D02*
D03*
X43071Y107000D02*
D03*
D138*
X53095Y316803D02*
D03*
D139*
X304500Y235500D02*
D03*
D140*
X169527Y223383D02*
X176000D01*
X169375Y223231D02*
X169527Y223383D01*
X204457Y217000D02*
Y225000D01*
Y231500D01*
Y212000D02*
Y217000D01*
X195000Y225000D02*
X204457D01*
X190130Y229870D02*
X195000Y225000D01*
X179630Y229870D02*
X190130D01*
X177061Y232439D02*
X179630Y229870D01*
X177061Y232439D02*
Y234594D01*
X169379Y246406D02*
X176000D01*
X169375Y246410D02*
X169379Y246406D01*
X192000Y290500D02*
X216285D01*
X141039Y242075D02*
X150473D01*
X21500Y52000D02*
Y146694D01*
X35500Y34000D02*
X39433Y30067D01*
Y10567D02*
Y30067D01*
X21500Y52000D02*
X34750Y38750D01*
X32256Y201756D02*
X34000Y203500D01*
X48000D02*
X56500Y212000D01*
X34000Y203500D02*
X48000D01*
X23806Y149000D02*
X37500D01*
X64500D01*
X21500Y146694D02*
X23806Y149000D01*
X45500Y164000D02*
X54970Y154530D01*
X68970D01*
X92000Y131500D01*
X39433Y10567D02*
X43000Y7000D01*
X86694Y220000D02*
X89000Y217694D01*
X79000Y220000D02*
X86694D01*
X89000Y199000D02*
Y217694D01*
X251000Y26000D02*
Y42543D01*
X253457Y45000D01*
X77500Y39000D02*
X81516Y43016D01*
X77500Y16000D02*
Y39000D01*
X43000Y7000D02*
X68500D01*
X77500Y16000D01*
X23000Y110500D02*
X25366D01*
X71000Y212000D02*
X79000Y220000D01*
X56500Y212000D02*
X71000D01*
X120500Y175000D02*
Y190000D01*
Y175000D02*
X125500Y170000D01*
X139000Y237500D02*
Y240012D01*
X153626Y245229D02*
Y246410D01*
X150473Y242075D02*
X153626Y245229D01*
X182500Y266500D02*
X187500Y271500D01*
X174500Y254500D02*
Y264194D01*
X176806Y266500D01*
X182500D01*
X243354Y223146D02*
X247000D01*
X239000Y227500D02*
Y248500D01*
Y227500D02*
X243354Y223146D01*
X239000Y248500D02*
X246000Y255500D01*
X187500Y271500D02*
Y286000D01*
X192000Y290500D01*
X216285D02*
X218592Y292806D01*
Y314549D01*
X215000Y318141D02*
X218592Y314549D01*
X215000Y318141D02*
Y319657D01*
X224000Y378500D02*
X251438D01*
X253244Y376694D01*
X28500Y163500D02*
X38324D01*
X27000D02*
X28500D01*
X16646Y173854D02*
X27000Y163500D01*
X16646Y173854D02*
Y177000D01*
X40500Y164000D02*
X45500D01*
X92000Y131500D02*
X148000D01*
X108500Y45000D02*
X115000Y51500D01*
X108500Y43000D02*
Y45000D01*
X115000Y51500D02*
X144500D01*
X148000Y55000D01*
Y131500D01*
X147000Y219376D02*
X150953D01*
X141039D02*
X147000D01*
X187500Y173000D02*
X205357Y190857D01*
X187500Y145554D02*
Y173000D01*
X205357Y190857D02*
X231303D01*
X158803Y116857D02*
X187500Y145554D01*
X153500Y212711D02*
X153626Y212837D01*
Y222050D01*
X204500Y231543D02*
Y236099D01*
X204399Y204500D02*
Y211942D01*
Y204500D02*
X217146D01*
X204457Y231500D02*
X204500Y231543D01*
X285130Y139000D02*
X286303Y141362D01*
Y145857D01*
X285130Y139000D02*
X286303Y136638D01*
Y108613D02*
Y136638D01*
X286303Y145857D02*
X298862Y158416D01*
X237803Y175857D02*
Y184357D01*
X299303Y172673D02*
X300866Y168593D01*
X237803Y175857D02*
X247303Y166357D01*
X299303Y172673D02*
Y177857D01*
X158803Y63197D02*
Y116857D01*
X298862Y158416D02*
Y164799D01*
X231303Y190857D02*
X237803Y184357D01*
X272997D02*
X292803D01*
X247303Y166357D02*
X271504D01*
X292803Y184357D02*
X297160Y180000D01*
X297500Y179660D02*
X299303Y177857D01*
X298862Y164799D02*
X300866Y168593D01*
X246500Y236646D02*
X248146Y235000D01*
X246500Y236646D02*
Y239000D01*
X298750Y198250D02*
X299000Y198500D01*
X261624Y198250D02*
X298750D01*
X299000Y198500D02*
Y225500D01*
X79500Y163500D02*
X85925D01*
X205000Y329500D02*
Y359500D01*
Y319657D02*
Y329500D01*
Y359500D02*
X224000Y378500D01*
X205000Y319657D02*
X215000D01*
X253244Y372500D02*
Y376694D01*
X217146Y204500D02*
X217646Y204000D01*
Y198146D02*
Y204000D01*
X217500Y198000D02*
X217646Y198146D01*
X240500Y94500D02*
X245550D01*
X253457Y45000D02*
Y59500D01*
X131615Y242147D02*
X140967D01*
X133116Y219303D02*
X140966D01*
X133043Y219231D02*
Y227731D01*
X131613Y242288D02*
Y251127D01*
X253457Y59500D02*
Y68500D01*
Y77500D01*
X40500Y165676D02*
Y177354D01*
X40227Y183127D02*
Y189573D01*
X40354Y177500D02*
Y183000D01*
X250732Y362500D02*
X250819Y362413D01*
X296500Y320000D02*
Y333500D01*
X273799Y297299D02*
X296500Y320000D01*
X273799Y286500D02*
Y297299D01*
X246000Y255500D02*
X257500D01*
X273799Y271799D01*
Y286500D01*
X263811Y235500D02*
X294000D01*
X295000Y234500D01*
X261374Y198000D02*
X261624Y198250D01*
X253457Y77500D02*
X253478Y77522D01*
Y86478D02*
X253500Y86500D01*
X253478Y77522D02*
Y86478D01*
X253500Y86500D02*
Y86894D01*
X245550Y89306D02*
Y94500D01*
X253106Y87287D02*
X253500Y86894D01*
X247569Y87287D02*
X253106D01*
X245550Y89306D02*
X247569Y87287D01*
X259012Y121012D02*
X268500D01*
X259000Y121000D02*
X259012Y121012D01*
X229500Y83126D02*
X239874D01*
X240000Y83000D01*
X238000Y61000D02*
Y67063D01*
D141*
X93439Y33561D02*
Y42939D01*
X93378Y33500D02*
X97146D01*
D142*
X402500Y17500D02*
D03*
Y370500D02*
D03*
X17500Y370000D02*
D03*
Y17500D02*
D03*
D143*
X48957Y370732D02*
D03*
X64705D02*
D03*
X175000Y239500D02*
D03*
X201000Y243000D02*
D03*
X128575Y267075D02*
D03*
X119000Y267147D02*
D03*
X65937Y336982D02*
D03*
X62000Y337500D02*
D03*
X58000Y354000D02*
D03*
X58201Y357701D02*
D03*
X49789Y351000D02*
D03*
X46639D02*
D03*
X40000Y351500D02*
D03*
X38500Y322500D02*
D03*
X60000Y138000D02*
D03*
X199500Y93500D02*
D03*
X197500Y86000D02*
D03*
X205000Y89500D02*
D03*
X40000Y338500D02*
D03*
X138500Y266500D02*
D03*
X130818Y311375D02*
D03*
X97410Y296256D02*
D03*
X297957Y99295D02*
D03*
X298000Y103500D02*
D03*
Y107500D02*
D03*
X305017Y114673D02*
D03*
X401528Y353146D02*
D03*
X391685Y333461D02*
D03*
X401528Y313776D02*
D03*
X391685Y294091D02*
D03*
X401528Y274406D02*
D03*
X391685Y254720D02*
D03*
X401528Y235035D02*
D03*
X391685Y215350D02*
D03*
X401528Y195665D02*
D03*
X391685Y175980D02*
D03*
X401528Y156295D02*
D03*
X391685Y136610D02*
D03*
X401528Y116925D02*
D03*
X391685Y97240D02*
D03*
X401528Y77555D02*
D03*
X391685Y57870D02*
D03*
X401528Y38185D02*
D03*
X372000Y372831D02*
D03*
X381842Y353146D02*
D03*
Y38185D02*
D03*
X372000Y18500D02*
D03*
X352315Y372831D02*
D03*
X362158Y353146D02*
D03*
X352315Y333461D02*
D03*
Y294091D02*
D03*
Y254720D02*
D03*
Y215350D02*
D03*
Y175980D02*
D03*
Y136610D02*
D03*
Y97240D02*
D03*
X342472Y353146D02*
D03*
X332630Y333461D02*
D03*
Y294091D02*
D03*
X342472Y274406D02*
D03*
X332630Y254720D02*
D03*
X342472Y235035D02*
D03*
X332630Y215350D02*
D03*
X342472Y195665D02*
D03*
X332630Y175980D02*
D03*
X342472Y156295D02*
D03*
X332630Y136610D02*
D03*
X342472Y116925D02*
D03*
X332630Y97240D02*
D03*
X312945Y372831D02*
D03*
X322787Y353146D02*
D03*
X312945Y333461D02*
D03*
X322787Y313776D02*
D03*
X312945Y294091D02*
D03*
X322787Y274406D02*
D03*
Y195665D02*
D03*
Y156295D02*
D03*
Y116925D02*
D03*
X293260Y372831D02*
D03*
X303102Y353146D02*
D03*
Y313776D02*
D03*
X293260Y294091D02*
D03*
X303102Y274406D02*
D03*
X273575Y372831D02*
D03*
X283417Y353146D02*
D03*
X273575Y333461D02*
D03*
X283417Y274406D02*
D03*
X273575Y254720D02*
D03*
Y215350D02*
D03*
X263732Y353146D02*
D03*
X253890Y333461D02*
D03*
X263732Y156295D02*
D03*
X234205Y372831D02*
D03*
Y254720D02*
D03*
X214520Y333461D02*
D03*
X224362Y313776D02*
D03*
Y235035D02*
D03*
X214520Y175980D02*
D03*
X224362Y156295D02*
D03*
X194835Y372831D02*
D03*
X175150D02*
D03*
X184992Y353146D02*
D03*
X175150Y57870D02*
D03*
X184992Y38185D02*
D03*
X155465Y372831D02*
D03*
X165307Y353146D02*
D03*
X155465Y333461D02*
D03*
X165307Y235035D02*
D03*
X135780Y372831D02*
D03*
X145622Y313776D02*
D03*
X135780Y97240D02*
D03*
X125937Y353146D02*
D03*
Y313776D02*
D03*
Y116925D02*
D03*
X116095Y97240D02*
D03*
X125937Y77555D02*
D03*
X106252Y116925D02*
D03*
X96409Y97240D02*
D03*
X106252Y77555D02*
D03*
X96409Y57870D02*
D03*
X66882Y274406D02*
D03*
X37354Y372831D02*
D03*
Y215350D02*
D03*
X47197Y116925D02*
D03*
Y77555D02*
D03*
X27512Y235035D02*
D03*
X164500Y76500D02*
D03*
Y86000D02*
D03*
Y93000D02*
D03*
Y101000D02*
D03*
X77000Y2500D02*
D03*
X14000Y152500D02*
D03*
X63000Y173000D02*
D03*
X81500Y83500D02*
D03*
X54000Y47000D02*
D03*
X24500Y271500D02*
D03*
X27130Y280750D02*
D03*
X23000Y316000D02*
D03*
X47146Y297654D02*
D03*
X32256Y201756D02*
D03*
X38500Y195500D02*
D03*
X44500Y197500D02*
D03*
X10000Y176500D02*
D03*
X37500Y149000D02*
D03*
X46000Y141000D02*
D03*
X42500D02*
D03*
X39000D02*
D03*
X40500Y130000D02*
D03*
X48000D02*
D03*
X56000D02*
D03*
X52000D02*
D03*
X54380Y141215D02*
D03*
X67500Y138000D02*
D03*
X64000D02*
D03*
X56500Y138500D02*
D03*
X55958Y69083D02*
D03*
X59368Y69106D02*
D03*
X59463Y65741D02*
D03*
X49129Y69194D02*
D03*
X41888Y65682D02*
D03*
X45704Y69194D02*
D03*
X45662Y65874D02*
D03*
X44500Y55500D02*
D03*
X48000D02*
D03*
X51500D02*
D03*
X52638Y69137D02*
D03*
X55000Y55500D02*
D03*
X61463Y63075D02*
D03*
X151500Y28000D02*
D03*
Y22000D02*
D03*
X163802Y21937D02*
D03*
X160000Y22000D02*
D03*
X167500D02*
D03*
X151524Y25270D02*
D03*
X189977Y30476D02*
D03*
X187103Y29188D02*
D03*
X183953D02*
D03*
X180804D02*
D03*
X177654D02*
D03*
X174505D02*
D03*
X171359Y29338D02*
D03*
X177221Y23167D02*
D03*
X180371D02*
D03*
X183521D02*
D03*
X186670D02*
D03*
X132500Y25500D02*
D03*
X226500Y23500D02*
D03*
X225000Y53500D02*
D03*
X197000Y134500D02*
D03*
X177500Y281500D02*
D03*
X101500Y268000D02*
D03*
X92500Y234500D02*
D03*
X89000Y199000D02*
D03*
X127500Y212500D02*
D03*
X188909Y190091D02*
D03*
X275000Y33000D02*
D03*
X297000Y32500D02*
D03*
X325500Y31500D02*
D03*
X359500Y34000D02*
D03*
X251000Y26000D02*
D03*
X41500Y299000D02*
D03*
X33000Y274000D02*
D03*
X93500Y43000D02*
D03*
X81516Y43016D02*
D03*
X32000Y172000D02*
D03*
X75000Y209000D02*
D03*
X120500Y190000D02*
D03*
X184000Y261535D02*
D03*
X182500Y257500D02*
D03*
X157000Y164000D02*
D03*
X125500Y170000D02*
D03*
X153500Y212711D02*
D03*
X181500Y207500D02*
D03*
X164000Y110500D02*
D03*
X159000Y63000D02*
D03*
X148000Y131500D02*
D03*
X69500Y287500D02*
D03*
X79000Y304252D02*
D03*
X73225Y255602D02*
D03*
X222000Y127500D02*
D03*
X228000Y119039D02*
D03*
X215000Y105500D02*
D03*
X191500Y139000D02*
D03*
X215500Y115500D02*
D03*
X55594Y332000D02*
D03*
X216000Y90500D02*
D03*
X218000Y32500D02*
D03*
X133000Y163500D02*
D03*
X212000Y57000D02*
D03*
X81500Y50000D02*
D03*
X148500Y43500D02*
D03*
X79500Y163500D02*
D03*
X64500Y149000D02*
D03*
X65000Y200500D02*
D03*
X84000Y214500D02*
D03*
X139000Y237500D02*
D03*
X152500Y231000D02*
D03*
X210000Y300000D02*
D03*
X246000Y315500D02*
D03*
X97000Y382500D02*
D03*
X101000Y339500D02*
D03*
X94441Y341560D02*
D03*
X91000Y289500D02*
D03*
X53000Y294000D02*
D03*
X60500Y144500D02*
D03*
X63500Y141500D02*
D03*
X60500Y196500D02*
D03*
X307500Y119000D02*
D03*
X108500Y43000D02*
D03*
X117059Y41059D02*
D03*
X149000Y170000D02*
D03*
X217500Y198000D02*
D03*
X240500Y94500D02*
D03*
X297500Y180000D02*
D03*
X246500Y239000D02*
D03*
X121295Y163000D02*
D03*
X118736Y159500D02*
D03*
X116177Y163000D02*
D03*
X111059D02*
D03*
X113618Y160000D02*
D03*
X92500Y181846D02*
D03*
X108500Y159500D02*
D03*
X97000Y174000D02*
D03*
X102000Y186000D02*
D03*
X98500Y183815D02*
D03*
X258500Y306500D02*
D03*
X107500Y247500D02*
D03*
X50000Y169500D02*
D03*
Y180500D02*
D03*
X216500Y60000D02*
D03*
X60000Y247000D02*
D03*
X53500Y251500D02*
D03*
X65000Y247000D02*
D03*
X38500Y254500D02*
D03*
X113500Y264000D02*
D03*
X123500D02*
D03*
X133500D02*
D03*
X143500D02*
D03*
X85000Y267000D02*
D03*
X149000Y259000D02*
D03*
X321500Y367000D02*
D03*
X84500Y318000D02*
D03*
X80000Y183000D02*
D03*
X234000Y129000D02*
D03*
X76000Y341000D02*
D03*
X77000Y376500D02*
D03*
X94500Y371500D02*
D03*
X30500Y305500D02*
D03*
X15500Y335000D02*
D03*
X22500Y345000D02*
D03*
X70000Y205500D02*
D03*
X68250Y322750D02*
D03*
X68498Y311491D02*
D03*
X240500Y362500D02*
D03*
X202102Y144103D02*
D03*
X192476Y122476D02*
D03*
X227500Y128500D02*
D03*
X192566Y130350D02*
D03*
X192587Y126413D02*
D03*
X259000Y121000D02*
D03*
X240000Y83000D02*
D03*
X302500Y64937D02*
D03*
Y68087D02*
D03*
Y78000D02*
D03*
X238000Y61000D02*
D03*
X302500Y88000D02*
D03*
D144*
X45709Y378999D02*
D03*
X67953D02*
D03*
D145*
X372000Y55335D02*
D03*
Y339665D02*
D03*
X220000Y344657D02*
D03*
X175000D02*
D03*
D146*
X49079Y16000D02*
D03*
X58921D02*
D03*
D147*
X225726Y285362D02*
D03*
X237545Y285339D02*
D03*
X249340Y285343D02*
D03*
Y264480D02*
D03*
X237565Y264500D02*
D03*
X225726D02*
D03*
D148*
X6500Y315000D02*
D03*
Y271500D02*
D03*
D149*
Y325000D02*
D03*
Y335000D02*
D03*
Y345000D02*
D03*
Y281500D02*
D03*
Y291500D02*
D03*
Y301500D02*
D03*
X243500Y8000D02*
D03*
X253500D02*
D03*
X263500D02*
D03*
X273500D02*
D03*
X283500D02*
D03*
X293500D02*
D03*
X303500D02*
D03*
X313500D02*
D03*
X323500D02*
D03*
X333500D02*
D03*
X343500D02*
D03*
X353500D02*
D03*
X363500D02*
D03*
X373500D02*
D03*
X222000D02*
D03*
X212000D02*
D03*
X202000D02*
D03*
X192000D02*
D03*
X182000D02*
D03*
X172000D02*
D03*
X162000D02*
D03*
X152000D02*
D03*
X142000D02*
D03*
X132000D02*
D03*
X122000D02*
D03*
X112000D02*
D03*
X102000D02*
D03*
X92000D02*
D03*
D150*
X296500Y358500D02*
D03*
Y333500D02*
D03*
D151*
X278500Y345500D02*
D03*
D152*
X228425Y332650D02*
D03*
X166614D02*
D03*
D153*
X185000Y319657D02*
D03*
X195000D02*
D03*
X205000D02*
D03*
X215000D02*
D03*
X180000Y309658D02*
D03*
X190000D02*
D03*
X200000D02*
D03*
X210000D02*
D03*
D154*
X132500Y332500D02*
D03*
X122500D02*
D03*
X127500Y322500D02*
D03*
X117500D02*
D03*
D155*
X233500Y8000D02*
D03*
X82000D02*
D03*
M02*
