G04*
G04 #@! TF.GenerationSoftware,Altium Limited,Altium Designer,21.6.4 (81)*
G04*
G04 Layer_Color=32768*
%FSLAX25Y25*%
%MOIN*%
G70*
G04*
G04 #@! TF.SameCoordinates,94B67592-C5F0-476C-964B-405C66203207*
G04*
G04*
G04 #@! TF.FilePolarity,Positive*
G04*
G01*
G75*
%ADD11C,0.01000*%
%ADD12C,0.01181*%
%ADD15C,0.00787*%
%ADD18C,0.00394*%
%ADD162C,0.00197*%
G36*
X22657Y338764D02*
X25937D01*
Y337606D01*
X22657D01*
Y335870D01*
X21500D01*
Y337606D01*
X18220D01*
Y338764D01*
X21500D01*
Y340500D01*
X22657D01*
Y338764D01*
D02*
G37*
G36*
X22157Y320000D02*
X21000D01*
Y324630D01*
X22157D01*
Y320000D01*
D02*
G37*
G36*
X62937Y306961D02*
X43233D01*
Y326664D01*
X62937D01*
Y306961D01*
D02*
G37*
G36*
X38870Y167732D02*
X36331D01*
Y171965D01*
X38870D01*
Y167732D01*
D02*
G37*
G36*
X86971Y167150D02*
X85082D01*
Y170299D01*
X86971D01*
Y167150D01*
D02*
G37*
G36*
X67286Y163528D02*
X63507D01*
Y164472D01*
X67286D01*
Y163528D01*
D02*
G37*
G36*
X16478Y162865D02*
X11400D01*
Y164135D01*
X16478D01*
Y162865D01*
D02*
G37*
G36*
X84609Y164472D02*
X86027D01*
Y163528D01*
X84609D01*
Y160850D01*
X83664D01*
Y163528D01*
X82247D01*
Y164472D01*
X83664D01*
Y167150D01*
X84609D01*
Y164472D01*
D02*
G37*
G36*
X35696Y164135D02*
X37600D01*
Y162865D01*
X35696D01*
Y159268D01*
X34426D01*
Y162865D01*
X32522D01*
Y164135D01*
X34426D01*
Y167732D01*
X35696D01*
Y164135D01*
D02*
G37*
G36*
X86971Y157701D02*
X85082D01*
Y160850D01*
X86971D01*
Y157701D01*
D02*
G37*
G36*
X38870Y155035D02*
X36331D01*
Y159268D01*
X38870D01*
Y155035D01*
D02*
G37*
G36*
X36685Y42150D02*
X34795D01*
Y45299D01*
X36685D01*
Y42150D01*
D02*
G37*
G36*
X58260Y38528D02*
X54480D01*
Y39472D01*
X58260D01*
Y38528D01*
D02*
G37*
G36*
X38102Y39472D02*
X39520D01*
Y38528D01*
X38102D01*
Y35850D01*
X37157D01*
Y38528D01*
X35740D01*
Y39472D01*
X37157D01*
Y42150D01*
X38102D01*
Y39472D01*
D02*
G37*
G36*
X36685Y32701D02*
X34795D01*
Y35850D01*
X36685D01*
Y32701D01*
D02*
G37*
D11*
X71750Y325250D02*
X71000Y325683D01*
Y324817D01*
X71750Y325250D01*
D12*
X326520Y58000D02*
X325929Y58591D01*
X325338Y58000D01*
X325929Y57409D01*
X326520Y58000D01*
X270504Y94284D02*
X269913Y94875D01*
X269322Y94284D01*
X269913Y93693D01*
X270504Y94284D01*
X146591Y304429D02*
X146000Y305020D01*
X145409Y304429D01*
X146000Y303838D01*
X146591Y304429D01*
D15*
X214894Y124394D02*
X214106D01*
X214894D01*
X155532Y287000D02*
X159468D01*
X157500Y285032D02*
Y288968D01*
X97031Y287500D02*
X100969D01*
X99000Y285531D02*
Y289469D01*
X308000Y103532D02*
Y107468D01*
X306031Y105500D02*
X309968D01*
X307805Y44069D02*
Y48006D01*
X305837Y46038D02*
X309773D01*
X372000Y193563D02*
Y201437D01*
X368063Y197500D02*
X375937D01*
X52031Y16000D02*
X55968D01*
X54000Y14031D02*
Y17968D01*
X70535Y4583D02*
Y31354D01*
X37465Y4583D02*
X70535D01*
X37465D02*
Y31354D01*
X70535D01*
X238445Y298831D02*
Y391350D01*
X156555Y298831D02*
X238445D01*
X156555D02*
Y391350D01*
X238445D01*
X192579Y344500D02*
X202421D01*
X197500Y339579D02*
Y349421D01*
D18*
X199130Y231000D02*
X202870D01*
X201000Y229130D02*
Y232870D01*
X196130Y238000D02*
X199870D01*
X198000Y236130D02*
Y239870D01*
X31032Y334000D02*
X34969D01*
X33000Y332031D02*
Y335968D01*
X48130Y301000D02*
X51870D01*
X50000Y299130D02*
Y302870D01*
X44630Y337000D02*
X48370D01*
X46500Y335130D02*
Y338870D01*
X41000Y335130D02*
Y338870D01*
X39130Y337000D02*
X42870D01*
X79000Y308630D02*
Y312370D01*
X77130Y310500D02*
X80870D01*
X227354Y35933D02*
X241134D01*
X227354Y20579D02*
X241134D01*
Y35933D01*
X227354Y20579D02*
Y35933D01*
X234244Y26287D02*
Y30224D01*
X232276Y28256D02*
X236213D01*
X201835Y126224D02*
X206165D01*
X201835Y116776D02*
X206165D01*
Y126224D01*
X201835Y116776D02*
Y126224D01*
X204000Y119630D02*
Y123370D01*
X202130Y121500D02*
X205870D01*
X136000Y167130D02*
Y170870D01*
X134130Y169000D02*
X137870D01*
X124130Y177354D02*
X127870D01*
X126000Y175484D02*
Y179224D01*
X134031Y178500D02*
X137969D01*
X136000Y176532D02*
Y180468D01*
X98055Y159500D02*
X101795D01*
X99925Y157630D02*
Y161370D01*
X268110Y35677D02*
X281890D01*
X268110Y20323D02*
X281890D01*
Y35677D01*
X268110Y20323D02*
Y35677D01*
X275000Y26032D02*
Y29969D01*
X273031Y28000D02*
X276969D01*
X237835Y117276D02*
X242165D01*
X237835Y126724D02*
X242165D01*
X237835Y117276D02*
Y126724D01*
X242165Y117276D02*
Y126724D01*
X240000Y120130D02*
Y123870D01*
X238130Y122000D02*
X241870D01*
X195835Y126724D02*
X200165D01*
X195835Y117276D02*
X200165D01*
Y126724D01*
X195835Y117276D02*
Y126724D01*
X198000Y120130D02*
Y123870D01*
X196130Y122000D02*
X199870D01*
X347819Y375500D02*
X350181D01*
X349000Y374319D02*
Y376681D01*
X83000Y349130D02*
Y352870D01*
X81130Y351000D02*
X84870D01*
X78276Y353165D02*
X87724D01*
X78276Y348835D02*
X87724D01*
X78276D02*
Y353165D01*
X87724Y348835D02*
Y353165D01*
X83000Y329460D02*
Y333200D01*
X81130Y331330D02*
X84870D01*
X78276Y333495D02*
X87724D01*
X78276Y329165D02*
X87724D01*
X78276D02*
Y333495D01*
X87724Y329165D02*
Y333495D01*
X83000Y380630D02*
Y384370D01*
X81130Y382500D02*
X84870D01*
X78276Y380335D02*
X87724D01*
X78276Y384665D02*
X87724D01*
Y380335D02*
Y384665D01*
X78276Y380335D02*
Y384665D01*
X83531Y371500D02*
X87468D01*
X85500Y369531D02*
Y373468D01*
X83000Y358761D02*
Y362501D01*
X81130Y360631D02*
X84870D01*
X78276Y362796D02*
X87724D01*
X78276Y358466D02*
X87724D01*
X78276D02*
Y362796D01*
X87724Y358466D02*
Y362796D01*
X86000Y339531D02*
Y343468D01*
X84031Y341500D02*
X87968D01*
X153630Y23000D02*
X157370D01*
X155500Y21130D02*
Y24870D01*
X72031Y292000D02*
X75968D01*
X74000Y290032D02*
Y293969D01*
X299500Y137031D02*
Y140969D01*
X297532Y139000D02*
X301468D01*
X220500Y202130D02*
Y205870D01*
X218630Y204000D02*
X222370D01*
X129500Y217262D02*
Y221199D01*
X127532Y219231D02*
X131468D01*
X122610Y215491D02*
X136390D01*
X122610Y222971D02*
X136390D01*
Y215491D02*
Y222971D01*
X122610Y215491D02*
Y222971D01*
X129500Y225762D02*
Y229699D01*
X127532Y227731D02*
X131468D01*
X122610Y223991D02*
X136390D01*
X122610Y231471D02*
X136390D01*
Y223991D02*
Y231471D01*
X122610Y223991D02*
Y231471D01*
X142630Y230731D02*
X146370D01*
X144500Y228861D02*
Y232601D01*
X141500Y220630D02*
Y224370D01*
X139630Y222500D02*
X143370D01*
X147000Y220361D02*
Y224101D01*
X145130Y222231D02*
X148870D01*
X29500Y315630D02*
Y319370D01*
X27630Y317500D02*
X31370D01*
X35000Y315630D02*
Y319370D01*
X33130Y317500D02*
X36870D01*
X227000Y216032D02*
Y219969D01*
X225031Y218000D02*
X228969D01*
X82130Y290530D02*
X85870D01*
X84000Y288660D02*
Y292400D01*
X36500Y289484D02*
Y293224D01*
X34630Y291354D02*
X38370D01*
X46500Y289484D02*
Y293224D01*
X44630Y291354D02*
X48370D01*
X46031Y277634D02*
X49968D01*
X48000Y275665D02*
Y279602D01*
X36531Y278000D02*
X40468D01*
X38500Y276031D02*
Y279969D01*
X27531Y110500D02*
X31468D01*
X29500Y108531D02*
Y112469D01*
X43773Y95506D02*
X47513D01*
X45643Y93636D02*
Y97376D01*
X19500Y181130D02*
Y184870D01*
X17630Y183000D02*
X21370D01*
X19500Y175130D02*
Y178870D01*
X17630Y177000D02*
X21370D01*
X37500Y181130D02*
Y184870D01*
X35630Y183000D02*
X39370D01*
X149251Y176130D02*
Y179870D01*
X147381Y178000D02*
X151121D01*
X160164Y176532D02*
Y180468D01*
X158196Y178500D02*
X162133D01*
X158294Y169000D02*
X162034D01*
X160164Y167130D02*
Y170870D01*
X143130Y253500D02*
X146870D01*
X145000Y251630D02*
Y255370D01*
X186835Y255276D02*
X191165D01*
X186835Y264724D02*
X191165D01*
X186835Y255276D02*
Y264724D01*
X191165Y255276D02*
Y264724D01*
X189000Y258130D02*
Y261870D01*
X187130Y260000D02*
X190870D01*
X128139Y249228D02*
Y253165D01*
X126170Y251196D02*
X130107D01*
X121249Y247456D02*
X135029D01*
X121249Y254937D02*
X135029D01*
Y247456D02*
Y254937D01*
X121249Y247456D02*
Y254937D01*
X128000Y240250D02*
Y244187D01*
X126031Y242219D02*
X129969D01*
X121110Y238479D02*
X134890D01*
X121110Y245959D02*
X134890D01*
Y238479D02*
Y245959D01*
X121110Y238479D02*
Y245959D01*
X141039Y243059D02*
Y246799D01*
X139169Y244930D02*
X142909D01*
X147000Y243059D02*
Y246800D01*
X145130Y244930D02*
X148870D01*
X208000Y236032D02*
Y239968D01*
X206031Y238000D02*
X209968D01*
X201110Y241740D02*
X214890D01*
X201110Y234260D02*
X214890D01*
X201110D02*
Y241740D01*
X214890Y234260D02*
Y241740D01*
X208500Y208531D02*
Y212469D01*
X206532Y210500D02*
X210469D01*
X201610Y214240D02*
X215390D01*
X201610Y206760D02*
X215390D01*
X201610D02*
Y214240D01*
X215390Y206760D02*
Y214240D01*
X197957Y209977D02*
Y213717D01*
X196086Y211847D02*
X199827D01*
X199630Y219500D02*
X203370D01*
X201500Y217630D02*
Y221370D01*
X213835Y88724D02*
X218165D01*
X213835Y79276D02*
X218165D01*
Y88724D01*
X213835Y79276D02*
Y88724D01*
X216000Y82130D02*
Y85870D01*
X214130Y84000D02*
X217870D01*
X266335Y113531D02*
X270665D01*
X266335Y122980D02*
X270665D01*
X266335Y113531D02*
Y122980D01*
X270665Y113531D02*
Y122980D01*
X268500Y116386D02*
Y120126D01*
X266630Y118256D02*
X270370D01*
X274532Y112500D02*
X278468D01*
X276500Y110531D02*
Y114469D01*
X228724Y57835D02*
Y62165D01*
X219276Y57835D02*
Y62165D01*
Y57835D02*
X228724D01*
X219276Y62165D02*
X228724D01*
X222130Y60000D02*
X225870D01*
X224000Y58130D02*
Y61870D01*
X236032Y71000D02*
X239968D01*
X238000Y69032D02*
Y72969D01*
X219276Y63335D02*
Y67665D01*
X228724Y63335D02*
Y67665D01*
X219276D02*
X228724D01*
X219276Y63335D02*
X228724D01*
X222130Y65500D02*
X225870D01*
X224000Y63630D02*
Y67370D01*
X219276Y73835D02*
Y78165D01*
X228724Y73835D02*
Y78165D01*
X219276D02*
X228724D01*
X219276Y73835D02*
X228724D01*
X222130Y76000D02*
X225870D01*
X224000Y74130D02*
Y77870D01*
X219276Y68835D02*
Y73165D01*
X228724Y68835D02*
Y73165D01*
X219276D02*
X228724D01*
X219276Y68835D02*
X228724D01*
X222130Y71000D02*
X225870D01*
X224000Y69130D02*
Y72870D01*
X257000Y57531D02*
Y61468D01*
X255031Y59500D02*
X258968D01*
X250110Y63240D02*
X263890D01*
X250110Y55760D02*
X263890D01*
X250110D02*
Y63240D01*
X263890Y55760D02*
Y63240D01*
X257000Y66531D02*
Y70468D01*
X255031Y68500D02*
X258968D01*
X250110Y72240D02*
X263890D01*
X250110Y64760D02*
X263890D01*
X250110D02*
Y72240D01*
X263890Y64760D02*
Y72240D01*
X257000Y75532D02*
Y79469D01*
X255031Y77500D02*
X258968D01*
X250110Y81240D02*
X263890D01*
X250110Y73760D02*
X263890D01*
X250110D02*
Y81240D01*
X263890Y73760D02*
Y81240D01*
X257043Y84531D02*
Y88468D01*
X255075Y86500D02*
X259012D01*
X250153Y90240D02*
X263933D01*
X250153Y82760D02*
X263933D01*
X250153D02*
Y90240D01*
X263933Y82760D02*
Y90240D01*
X274835Y87276D02*
X279165D01*
X274835Y96724D02*
X279165D01*
X274835Y87276D02*
Y96724D01*
X279165Y87276D02*
Y96724D01*
X277000Y90130D02*
Y93870D01*
X275130Y92000D02*
X278870D01*
X281835Y75276D02*
X286165D01*
X281835Y84724D02*
X286165D01*
X281835Y75276D02*
Y84724D01*
X286165Y75276D02*
Y84724D01*
X284000Y78130D02*
Y81870D01*
X282130Y80000D02*
X285870D01*
X246835Y122968D02*
X251165D01*
X246835Y113520D02*
X251165D01*
Y122968D01*
X246835Y113520D02*
Y122968D01*
X249000Y116374D02*
Y120114D01*
X247130Y118244D02*
X250870D01*
X281835Y87032D02*
X286165D01*
X281835Y96480D02*
X286165D01*
X281835Y87032D02*
Y96480D01*
X286165Y87032D02*
Y96480D01*
X284000Y89886D02*
Y93626D01*
X282130Y91756D02*
X285870D01*
X211335Y281776D02*
X215665D01*
X211335Y291224D02*
X215665D01*
X211335Y281776D02*
Y291224D01*
X215665Y281776D02*
Y291224D01*
X213500Y284630D02*
Y288370D01*
X211630Y286500D02*
X215370D01*
X201000Y263531D02*
Y267469D01*
X199031Y265500D02*
X202969D01*
X26224Y275335D02*
Y279665D01*
X16776Y275335D02*
Y279665D01*
Y275335D02*
X26224D01*
X16776Y279665D02*
X26224D01*
X19630Y277500D02*
X23370D01*
X21500Y275630D02*
Y279370D01*
X26224Y281835D02*
Y286165D01*
X16776Y281835D02*
Y286165D01*
Y281835D02*
X26224D01*
X16776Y286165D02*
X26224D01*
X19630Y284000D02*
X23370D01*
X21500Y282130D02*
Y285870D01*
X260224Y313335D02*
Y317665D01*
X250776Y313335D02*
Y317665D01*
Y313335D02*
X260224D01*
X250776Y317665D02*
X260224D01*
X253630Y315500D02*
X257370D01*
X255500Y313630D02*
Y317370D01*
X260724Y370335D02*
Y374665D01*
X251276Y370335D02*
Y374665D01*
Y370335D02*
X260724D01*
X251276Y374665D02*
X260724D01*
X254130Y372500D02*
X257870D01*
X256000Y370630D02*
Y374370D01*
X352339Y23276D02*
X356670D01*
X352339Y32724D02*
X356670D01*
X352339Y23276D02*
Y32724D01*
X356670Y23276D02*
Y32724D01*
X354504Y26130D02*
Y29870D01*
X352634Y28000D02*
X356375D01*
X346679Y23276D02*
X351009D01*
X346679Y32724D02*
X351009D01*
X346679Y23276D02*
Y32724D01*
X351009Y23276D02*
Y32724D01*
X348844Y26130D02*
Y29870D01*
X346974Y28000D02*
X350714D01*
X320704Y23276D02*
X325035D01*
X320704Y32724D02*
X325035D01*
X320704Y23276D02*
Y32724D01*
X325035Y23276D02*
Y32724D01*
X322869Y26130D02*
Y29870D01*
X320999Y28000D02*
X324740D01*
X315060Y23276D02*
X319390D01*
X315060Y32724D02*
X319390D01*
X315060Y23276D02*
Y32724D01*
X319390Y23276D02*
Y32724D01*
X317225Y26130D02*
Y29870D01*
X315355Y28000D02*
X319095D01*
X291335Y23276D02*
X295665D01*
X291335Y32724D02*
X295665D01*
X291335Y23276D02*
Y32724D01*
X295665Y23276D02*
Y32724D01*
X293500Y26130D02*
Y29870D01*
X291630Y28000D02*
X295370D01*
X285835Y23276D02*
X290165D01*
X285835Y32724D02*
X290165D01*
X285835Y23276D02*
Y32724D01*
X290165Y23276D02*
Y32724D01*
X288000Y26130D02*
Y29870D01*
X286130Y28000D02*
X289870D01*
X262835Y23276D02*
X267165D01*
X262835Y32724D02*
X267165D01*
X262835Y23276D02*
Y32724D01*
X267165Y23276D02*
Y32724D01*
X265000Y26130D02*
Y29870D01*
X263130Y28000D02*
X266870D01*
X256835Y23276D02*
X261165D01*
X256835Y32724D02*
X261165D01*
X256835Y23276D02*
Y32724D01*
X261165Y23276D02*
Y32724D01*
X259000Y26130D02*
Y29870D01*
X257130Y28000D02*
X260870D01*
X182224Y273965D02*
Y278296D01*
X172776Y273965D02*
Y278296D01*
Y273965D02*
X182224D01*
X172776Y278296D02*
X182224D01*
X175630Y276131D02*
X179370D01*
X177500Y274261D02*
Y278001D01*
X231013Y39886D02*
Y43626D01*
X229143Y41756D02*
X232883D01*
X221744Y39886D02*
Y43626D01*
X219874Y41756D02*
X223614D01*
X215244Y39886D02*
Y43626D01*
X213374Y41756D02*
X217114D01*
X117000Y22532D02*
Y26469D01*
X115032Y24500D02*
X118968D01*
X50130Y64500D02*
X53870D01*
X52000Y62630D02*
Y66370D01*
X50130Y59500D02*
X53870D01*
X52000Y57630D02*
Y61370D01*
X49500Y140319D02*
Y142681D01*
X48319Y141500D02*
X50681D01*
X171500Y21130D02*
Y24870D01*
X169630Y23000D02*
X173370D01*
X161630Y26000D02*
X165370D01*
X163500Y24130D02*
Y27870D01*
X212000Y109130D02*
Y112870D01*
X210130Y111000D02*
X213870D01*
X207276Y108835D02*
X216724D01*
X207276Y113165D02*
X216724D01*
Y108835D02*
Y113165D01*
X207276Y108835D02*
Y113165D01*
X208130Y121500D02*
X211870D01*
X210000Y119630D02*
Y123370D01*
X212165Y116776D02*
Y126224D01*
X207835Y116776D02*
Y126224D01*
X212165D01*
X207835Y116776D02*
X212165D01*
X228000Y120024D02*
Y123764D01*
X226130Y121894D02*
X229870D01*
X232130Y121894D02*
X235870D01*
X234000Y120024D02*
Y123764D01*
X231835Y117169D02*
Y126618D01*
X236165Y117169D02*
Y126618D01*
X231835Y117169D02*
X236165D01*
X231835Y126618D02*
X236165D01*
X253500Y196031D02*
Y199969D01*
X251532Y198000D02*
X255469D01*
X252130Y226000D02*
X255870D01*
X254000Y224130D02*
Y227870D01*
X245130Y226000D02*
X248870D01*
X247000Y224130D02*
Y227870D01*
X251000Y233130D02*
Y236870D01*
X249130Y235000D02*
X252870D01*
X252130Y245000D02*
X255870D01*
X254000Y243130D02*
Y246870D01*
X292500Y284531D02*
Y288469D01*
X290531Y286500D02*
X294468D01*
X253851Y344500D02*
X257787D01*
X255819Y342531D02*
Y346468D01*
X175531Y287000D02*
X179469D01*
X177500Y285032D02*
Y288968D01*
X184390Y279323D02*
Y294677D01*
X170610Y279323D02*
Y294677D01*
X184390D01*
X170610Y279323D02*
X184390D01*
X331031Y28500D02*
X334968D01*
X333000Y26531D02*
Y30468D01*
X326110Y20823D02*
Y36177D01*
X339890Y20823D02*
Y36177D01*
X326110Y20823D02*
X339890D01*
X326110Y36177D02*
X339890D01*
X362653Y28500D02*
X366590D01*
X364621Y26531D02*
Y30468D01*
X357731Y20823D02*
Y36177D01*
X371511Y20823D02*
Y36177D01*
X357731Y20823D02*
X371511D01*
X357731Y36177D02*
X371511D01*
X301532Y28000D02*
X305469D01*
X303500Y26032D02*
Y29969D01*
X296610Y20323D02*
Y35677D01*
X310390Y20323D02*
Y35677D01*
X296610Y20323D02*
X310390D01*
X296610Y35677D02*
X310390D01*
X268130Y184500D02*
X271870D01*
X270000Y182630D02*
Y186370D01*
X20031Y295500D02*
X23968D01*
X22000Y293531D02*
Y297468D01*
X28890Y287823D02*
Y303177D01*
X15110Y287823D02*
Y303177D01*
X28890D01*
X15110Y287823D02*
X28890D01*
X79000Y174531D02*
Y178469D01*
X77031Y176500D02*
X80968D01*
X35630Y177500D02*
X39370D01*
X37500Y175630D02*
Y179370D01*
X211854Y35933D02*
X225634D01*
X211854Y20579D02*
X225634D01*
Y35933D01*
X211854Y20579D02*
Y35933D01*
X218744Y26287D02*
Y30224D01*
X216776Y28256D02*
X220713D01*
X58130Y56500D02*
X61870D01*
X60000Y54630D02*
Y58370D01*
X55177Y100110D02*
Y113890D01*
X39823Y100110D02*
Y113890D01*
Y100110D02*
X55177D01*
X39823Y113890D02*
X55177D01*
X45531Y107000D02*
X49468D01*
X47500Y105032D02*
Y108968D01*
X34000Y100130D02*
Y103870D01*
X32130Y102000D02*
X35870D01*
X60772Y93335D02*
Y97665D01*
X51323Y93335D02*
Y97665D01*
Y93335D02*
X60772D01*
X51323Y97665D02*
X60772D01*
X54177Y95500D02*
X57917D01*
X56047Y93630D02*
Y97370D01*
X42630Y131500D02*
X46370D01*
X44500Y129630D02*
Y133370D01*
X47776Y132335D02*
Y136665D01*
X57224Y132335D02*
Y136665D01*
X47776D02*
X57224D01*
X47776Y132335D02*
X57224D01*
X50630Y134500D02*
X54370D01*
X52500Y132630D02*
Y136370D01*
X58630Y131500D02*
X62370D01*
X60500Y129630D02*
Y133370D01*
X191630Y108500D02*
X195370D01*
X193500Y106630D02*
Y110370D01*
X235584Y41756D02*
X239324D01*
X237454Y39886D02*
Y43626D01*
X100000Y19630D02*
Y23370D01*
X98130Y21500D02*
X101870D01*
X99925Y163630D02*
Y167370D01*
X98055Y165500D02*
X101795D01*
X100000Y25130D02*
Y28870D01*
X98130Y27000D02*
X101870D01*
X71130Y310500D02*
X74870D01*
X73000Y308630D02*
Y312370D01*
X86500Y274130D02*
Y277870D01*
X84630Y276000D02*
X88370D01*
X84000Y294630D02*
Y298370D01*
X82130Y296500D02*
X85870D01*
D162*
X36937Y324945D02*
Y343055D01*
X29457Y324945D02*
Y343055D01*
X29063D02*
X36937D01*
X29063Y324945D02*
X36937D01*
X150413Y280701D02*
Y293299D01*
Y280701D02*
X164587D01*
X150413Y293299D02*
X164587D01*
Y280701D02*
Y293299D01*
X91913Y281201D02*
Y293799D01*
Y281201D02*
X106087D01*
X91913Y293799D02*
X106087D01*
Y281201D02*
Y293799D01*
X301701Y112587D02*
X314299D01*
X301701Y98413D02*
Y112587D01*
X314299Y98413D02*
Y112587D01*
X301701Y98413D02*
X314299D01*
X301506Y53124D02*
X314104D01*
X301506Y38951D02*
Y53124D01*
X314104Y38951D02*
Y53124D01*
X301506Y38951D02*
X314104D01*
X330268Y44744D02*
X413732D01*
Y350256D01*
X330268D02*
X413732D01*
X330268Y44744D02*
Y350256D01*
X142890Y171807D02*
Y185193D01*
X129110Y171807D02*
Y185193D01*
X142890D01*
X129110Y171807D02*
X142890D01*
X332858Y386720D02*
X365142D01*
X332858Y367035D02*
Y386720D01*
Y367035D02*
X365142D01*
Y386720D01*
X78807Y364610D02*
Y378390D01*
X92193Y364610D02*
Y378390D01*
X78807D02*
X92193D01*
X78807Y364610D02*
X92193D01*
X79307Y334610D02*
X92693D01*
X79307Y348390D02*
X92693D01*
Y334610D02*
Y348390D01*
X79307Y334610D02*
Y348390D01*
X258575Y219024D02*
Y251976D01*
Y219024D02*
X279362D01*
Y214516D02*
Y219024D01*
Y214516D02*
X312846D01*
X279362Y256484D02*
X312846D01*
X279362Y251976D02*
Y256484D01*
X258575Y251976D02*
X279362D01*
X320583Y213256D02*
Y257744D01*
X312846Y256484D02*
Y257744D01*
X320583D01*
X312846Y213256D02*
X320583D01*
X312846D02*
Y214516D01*
X77740Y284500D02*
Y299500D01*
X70260Y284500D02*
Y299500D01*
X77740D01*
X70260Y284500D02*
X77740D01*
X275878Y121677D02*
X323122D01*
X275878Y156323D02*
X323122D01*
Y121677D02*
Y156323D01*
X275878Y121677D02*
Y156323D01*
X223260Y210500D02*
X230740D01*
X223260Y225500D02*
X230740D01*
X223260Y210500D02*
Y225500D01*
X230740Y210500D02*
Y225500D01*
X44260Y270134D02*
Y285134D01*
X51740Y270134D02*
Y285134D01*
X44260Y270134D02*
X51740D01*
X44260Y285134D02*
X51740D01*
X34760Y270500D02*
Y285500D01*
X42240Y270500D02*
Y285500D01*
X34760Y270500D02*
X42240D01*
X34760Y285500D02*
X42240D01*
X22000Y106760D02*
Y114240D01*
X37000Y106760D02*
Y114240D01*
X22000D02*
X37000D01*
X22000Y106760D02*
X37000D01*
X153274Y171807D02*
X167054D01*
X153274Y185193D02*
X167054D01*
X153274Y171807D02*
Y185193D01*
X167054Y171807D02*
Y185193D01*
X280240Y105000D02*
Y120000D01*
X272760Y105000D02*
Y120000D01*
X280240D01*
X272760Y105000D02*
X280240D01*
X231307Y64307D02*
Y77693D01*
X244693Y64307D02*
Y77693D01*
X231307Y64307D02*
X244693D01*
X231307Y77693D02*
X244693D01*
X189976Y288531D02*
X212024D01*
X189976Y242469D02*
X212024D01*
Y288531D01*
X189976Y242469D02*
Y288531D01*
X107945Y28437D02*
X126055D01*
X107945Y20957D02*
X126055D01*
X107945Y20563D02*
Y28437D01*
X126055Y20563D02*
Y28437D01*
X28898Y50642D02*
X44055D01*
Y68358D01*
X28898D02*
X44055D01*
X28898Y50642D02*
Y68358D01*
X188445Y35358D02*
X203602D01*
X188445Y17642D02*
Y35358D01*
Y17642D02*
X203602D01*
Y35358D01*
X239500Y191110D02*
X267500D01*
X239500Y204890D02*
X267500D01*
Y191110D02*
Y204890D01*
X239500Y191110D02*
Y204890D01*
X262185Y264059D02*
X322815D01*
X262185Y308547D02*
X322815D01*
Y264059D02*
Y308547D01*
X262185Y264059D02*
Y308547D01*
X244795Y321468D02*
Y367531D01*
X266843Y321468D02*
Y367531D01*
X244795Y321468D02*
X266843D01*
X244795Y367531D02*
X266843D01*
X69945Y172563D02*
X88055D01*
X69945Y180043D02*
X88055D01*
Y172563D02*
Y180437D01*
X69945Y172563D02*
Y180437D01*
X25898Y125642D02*
Y143358D01*
X41055D01*
Y125642D02*
Y143358D01*
X25898Y125642D02*
X41055D01*
M02*
