G04*
G04 #@! TF.GenerationSoftware,Altium Limited,Altium Designer,21.6.4 (81)*
G04*
G04 Layer_Color=255*
%FSLAX25Y25*%
%MOIN*%
G70*
G04*
G04 #@! TF.SameCoordinates,2A81184C-DEB4-4CFB-8C3F-066722EA72C9*
G04*
G04*
G04 #@! TF.FilePolarity,Positive*
G04*
G01*
G75*
%ADD142C,0.27000*%
%ADD143C,0.02362*%
%ADD144O,0.04331X0.09449*%
%ADD145C,0.13780*%
%ADD146O,0.06890X0.09843*%
%ADD147C,0.05858*%
%ADD148R,0.05906X0.05906*%
%ADD149C,0.05906*%
%ADD150O,0.15748X0.07874*%
%ADD151O,0.07874X0.15748*%
%ADD152C,0.11811*%
%ADD153O,0.05906X0.07874*%
%ADD154C,0.06000*%
%ADD155R,0.05906X0.05906*%
D142*
X402500Y17500D02*
D03*
Y370500D02*
D03*
X17500Y370000D02*
D03*
Y17500D02*
D03*
D143*
X48957Y370732D02*
D03*
X64705D02*
D03*
D144*
X45709Y378999D02*
D03*
X67953D02*
D03*
D145*
X372000Y55335D02*
D03*
Y339665D02*
D03*
X220000Y344657D02*
D03*
X175000D02*
D03*
D146*
X49079Y16000D02*
D03*
X58921D02*
D03*
D147*
X225726Y285362D02*
D03*
X237545Y285339D02*
D03*
X249340Y285343D02*
D03*
Y264480D02*
D03*
X237565Y264500D02*
D03*
X225726D02*
D03*
D148*
X6500Y315000D02*
D03*
Y271500D02*
D03*
D149*
Y325000D02*
D03*
Y335000D02*
D03*
Y345000D02*
D03*
Y281500D02*
D03*
Y291500D02*
D03*
Y301500D02*
D03*
X243500Y8000D02*
D03*
X253500D02*
D03*
X263500D02*
D03*
X273500D02*
D03*
X283500D02*
D03*
X293500D02*
D03*
X303500D02*
D03*
X313500D02*
D03*
X323500D02*
D03*
X333500D02*
D03*
X343500D02*
D03*
X353500D02*
D03*
X363500D02*
D03*
X373500D02*
D03*
X222000D02*
D03*
X212000D02*
D03*
X202000D02*
D03*
X192000D02*
D03*
X182000D02*
D03*
X172000D02*
D03*
X162000D02*
D03*
X152000D02*
D03*
X142000D02*
D03*
X132000D02*
D03*
X122000D02*
D03*
X112000D02*
D03*
X102000D02*
D03*
X92000D02*
D03*
D150*
X296500Y358500D02*
D03*
Y333500D02*
D03*
D151*
X278500Y345500D02*
D03*
D152*
X228425Y332650D02*
D03*
X166614D02*
D03*
D153*
X185000Y319657D02*
D03*
X195000D02*
D03*
X205000D02*
D03*
X215000D02*
D03*
X180000Y309658D02*
D03*
X190000D02*
D03*
X200000D02*
D03*
X210000D02*
D03*
D154*
X132500Y332500D02*
D03*
X122500D02*
D03*
X127500Y322500D02*
D03*
X117500D02*
D03*
D155*
X233500Y8000D02*
D03*
X82000D02*
D03*
M02*
