G04*
G04 #@! TF.GenerationSoftware,Altium Limited,Altium Designer,21.6.4 (81)*
G04*
G04 Layer_Color=32896*
%FSLAX25Y25*%
%MOIN*%
G70*
G04*
G04 #@! TF.SameCoordinates,94B67592-C5F0-476C-964B-405C66203207*
G04*
G04*
G04 #@! TF.FilePolarity,Positive*
G04*
G01*
G75*
%ADD10C,0.00500*%
%ADD158C,0.00250*%
D10*
X97513Y387521D02*
X152513D01*
X132513Y337521D02*
Y370021D01*
X127513Y327520D02*
Y370021D01*
X122513Y337521D02*
Y370021D01*
X117513Y327520D02*
Y370021D01*
X97513Y387521D02*
Y390020D01*
Y315020D02*
Y387521D01*
Y315020D02*
X152513D01*
Y387521D01*
Y390020D01*
X97513D02*
X152513D01*
D158*
X97513Y387646D02*
Y387396D01*
X152513D02*
Y387646D01*
X132388Y337521D02*
X132637D01*
Y370021D02*
X132388D01*
X127388Y327520D02*
X127637D01*
Y370021D02*
X127388D01*
X122388Y337521D02*
X122638D01*
Y370021D02*
X122388D01*
X117388Y327520D02*
X117638D01*
Y370021D02*
X117388D01*
X97388Y387521D02*
X97637D01*
Y390020D02*
X97388D01*
Y315020D02*
X97637D01*
Y387521D02*
X97388D01*
X152513Y314895D02*
Y315146D01*
X97513D02*
Y314895D01*
X152638Y387521D02*
X152387D01*
Y315020D02*
X152638D01*
Y390020D02*
X152387D01*
Y387521D02*
X152638D01*
X97513Y390146D02*
Y389895D01*
X152513D02*
Y390146D01*
M02*
