G04*
G04 #@! TF.GenerationSoftware,Altium Limited,Altium Designer,21.6.4 (81)*
G04*
G04 Layer_Color=255*
%FSLAX25Y25*%
%MOIN*%
G70*
G04*
G04 #@! TF.SameCoordinates,94B67592-C5F0-476C-964B-405C66203207*
G04*
G04*
G04 #@! TF.FilePolarity,Positive*
G04*
G01*
G75*
%ADD19R,0.02953X0.03937*%
%ADD20R,0.03937X0.02953*%
%ADD21R,0.06693X0.04921*%
%ADD22R,0.03543X0.01000*%
%ADD23R,0.01000X0.03543*%
%ADD24R,0.03740X0.03543*%
%ADD25O,0.03500X0.07000*%
%ADD26O,0.07000X0.03500*%
%ADD27R,0.15750X0.15750*%
%ADD28R,0.01575X0.08268*%
%ADD29R,0.05906X0.03937*%
%ADD30R,0.07480X0.07480*%
%ADD31R,0.03543X0.01575*%
%ADD32R,0.01772X0.03543*%
%ADD33O,0.08784X0.02370*%
%ADD34R,0.08691X0.09354*%
%ADD35R,0.03543X0.01772*%
%ADD36R,0.02165X0.03937*%
%ADD37O,0.07087X0.02756*%
%ADD38O,0.02756X0.07087*%
%ADD39R,0.02362X0.04528*%
%ADD40R,0.03543X0.03150*%
%ADD41R,0.03150X0.03543*%
%ADD42R,0.06693X0.14567*%
%ADD43R,0.03150X0.03543*%
%ADD44R,0.03543X0.03150*%
%ADD45R,0.08504X0.04213*%
%ADD46R,0.04724X0.04724*%
%ADD47R,0.16535X0.08661*%
%ADD48R,0.05512X0.07874*%
%ADD49R,0.04724X0.05512*%
%ADD50R,0.04724X0.04724*%
%ADD51R,0.08691X0.10205*%
%ADD52R,0.09843X0.13779*%
%ADD53R,0.04724X0.02362*%
%ADD54R,0.07874X0.05512*%
%ADD55O,0.05512X0.08268*%
%ADD56R,0.03543X0.03740*%
%ADD57R,0.08661X0.04134*%
%ADD58R,0.04134X0.03937*%
%ADD59R,0.02598X0.02441*%
%ADD60R,0.02756X0.03543*%
%ADD61R,0.03543X0.02756*%
%ADD62R,0.19685X0.11811*%
%ADD63R,0.09843X0.06693*%
%ADD64R,0.18307X0.09055*%
%ADD65O,0.02370X0.08784*%
%ADD66R,0.02756X0.01654*%
%ADD67R,0.07087X0.05118*%
%ADD68R,0.04724X0.03543*%
%ADD69R,0.04528X0.02362*%
%ADD138R,0.12205X0.12205*%
%ADD139R,0.05000X0.02500*%
%ADD142C,0.27000*%
%ADD143C,0.02362*%
%ADD144O,0.04331X0.09449*%
%ADD145C,0.13780*%
%ADD146O,0.06890X0.09843*%
%ADD147C,0.05858*%
%ADD148R,0.05906X0.05906*%
%ADD149C,0.05906*%
%ADD150O,0.15748X0.07874*%
%ADD151O,0.07874X0.15748*%
%ADD152C,0.11811*%
%ADD153O,0.05906X0.07874*%
%ADD154C,0.06000*%
%ADD155R,0.05906X0.05906*%
D19*
X198146Y231000D02*
D03*
X203854D02*
D03*
X47146Y301000D02*
D03*
X52854D02*
D03*
X133146Y169000D02*
D03*
X138854D02*
D03*
X102779Y159500D02*
D03*
X97071D02*
D03*
X217646Y204000D02*
D03*
X223354D02*
D03*
X141646Y230731D02*
D03*
X147354D02*
D03*
X81146Y290530D02*
D03*
X86854D02*
D03*
X42789Y95506D02*
D03*
X48498D02*
D03*
X22354Y183000D02*
D03*
X16646D02*
D03*
X22354Y177000D02*
D03*
X16646D02*
D03*
X40354Y183000D02*
D03*
X34646D02*
D03*
X163018Y169000D02*
D03*
X157310D02*
D03*
X142146Y253500D02*
D03*
X147854D02*
D03*
X198646Y219500D02*
D03*
X204354D02*
D03*
X54854Y64500D02*
D03*
X49146D02*
D03*
X49146Y59500D02*
D03*
X54854D02*
D03*
X160646Y26000D02*
D03*
X166354D02*
D03*
X248146Y235000D02*
D03*
X253854D02*
D03*
X267146Y184500D02*
D03*
X272854D02*
D03*
X34646Y177500D02*
D03*
X40354D02*
D03*
X31146Y102000D02*
D03*
X36854D02*
D03*
X97146Y21500D02*
D03*
X102854D02*
D03*
X97071Y165500D02*
D03*
X102779D02*
D03*
X97146Y27000D02*
D03*
X102854D02*
D03*
X83646Y276000D02*
D03*
X89354D02*
D03*
X81146Y296500D02*
D03*
X86854D02*
D03*
D20*
X198000Y235146D02*
D03*
Y240854D02*
D03*
X46500Y334146D02*
D03*
Y339854D02*
D03*
X41000D02*
D03*
Y334146D02*
D03*
X79000Y307646D02*
D03*
Y313354D02*
D03*
X126000Y174500D02*
D03*
Y180209D02*
D03*
X155500Y25854D02*
D03*
Y20146D02*
D03*
X141500Y225354D02*
D03*
Y219646D02*
D03*
X147000Y225085D02*
D03*
Y219376D02*
D03*
X29500Y314646D02*
D03*
Y320354D02*
D03*
X35000Y314646D02*
D03*
Y320354D02*
D03*
X36500Y288500D02*
D03*
Y294209D02*
D03*
X46500Y288500D02*
D03*
Y294209D02*
D03*
X149251Y180854D02*
D03*
Y175146D02*
D03*
X141039Y247784D02*
D03*
Y242075D02*
D03*
X147000Y247784D02*
D03*
Y242075D02*
D03*
X197957Y208993D02*
D03*
Y214701D02*
D03*
X231013Y38902D02*
D03*
Y44610D02*
D03*
X221744Y38902D02*
D03*
Y44610D02*
D03*
X215244Y38902D02*
D03*
Y44610D02*
D03*
X171500Y20146D02*
D03*
Y25854D02*
D03*
X228000Y119039D02*
D03*
Y124748D02*
D03*
X254000Y223146D02*
D03*
Y228854D02*
D03*
X247000Y223146D02*
D03*
Y228854D02*
D03*
X254000Y242146D02*
D03*
Y247854D02*
D03*
X60000Y59354D02*
D03*
Y53646D02*
D03*
X44500Y134354D02*
D03*
Y128646D02*
D03*
X60500Y134354D02*
D03*
Y128646D02*
D03*
X193500Y111354D02*
D03*
Y105646D02*
D03*
X237454Y44610D02*
D03*
Y38902D02*
D03*
X73000Y313354D02*
D03*
Y307646D02*
D03*
D21*
X22000Y322339D02*
D03*
Y339661D02*
D03*
D22*
X42898Y322709D02*
D03*
X63291D02*
D03*
Y320740D02*
D03*
Y318772D02*
D03*
Y316803D02*
D03*
Y314835D02*
D03*
Y312866D02*
D03*
Y310898D02*
D03*
X42898D02*
D03*
Y312866D02*
D03*
Y314835D02*
D03*
Y316803D02*
D03*
Y318772D02*
D03*
Y320740D02*
D03*
D23*
X47189Y327000D02*
D03*
X59000Y306606D02*
D03*
X57032D02*
D03*
X55063D02*
D03*
X53095D02*
D03*
X51126D02*
D03*
X49158D02*
D03*
X47189D02*
D03*
X49158Y327000D02*
D03*
X51126D02*
D03*
X53095D02*
D03*
X55063D02*
D03*
X57032D02*
D03*
X59000D02*
D03*
D24*
X33000Y340201D02*
D03*
Y327799D02*
D03*
D25*
X30100Y260600D02*
D03*
X35100D02*
D03*
X40100D02*
D03*
X45100D02*
D03*
X50100D02*
D03*
X55100D02*
D03*
X60100D02*
D03*
X65100D02*
D03*
X70100D02*
D03*
X75100D02*
D03*
X80100D02*
D03*
X85100D02*
D03*
X90100D02*
D03*
X95100D02*
D03*
Y189700D02*
D03*
X90100D02*
D03*
X85100D02*
D03*
X80100D02*
D03*
X75100D02*
D03*
X70100D02*
D03*
X65100D02*
D03*
X60100D02*
D03*
X55100D02*
D03*
X50100D02*
D03*
X45100D02*
D03*
X40100D02*
D03*
X35100D02*
D03*
X30100D02*
D03*
D26*
X101200Y247600D02*
D03*
Y242600D02*
D03*
Y237600D02*
D03*
Y232600D02*
D03*
Y227600D02*
D03*
Y222600D02*
D03*
Y217600D02*
D03*
Y212600D02*
D03*
Y207600D02*
D03*
Y202600D02*
D03*
D27*
X59500Y228000D02*
D03*
D28*
X56831Y366992D02*
D03*
X59390D02*
D03*
X61949D02*
D03*
X54272D02*
D03*
X51713D02*
D03*
D29*
X69429Y370142D02*
D03*
X44232D02*
D03*
D30*
X61162Y379000D02*
D03*
X52500D02*
D03*
D31*
X72707Y325309D02*
D03*
X79793D02*
D03*
Y322750D02*
D03*
Y320191D02*
D03*
X72707D02*
D03*
Y322750D02*
D03*
D32*
X159075Y290347D02*
D03*
X162224D02*
D03*
X152776D02*
D03*
X155925D02*
D03*
Y283653D02*
D03*
X152776D02*
D03*
X162224D02*
D03*
X159075D02*
D03*
X100575Y290846D02*
D03*
X103724D02*
D03*
X94276D02*
D03*
X97425D02*
D03*
Y284154D02*
D03*
X94276D02*
D03*
X103724D02*
D03*
X100575D02*
D03*
D33*
X294963Y93000D02*
D03*
Y88000D02*
D03*
Y83000D02*
D03*
Y78000D02*
D03*
Y73000D02*
D03*
Y68000D02*
D03*
Y63000D02*
D03*
Y58000D02*
D03*
X323037Y93000D02*
D03*
Y88000D02*
D03*
Y83000D02*
D03*
Y78000D02*
D03*
Y73000D02*
D03*
Y68000D02*
D03*
Y63000D02*
D03*
Y58000D02*
D03*
D34*
X35342Y39000D02*
D03*
X58658D02*
D03*
X63108Y164000D02*
D03*
X86425D02*
D03*
D35*
X311347Y103925D02*
D03*
Y100776D02*
D03*
Y110224D02*
D03*
Y107075D02*
D03*
X304654D02*
D03*
Y110224D02*
D03*
Y100776D02*
D03*
Y103925D02*
D03*
X311151Y44463D02*
D03*
Y41313D02*
D03*
Y50762D02*
D03*
Y47613D02*
D03*
X304458D02*
D03*
Y50762D02*
D03*
Y41313D02*
D03*
Y44463D02*
D03*
D36*
X184541Y223383D02*
D03*
X180801D02*
D03*
X177061D02*
D03*
Y211572D02*
D03*
X184541D02*
D03*
Y234594D02*
D03*
X177061D02*
D03*
Y246406D02*
D03*
X180801D02*
D03*
X184541D02*
D03*
D37*
X67394Y51610D02*
D03*
Y134288D02*
D03*
X186291Y134287D02*
D03*
X67394Y55547D02*
D03*
Y59484D02*
D03*
Y63421D02*
D03*
Y67358D02*
D03*
Y71295D02*
D03*
Y75232D02*
D03*
Y79169D02*
D03*
Y83106D02*
D03*
Y87043D02*
D03*
Y90980D02*
D03*
Y94917D02*
D03*
Y98854D02*
D03*
Y102791D02*
D03*
Y106728D02*
D03*
Y110665D02*
D03*
Y114602D02*
D03*
Y118539D02*
D03*
Y122476D02*
D03*
Y126413D02*
D03*
Y130350D02*
D03*
X186291D02*
D03*
Y126413D02*
D03*
Y122476D02*
D03*
Y118539D02*
D03*
Y114602D02*
D03*
Y110665D02*
D03*
Y106728D02*
D03*
Y102791D02*
D03*
Y98854D02*
D03*
Y94917D02*
D03*
Y90980D02*
D03*
Y87043D02*
D03*
Y83106D02*
D03*
Y79169D02*
D03*
Y75232D02*
D03*
Y71295D02*
D03*
Y67358D02*
D03*
Y63421D02*
D03*
Y59484D02*
D03*
Y55547D02*
D03*
D38*
X168181Y152398D02*
D03*
X85504D02*
D03*
Y33500D02*
D03*
X168181D02*
D03*
X164244D02*
D03*
X160307D02*
D03*
X156370D02*
D03*
X152433D02*
D03*
X148496D02*
D03*
X144559D02*
D03*
X140622D02*
D03*
X136685D02*
D03*
X132748D02*
D03*
X128811D02*
D03*
X124874D02*
D03*
X120937D02*
D03*
X117000D02*
D03*
X113063D02*
D03*
X109126D02*
D03*
X105189D02*
D03*
X101252D02*
D03*
X97315D02*
D03*
X93378D02*
D03*
X89441D02*
D03*
Y152398D02*
D03*
X93378D02*
D03*
X97315D02*
D03*
X101252D02*
D03*
X105189D02*
D03*
X109126D02*
D03*
X113063D02*
D03*
X117000D02*
D03*
X120937D02*
D03*
X124874D02*
D03*
X128811D02*
D03*
X132748D02*
D03*
X136685D02*
D03*
X140622D02*
D03*
X144559D02*
D03*
X148496D02*
D03*
X152433D02*
D03*
X156370D02*
D03*
X160307D02*
D03*
X164244D02*
D03*
D39*
X237984Y32685D02*
D03*
X230504D02*
D03*
X234244Y23827D02*
D03*
X278740Y32429D02*
D03*
X271260D02*
D03*
X275000Y23571D02*
D03*
X177500Y291429D02*
D03*
X181240Y282571D02*
D03*
X173760D02*
D03*
X333000Y24071D02*
D03*
X329260Y32929D02*
D03*
X336740D02*
D03*
X364621Y24071D02*
D03*
X360881Y32929D02*
D03*
X368361D02*
D03*
X303500Y23571D02*
D03*
X299760Y32429D02*
D03*
X307240D02*
D03*
X22000Y299929D02*
D03*
X25740Y291071D02*
D03*
X18260D02*
D03*
X222484Y32685D02*
D03*
X215004D02*
D03*
X218744Y23827D02*
D03*
D40*
X204000Y124256D02*
D03*
Y118744D02*
D03*
X240000Y119244D02*
D03*
Y124756D02*
D03*
X198000Y124756D02*
D03*
Y119244D02*
D03*
X189000Y257244D02*
D03*
Y262756D02*
D03*
X216000Y86756D02*
D03*
Y81244D02*
D03*
X268500Y115500D02*
D03*
Y121012D02*
D03*
X277000Y89244D02*
D03*
Y94756D02*
D03*
X284000Y77244D02*
D03*
Y82756D02*
D03*
X249000Y121000D02*
D03*
Y115488D02*
D03*
X284000Y89000D02*
D03*
Y94512D02*
D03*
X213500Y283744D02*
D03*
Y289256D02*
D03*
X354504Y25244D02*
D03*
Y30756D02*
D03*
X348844Y25244D02*
D03*
Y30756D02*
D03*
X322869Y25244D02*
D03*
Y30756D02*
D03*
X317225Y25244D02*
D03*
Y30756D02*
D03*
X293500Y25244D02*
D03*
Y30756D02*
D03*
X288000Y25244D02*
D03*
Y30756D02*
D03*
X265000Y25244D02*
D03*
Y30756D02*
D03*
X259000Y25244D02*
D03*
Y30756D02*
D03*
D41*
X136000Y182437D02*
D03*
X139740Y174563D02*
D03*
X132260D02*
D03*
X156424D02*
D03*
X163904D02*
D03*
X160164Y182437D02*
D03*
X238000Y67063D02*
D03*
X234260Y74937D02*
D03*
X241740D02*
D03*
D42*
X337386Y375500D02*
D03*
X360614D02*
D03*
D43*
X80244Y351000D02*
D03*
X85756D02*
D03*
X80244Y331330D02*
D03*
X85756D02*
D03*
X85756Y382500D02*
D03*
X80244D02*
D03*
X80244Y360631D02*
D03*
X85756D02*
D03*
X226756Y60000D02*
D03*
X221244D02*
D03*
X221244Y65500D02*
D03*
X226756D02*
D03*
X221244Y76000D02*
D03*
X226756D02*
D03*
X221244Y71000D02*
D03*
X226756D02*
D03*
X24256Y277500D02*
D03*
X18744D02*
D03*
X24256Y284000D02*
D03*
X18744D02*
D03*
X258256Y315500D02*
D03*
X252744D02*
D03*
X258756Y372500D02*
D03*
X253244D02*
D03*
X180256Y276131D02*
D03*
X174744D02*
D03*
D44*
X81563Y375240D02*
D03*
Y367760D02*
D03*
X89437Y371500D02*
D03*
X89937Y341500D02*
D03*
X82063Y337760D02*
D03*
Y345240D02*
D03*
D45*
X263811Y248886D02*
D03*
Y242193D02*
D03*
Y235500D02*
D03*
Y228807D02*
D03*
Y222114D02*
D03*
D46*
X74000Y296134D02*
D03*
Y287866D02*
D03*
X227000Y213866D02*
D03*
Y222134D02*
D03*
X48000Y273500D02*
D03*
Y281768D02*
D03*
X38500Y273866D02*
D03*
Y282134D02*
D03*
X276500Y116634D02*
D03*
Y108366D02*
D03*
D47*
X313870Y139000D02*
D03*
X285130D02*
D03*
D48*
X153626Y223231D02*
D03*
X169375D02*
D03*
X153626Y246410D02*
D03*
X169375D02*
D03*
D49*
X133043Y219231D02*
D03*
X125957D02*
D03*
X133043Y227731D02*
D03*
X125957D02*
D03*
X131682Y251196D02*
D03*
X124595D02*
D03*
X131543Y242219D02*
D03*
X124457D02*
D03*
X204457Y238000D02*
D03*
X211543D02*
D03*
X204957Y210500D02*
D03*
X212043D02*
D03*
X253457Y59500D02*
D03*
X260543D02*
D03*
X253457Y68500D02*
D03*
X260543D02*
D03*
X253457Y77500D02*
D03*
X260543D02*
D03*
X253500Y86500D02*
D03*
X260587D02*
D03*
D50*
X25366Y110500D02*
D03*
X33634D02*
D03*
D51*
X38324Y163500D02*
D03*
X10676D02*
D03*
D52*
X257000Y102000D02*
D03*
D53*
X245550Y94500D02*
D03*
Y99500D02*
D03*
Y104500D02*
D03*
Y109500D02*
D03*
X268450D02*
D03*
Y104500D02*
D03*
Y99500D02*
D03*
Y94500D02*
D03*
D54*
X229500Y98875D02*
D03*
Y83126D02*
D03*
D55*
X206000Y283413D02*
D03*
X196000D02*
D03*
X206000Y247587D02*
D03*
X196000D02*
D03*
X250819Y326587D02*
D03*
X260819D02*
D03*
X250819Y362413D02*
D03*
X260819D02*
D03*
D56*
X110799Y24500D02*
D03*
X123201D02*
D03*
X85201Y176500D02*
D03*
X72799D02*
D03*
D57*
X35000Y65307D02*
D03*
Y53693D02*
D03*
X197500Y20693D02*
D03*
Y32307D02*
D03*
X32000Y128693D02*
D03*
Y140307D02*
D03*
D58*
X41004Y59500D02*
D03*
X191496Y26500D02*
D03*
X38004Y134500D02*
D03*
D59*
X49500Y143429D02*
D03*
Y139571D02*
D03*
D60*
X214953Y111000D02*
D03*
X209047D02*
D03*
X59000Y95500D02*
D03*
X53095D02*
D03*
X49547Y134500D02*
D03*
X55453D02*
D03*
D61*
X210000Y124453D02*
D03*
Y118547D02*
D03*
X234000Y118941D02*
D03*
Y124846D02*
D03*
D62*
X299059Y168736D02*
D03*
X299000Y198500D02*
D03*
D63*
X261374Y198000D02*
D03*
X245626D02*
D03*
D64*
X311201Y286500D02*
D03*
X273799D02*
D03*
D65*
X146000Y301537D02*
D03*
X141000D02*
D03*
X136000D02*
D03*
X131000D02*
D03*
X126000D02*
D03*
X121000D02*
D03*
X116000D02*
D03*
X111000D02*
D03*
X146000Y273463D02*
D03*
X141000D02*
D03*
X136000D02*
D03*
X131000D02*
D03*
X126000D02*
D03*
X121000D02*
D03*
X116000D02*
D03*
X111000D02*
D03*
D66*
X215378Y124452D02*
D03*
X222621Y124452D02*
D03*
X222621Y121894D02*
D03*
X222621Y119334D02*
D03*
X215378Y119334D02*
D03*
X215378Y121893D02*
D03*
D67*
X218252Y184043D02*
D03*
X252898D02*
D03*
Y137957D02*
D03*
X218252D02*
D03*
D68*
X202102Y173506D02*
D03*
Y168506D02*
D03*
Y163506D02*
D03*
Y158506D02*
D03*
Y153506D02*
D03*
Y148506D02*
D03*
D69*
X51929Y103260D02*
D03*
Y110740D02*
D03*
X43071Y107000D02*
D03*
D138*
X53095Y316803D02*
D03*
D139*
X304500Y235500D02*
D03*
D142*
X402500Y17500D02*
D03*
Y370500D02*
D03*
X17500Y370000D02*
D03*
Y17500D02*
D03*
D143*
X48957Y370732D02*
D03*
X64705D02*
D03*
D144*
X45709Y378999D02*
D03*
X67953D02*
D03*
D145*
X372000Y55335D02*
D03*
Y339665D02*
D03*
X220000Y344657D02*
D03*
X175000D02*
D03*
D146*
X49079Y16000D02*
D03*
X58921D02*
D03*
D147*
X225726Y285362D02*
D03*
X237545Y285339D02*
D03*
X249340Y285343D02*
D03*
Y264480D02*
D03*
X237565Y264500D02*
D03*
X225726D02*
D03*
D148*
X6500Y315000D02*
D03*
Y271500D02*
D03*
D149*
Y325000D02*
D03*
Y335000D02*
D03*
Y345000D02*
D03*
Y281500D02*
D03*
Y291500D02*
D03*
Y301500D02*
D03*
X243500Y8000D02*
D03*
X253500D02*
D03*
X263500D02*
D03*
X273500D02*
D03*
X283500D02*
D03*
X293500D02*
D03*
X303500D02*
D03*
X313500D02*
D03*
X323500D02*
D03*
X333500D02*
D03*
X343500D02*
D03*
X353500D02*
D03*
X363500D02*
D03*
X373500D02*
D03*
X222000D02*
D03*
X212000D02*
D03*
X202000D02*
D03*
X192000D02*
D03*
X182000D02*
D03*
X172000D02*
D03*
X162000D02*
D03*
X152000D02*
D03*
X142000D02*
D03*
X132000D02*
D03*
X122000D02*
D03*
X112000D02*
D03*
X102000D02*
D03*
X92000D02*
D03*
D150*
X296500Y358500D02*
D03*
Y333500D02*
D03*
D151*
X278500Y345500D02*
D03*
D152*
X228425Y332650D02*
D03*
X166614D02*
D03*
D153*
X185000Y319657D02*
D03*
X195000D02*
D03*
X205000D02*
D03*
X215000D02*
D03*
X180000Y309658D02*
D03*
X190000D02*
D03*
X200000D02*
D03*
X210000D02*
D03*
D154*
X132500Y332500D02*
D03*
X122500D02*
D03*
X127500Y322500D02*
D03*
X117500D02*
D03*
D155*
X233500Y8000D02*
D03*
X82000D02*
D03*
M02*
