G04*
G04 #@! TF.GenerationSoftware,Altium Limited,Altium Designer,21.6.4 (81)*
G04*
G04 Layer_Color=16711935*
%FSLAX25Y25*%
%MOIN*%
G70*
G04*
G04 #@! TF.SameCoordinates,2A81184C-DEB4-4CFB-8C3F-066722EA72C9*
G04*
G04*
G04 #@! TF.FilePolarity,Positive*
G04*
G01*
G75*
%ADD13C,0.01968*%
%ADD15C,0.00787*%
D13*
X249343Y265501D02*
X248491Y265009D01*
Y264024D01*
X249343Y263532D01*
X250196Y264024D01*
Y265009D01*
X249343Y265501D01*
X248491Y265009D01*
Y264024D01*
X249343Y263532D01*
X250196Y264024D01*
Y265009D01*
X249343Y265501D01*
Y286367D02*
X248491Y285875D01*
Y284891D01*
X249343Y284398D01*
X250196Y284891D01*
Y285875D01*
X249343Y286367D01*
X248491Y285875D01*
Y284891D01*
X249343Y284398D01*
X250196Y284891D01*
Y285875D01*
X249343Y286367D01*
X237532Y265501D02*
X236680Y265009D01*
Y264024D01*
X237532Y263532D01*
X238385Y264024D01*
Y265009D01*
X237532Y265501D01*
X236680Y265009D01*
Y264024D01*
X237532Y263532D01*
X238385Y264024D01*
Y265009D01*
X237532Y265501D01*
Y286367D02*
X236680Y285875D01*
Y284891D01*
X237532Y284398D01*
X238385Y284891D01*
Y285875D01*
X237532Y286367D01*
X236680Y285875D01*
Y284891D01*
X237532Y284398D01*
X238385Y284891D01*
Y285875D01*
X237532Y286367D01*
X225721Y265501D02*
X224869Y265009D01*
Y264024D01*
X225721Y263532D01*
X226574Y264024D01*
Y265009D01*
X225721Y265501D01*
X224869Y265009D01*
Y264024D01*
X225721Y263532D01*
X226574Y264024D01*
Y265009D01*
X225721Y265501D01*
Y286367D02*
X224869Y285875D01*
Y284891D01*
X225721Y284398D01*
X226574Y284891D01*
Y285875D01*
X225721Y286367D01*
X224869Y285875D01*
Y284891D01*
X225721Y284398D01*
X226574Y284891D01*
Y285875D01*
X225721Y286367D01*
X116528Y322520D02*
X117020Y321668D01*
X118005D01*
X118497Y322520D01*
X118005Y323373D01*
X117020D01*
X116528Y322520D01*
X117020Y321668D01*
X118005D01*
X118497Y322520D01*
X118005Y323373D01*
X117020D01*
X116528Y322520D01*
X121528Y332521D02*
X122020Y331668D01*
X123005D01*
X123497Y332521D01*
X123005Y333373D01*
X122020D01*
X121528Y332521D01*
X122020Y331668D01*
X123005D01*
X123497Y332521D01*
X123005Y333373D01*
X122020D01*
X121528Y332521D01*
X126528Y322520D02*
X127021Y321668D01*
X128005D01*
X128497Y322520D01*
X128005Y323373D01*
X127021D01*
X126528Y322520D01*
X127021Y321668D01*
X128005D01*
X128497Y322520D01*
X128005Y323373D01*
X127021D01*
X126528Y322520D01*
X131528Y332521D02*
X132020Y331668D01*
X133005D01*
X133497Y332521D01*
X133005Y333373D01*
X132020D01*
X131528Y332521D01*
X132020Y331668D01*
X133005D01*
X133497Y332521D01*
X133005Y333373D01*
X132020D01*
X131528Y332521D01*
D15*
X39433Y6650D02*
X68567D01*
X39433D02*
Y29288D01*
X68567D01*
Y6650D02*
Y29288D01*
X166004Y387413D02*
X228996D01*
X166004Y302768D02*
Y387413D01*
Y302768D02*
X228996D01*
Y387413D01*
M02*
