G04*
G04 #@! TF.GenerationSoftware,Altium Limited,Altium Designer,21.6.4 (81)*
G04*
G04 Layer_Color=32768*
%FSLAX25Y25*%
%MOIN*%
G70*
G04*
G04 #@! TF.SameCoordinates,2A81184C-DEB4-4CFB-8C3F-066722EA72C9*
G04*
G04*
G04 #@! TF.FilePolarity,Positive*
G04*
G01*
G75*
%ADD157C,0.00050*%
D157*
X111410Y357521D02*
X111331Y358521D01*
X111097Y359497D01*
X110713Y360425D01*
X110188Y361281D01*
X109536Y362044D01*
X108773Y362696D01*
X107917Y363221D01*
X106990Y363605D01*
X106013Y363839D01*
X105013Y363918D01*
X104012Y363839D01*
X103036Y363605D01*
X102108Y363221D01*
X101252Y362696D01*
X100489Y362044D01*
X99837Y361281D01*
X99312Y360425D01*
X98928Y359497D01*
X98694Y358521D01*
X98615Y357521D01*
X98694Y356520D01*
X98928Y355543D01*
X99312Y354616D01*
X99837Y353760D01*
X100489Y352997D01*
X101252Y352345D01*
X102108Y351820D01*
X103036Y351436D01*
X104012Y351202D01*
X105013Y351123D01*
X106013Y351202D01*
X106990Y351436D01*
X107917Y351820D01*
X108773Y352345D01*
X109536Y352997D01*
X110188Y353760D01*
X110713Y354616D01*
X111097Y355543D01*
X111331Y356520D01*
X111410Y357521D01*
X151410D02*
X151331Y358521D01*
X151097Y359497D01*
X150713Y360425D01*
X150188Y361281D01*
X149536Y362044D01*
X148773Y362696D01*
X147917Y363221D01*
X146990Y363605D01*
X146013Y363839D01*
X145013Y363918D01*
X144012Y363839D01*
X143036Y363605D01*
X142108Y363221D01*
X141252Y362696D01*
X140489Y362044D01*
X139837Y361281D01*
X139312Y360425D01*
X138928Y359497D01*
X138694Y358521D01*
X138615Y357521D01*
X138694Y356520D01*
X138928Y355543D01*
X139312Y354616D01*
X139837Y353760D01*
X140489Y352997D01*
X141252Y352345D01*
X142108Y351820D01*
X143036Y351436D01*
X144012Y351202D01*
X145013Y351123D01*
X146013Y351202D01*
X146990Y351436D01*
X147917Y351820D01*
X148773Y352345D01*
X149536Y352997D01*
X150188Y353760D01*
X150713Y354616D01*
X151097Y355543D01*
X151331Y356520D01*
X151410Y357521D01*
M02*
